<svg id="Layer_1" data-name="Layer 1" xmlns="http://www.w3.org/2000/svg" viewBox="0 0 732 768"><defs><style>.cls-1,.cls-5{fill:#006dff;}.cls-1,.cls-6{stroke:#006dff;stroke-width:13px;}.cls-1,.cls-3,.cls-6{stroke-linecap:round;stroke-linejoin:round;}.cls-2,.cls-6{fill:none;}.cls-2,.cls-3{stroke:#fff;}.cls-2{stroke-miterlimit:10;stroke-width:11.51px;}.cls-3,.cls-4{fill:#fff;}.cls-3{stroke-width:3px;}</style></defs><title>discipline_icons</title><path class="cls-1" d="M450,188.43s-59.5,2.26-107.5,9.4V330.89s15.65,50.37,44.36,79.69,70,42.1,70,42.1,35.79-12.78,64.5-42.1,36.18-79.69,36.18-79.69V197.83C517.5,190.69,450,188.43,450,188.43Z"/><path class="cls-2" d="M386.19,287.27s5.28-12.83,18.11-12.83,19.62,12.83,19.62,12.83"/><path class="cls-2" d="M488.81,287.27s5.28-12.83,18.11-12.83,19.62,12.83,19.62,12.83"/><path class="cls-3" d="M510.94,384.5s-21.1-49.41-52.39-49.41c-41.17,0-56.26,49.41-56.26,49.41H510.94Z"/><path class="cls-4" d="M300.12,389.77a6.5,6.5,0,0,1-1.93-.29c-1.74-.54-42.92-13.61-72.44-43.76s-44.83-80.24-45.47-82.36a6.49,6.49,0,0,1-.28-1.88V128.41a6.5,6.5,0,0,1,5.55-6.43c48.08-7.11,107.74-9.44,108.33-9.46h0.46c2.77,0.09,68.14,2.35,108.42,9.49a6.39,6.39,0,0,1,5.23,6.4V261.48a6.55,6.55,0,0,1,.05,1c-0.34,2.14-8.55,52.77-38.37,83.22-29.43,30.05-65.89,43.14-67.43,43.68A6.31,6.31,0,0,1,300.12,389.77Z"/><path class="cls-5" d="M294,119s67,2.26,108,9.4V261.48s-8.07,50.37-36.78,79.69-65,42.1-65,42.1-41.3-12.78-70-42.1S186,261.48,186,261.48V128.41c49-7.14,108-9.4,108-9.4m0.13-13h-0.49c-2.45.09-60.86,2.36-109.29,9.53A13.22,13.22,0,0,0,173,128.41V261.48a13.35,13.35,0,0,0,.8,3.75c0.66,2.18,16.58,53.79,47.17,85s73.41,44.85,75.21,45.42a13.15,13.15,0,0,0,8.23-.15c1.6-.56,39.48-14.14,70-45.27,31.26-31.92,40-84.53,40.34-86.76a13.18,13.18,0,0,0,.28-2V128.41a13.11,13.11,0,0,0-10.85-12.8c-40.73-7.22-106.74-9.5-109.52-9.59h-0.49Z"/><path class="cls-6" d="M226.24,220.87S231.52,208,244.35,208,264,220.87,264,220.87"/><path class="cls-6" d="M328.85,220.87S334.13,208,347,208s19.62,12.83,19.62,12.83"/><path class="cls-6" d="M351,286.5s-15.09,49.41-56.26,49.41c-31.3,0-52.39-49.41-52.39-49.41H351Z"/></svg>