<?xml version="1.0" encoding="utf-8"?>
<!-- Generator: Adobe Illustrator 19.2.0, SVG Export Plug-In . SVG Version: 6.00 Build 0)  -->
<svg version="1.1" id="Layer_1" xmlns="http://www.w3.org/2000/svg" xmlns:xlink="http://www.w3.org/1999/xlink" x="0px" y="0px"
	 viewBox="0 0 448 432" style="enable-background:new 0 0 448 432;" xml:space="preserve">
<style type="text/css">
	.st0{fill:#006DFF;}
</style>
<g>
	<path class="st0" d="M417.8,120.4c-39.6-7.1-107-9.4-107.7-9.4c0,0-0.1,0-0.1,0c-0.2,0-14.7,0.6-34.9,2V52.4
		c0-6.3-4.6-11.7-10.9-12.8c-40.7-7.2-106.7-9.5-109.5-9.6c-0.1,0-0.4,0-0.5,0c-0.2,0-0.3,0-0.5,0c-2.5,0.1-60.9,2.4-109.3,9.5
		C38,40.5,33,46,33,52.4v133.1c0,1.3,0.4,2.5,0.8,3.8c0.7,2.2,16.6,53.8,47.2,85c30.7,31.3,73.4,44.9,75.2,45.4
		c1.3,0.4,2.6,0.6,3.9,0.6c1.5,0,2.9-0.2,4.3-0.7c1.3-0.5,25.8-9.3,51.2-28.7c7,14.1,17.2,31.6,30.2,44.8
		c28.6,29.3,70.2,42.4,70.6,42.5c0.1,0,0.3,0.1,0.4,0.1c0.2,0,0.3,0,0.5-0.1c0.4-0.1,36.4-13.2,65.1-42.5
		c28.7-29.3,36.5-80,36.6-80.5c0-0.1,0-0.1,0-0.2V121.8C419,121.1,418.5,120.5,417.8,120.4z M262,185.5c0,0-5,31.1-21,58.6
		c-3.9,5.7-7.8,11.3-11.5,16.4c-1.4,1.6-2.8,3.2-4.3,4.7c-28.7,29.3-65,42.1-65,42.1s-41.3-12.8-70-42.1
		C61.5,235.8,46,185.5,46,185.5V52.4C95,45.3,154,43,154,43s67,2.3,108,9.4V185.5z M268.4,193.1c16,0,20,14.8,20.4,15.5l-10.1,5.4
		c0-0.1-5.7-9.8-14.7-9.8L268.4,193.1z M264.4,307c3.3-9,19.2-46.4,54.1-46.4c26.3,0,45.6,37.1,50.1,46.4H264.4z M381.4,214
		c0-0.1-5.4-9.8-14.5-9.8c-8.9,0-12.7,9.2-12.8,9.3l-10.6-4.4c0.3-0.7,6.9-16.4,23.4-16.4c16.1,0,24.4,15.2,24.7,15.9L381.4,214z"/>
	<path class="st0" d="M104.3,138.5c8.7,0,13.8,9.3,13.9,9.4c1.7,3.2,5.6,4.4,8.8,2.7c3.2-1.7,4.4-5.6,2.7-8.8
		c-0.4-0.7-8.8-16.3-25.4-16.3c-17,0-23.8,16.2-24.1,16.9c-1.4,3.3,0.2,7.1,3.5,8.5c0.8,0.3,1.7,0.5,2.5,0.5c2.5,0,5-1.5,6-4
		C92.4,147,96.1,138.5,104.3,138.5z"/>
	<path class="st0" d="M186.4,150.9c0.8,0.3,1.7,0.5,2.5,0.5c2.5,0,5-1.5,6-4c0.2-0.4,3.9-8.8,12.1-8.8c8.7,0,13.8,9.3,13.9,9.4
		c1.7,3.2,5.6,4.4,8.8,2.7c3.2-1.7,4.4-5.6,2.7-8.8c-0.4-0.7-8.8-16.3-25.4-16.3c-17,0-23.8,16.2-24.1,16.9
		C181.5,145.7,183,149.5,186.4,150.9z"/>
	<path class="st0" d="M211,204H102.3c-2.2,0-4.2,1.1-5.4,2.9c-1.2,1.8-1.4,4.1-0.6,6.1c0.9,2.2,23.2,53.4,58.4,53.4
		c19,0,35.9-9.5,48.8-27.4c9.4-13.1,13.5-26.1,13.6-26.6c0.6-2,0.2-4.1-1-5.8C215,205,213,204,211,204z"/>
</g>
</svg>
