<?xml version="1.0" encoding="utf-8"?>
<!-- Generator: Adobe Illustrator 19.2.0, SVG Export Plug-In . SVG Version: 6.00 Build 0)  -->
<svg version="1.1" id="Layer_1" xmlns="http://www.w3.org/2000/svg" xmlns:xlink="http://www.w3.org/1999/xlink" x="0px" y="0px"
	 viewBox="0 0 712 423.8" style="enable-background:new 0 0 712 423.8;" xml:space="preserve">
<style type="text/css">
	.st0{fill:#006DFF;}
</style>
<path class="st0" d="M523.1,177.9L523.1,177.9c-1.2-14.4-9.9-27.7-25-38.6c0.1-1,0.2-2,0.2-3c0-17.1-13.9-30.9-30.9-30.9
	c-9.4,0-18.2,4.3-24,11.5c-26.4-5.8-56.6-7.5-87.5-4.9c-42.1,3.6-81.1,14.8-109.8,31.6c-30.2,17.7-45.8,39.6-43.9,61.8
	c1.9,22.2,21,41.1,53.7,53.4c24.1,9,53.6,13.7,85.3,13.7c9.3,0,18.7-0.4,28.3-1.2c42.1-3.6,81.1-14.8,109.8-31.6
	C509.4,222,525,200.1,523.1,177.9z M485.2,136.3c0,1.5-0.2,3-0.6,4.4c-2,7.9-9.2,13.5-17.4,13.5c-9.9,0-17.9-8-17.9-17.9
	c0-0.4,0-0.8,0-1.2c0.2-2.7,1-5.4,2.3-7.7l0,0c3.2-5.6,9.2-9,15.6-9C477.1,118.4,485.2,126.5,485.2,136.3z M472.6,228.5
	c-27.1,15.8-64.1,26.5-104.3,29.9c-40.2,3.4-78.5-0.7-107.9-11.7c-27.4-10.2-43.9-25.7-45.3-42.3c-1.4-16.7,12.2-34.7,37.5-49.4
	c27.1-15.8,64.1-26.5,104.3-29.9c9.2-0.8,18.2-1.2,27.1-1.2c18.7,0,36.7,1.7,53.2,5.1c-0.1,0.3-0.1,0.6-0.2,0.8
	c-0.1,0.3-0.1,0.5-0.2,0.8c-0.1,0.4-0.1,0.8-0.2,1.2c0,0.2-0.1,0.5-0.1,0.7c-0.1,0.4-0.1,0.9-0.1,1.3c0,0.2,0,0.4-0.1,0.6
	c0,0.6-0.1,1.3-0.1,2c0,17.1,13.9,30.9,30.9,30.9c0.8,0,1.6,0,2.4-0.1c0.2,0,0.5,0,0.7-0.1c0.6-0.1,1.1-0.1,1.7-0.2
	c0.3,0,0.5-0.1,0.8-0.1c0.6-0.1,1.2-0.2,1.7-0.4c0.2,0,0.4-0.1,0.6-0.1c0.7-0.2,1.5-0.4,2.2-0.7c0.2-0.1,0.3-0.1,0.5-0.2
	c0.6-0.2,1.1-0.4,1.7-0.7c0.2-0.1,0.5-0.2,0.7-0.3c0.5-0.2,1-0.5,1.5-0.7c0.2-0.1,0.4-0.2,0.6-0.3c0.6-0.3,1.2-0.7,1.9-1.1
	c0,0,0.1,0,0.1-0.1c0.6-0.4,1.3-0.9,1.9-1.3c0.2-0.1,0.4-0.3,0.5-0.4c0.4-0.3,0.8-0.7,1.3-1.1c0.2-0.2,0.4-0.3,0.6-0.5
	c0.4-0.4,0.8-0.8,1.2-1.2c0.1-0.1,0.3-0.3,0.4-0.4c0.5-0.6,1-1.1,1.5-1.7c0.1-0.1,0.2-0.3,0.3-0.4c0.4-0.5,0.7-1,1.1-1.5
	c0.1-0.2,0.3-0.4,0.4-0.6c0.1-0.2,0.3-0.4,0.4-0.6c7.9,6.4,15.4,15.3,16.4,26.6v0C511.5,195.7,497.9,213.7,472.6,228.5z"/>
<g>
	<g>
		<path class="st0" d="M361.8,150.6c21.3,0,38.6,17.3,38.6,38.6c0,21.3-17.3,38.6-38.6,38.6c-21.3,0-38.6-17.3-38.6-38.6
			C323.2,167.9,340.5,150.6,361.8,150.6 M361.8,137.6c-28.5,0-51.6,23.2-51.6,51.6c0,28.5,23.2,51.6,51.6,51.6
			c28.5,0,51.6-23.2,51.6-51.6C413.4,160.7,390.3,137.6,361.8,137.6L361.8,137.6z"/>
	</g>
</g>
<path class="st0" d="M615.2,169.5L615.2,169.5c-2.8-32.4-32.2-60.1-82.7-78c-48.9-17.3-112.3-23.7-178.6-18
	c-77.5,6.6-147.3,28.6-192.6,60.6c-6.4-5.2-14.4-8.2-22.8-8.2c-19.9,0-36,16.2-36,36c0,10.9,4.8,20.9,12.9,27.6
	c-2.4,7.7-3.3,15.4-2.6,23.1c2.8,32.4,32.2,60.1,82.7,78c37.3,13.2,83,20.1,131.9,20.1c15.3,0,30.9-0.7,46.6-2
	c66.3-5.7,127.7-22.8,172.9-48.2C593.8,234.1,618,201.8,615.2,169.5z M138.5,138.8c6.6,0,13,2.9,17.3,7.9c3.7,4.2,5.7,9.6,5.7,15.1
	c0,12.7-10.3,23-23,23c-3.2,0-6.3-0.7-9.2-1.9c-0.1-0.1-0.3-0.1-0.4-0.2c-0.3-0.2-0.7-0.3-1-0.5c-0.5-0.2-0.9-0.5-1.4-0.8
	c-6.9-4.2-11-11.6-11-19.7C115.4,149.2,125.8,138.8,138.5,138.8z M540.6,249.1c-43.6,24.5-103.2,41-167.6,46.6
	c-64.5,5.5-126-0.6-173.1-17.3c-45.5-16.1-71.8-39.9-74.1-66.8c-0.4-5.1,0-10.2,1.3-15.4c0.5,0.2,1.1,0.3,1.6,0.5
	c0.1,0,0.2,0.1,0.3,0.1c0.7,0.2,1.4,0.4,2.1,0.5c0.1,0,0.1,0,0.2,0c0.7,0.1,1.4,0.3,2.2,0.4c0.1,0,0.3,0,0.4,0.1
	c0.7,0.1,1.4,0.2,2.1,0.2c0.1,0,0.3,0,0.4,0c0.7,0,1.5,0.1,2.2,0.1c19.9,0,36-16.2,36-36c0-0.7,0-1.4-0.1-2.1c0-0.2,0-0.4,0-0.6
	c0-0.6-0.1-1.2-0.2-1.8c0-0.1,0-0.2,0-0.3c-0.1-0.7-0.2-1.4-0.3-2c0-0.2-0.1-0.3-0.1-0.5c-0.1-0.6-0.2-1.1-0.4-1.7
	c0-0.1-0.1-0.3-0.1-0.4c-0.2-0.7-0.4-1.3-0.6-2c0-0.1-0.1-0.3-0.2-0.4c-0.2-0.5-0.4-1.1-0.6-1.6c-0.1-0.2-0.1-0.3-0.2-0.5
	c-0.3-0.6-0.5-1.3-0.8-1.9c-0.1-0.1-0.1-0.2-0.2-0.3c-0.3-0.5-0.5-1.1-0.8-1.6c0-0.1-0.1-0.2-0.1-0.3
	c43.1-29.9,111.7-51.3,185.3-57.6c64.5-5.5,126,0.6,173.1,17.3c45.5,16.1,71.8,39.9,74.1,66.8C604.6,197.6,582.7,225.4,540.6,249.1z
	"/>
<path class="st0" d="M697.3,169.1L697.3,169.1c-3.7-43.1-42.6-80.1-109.6-104.3C522.4,41.3,437.6,32.5,349,40.1
	c-88.6,7.6-170.7,30.7-231,65C56.1,140.4,24,183.5,27.7,226.6c3.7,43.1,42.6,80.1,109.6,104.3c50,18,111.4,27.4,177.2,27.4
	c20.2,0,40.7-0.9,61.5-2.7c55.1-4.7,108.9-15.7,156.1-31.9c5.9,11.2,17.7,18.6,30.6,18.6c19.1,0,34.6-15.5,34.6-34.6
	c0-3.7-0.6-7.4-1.8-10.9c32.2-16.8,57.4-35.7,75-56.3C690.4,217.3,699.4,193.3,697.3,169.1z M562.8,329.2c-9.5,0-18-6.4-20.7-15.5
	c-0.6-2-0.9-4-0.9-6c0-11.9,9.7-21.6,21.6-21.6c7.7,0,14.9,4.2,18.8,10.9c1.8,3.2,2.8,6.9,2.8,10.6
	C584.3,319.6,574.7,329.2,562.8,329.2z M589.2,285.4c-0.1-0.1-0.2-0.2-0.2-0.3c-0.2-0.2-0.3-0.4-0.5-0.6c-0.3-0.3-0.6-0.7-0.9-1
	c-0.2-0.2-0.4-0.4-0.5-0.6c-0.3-0.3-0.7-0.6-1-1c-0.2-0.2-0.3-0.3-0.5-0.5c-0.4-0.4-0.9-0.8-1.4-1.1c-0.1-0.1-0.2-0.1-0.3-0.2
	c-0.6-0.4-1.1-0.8-1.7-1.2c-0.2-0.1-0.3-0.2-0.5-0.3c-0.4-0.3-0.8-0.5-1.3-0.8c-0.2-0.1-0.4-0.3-0.7-0.4c-0.4-0.2-0.8-0.4-1.2-0.6
	c-0.2-0.1-0.5-0.2-0.7-0.3c-0.4-0.2-0.9-0.4-1.3-0.6c-0.2-0.1-0.4-0.2-0.6-0.3c-0.6-0.2-1.2-0.5-1.8-0.7c-0.1,0-0.1,0-0.2-0.1
	c-0.7-0.2-1.3-0.4-2-0.6c-0.2-0.1-0.4-0.1-0.6-0.2c-0.5-0.1-0.9-0.2-1.4-0.3c-0.3-0.1-0.5-0.1-0.8-0.1c-0.5-0.1-0.9-0.2-1.4-0.2
	c-0.3,0-0.5-0.1-0.8-0.1c-0.5-0.1-1-0.1-1.5-0.1c-0.2,0-0.5,0-0.7-0.1c-0.7,0-1.4-0.1-2.1-0.1c-19.1,0-34.6,15.5-34.6,34.6
	c0,0.7,0,1.5,0.1,2.2c0,0.2,0,0.4,0,0.6c0,0.3,0,0.5,0.1,0.8c-46.3,15.9-99.2,26.7-153.4,31.4c-86.8,7.4-169.6-1.1-233.2-24
	c-30.5-11-54.9-24.7-72.3-40.7c-17.5-16-27.2-33.7-28.8-52.4c-1.6-18.7,4.9-37.8,19.4-56.6c14.5-18.7,36.1-36.4,64.3-52.4
	C183.2,83,263.3,60.5,350.1,53.1c20.5-1.8,40.7-2.6,60.5-2.6c64.2,0,124.1,9.1,172.7,26.6c30.5,11,54.9,24.7,72.3,40.7
	c17.5,16,27.2,33.7,28.8,52.4v0C687.8,210.3,653.2,252.1,589.2,285.4z"/>
</svg>
