<svg id="Layer_1" data-name="Layer 1" xmlns="http://www.w3.org/2000/svg" viewBox="0 0 868 768"><defs><style>.cls-1{fill:none;}.cls-1,.cls-2{stroke:#006dff;stroke-miterlimit:10;stroke-width:13px;}.cls-2{fill:#fff;}.cls-3{fill:#006dff;}</style></defs><title>discipline_icons</title><ellipse class="cls-1" cx="442.6" cy="267.67" rx="154.55" ry="73.44" transform="translate(-21.25 38.8) rotate(-4.9)"/><circle class="cls-2" cx="547.26" cy="212.35" r="24.42"/><path class="cls-3" d="M441.79,226.56a38.64,38.64,0,1,1-38.64,38.64,38.64,38.64,0,0,1,38.64-38.64m0-13a51.64,51.64,0,1,0,51.64,51.64,51.7,51.7,0,0,0-51.64-51.64h0Z"/><ellipse class="cls-1" cx="444" cy="267.02" rx="245.65" ry="111.51" transform="translate(-21.19 38.92) rotate(-4.9)"/><circle class="cls-2" cx="218.47" cy="237.86" r="29.53"/><ellipse class="cls-1" cx="442.53" cy="273.85" rx="329.52" ry="151.8" transform="translate(-21.78 38.82) rotate(-4.9)"/><circle class="cls-2" cx="642.76" cy="383.67" r="28.07"/></svg>