<?xml version="1.0" encoding="utf-8"?>
<!-- Generator: Adobe Illustrator 19.2.0, SVG Export Plug-In . SVG Version: 6.00 Build 0)  -->
<svg version="1.1" id="Layer_1" xmlns="http://www.w3.org/2000/svg" xmlns:xlink="http://www.w3.org/1999/xlink" x="0px" y="0px"
	 viewBox="0 0 712 423.8" style="enable-background:new 0 0 712 423.8;" xml:space="preserve">
<style type="text/css">
	.st0{fill:#F9DC32;}
	.st1{fill:none;stroke:#006DFF;stroke-width:13.6756;stroke-linecap:round;stroke-linejoin:round;stroke-miterlimit:10;}
	.st2{fill:none;stroke:#006DFF;stroke-width:13;stroke-linecap:round;stroke-linejoin:round;stroke-miterlimit:10;}
	.st3{fill:#006DFF;}
	.st4{fill:none;stroke:#FFFFFF;stroke-width:13;stroke-linecap:round;stroke-linejoin:round;stroke-miterlimit:10;}
	.st5{fill:#FFFFFF;}
	.st6{fill:none;stroke:#006DFF;stroke-width:13;stroke-miterlimit:10;}
	.st7{fill:none;stroke:#FFFFFF;stroke-width:13;stroke-miterlimit:10;}
	.st8{fill:#5123AF;stroke:#FFFFFF;stroke-width:13;stroke-miterlimit:10;}
	.st9{fill:none;stroke:#006DFF;stroke-width:12;stroke-miterlimit:10;}
	.st10{fill:#006DFF;stroke:#006DFF;stroke-miterlimit:10;}
	.st11{fill:none;stroke:#FFFFFF;stroke-width:12;stroke-miterlimit:10;}
	.st12{fill:#FFFFFF;stroke:#FFFFFF;stroke-miterlimit:10;}
	.st13{fill:none;}
	.st14{fill:#FFFFFF;stroke:#006DFF;stroke-width:12;stroke-linecap:round;stroke-linejoin:round;stroke-miterlimit:10;}
	.st15{fill:none;stroke:#006DFF;stroke-width:12;stroke-linecap:round;stroke-linejoin:round;stroke-miterlimit:10;}
	.st16{fill:#EAE050;stroke:#FFFFFF;stroke-width:12;stroke-linecap:round;stroke-linejoin:round;stroke-miterlimit:10;}
	.st17{fill:none;stroke:#FFFFFF;stroke-width:12;stroke-linecap:round;stroke-linejoin:round;stroke-miterlimit:10;}
	.st18{fill:none;stroke:#006DFF;stroke-width:11.1252;stroke-linecap:round;stroke-linejoin:round;stroke-miterlimit:10;}
	.st19{fill:#006DFF;stroke:#006DFF;stroke-width:13;stroke-linecap:round;stroke-linejoin:round;stroke-miterlimit:10;}
	.st20{fill:none;stroke:#FFFFFF;stroke-width:11.5112;stroke-miterlimit:10;}
	.st21{fill:#FFFFFF;stroke:#FFFFFF;stroke-width:3;stroke-linecap:round;stroke-linejoin:round;stroke-miterlimit:10;}
	.st22{fill:#FFFFFF;stroke:#FFFFFF;stroke-width:13;stroke-linecap:round;stroke-linejoin:round;stroke-miterlimit:10;}
	.st23{fill:none;stroke:#AEA38A;stroke-width:11.5112;stroke-miterlimit:10;}
	.st24{fill:#AEA38A;stroke:#AEA38A;stroke-width:3;stroke-linecap:round;stroke-linejoin:round;stroke-miterlimit:10;}
	.st25{fill:#AEA38A;}
	.st26{fill:none;stroke:#006DFF;stroke-width:14.4715;stroke-linecap:round;stroke-linejoin:round;stroke-miterlimit:10;}
	.st27{fill:none;stroke:#006DFF;stroke-width:27;stroke-linecap:round;stroke-linejoin:round;stroke-miterlimit:10;}
	.st28{fill:none;stroke:#FFFFFF;stroke-width:14.0783;stroke-linecap:round;stroke-linejoin:round;stroke-miterlimit:10;}
	.st29{fill:none;stroke:#FFFFFF;stroke-width:14.655;stroke-linecap:round;stroke-linejoin:round;stroke-miterlimit:10;}
	.st30{fill:#F1413D;stroke:#FFFFFF;stroke-width:14.4715;stroke-linecap:round;stroke-linejoin:round;stroke-miterlimit:10;}
	.st31{fill:#F1413D;stroke:#FFFFFF;stroke-width:27;stroke-linecap:round;stroke-linejoin:round;stroke-miterlimit:10;}
	.st32{fill:#006DFF;stroke:#FFFFFF;stroke-width:14.0953;stroke-miterlimit:10;}
	.st33{fill:none;stroke:#006DFF;stroke-width:14.0953;stroke-linecap:round;stroke-miterlimit:10;}
	.st34{fill:none;stroke:#006DFF;stroke-width:14.7982;stroke-miterlimit:10;}
	.st35{fill:none;stroke:#006DFF;stroke-width:14.0953;stroke-miterlimit:10;}
	.st36{fill:#006DFF;stroke:#FFFFFF;stroke-width:14.0953;stroke-linecap:round;stroke-linejoin:round;stroke-miterlimit:10;}
	.st37{fill:#C46CC7;stroke:#FFFFFF;stroke-width:14.0953;stroke-miterlimit:10;}
	.st38{fill:#FFFFFF;stroke:#C46CC7;stroke-width:13;stroke-miterlimit:10;}
	.st39{fill:#FFFFFF;stroke:#C46CC7;stroke-width:14.0953;stroke-linecap:round;stroke-miterlimit:10;}
	.st40{fill:#FFFFFF;stroke:#C46CC7;stroke-width:14.7982;stroke-miterlimit:10;}
	.st41{fill:#FFFFFF;stroke:#C46CC7;stroke-width:14.0953;stroke-miterlimit:10;}
	.st42{fill:#C46CC7;stroke:#FFFFFF;stroke-width:14.0953;stroke-linecap:round;stroke-linejoin:round;stroke-miterlimit:10;}
	.st43{fill:#FFFFFF;stroke:#006DFF;stroke-miterlimit:10;}
	.st44{fill:#006DFF;stroke:#006DFF;stroke-width:12;stroke-miterlimit:10;}
	.st45{fill:#FFFFFF;stroke:#006DFF;stroke-width:12;stroke-miterlimit:10;}
	.st46{fill:#FFFFFF;stroke:#FFFFFF;stroke-width:12;stroke-miterlimit:10;}
	.st47{fill:#008080;stroke:#FFFFFF;stroke-width:12;stroke-miterlimit:10;}
	.st48{fill:none;stroke:#006DFF;stroke-width:11.9462;stroke-miterlimit:10;}
	.st49{fill:none;stroke:#FFFFFF;stroke-width:11.9462;stroke-miterlimit:10;}
	.st50{fill:#F9DC32;stroke:#FFFFFF;stroke-width:13;stroke-linecap:round;stroke-linejoin:round;stroke-miterlimit:10;}
	.st51{fill:#F9DC32;stroke:#FFFFFF;stroke-width:13;stroke-miterlimit:10;}
</style>
<g>
	<path class="st6" d="M516.6,178.5c-1.2-13.9-10.5-26.2-25.7-36.1c-2.7,10.6-12.3,18.4-23.7,18.4c-13.5,0-24.4-10.9-24.4-24.4
		c0-4.4,1.2-8.5,3.2-12.1c-25.8-6.2-56.8-8.5-89.7-5.7c-85,7.3-151.2,46-147.7,86.4c3.5,40.4,75.2,67.3,160.3,60
		C453.9,257.5,520.1,218.9,516.6,178.5z"/>
	<path class="st6" d="M467.3,111.9c-9.1,0-17,5-21.2,12.3c-2,3.6-3.2,7.7-3.2,12.1c0,13.5,10.9,24.4,24.4,24.4
		c11.4,0,21-7.8,23.7-18.4c0.5-1.9,0.8-3.9,0.8-6C491.7,122.9,480.8,111.9,467.3,111.9z"/>
</g>
<g>
	<path class="st3" d="M361.8,150.6c21.3,0,38.6,17.3,38.6,38.6c0,21.3-17.3,38.6-38.6,38.6c-21.3,0-38.6-17.3-38.6-38.6
		C323.2,167.9,340.5,150.6,361.8,150.6 M361.8,137.6c-28.5,0-51.6,23.2-51.6,51.6c0,28.5,23.2,51.6,51.6,51.6
		c28.5,0,51.6-23.2,51.6-51.6C413.4,160.7,390.3,137.6,361.8,137.6L361.8,137.6z"/>
</g>
<path class="st6" d="M608.8,170c-5.3-61.4-119.1-101.7-254.3-90.1c-81.2,7-151.6,31.1-193.8,62.5c4.5,5.2,7.3,12,7.3,19.4
	c0,16.3-13.2,29.5-29.5,29.5c-5.6,0-10.9-1.6-15.4-4.3c-3.2,8.2-4.6,16.5-3.9,24.9c5.3,61.4,119.1,101.7,254.3,90.1
	S614,231.4,608.8,170z"/>
<path class="st6" d="M160.7,142.5c-5.4-6.2-13.4-10.1-22.2-10.1c-16.3,0-29.5,13.2-29.5,29.5c0,10.7,5.7,20,14.2,25.2
	c4.5,2.7,9.7,4.3,15.4,4.3c16.3,0,29.5-13.2,29.5-29.5C168,154.4,165.2,147.6,160.7,142.5z"/>
<path class="st6" d="M690.8,169.7C683.7,86.2,530.9,31,349.6,46.6C168.2,62.2,27.1,142.5,34.2,226c7.2,83.5,160,138.6,341.3,123.1
	c58.9-5.1,113.6-16.9,160.3-33.6c-0.7-2.5-1.1-5.1-1.1-7.9c0-15.5,12.6-28.1,28.1-28.1c10.5,0,19.6,5.7,24.4,14.2
	C654.3,260.1,694.8,215.4,690.8,169.7z"/>
<path class="st6" d="M587.2,293.8c-4.8-8.5-13.9-14.2-24.4-14.2c-15.5,0-28.1,12.6-28.1,28.1c0,2.7,0.4,5.4,1.1,7.9
	c3.4,11.7,14.2,20.2,26.9,20.2c15.5,0,28.1-12.6,28.1-28.1C590.8,302.6,589.5,297.9,587.2,293.8z"/>
</svg>
