<?xml version="1.0" encoding="utf-8"?>
<!-- Generator: Adobe Illustrator 19.2.0, SVG Export Plug-In . SVG Version: 6.00 Build 0)  -->
<svg version="1.1" id="Layer_1" xmlns="http://www.w3.org/2000/svg" xmlns:xlink="http://www.w3.org/1999/xlink" x="0px" y="0px"
	 viewBox="0 0 336 412" style="enable-background:new 0 0 336 412;" xml:space="preserve">
<style type="text/css">
	.st0{fill:#F9DC32;}
	.st1{fill:none;stroke:#006DFF;stroke-width:13.6756;stroke-linecap:round;stroke-linejoin:round;stroke-miterlimit:10;}
	.st2{fill:none;stroke:#006DFF;stroke-width:13;stroke-linecap:round;stroke-linejoin:round;stroke-miterlimit:10;}
	.st3{fill:#006DFF;}
	.st4{fill:none;stroke:#FFFFFF;stroke-width:13;stroke-linecap:round;stroke-linejoin:round;stroke-miterlimit:10;}
	.st5{fill:#FFFFFF;}
	.st6{fill:none;stroke:#006DFF;stroke-width:13;stroke-miterlimit:10;}
	.st7{fill:none;stroke:#FFFFFF;stroke-width:13;stroke-miterlimit:10;}
	.st8{fill:#5123AF;stroke:#FFFFFF;stroke-width:13;stroke-miterlimit:10;}
	.st9{fill:none;stroke:#006DFF;stroke-width:12;stroke-miterlimit:10;}
	.st10{fill:#006DFF;stroke:#006DFF;stroke-miterlimit:10;}
	.st11{fill:none;stroke:#FFFFFF;stroke-width:12;stroke-miterlimit:10;}
	.st12{fill:#FFFFFF;stroke:#FFFFFF;stroke-miterlimit:10;}
	.st13{fill:none;}
	.st14{fill:#FFFFFF;stroke:#006DFF;stroke-width:12;stroke-linecap:round;stroke-linejoin:round;stroke-miterlimit:10;}
	.st15{fill:none;stroke:#006DFF;stroke-width:12;stroke-linecap:round;stroke-linejoin:round;stroke-miterlimit:10;}
	.st16{fill:#EAE050;stroke:#FFFFFF;stroke-width:12;stroke-linecap:round;stroke-linejoin:round;stroke-miterlimit:10;}
	.st17{fill:none;stroke:#FFFFFF;stroke-width:12;stroke-linecap:round;stroke-linejoin:round;stroke-miterlimit:10;}
	.st18{fill:none;stroke:#006DFF;stroke-width:11.1252;stroke-linecap:round;stroke-linejoin:round;stroke-miterlimit:10;}
	.st19{fill:#006DFF;stroke:#006DFF;stroke-width:13;stroke-linecap:round;stroke-linejoin:round;stroke-miterlimit:10;}
	.st20{fill:none;stroke:#FFFFFF;stroke-width:11.5112;stroke-miterlimit:10;}
	.st21{fill:#FFFFFF;stroke:#FFFFFF;stroke-width:3;stroke-linecap:round;stroke-linejoin:round;stroke-miterlimit:10;}
	.st22{fill:#FFFFFF;stroke:#FFFFFF;stroke-width:13;stroke-linecap:round;stroke-linejoin:round;stroke-miterlimit:10;}
	.st23{fill:none;stroke:#AEA38A;stroke-width:11.5112;stroke-miterlimit:10;}
	.st24{fill:#AEA38A;stroke:#AEA38A;stroke-width:3;stroke-linecap:round;stroke-linejoin:round;stroke-miterlimit:10;}
	.st25{fill:#AEA38A;}
	.st26{fill:none;stroke:#006DFF;stroke-width:14.4715;stroke-linecap:round;stroke-linejoin:round;stroke-miterlimit:10;}
	.st27{fill:none;stroke:#006DFF;stroke-width:27;stroke-linecap:round;stroke-linejoin:round;stroke-miterlimit:10;}
	.st28{fill:none;stroke:#FFFFFF;stroke-width:14.0783;stroke-linecap:round;stroke-linejoin:round;stroke-miterlimit:10;}
	.st29{fill:none;stroke:#FFFFFF;stroke-width:14.655;stroke-linecap:round;stroke-linejoin:round;stroke-miterlimit:10;}
	.st30{fill:#F1413D;stroke:#FFFFFF;stroke-width:14.4715;stroke-linecap:round;stroke-linejoin:round;stroke-miterlimit:10;}
	.st31{fill:#F1413D;stroke:#FFFFFF;stroke-width:27;stroke-linecap:round;stroke-linejoin:round;stroke-miterlimit:10;}
	.st32{fill:#006DFF;stroke:#FFFFFF;stroke-width:14.0953;stroke-miterlimit:10;}
	.st33{fill:none;stroke:#006DFF;stroke-width:14.0953;stroke-linecap:round;stroke-miterlimit:10;}
	.st34{fill:none;stroke:#006DFF;stroke-width:14.7982;stroke-miterlimit:10;}
	.st35{fill:none;stroke:#006DFF;stroke-width:14.0953;stroke-miterlimit:10;}
	.st36{fill:#006DFF;stroke:#FFFFFF;stroke-width:14.0953;stroke-linecap:round;stroke-linejoin:round;stroke-miterlimit:10;}
	.st37{fill:#C46CC7;stroke:#FFFFFF;stroke-width:14.0953;stroke-miterlimit:10;}
	.st38{fill:#FFFFFF;stroke:#C46CC7;stroke-width:13;stroke-miterlimit:10;}
	.st39{fill:#FFFFFF;stroke:#C46CC7;stroke-width:14.0953;stroke-linecap:round;stroke-miterlimit:10;}
	.st40{fill:#FFFFFF;stroke:#C46CC7;stroke-width:14.7982;stroke-miterlimit:10;}
	.st41{fill:#FFFFFF;stroke:#C46CC7;stroke-width:14.0953;stroke-miterlimit:10;}
	.st42{fill:#C46CC7;stroke:#FFFFFF;stroke-width:14.0953;stroke-linecap:round;stroke-linejoin:round;stroke-miterlimit:10;}
	.st43{fill:#FFFFFF;stroke:#006DFF;stroke-linecap:round;stroke-linejoin:round;stroke-miterlimit:10;}
	.st44{fill:#006DFF;stroke:#006DFF;stroke-width:12;stroke-linecap:round;stroke-linejoin:round;stroke-miterlimit:10;}
	.st45{fill:#FFFFFF;stroke:#006DFF;stroke-miterlimit:10;}
	.st46{fill:#FFFFFF;stroke:#FFFFFF;stroke-width:12;stroke-miterlimit:10;}
	.st47{fill:#008080;stroke:#FFFFFF;stroke-width:12;stroke-miterlimit:10;}
	.st48{fill:none;stroke:#006DFF;stroke-width:11.9462;stroke-miterlimit:10;}
	.st49{fill:none;stroke:#FFFFFF;stroke-width:11.9462;stroke-miterlimit:10;}
	.st50{fill:#F9DC32;stroke:#FFFFFF;stroke-width:13;stroke-linecap:round;stroke-linejoin:round;stroke-miterlimit:10;}
	.st51{fill:#F9DC32;stroke:#FFFFFF;stroke-width:13;stroke-miterlimit:10;}
</style>
<g>
	<path class="st3" d="M251.4,300.3c-7.4-2.3-15.7,0.5-19.6,7.3c-1.5,2.6-3.2,3.1-5.8,3.1c-44.4,0-88.8,0-133.2,0
		c-2.5,0-4.1-0.6-5.5-3c-4.1-6.9-12.1-9.7-19.6-7.5c-7.6,2.3-12.6,9.2-12.4,17.3c0.2,7.9,5.8,15,13.3,16.7c7.8,1.8,15.6-1.7,19.3-9
		c1.1-2.2,2.3-3,4.8-3c44.4,0.1,88.8,0.1,133.2,0c2.4,0,3.7,0.5,4.9,2.9c3.1,6.1,8.3,9.4,16.1,9.5c0.8-0.1,2.4-0.2,3.9-0.6
		c7.4-2,12.7-8.9,12.8-16.7C263.8,309.6,258.8,302.6,251.4,300.3z M74,329.2c-7.9,0-14.4-6.4-14.4-14.4s6.4-14.4,14.4-14.4
		s14.4,6.4,14.4,14.4S82,329.2,74,329.2z M245.7,329.2c-7.9,0-14.4-6.4-14.4-14.4s6.4-14.4,14.4-14.4s14.4,6.4,14.4,14.4
		S253.7,329.2,245.7,329.2z"/>
	<path class="st3" d="M68.1,98.5c-4.8-2.3-8-7.2-8-12.9c0-7.9,6.4-14.4,14.4-14.4s14.4,6.4,14.4,14.4c0,3.7-1.4,7-3.7,9.5
		c1.2-1.1,2.3-2.4,3.3-4c1.3-2,2.6-2.9,5.1-2.9c44.5,0.1,89.1,0.1,133.6,0c2.2,0,3.6,0.4,4.8,2.5c2.5,4.3,6.2,6.9,10.8,8
		c-5.1-2.2-8.7-7.3-8.7-13.2c0-7.9,6.4-14.4,14.4-14.4s14.4,6.4,14.4,14.4c0,2.8-0.8,5.4-2.2,7.6c3.4-4,4.9-9.6,3.1-15.1
		c-2.1-6.7-7.1-10.4-13.8-11.5c-7.2-1.2-13.4,1.3-17.5,7.5c-1.5,2.3-3.1,2.8-5.6,2.8c-27.2-0.1-54.4,0-81.5,0c-17.2,0-34.4,0-51.7,0
		c-2.4,0-4.3-0.2-5.5-2.8c-0.7-1.6-2.3-3-3.8-4.1c-5.8-4.3-12.2-4.9-18.6-1.8c-6,2.9-9.4,7.8-9.6,15.2c0.1,0.9,0.2,2.2,0.6,3.5
		C58.5,93,62.4,96.9,68.1,98.5z"/>
	<path class="st3" d="M220,337.4c-7.5-2.2-15.2,0.8-19.5,7.7c-1.3,2.1-2.4,3-5,3c-26.6-0.1-53.3-0.1-79.9,0c-2.3,0-3.6-0.6-4.8-2.7
		c-4.1-7.1-11.8-10.2-19.3-8.2c-7.8,2.1-13,9.1-12.9,17.4c0.1,7.8,5.3,14.7,12.7,16.7c7.9,2.1,16.1-1.2,19.8-8.6
		c1.3-2.7,2.9-3.2,5.5-3.2c26,0.1,51.9,0.1,77.9,0c2.6,0,4.2,0.5,5.6,3.2c3,6,8.2,9.1,15.8,9.2c0.9-0.1,2.6-0.2,4.3-0.7
		c7.4-2.1,12.4-9.1,12.4-17C232.6,346.4,227.5,339.6,220,337.4z M96.8,369c-7.9,0-14.4-6.4-14.4-14.4s6.4-14.4,14.4-14.4
		c7.9,0,14.4,6.4,14.4,14.4S104.8,369,96.8,369z M216.3,369c-7.9,0-14.4-6.4-14.4-14.4s6.4-14.4,14.4-14.4s14.4,6.4,14.4,14.4
		S224.2,369,216.3,369z"/>
	<path class="st3" d="M93.5,260.2c-7.3,2.4-12.1,9.5-11.8,17.4c0.3,7.7,5.6,14.4,12.8,16.3c7.7,2,15.8-1.2,19.6-8.4
		c1.4-2.6,2.9-3.5,5.9-3.5c25.8,0.1,51.7,0.1,77.5,0c2.9,0,4.4,0.7,5.9,3.5c3.7,7.1,11.9,10.4,19.6,8.4c7.5-2,12.9-9.2,12.9-17.1
		c0-7.7-5-14.5-12.2-16.7c-7.6-2.4-15.4,0.3-19.6,7.2c-1.7,2.8-3.6,3.3-6.5,3.3c-25.7-0.1-51.4-0.1-77.1,0c-3.2,0-5.2-0.7-7.1-3.7
		C109,260.2,101,257.7,93.5,260.2z M217.9,260.6c7.9,0,14.4,6.4,14.4,14.4s-6.4,14.4-14.4,14.4s-14.4-6.4-14.4-14.4
		S210,260.6,217.9,260.6z M114.3,275c0,7.9-6.4,14.4-14.4,14.4c-7.9,0-14.4-6.4-14.4-14.4s6.4-14.4,14.4-14.4
		C107.8,260.6,114.3,267.1,114.3,275z"/>
	<path class="st3" d="M234.1,116.1c-2.9-6.2-8-9.7-14.9-10c-7.1-0.3-12.4,2.8-16,8.9c-1,1.7-1.7,3-4.1,3c-26.9-0.1-53.8-0.1-80.7,0
		c-1.8,0-2.9-0.5-3.7-2.3c-1.5-3.3-4-5.7-7.1-7.5c-8.3-4.7-18.7-1.8-23.5,6.4c-4.7,8-2,18.7,6,23.6c8,4.9,18.6,2.6,23.7-5.6
		c1.6-2.6,3.3-3.2,6.1-3.2c26,0.1,51.9,0.1,77.9,0c2.8,0,4.5,0.6,6.1,3.2c4.2,6.9,12,9.6,19.6,7.4c7.4-2.2,12.4-8.9,12.7-16.6
		C235.4,120.9,235.1,118.3,234.1,116.1z M100.2,139c-7.9,0-14.4-6.4-14.4-14.4s6.4-14.4,14.4-14.4s14.4,6.4,14.4,14.4
		S108.2,139,100.2,139z M218.3,139c-7.9,0-14.4-6.4-14.4-14.4s6.4-14.4,14.4-14.4s14.4,6.4,14.4,14.4S226.2,139,218.3,139z"/>
	<path class="st3" d="M98.1,62.9c7,0.7,12.8-1.9,16.5-7.9c1.5-2.4,3.1-3.1,5.8-3.1c12.9,0.1,25.8,0.1,38.7,0.1c13.5,0,26.9,0,40.4,0
		c2.1,0,3.4,0.6,4.5,2.5c2.7,4.9,7.1,7.7,12.6,8.4c6.8,0.9,12.5-1.3,16.7-6.7c3.7-4.7,4.3-10.2,2-15.6c-2.5-6-7.4-9.5-13.9-10.2
		c-7-0.8-12.8,1.7-16.8,7.5c-1.4,2-2.8,2.8-5.2,2.7c-26.6-0.1-53.3-0.1-79.9,0c-2.2,0-3.7-0.4-4.9-2.5c-2.7-4.4-6.8-6.9-11.8-7.6
		c-6.8-1-12.5,1.1-16.9,6.4c-3.9,4.8-4.5,10.4-2.2,15.9C86.3,58.9,91.4,62.3,98.1,62.9z M219.7,32.2c7.9,0,14.4,6.4,14.4,14.4
		s-6.4,14.4-14.4,14.4c-7.9,0-14.4-6.4-14.4-14.4S211.8,32.2,219.7,32.2z M100.2,32.2c7.9,0,14.4,6.4,14.4,14.4s-6.4,14.4-14.4,14.4
		s-14.4-6.4-14.4-14.4S92.3,32.2,100.2,32.2z"/>
	<path class="st3" d="M117.6,252.8c8.1,2.2,16.2-1.2,20.1-8.8c1.3-2.5,2.6-3.1,5.2-3.1c9.4,0.1,18.8,0.2,28.2,0
		c3-0.1,4.4,0.8,5.8,3.5c4.6,8.5,14.4,11.5,22.8,7.3c6.5-3.2,10.5-10.6,9.7-17.6c-0.9-7.6-6.4-13.8-13.9-15.5
		c-7-1.6-14.5,1.6-18.3,8.1c-1.4,2.4-2.9,3-5.4,2.9c-9.8-0.1-19.6-0.1-29.4,0c-2.5,0-4.1-0.5-5.4-2.9c-3.2-5.5-8.2-8.2-15.1-8.5
		c-0.9,0.1-2.3,0.2-3.6,0.5c-7.8,1.9-13.5,8.9-13.6,16.9C104.6,243.4,110.2,250.9,117.6,252.8z M190.6,220.8
		c7.9,0,14.4,6.4,14.4,14.4s-6.4,14.4-14.4,14.4c-7.9,0-14.4-6.4-14.4-14.4S182.7,220.8,190.6,220.8z M123.3,220.8
		c7.9,0,14.4,6.4,14.4,14.4s-6.4,14.4-14.4,14.4s-14.4-6.4-14.4-14.4S115.4,220.8,123.3,220.8z"/>
	<path class="st3" d="M177,172.3c3.2,5.7,8.3,8.6,13.1,8.7c12.5,0,20.8-9.5,19.2-19.8c-1.2-7.5-6.8-13.4-14.1-14.8
		c-7.4-1.4-14.7,2-18.3,8.9c-1.3,2.5-2.8,3-5.3,3c-9.3-0.1-18.6-0.2-27.9,0c-3.1,0.1-5-0.6-6.6-3.6c-4.1-7.5-13.1-10.3-21-7.4
		c-7.6,2.9-12.2,10.9-10.9,19.1c1.1,7.1,6.5,12.8,13.6,14.3c7.2,1.5,14.7-1.7,18.6-8.4c1.2-2.1,2.4-2.7,4.7-2.7
		c10.1,0.1,20.2,0.1,30.3,0C174.5,169.7,175.8,170.2,177,172.3z M191,149.3c7.9,0,14.4,6.4,14.4,14.4S198.9,178,191,178
		s-14.4-6.4-14.4-14.4S183,149.3,191,149.3z M123.7,178c-7.9,0-14.4-6.4-14.4-14.4s6.4-14.4,14.4-14.4s14.4,6.4,14.4,14.4
		S131.6,178,123.7,178z"/>
	<path class="st43" d="M155.8,181.9c-9.8,0-18,7.8-17.8,17.5c0.3,10.8,8.1,17.6,17.6,17.9c9.5,0.2,17.6-8.2,17.6-17.9
		C173.2,189.8,165.3,181.9,155.8,181.9z M155.6,214.6c-7.9,0-14.4-6.4-14.4-14.4s6.4-14.4,14.4-14.4s14.4,6.4,14.4,14.4
		S163.6,214.6,155.6,214.6z"/>
	<circle class="st44" cx="100.2" cy="46.5" r="14.4"/>
	<circle class="st15" cx="219.7" cy="46.5" r="14.4"/>
	<path class="st44" d="M245.4,99.2c-0.9-0.1-1.8-0.3-2.6-0.5c1.7,0.7,3.6,1.2,5.6,1.2c5.1,0,9.6-2.7,12.2-6.7
		C257,97.4,251.5,99.9,245.4,99.2z"/>
	<path class="st44" d="M248.4,71.2c-7.9,0-14.4,6.4-14.4,14.4c0,5.9,3.6,11,8.7,13.2c0.9,0.2,1.7,0.4,2.6,0.5
		c6.1,0.7,11.6-1.9,15.2-6c1.4-2.2,2.2-4.8,2.2-7.6C262.8,77.6,256.3,71.2,248.4,71.2z"/>
	<circle class="st44" cx="191" cy="163.7" r="14.4"/>
	<circle class="st15" cx="123.7" cy="163.7" r="14.4"/>
	<circle class="st15" cx="155.6" cy="200.3" r="14.4"/>
	<circle class="st15" cx="218.3" cy="124.6" r="14.4"/>
	<circle class="st44" cx="100.2" cy="124.6" r="14.4"/>
	<path class="st14" d="M71.1,99.1c-1.1-0.1-2.1-0.4-3.1-0.6c1.9,0.9,4.1,1.5,6.3,1.5c4.3,0,8.1-1.9,10.7-4.8
		C81.4,98.5,76.6,99.8,71.1,99.1z"/>
	<path class="st15" d="M74.4,71.2c-7.9,0-14.4,6.4-14.4,14.4c0,5.7,3.3,10.5,8,12.9c1,0.3,2,0.5,3.1,0.6c5.5,0.7,10.2-0.6,14-4
		c2.3-2.5,3.7-5.9,3.7-9.5C88.7,77.6,82.3,71.2,74.4,71.2z"/>
	<circle class="st44" cx="96.8" cy="354.6" r="14.4"/>
	<circle class="st15" cx="216.3" cy="354.6" r="14.4"/>
	<circle class="st15" cx="245.7" cy="314.8" r="14.4"/>
	<circle class="st15" cx="190.6" cy="235.2" r="14.4"/>
	<circle class="st44" cx="123.3" cy="235.2" r="14.4"/>
	<circle class="st44" cx="217.9" cy="275" r="14.4"/>
	<circle class="st15" cx="99.9" cy="275" r="14.4"/>
	<circle class="st15" cx="74" cy="314.8" r="14.4"/>
</g>
</svg>
