<?xml version="1.0" encoding="utf-8"?>
<!-- Generator: Adobe Illustrator 19.2.0, SVG Export Plug-In . SVG Version: 6.00 Build 0)  -->
<svg version="1.1" id="Layer_1" xmlns="http://www.w3.org/2000/svg" xmlns:xlink="http://www.w3.org/1999/xlink" x="0px" y="0px"
	 viewBox="0 0 336 412" style="enable-background:new 0 0 336 412;" xml:space="preserve">
<style type="text/css">
	.st0{fill:#006DFF;}
</style>
<g>
	<path class="st0" d="M100.2,66.9c9.4,0,17.2-6.4,19.6-15c0.2,0,0.3,0,0.5,0c12.9,0.1,25.8,0.1,38.7,0.1c13.5,0,26.9,0,40.4,0
		c0.2,0,0.4,0,0.6,0c2.4,8.6,10.3,15,19.6,15c11.2,0,20.4-9.1,20.4-20.4s-9.1-20.4-20.4-20.4c-9.1,0-16.8,6-19.4,14.2
		c-0.3,0-0.6,0-0.9,0c-26.6-0.1-53.2-0.1-79.7,0c-2.6-8.2-10.3-14.2-19.4-14.2c-11.2,0-20.4,9.1-20.4,20.4S89,66.9,100.2,66.9z
		 M219.7,38.2c4.6,0,8.4,3.7,8.4,8.4s-3.8,8.4-8.4,8.4s-8.4-3.7-8.4-8.4S215.1,38.2,219.7,38.2z"/>
	<path class="st0" d="M191,184c11.2,0,20.4-9.1,20.4-20.4s-9.1-20.4-20.4-20.4c-9.4,0-17.3,6.4-19.6,15c-9.2-0.1-18.5-0.1-27.7,0
		c-0.1,0-0.2,0-0.4,0c-2.3-8.6-10.2-15-19.6-15c-11.2,0-20.4,9.1-20.4,20.4s9.1,20.4,20.4,20.4c9.1,0,16.9-6,19.4-14.3
		c9.5,0.1,18.9,0.1,28.4,0C174.1,178,181.8,184,191,184z M123.7,172c-4.6,0-8.4-3.7-8.4-8.4c0-4.6,3.7-8.4,8.4-8.4s8.4,3.7,8.4,8.4
		C132,168.3,128.3,172,123.7,172z"/>
	<path class="st0" d="M155.6,179.9c-11.2,0-20.4,9.1-20.4,20.4s9.1,20.4,20.4,20.4c11.2,0,20.4-9.1,20.4-20.4
		S166.9,179.9,155.6,179.9z M164,200.3c0,4.6-3.8,8.4-8.4,8.4c-4.6,0-8.4-3.7-8.4-8.4c0-4.6,3.7-8.4,8.4-8.4
		C160.2,191.9,164,195.7,164,200.3z"/>
	<path class="st0" d="M218.3,104.3c-8.9,0-16.5,5.7-19.2,13.7c0,0,0,0,0,0c-26.5-0.1-53.1-0.1-79.6,0c-2.8-7.9-10.3-13.7-19.2-13.7
		c-11.2,0-20.4,9.1-20.4,20.4S89,145,100.2,145c9.6,0,17.6-6.6,19.8-15.6c25.9,0.1,51.8,0.1,77.6,0c0.3,0,0.6,0,0.9,0
		c2.2,8.9,10.2,15.5,19.8,15.5c11.2,0,20.4-9.1,20.4-20.4S229.5,104.3,218.3,104.3z M218.3,133c-4.6,0-8.4-3.7-8.4-8.4
		c0-4.6,3.7-8.4,8.4-8.4s8.4,3.7,8.4,8.4C226.6,129.2,222.9,133,218.3,133z"/>
	<path class="st0" d="M65.4,103.8C65.4,103.8,65.4,103.8,65.4,103.8C65.4,103.8,65.4,103.8,65.4,103.8
		C65.4,103.8,65.4,103.8,65.4,103.8C65.4,103.8,65.4,103.8,65.4,103.8c2.8,1.4,5.8,2.1,9,2.1c5.8,0,11.3-2.5,15.2-6.8c0,0,0,0,0,0
		c2.7-3.1,4.4-6.9,5-10.9c44.2,0.1,88.4,0.1,132.5,0c0.4,0,0.8,0,1.2,0.1c1,7,5.5,13.1,12.2,16c0,0,0,0,0,0c2.5,1.1,5.2,1.6,8,1.6
		c7,0,13.5-3.6,17.2-9.5c0,0,0,0,0,0c2-3.3,3.1-7,3.1-10.8c0-11.2-9.1-20.4-20.4-20.4c-7.8,0-14.6,4.4-18,10.9
		c-1,0.6-2.1,0.8-3.5,0.8c-27.2-0.1-54.4,0-81.5,0c-17.2,0-34.4,0-51.7,0c-0.3,0-0.6,0-0.9,0C89.5,70,82.5,65.2,74.4,65.2
		C63.2,65.2,54,74.4,54,85.6C54,93.4,58.4,100.4,65.4,103.8z M74.4,77.2c4.6,0,8.4,3.7,8.4,8.4c0,1.9-0.7,3.8-1.9,5.3
		c-0.1,0.1-0.3,0.2-0.4,0.3c-0.1,0.1-0.3,0.2-0.4,0.3c-0.2,0.1-0.3,0.2-0.5,0.3c-0.1,0.1-0.3,0.2-0.4,0.3c-0.2,0.1-0.4,0.2-0.6,0.3
		c-0.2,0.1-0.3,0.1-0.5,0.2c-0.2,0.1-0.4,0.1-0.6,0.2c-0.2,0-0.3,0.1-0.5,0.1c-0.2,0.1-0.5,0.1-0.7,0.1c-0.2,0-0.3,0.1-0.5,0.1
		c-0.2,0-0.5,0.1-0.8,0.1c-0.1,0-0.3,0-0.4,0c-0.3,0-0.6,0-0.9,0c-0.1,0-0.3,0-0.4,0c-0.4,0-0.9-0.1-1.3-0.1c-0.5-0.1-1-0.2-1.5-0.3
		c-0.1,0-0.1,0-0.2-0.1c-2.6-1.5-4.2-4.2-4.2-7.2C66,81,69.8,77.2,74.4,77.2z"/>
	<path class="st0" d="M216.3,334.3c-8.9,0-16.5,5.8-19.2,13.8c-0.4,0.1-0.9,0.1-1.4,0.1c-26.5-0.1-53-0.1-79.4,0
		c-2.7-8.1-10.3-13.9-19.3-13.9c-11.2,0-20.4,9.1-20.4,20.4S85.6,375,96.8,375c9.5,0,17.5-6.6,19.7-15.5c0,0,0.1,0,0.1,0
		c26,0.1,51.9,0.1,77.9,0c0.8,0,1.4,0,2,0.2c2.3,8.8,10.2,15.3,19.7,15.3c11.2,0,20.4-9.1,20.4-20.4S227.5,334.3,216.3,334.3z
		 M216.3,363c-4.6,0-8.4-3.7-8.4-8.4s3.7-8.4,8.4-8.4s8.4,3.8,8.4,8.4S220.9,363,216.3,363z"/>
	<path class="st0" d="M123.3,255.5c9.2,0,17-6.2,19.5-14.6c0,0,0,0,0,0c9.4,0.1,18.8,0.2,28.2,0h0c2.5,8.5,10.3,14.7,19.5,14.7
		c11.2,0,20.4-9.1,20.4-20.4s-9.1-20.4-20.4-20.4c-9.3,0-17.1,6.2-19.6,14.7c-9.4-0.1-18.8-0.1-28.2,0c-2.4-8.5-10.3-14.7-19.6-14.7
		c-11.2,0-20.4,9.1-20.4,20.4S112.1,255.5,123.3,255.5z M190.6,226.8c4.6,0,8.4,3.7,8.4,8.4c0,4.6-3.8,8.4-8.4,8.4
		c-4.6,0-8.4-3.7-8.4-8.4C182.3,230.6,186,226.8,190.6,226.8z"/>
	<path class="st0" d="M79.5,275c0,11.2,9.1,20.4,20.4,20.4c8.7,0,16.1-5.5,19-13.2c0.3,0,0.6,0,1,0c25.8,0.1,51.7,0.1,77.5,0
		c0.5,0,1,0,1.5,0.1c2.9,7.7,10.3,13.2,19,13.2c11.2,0,20.4-9.1,20.4-20.4s-9.1-20.4-20.4-20.4c-9.7,0-17.9,6.9-19.9,16
		c-0.2,0-0.4,0-0.6,0c-25.7-0.1-51.4-0.1-77.1,0c-0.2,0-0.4,0-0.6,0c-2-9.1-10.1-16-19.9-16C88.7,254.6,79.5,263.8,79.5,275z
		 M108.3,275c0,4.6-3.8,8.4-8.4,8.4s-8.4-3.7-8.4-8.4c0-4.6,3.7-8.4,8.4-8.4S108.3,270.4,108.3,275z"/>
	<path class="st0" d="M245.8,294.5c-9.8,0-18,7-19.9,16.3c-43.9,0-87.9,0-131.8,0c-1.9-9.3-10.1-16.3-19.9-16.3
		c-11.2,0-20.4,9.1-20.4,20.4s9.1,20.4,20.4,20.4c8.6,0,15.9-5.3,18.9-12.8c44.4,0.1,88.7,0.1,133.1,0c0.3,0,0.6,0,0.9,0
		c3,7.5,10.3,12.8,18.9,12.8c11.2,0,20.4-9.1,20.4-20.4S257,294.5,245.8,294.5z M74,323.2c-4.6,0-8.4-3.8-8.4-8.4s3.8-8.4,8.4-8.4
		s8.4,3.8,8.4,8.4S78.6,323.2,74,323.2z M245.8,323.2c-4.6,0-8.4-3.8-8.4-8.4s3.8-8.4,8.4-8.4s8.4,3.8,8.4,8.4
		S250.4,323.2,245.8,323.2z"/>
</g>
</svg>
