<svg id="Layer_1" data-name="Layer 1" xmlns="http://www.w3.org/2000/svg" viewBox="0 0 756 768"><defs><style>.cls-1,.cls-3{fill:#006dff;}.cls-2,.cls-4{fill:#fff;}.cls-2,.cls-3,.cls-4{stroke:#006dff;stroke-miterlimit:10;}.cls-3,.cls-4{stroke-width:12px;}</style></defs><title>discipline_icons</title><path class="cls-1" d="M455,410.71c-7.82-.12-13-3.39-16.08-9.47-1.2-2.35-2.52-2.86-4.91-2.86q-66.59.1-133.18,0c-2.51,0-3.71.77-4.85,3a17.06,17.06,0,0,1-19.33,9,17.7,17.7,0,0,1-13.33-16.71,17.42,17.42,0,0,1,12.45-17.33,16.86,16.86,0,0,1,19.56,7.48c1.41,2.37,2.94,3,5.47,3q66.59-.09,133.18,0c2.6,0,4.24-.51,5.76-3.1a16.84,16.84,0,0,1,19.63-7.29,17.62,17.62,0,0,1-.43,33.76A28.18,28.18,0,0,1,455,410.71Z"/><path class="cls-1" d="M264.06,159.36c0.2-7.33,3.55-12.26,9.59-15.16,6.46-3.11,12.82-2.49,18.62,1.81a11.76,11.76,0,0,1,3.83,4.06c1.21,2.65,3.1,2.82,5.53,2.81,17.22-.06,34.45,0,51.67,0q40.77,0,81.54,0c2.46,0,4-.49,5.57-2.78,4.11-6.16,10.25-8.68,17.49-7.5,6.68,1.09,11.65,4.85,13.79,11.53,3.58,11.16-6.25,22.45-18.3,21.11-5.84-.65-10.55-3.33-13.48-8.44-1.22-2.13-2.66-2.54-4.84-2.54q-66.81.06-133.62,0c-2.47,0-3.74.87-5.06,2.91-4,6.23-10,8.93-17.28,7.94s-12.33-5-14.47-12.22A26.09,26.09,0,0,1,264.06,159.36Z"/><path class="cls-1" d="M424,447.95c-7.68-.13-12.85-3.24-15.85-9.21-1.35-2.68-2.91-3.21-5.55-3.2q-39,.11-77.91,0c-2.68,0-4.2.58-5.53,3.23a16.92,16.92,0,0,1-19.78,8.63,17.73,17.73,0,0,1,.22-34.08,17,17,0,0,1,19.32,8.17,4.71,4.71,0,0,0,4.77,2.69q40-.09,79.93,0c2.53,0,3.71-1,5-3A16.9,16.9,0,0,1,428,413.45a17.66,17.66,0,0,1,.26,33.79A30.64,30.64,0,0,1,424,447.95Z"/><path class="cls-1" d="M443.76,352.85a17.71,17.71,0,0,1-12.86,17.09,17.06,17.06,0,0,1-19.58-8.38c-1.42-2.71-3-3.47-5.87-3.45q-38.76.17-77.51,0c-2.95,0-4.45.83-5.86,3.48a17,17,0,0,1-19.59,8.35,17.73,17.73,0,0,1-1-33.72c7.5-2.49,15.53,0,19.79,6.8,1.86,3,3.85,3.67,7.1,3.66q38.55-.19,77.11,0c2.89,0,4.76-.5,6.46-3.32,4.18-6.94,12-9.55,19.63-7.2A17.51,17.51,0,0,1,443.76,352.85Z"/><path class="cls-1" d="M444.09,199.37A18,18,0,0,1,431.37,216a16.84,16.84,0,0,1-19.6-7.36c-1.57-2.6-3.27-3.24-6.11-3.23q-39,.16-77.9,0c-2.82,0-4.5.62-6.09,3.22A17.18,17.18,0,0,1,298,214.29a17.59,17.59,0,0,1-6-23.65,17.35,17.35,0,0,1,23.51-6.42,16.44,16.44,0,0,1,7.1,7.47,3.52,3.52,0,0,0,3.75,2.25q40.36-.07,80.73,0c2.43,0,3.16-1.3,4.13-3,3.54-6.11,8.91-9.28,16-8.95a16.43,16.43,0,0,1,14.9,10C443.13,194.33,443.44,196.93,444.09,199.37Z"/><path class="cls-1" d="M367.11,127.94c-12.91,0-25.82.06-38.74-.05A5.8,5.8,0,0,0,322.6,131c-3.74,6-9.57,8.56-16.54,7.9-6.64-.63-11.76-4-14.35-10.24-2.32-5.55-1.76-11.11,2.18-15.93a17.23,17.23,0,0,1,16.86-6.44,16.1,16.1,0,0,1,11.81,7.62c1.26,2.06,2.76,2.48,4.93,2.48q39.95-.08,79.89,0a5.5,5.5,0,0,0,5.2-2.74c4-5.81,9.8-8.26,16.76-7.47,6.5,0.74,11.42,4.22,13.93,10.24a14.85,14.85,0,0,1-2,15.62,17.22,17.22,0,0,1-16.74,6.73,16.3,16.3,0,0,1-12.6-8.41,4.38,4.38,0,0,0-4.48-2.49C394,128,380.56,127.94,367.11,127.94Z"/><path class="cls-1" d="M330,294.18c6.81,0.27,11.9,3,15.05,8.52,1.37,2.4,2.94,2.91,5.44,2.88q14.72-.18,29.44,0c2.53,0,4-.57,5.41-2.93a16.9,16.9,0,0,1,18.26-8.09,17.67,17.67,0,0,1,4.15,33.09,16.87,16.87,0,0,1-22.81-7.31c-1.41-2.62-2.88-3.53-5.83-3.46-9.41.22-18.82,0.17-28.23,0-2.58,0-4,.64-5.23,3.09a17,17,0,0,1-20.06,8.82,17.64,17.64,0,0,1,.84-34.13A35,35,0,0,1,330,294.18Z"/><path class="cls-1" d="M398.11,257.06c-4.77-.14-9.85-3-13.08-8.73-1.19-2.1-2.54-2.65-4.77-2.63q-15.14.14-30.29,0a4.55,4.55,0,0,0-4.69,2.67,17.14,17.14,0,0,1-18.56,8.38,17.49,17.49,0,0,1-2.67-33.38,17,17,0,0,1,21,7.38c1.67,3,3.53,3.67,6.63,3.61,9.28-.17,18.58-0.13,27.86,0,2.49,0,4-.43,5.33-3a16.9,16.9,0,0,1,18.31-8.86,17.67,17.67,0,0,1,14.1,14.77C418.88,247.59,410.6,257,398.11,257.06Z"/><path class="cls-2" d="M363.82,257.87a17.61,17.61,0,0,1,17.41,17.48c0,9.64-8.11,18.11-17.59,17.88s-17.34-7.06-17.6-17.86C345.79,265.66,354,257.83,363.82,257.87Z"/><circle class="cls-3" cx="308.25" cy="122.53" r="14.36"/><circle class="cls-4" cx="427.68" cy="122.53" r="14.36"/><circle class="cls-3" cx="456.4" cy="161.58" r="14.36"/><circle class="cls-3" cx="398.97" cy="239.68" r="14.36"/><circle class="cls-4" cx="331.66" cy="239.68" r="14.36"/><circle class="cls-4" cx="363.63" cy="276.29" r="14.36"/><circle class="cls-4" cx="426.28" cy="200.63" r="14.36"/><circle class="cls-3" cx="308.25" cy="200.63" r="14.36"/><circle class="cls-4" cx="282.38" cy="161.58" r="14.36"/><circle class="cls-3" cx="304.83" cy="430.64" r="14.36"/><circle class="cls-4" cx="424.27" cy="430.64" r="14.36"/><circle class="cls-4" cx="453.75" cy="390.82" r="14.36"/><circle class="cls-4" cx="398.61" cy="311.19" r="14.36"/><circle class="cls-3" cx="331.31" cy="311.19" r="14.36"/><circle class="cls-3" cx="425.93" cy="351" r="14.36"/><circle class="cls-4" cx="307.89" cy="351" r="14.36"/><circle class="cls-4" cx="282.03" cy="390.82" r="14.36"/></svg>