<svg id="Layer_1" data-name="Layer 1" xmlns="http://www.w3.org/2000/svg" viewBox="0 0 1024 768"><defs><style>.cls-1{fill:none;stroke:#006dff;stroke-linecap:round;stroke-linejoin:round;stroke-width:13px;}.cls-2{fill:#006dff;}</style></defs><title>discipline_icons</title><path class="cls-1" d="M680.53,328.18a134.41,134.41,0,0,1-42.2-6.79,5.13,5.13,0,0,0-4.58.2,117.39,117.39,0,0,1-56.35,15.54c-29.07.77-55.62-6.52-78.51-25.12-1.48-1.21-2.55-1.69-4.48-.51-15.21,9.31-31.86,14.2-49.56,15.82a125.74,125.74,0,0,1-56.07-7.17c-14.13-5.26-26.71-13-36.72-24.46-9-10.35-14.33-22.26-14.26-36.14,0.08-14.83,6.29-27.15,16.31-37.75a79,79,0,0,1,19.35-14.95c1.73-1,2.11-1.86,1.6-3.79-5.35-20.34-.6-38.56,12.15-54.84,11.21-14.32,26-23.71,43.06-29.42,31.46-10.52,62.35-9,92.35,5.53a85.68,85.68,0,0,1,23.8,17c1.76,1.78,1.45,2.35,4.13.24,14.54-11.43,31.13-18.13,49.26-21.29a124.42,124.42,0,0,1,63.37,5c16.73,5.84,31.36,14.93,42.71,28.81a62.05,62.05,0,0,1,13.18,26.31c0.56,2.58,1.83,3.56,4.13,4.24a106.76,106.76,0,0,1,38.59,20.24c11.33,9.46,19.88,20.86,23.41,35.42,4,16.39.69,31.56-8.67,45.44-9.71,14.4-23.29,24.09-38.92,31.09C720,324.72,701.46,328.23,680.53,328.18Z"/><path class="cls-2" d="M638.24,364.94s-12.46,16.26-10,28.37a10,10,0,0,0,20.07,0C650.69,381.2,638.24,364.94,638.24,364.94Z"/><path class="cls-2" d="M552,439.1s-12.46,16.26-10,28.37a10,10,0,0,0,20.07,0C564.45,455.36,552,439.1,552,439.1Z"/><path class="cls-2" d="M489.81,364.94s-12.46,16.26-10,28.37a10,10,0,1,0,20.07,0C502.27,381.2,489.81,364.94,489.81,364.94Z"/></svg>