<?xml version="1.0" encoding="utf-8"?>
<!-- Generator: Adobe Illustrator 19.2.0, SVG Export Plug-In . SVG Version: 6.00 Build 0)  -->
<svg version="1.1" id="Layer_1" xmlns="http://www.w3.org/2000/svg" xmlns:xlink="http://www.w3.org/1999/xlink" x="0px" y="0px"
	 viewBox="0 0 528 451.8" style="enable-background:new 0 0 528 451.8;" xml:space="preserve">
<style type="text/css">
	.st0{fill:#006DFF;}
</style>
<g>
	<path class="st0" d="M269.4,295.7c-29.8,0-55.8-8.6-77.3-25.6c-14.9,8.7-31.9,14-50.6,15.7c-20.6,1.9-40.4-0.7-58.9-7.6
		c-16.4-6.1-29.2-14.7-39.3-26.3c-10.6-12.2-15.9-25.8-15.9-40.4c0.1-15.4,6.2-29.6,18.1-42.2c5.5-5.8,11.8-10.9,18.8-15
		c-4.8-20.7-0.1-40.3,13.9-58.2c11.4-14.5,26.9-25.1,46.1-31.6c33.4-11.2,66.1-9.2,97.2,5.8c8.6,4.2,16.5,9.6,23.5,16.2
		c14.1-10.5,30.9-17.5,49.8-20.8c22.8-4,45.2-2.2,66.6,5.3c19.2,6.7,34.1,16.8,45.6,30.8c7.3,8.9,12.1,18.5,14.4,28.5
		c15.5,4.6,29.2,11.8,40.7,21.4c13.6,11.4,22,24.1,25.6,38.9c4.3,17.8,1.1,34.8-9.6,50.6c-9.6,14.2-23.2,25.1-41.6,33.4
		c-17.9,8-37.3,11.9-59.3,11.9c-0.2,0-0.3,0-0.5,0c-14,0.2-29.2-2.3-44.2-7.1c-17.7,10.1-37.5,15.5-58.8,16
		C272.2,295.7,270.8,295.7,269.4,295.7z M192.4,256.3c2.2,0,4.5,0.9,6.6,2.6c20.6,16.7,44.8,24.5,74.2,23.7
		c19.3-0.5,37.3-5.5,53.3-14.7c4.4-2.5,8.3-1.2,9.8-0.8c13.7,4.4,27.5,6.6,40.1,6.5c0,0,0.1,0,0.1,0c0.2,0,0.3,0,0.5,0
		c20.1,0,37.8-3.5,53.9-10.8c16.2-7.3,28-16.7,36.2-28.8c8.7-12.8,11.2-26,7.7-40.3c-2.9-12-9.9-22.4-21.3-32
		c-10.3-8.6-22.2-14.8-36.3-19c-4.8-1.4-7.6-4.4-8.6-9.1c-1.8-8.3-5.7-16-11.9-23.6c-9.9-12.1-23-20.9-39.8-26.8
		c-19.3-6.7-39.5-8.3-60.1-4.7c-18.1,3.2-33.3,9.7-46.4,20c-1.9,1.5-7,5.5-12.3-0.3c-0.1-0.1-0.3-0.3-0.5-0.5
		c-6.4-6.5-13.8-11.8-22-15.7c-28-13.5-57.4-15.3-87.5-5.2c-16.8,5.6-30.2,14.8-40,27.3c-12.1,15.4-15.6,31.5-11,49.2
		c1.3,4.8-0.4,8.8-4.7,11.1c-6.6,3.7-12.6,8.3-17.8,13.7c-9.7,10.3-14.5,21.2-14.5,33.3c-0.1,11.6,4.1,22,12.7,31.8
		c8.6,9.9,19.8,17.3,34.1,22.6c16.7,6.2,34.6,8.5,53.2,6.8c17.7-1.6,33-6.5,46.8-14.9C188.8,256.9,190.6,256.3,192.4,256.3z
		 M421.5,131.2L421.5,131.2L421.5,131.2z M420.6,130.2C420.6,130.2,420.6,130.2,420.6,130.2C420.6,130.2,420.6,130.2,420.6,130.2z"
		/>
</g>
<path class="st0" d="M339,313.3l-4.8-6.2l-4.8,6.2c-1.4,1.9-13.7,18.4-11.3,32.6c0.3,8.6,7.4,15.4,16,15.4s15.7-6.9,16-15.4
	C352.7,331.7,340.4,315.2,339,313.3z"/>
<g>
	<path class="st0" d="M252.8,387.4l-4.8-6.2l-4.8,6.2c-1.4,1.9-13.7,18.4-11.3,32.6c0.3,8.6,7.4,15.4,16,15.4s15.7-6.9,16-15.4
		C266.5,405.8,254.2,389.3,252.8,387.4z"/>
	<path class="st0" d="M185.8,307.1l-4.8,6.2c-1.4,1.9-13.7,18.4-11.3,32.6c0.3,8.6,7.4,15.4,16,15.4c8.6,0,15.7-6.9,16-15.4
		c2.4-14.2-9.8-30.8-11.3-32.6L185.8,307.1z"/>
</g>
</svg>
