<svg id="Layer_1" data-name="Layer 1" xmlns="http://www.w3.org/2000/svg" viewBox="0 0 689.86 768"><defs><style>.cls-1{fill:none;}.cls-1,.cls-2,.cls-3{stroke:#006dff;stroke-width:13px;}.cls-1,.cls-2{stroke-linecap:round;stroke-linejoin:round;}.cls-2,.cls-3{fill:#fff;}.cls-3{stroke-miterlimit:10;}</style></defs><title>discipline_icons</title><rect class="cls-1" x="278.11" y="190.54" width="197.98" height="255.46"/><line class="cls-1" x1="311.1" y1="318.27" x2="311.1" y2="446"/><line class="cls-1" x1="344.1" y1="318.27" x2="344.1" y2="446"/><line class="cls-1" x1="377.09" y1="318.27" x2="377.09" y2="446"/><line class="cls-1" x1="410.09" y1="318.27" x2="410.09" y2="446"/><line class="cls-1" x1="443.09" y1="318.27" x2="443.09" y2="446"/><rect class="cls-1" x="278.11" y="190.54" width="197.98" height="86.17"/><line class="cls-1" x1="502.11" y1="190.54" x2="252.08" y2="190.54"/><line class="cls-2" x1="257.07" y1="110.05" x2="493.46" y2="110.05"/><path class="cls-2" d="M271.29,190.54c-53.83-35.24,41.56-68.65,47.42-13.84,3.76,35.25-16.73,61.74-52.19,61.74a64.19,64.19,0,1,1,0-128.39"/><path class="cls-2" d="M487.54,190.54c47.46-45.77-46.2-68.65-52.06-13.84-3.76,35.25,16.73,61.74,52.19,61.74a64.19,64.19,0,0,0,0-128.39"/><circle class="cls-3" cx="273.07" cy="183.82" r="10.55"/><circle class="cls-3" cx="484.99" cy="184.51" r="10.55"/></svg>