<?xml version="1.0" encoding="utf-8"?>
<!-- Generator: Adobe Illustrator 19.2.0, SVG Export Plug-In . SVG Version: 6.00 Build 0)  -->
<svg version="1.1" id="Layer_1" xmlns="http://www.w3.org/2000/svg" xmlns:xlink="http://www.w3.org/1999/xlink" x="0px" y="0px"
	 viewBox="0 0 392 412" style="enable-background:new 0 0 392 412;" xml:space="preserve">
<style type="text/css">
	.st0{fill:#006DFF;}
</style>
<path class="st0" d="M301.4,27.6H74.4c-0.3,0.1-0.6,0.2-1,0.3C37.6,31.3,9.5,61.6,9.5,98.2c0,39,31.7,70.7,70.7,70.7
	c1.7,0,3.4-0.1,5.1-0.2v32V370c0,3.6,2.9,6.5,6.5,6.5h198c3.6,0,6.5-2.9,6.5-6.5V200.7v-32c1.7,0.1,3.4,0.2,5.1,0.2
	c39,0,70.7-31.7,70.7-70.7C372.1,59.3,340.4,27.6,301.4,27.6z M283.3,363.5h-20V242.3c0-3.6-2.9-6.5-6.5-6.5s-6.5,2.9-6.5,6.5v121.2
	h-20V242.3c0-3.6-2.9-6.5-6.5-6.5s-6.5,2.9-6.5,6.5v121.2h-20V242.3c0-3.6-2.9-6.5-6.5-6.5s-6.5,2.9-6.5,6.5v121.2h-20V242.3
	c0-3.6-2.9-6.5-6.5-6.5s-6.5,2.9-6.5,6.5v121.2h-20V242.3c0-3.6-2.9-6.5-6.5-6.5s-6.5,2.9-6.5,6.5v121.2h-20V207.2h185V363.5z
	 M283.3,194.2h-185v-27.6c9.1-2.5,17.1-6.9,23.6-13.2c8.7-8.4,14.3-19.5,16.5-32.4h104.4c1.7,10.8,6,20.5,12.8,28.4
	c7.2,8.3,16.7,14.2,27.8,17.2V194.2z M301.4,155.9c-14.9,0-27.7-5.3-36-15c-5.9-6.8-9.3-15.5-10.2-25.2c0.1-0.4,0.1-0.8,0.1-1.1
	c0-0.7-0.1-1.3-0.3-1.9c-0.1-3.5,0.1-7.2,0.7-11c2.5-16.4,13.3-21.2,19.5-22.7c11.4-2.7,24.8,1.7,30.5,9.9c1,1.4,1.7,2.9,2.2,4.4
	c-2.4-1.1-5.1-1.7-7.9-1.7c-10,0-18.2,7.6-18.2,17.1c0,9.4,8.2,17.1,18.2,17.1c7.8,0,14.4-4.6,17-11c6.3-11.6,6.2-23.5-0.5-33.2
	c-8.8-12.7-27.4-19-44.1-15.1c-16,3.8-26.7,15.9-29.4,33.4c-0.4,2.8-0.7,5.6-0.8,8.3H139.6c0.1-2.8,0-5.9-0.9-9
	c-4.9-18.4-17-30.3-33.3-32.5C90,64.5,74.3,71.7,67.1,84c-6.2,10.7-4.3,22.9,3.9,34.5c1.8,2.5,4.2,4.2,6.1,5
	c3.4,1.2,5.5,1.4,9.6,1.4c9.4,0,17.1-7.6,17.1-17.1c0-9.4-7.6-17.1-17.1-17.1c-3.7,0-7.1,1.2-9.9,3.2c0.3-1.2,0.8-2.3,1.5-3.4
	c4.4-7.6,15.3-12.4,25.2-11c11,1.5,19,9.6,22.5,22.9c0.7,2.6,0.5,5.7,0.2,8.9c0,0.6-0.1,1.2-0.1,1.8c0,0,0,0,0,0
	c-1.7,26.5-19.4,42.9-46,42.9c-31.8,0-57.7-25.9-57.7-57.7s25.9-57.7,57.7-57.7h221.2c31.8,0,57.7,25.9,57.7,57.7
	S333.2,155.9,301.4,155.9z M304.1,108.5c0,2.2-1.9,4.1-4.3,4.1s-4.3-1.8-4.3-4.1s1.9-4.1,4.3-4.1S304.1,106.3,304.1,108.5z
	 M82.7,107.8c0-2.2,1.8-4.1,4.1-4.1s4.1,1.8,4.1,4.1s-1.8,4.1-4.1,4.1S82.7,110.1,82.7,107.8z"/>
</svg>
