<?xml version="1.0" encoding="utf-8"?>
<!-- Generator: Adobe Illustrator 19.2.0, SVG Export Plug-In . SVG Version: 6.00 Build 0)  -->
<svg version="1.1" id="Layer_1" xmlns="http://www.w3.org/2000/svg" xmlns:xlink="http://www.w3.org/1999/xlink" x="0px" y="0px"
	 viewBox="0 0 428 412" style="enable-background:new 0 0 428 412;" xml:space="preserve">
<style type="text/css">
	.st0{fill:#006DFF;}
</style>
<path class="st0" d="M407,150.3c0-59.5-48.2-107.7-107.7-107.7c-28.6,0-54.7,11.2-74,29.4c-5.2-5.5-11-10.6-17.3-15
	c-19.3-13.7-42.1-20.9-65.9-20.9c-63,0-114.2,51.2-114.2,114.2c0,23.4,7,45.9,20.3,65c9.5,13.7,21.8,25.1,36,33.4
	c-1.4,6.2,0.4,13,5.2,17.8l2.4,2.4c7.2,7.2,18.5,7.5,26.1,1.1l1.9,1.8c-6.4,7.6-6.1,19,1.1,26.2l2.4,2.4c7.3,7.3,19.1,7.5,26.7,0.7
	l2.2,2.1c-5.5,7.6-4.9,18.2,2,25.1l2.4,2.4c7,7,18,7.5,25.6,1.6l1.7,1.7l-0.6,0.6c-5.7,5.7-4.1,16.4,3.4,23.9l2.4,2.4
	c7.6,7.6,18.3,9.1,23.9,3.4l1.1-1.1l6.4,6.2c5.6,5.4,12.7,8.1,19.9,8.1c7.5,0,15-2.9,20.6-8.7l1.3-1.3c5.6-5.8,8.3-13.4,8-21
	c1.2,0.2,2.4,0.3,3.6,0.3c0.1,0,0.2,0,0.3,0c7.1-0.1,14.1-3.5,20.1-9.7l1.3-1.3c5.3-5.5,8.2-12.7,8.1-20.4c0-0.3,0-0.6,0-1
	c0.8,0.1,1.6,0.1,2.4,0.1c7.5,0,15-2.9,20.6-8.7l1.3-1.3c5.3-5.5,8.2-12.7,8.1-20.4c0,0,0-0.1,0-0.1c1.3,0.2,2.7,0.3,4,0.3
	c0.2,0,0.3,0,0.5,0c7.6-0.1,14.8-3.2,20.1-8.7l1.3-1.3c11-11.3,10.7-29.5-0.6-40.5l-3.1-3C387.5,212.1,407,187.9,407,150.3z
	 M351.8,264.7l-1.3,1.3c-2.7,2.8-6.3,4.4-10.2,4.4c-3.9,0.1-7.6-1.4-10.4-4.1L222.2,161.8c-2.8-2.7-7.3-2.6-10,0.2
	c-2.7,2.8-2.6,7.3,0.2,10l103.9,100.7c0.3,0.6,0.8,1.2,1.3,1.7c2.8,2.7,4.4,6.3,4.4,10.2s-1.4,7.6-4.1,10.4l-1.3,1.3
	c-5.4,5.6-14.2,5.9-20,0.8c-0.5-0.5-1-1.1-1.5-1.6l-64.2-62.1l-38.1-37c-2.8-2.7-7.3-2.6-10,0.2c-2.7,2.8-2.6,7.3,0.2,10l7.2,7
	c0.2,0.2,0.4,0.5,0.6,0.7l30.5,29.5l65,63c0.1,0.1,0.2,0.2,0.3,0.2c2,2.5,3.2,5.6,3.2,8.9c0.1,3.9-1.4,7.6-4.1,10.4l-1.3,1.3
	c-3.4,3.5-6.9,5.4-10.2,5.4c0,0-0.1,0-0.1,0c-3.3,0-6.7-1.7-10.2-5.1l-103.1-100c-2.8-2.7-7.3-2.6-10,0.2c-2.7,2.8-2.6,7.3,0.2,10
	L250,334c0.3,1.2,0.9,2.3,1.9,3.2c5.8,5.6,5.9,14.8,0.3,20.6l-1.3,1.3c-5.6,5.8-14.8,5.9-20.6,0.3l-6.3-6.1l10.6-10.6
	c5.7-5.7,4.1-16.4-3.4-23.9l-2.4-2.4c-7.6-7.6-18.3-9.1-23.9-3.4l-11,11l-1.6-1.5l6.5-6.5c7.6-7.6,7.6-19.8,0-27.4l-2.4-2.4
	c-7.6-7.6-19.8-7.6-27.4,0l-6.9,6.9l-2-1.9l5.5-5.5c7.6-7.6,7.6-19.8,0-27.4l-2.4-2.4c-7.6-7.6-19.8-7.6-27.4,0l-5.9,5.9l-1.7-1.7
	l5.9-5.9c7.6-7.6,7.6-19.8,0-27.4l-2.4-2.4c-7.6-7.6-19.8-7.6-27.4,0L91,237.6c-12.6-7.4-23.6-17.5-32.1-29.7
	c-11.8-17-18-36.9-18-57.6c0-55.8,45.4-101.2,101.2-101.2c28.6,0,55.4,12.3,74.2,32.5c-0.1,0.2-0.3,0.3-0.4,0.5l-73.8,72.5
	c0,0,20.2,41.9,98.3-18.1l111,107.6C357.2,249.7,357.4,258.9,351.8,264.7z"/>
</svg>
