<?xml version="1.0" encoding="utf-8"?>
<!-- Generator: Adobe Illustrator 19.2.0, SVG Export Plug-In . SVG Version: 6.00 Build 0)  -->
<svg version="1.1" id="Layer_1" xmlns="http://www.w3.org/2000/svg" xmlns:xlink="http://www.w3.org/1999/xlink" x="0px" y="0px"
	 viewBox="0 0 428 412" style="enable-background:new 0 0 428 412;" xml:space="preserve">
<style type="text/css">
	.st0{fill:#F9DC32;}
	.st1{fill:none;stroke:#006DFF;stroke-width:13.6756;stroke-linecap:round;stroke-linejoin:round;stroke-miterlimit:10;}
	.st2{fill:none;stroke:#006DFF;stroke-width:13;stroke-linecap:round;stroke-linejoin:round;stroke-miterlimit:10;}
	.st3{fill:#006DFF;}
	.st4{fill:none;stroke:#FFFFFF;stroke-width:13;stroke-linecap:round;stroke-linejoin:round;stroke-miterlimit:10;}
	.st5{fill:#FFFFFF;}
	.st6{fill:none;stroke:#006DFF;stroke-width:13;stroke-miterlimit:10;}
	.st7{fill:none;stroke:#FFFFFF;stroke-width:13;stroke-miterlimit:10;}
	.st8{fill:#5123AF;stroke:#FFFFFF;stroke-width:13;stroke-miterlimit:10;}
	.st9{fill:none;stroke:#006DFF;stroke-width:12;stroke-miterlimit:10;}
	.st10{fill:#006DFF;stroke:#006DFF;stroke-miterlimit:10;}
	.st11{fill:none;stroke:#FFFFFF;stroke-width:12;stroke-miterlimit:10;}
	.st12{fill:#FFFFFF;stroke:#FFFFFF;stroke-miterlimit:10;}
	.st13{fill:none;}
	.st14{fill:#FFFFFF;stroke:#006DFF;stroke-width:12;stroke-linecap:round;stroke-linejoin:round;stroke-miterlimit:10;}
	.st15{fill:none;stroke:#006DFF;stroke-width:12;stroke-linecap:round;stroke-linejoin:round;stroke-miterlimit:10;}
	.st16{fill:#EAE050;stroke:#FFFFFF;stroke-width:12;stroke-linecap:round;stroke-linejoin:round;stroke-miterlimit:10;}
	.st17{fill:none;stroke:#FFFFFF;stroke-width:12;stroke-linecap:round;stroke-linejoin:round;stroke-miterlimit:10;}
	.st18{fill:none;stroke:#006DFF;stroke-width:11.1252;stroke-linecap:round;stroke-linejoin:round;stroke-miterlimit:10;}
	.st19{fill:#006DFF;stroke:#006DFF;stroke-width:13;stroke-linecap:round;stroke-linejoin:round;stroke-miterlimit:10;}
	.st20{fill:none;stroke:#FFFFFF;stroke-width:11.5112;stroke-miterlimit:10;}
	.st21{fill:#FFFFFF;stroke:#FFFFFF;stroke-width:3;stroke-linecap:round;stroke-linejoin:round;stroke-miterlimit:10;}
	.st22{fill:#FFFFFF;stroke:#FFFFFF;stroke-width:13;stroke-linecap:round;stroke-linejoin:round;stroke-miterlimit:10;}
	.st23{fill:none;stroke:#AEA38A;stroke-width:11.5112;stroke-miterlimit:10;}
	.st24{fill:#AEA38A;stroke:#AEA38A;stroke-width:3;stroke-linecap:round;stroke-linejoin:round;stroke-miterlimit:10;}
	.st25{fill:#AEA38A;}
	.st26{fill:none;stroke:#006DFF;stroke-width:14.4715;stroke-linecap:round;stroke-linejoin:round;stroke-miterlimit:10;}
	.st27{fill:none;stroke:#006DFF;stroke-width:27;stroke-linecap:round;stroke-linejoin:round;stroke-miterlimit:10;}
	.st28{fill:none;stroke:#FFFFFF;stroke-width:14.0783;stroke-linecap:round;stroke-linejoin:round;stroke-miterlimit:10;}
	.st29{fill:none;stroke:#FFFFFF;stroke-width:14.655;stroke-linecap:round;stroke-linejoin:round;stroke-miterlimit:10;}
	.st30{fill:#F1413D;stroke:#FFFFFF;stroke-width:14.4715;stroke-linecap:round;stroke-linejoin:round;stroke-miterlimit:10;}
	.st31{fill:#F1413D;stroke:#FFFFFF;stroke-width:27;stroke-linecap:round;stroke-linejoin:round;stroke-miterlimit:10;}
	.st32{fill:#006DFF;stroke:#FFFFFF;stroke-width:14.0953;stroke-miterlimit:10;}
	.st33{fill:none;stroke:#006DFF;stroke-width:14.0953;stroke-linecap:round;stroke-miterlimit:10;}
	.st34{fill:none;stroke:#006DFF;stroke-width:14.7982;stroke-miterlimit:10;}
	.st35{fill:none;stroke:#006DFF;stroke-width:14.0953;stroke-miterlimit:10;}
	.st36{fill:#006DFF;stroke:#FFFFFF;stroke-width:14.0953;stroke-linecap:round;stroke-linejoin:round;stroke-miterlimit:10;}
	.st37{fill:#C46CC7;stroke:#FFFFFF;stroke-width:14.0953;stroke-miterlimit:10;}
	.st38{fill:#FFFFFF;stroke:#C46CC7;stroke-width:13;stroke-miterlimit:10;}
	.st39{fill:#FFFFFF;stroke:#C46CC7;stroke-width:14.0953;stroke-linecap:round;stroke-miterlimit:10;}
	.st40{fill:#FFFFFF;stroke:#C46CC7;stroke-width:14.7982;stroke-miterlimit:10;}
	.st41{fill:#FFFFFF;stroke:#C46CC7;stroke-width:14.0953;stroke-miterlimit:10;}
	.st42{fill:#C46CC7;stroke:#FFFFFF;stroke-width:14.0953;stroke-linecap:round;stroke-linejoin:round;stroke-miterlimit:10;}
	.st43{fill:#FFFFFF;stroke:#006DFF;stroke-miterlimit:10;}
	.st44{fill:#006DFF;stroke:#006DFF;stroke-width:12;stroke-miterlimit:10;}
	.st45{fill:#FFFFFF;stroke:#006DFF;stroke-width:12;stroke-miterlimit:10;}
	.st46{fill:#FFFFFF;stroke:#FFFFFF;stroke-width:12;stroke-miterlimit:10;}
	.st47{fill:#008080;stroke:#FFFFFF;stroke-width:12;stroke-miterlimit:10;}
	.st48{fill:none;stroke:#006DFF;stroke-width:11.9462;stroke-miterlimit:10;}
	.st49{fill:none;stroke:#FFFFFF;stroke-width:11.9462;stroke-miterlimit:10;}
	.st50{fill:#F9DC32;stroke:#FFFFFF;stroke-width:13;stroke-linecap:round;stroke-linejoin:round;stroke-miterlimit:10;}
	.st51{fill:#F9DC32;stroke:#FFFFFF;stroke-width:13;stroke-miterlimit:10;}
</style>
<path class="st32" d="M196.8,116.9c14.1-43.1,54.6-74.3,102.4-74.3c59.5,0,107.7,48.2,107.7,107.7c0,38.4-20.1,72.2-50.4,91.2"/>
<path class="st6" d="M102.7,250.5c-40-15.7-68.3-54.7-68.3-100.3c0-59.5,48.2-107.7,107.7-107.7c46.3,0,85.8,29.2,101,70.2"/>
<path class="st33" d="M192.7,199.1l94.5,91.4c8.6,8.3,8.8,22,0.5,30.5l-1.3,1.3c-8.3,8.6-22,8.8-30.5,0.5l-103.1-100"/>
<path class="st34" d="M137.7,208.5l118.5,114.9c6.8,6.5,7.4,16.8,1.5,23l-9.8,10.1c-5.9,6.1-16.2,5.8-23-0.8L106.3,240.8"/>
<path class="st35" d="M243.2,122.5L362.4,238c8.6,8.3,8.8,22,0.5,30.5l-1.3,1.3c-8.3,8.6-22,8.8-30.5,0.5L211.9,154.8"/>
<path class="st33" d="M208.3,151.7l119.1,115.5c8.6,8.3,8.8,22,0.5,30.5l-1.3,1.3c-8.3,8.6-22,8.8-30.5,0.5L192.9,199.5"/>
<path class="st32" d="M135.1,306.7l-15.9-15.9c-3.8-3.8-3.8-10.1,0-13.9l42.3-42.3c3.8-3.8,10.1-3.8,13.9,0l15.9,15.9
	c3.8,3.8,3.8,10.1,0,13.9L149,306.7C145.1,310.6,138.9,310.6,135.1,306.7z"/>
<path class="st32" d="M102.7,277.6l-15.9-15.9c-3.8-3.8-3.8-10.1,0-13.9l42.3-42.3c3.8-3.8,10.1-3.8,13.9,0l15.9,15.9
	c3.8,3.8,3.8,10.1,0,13.9l-42.3,42.3C112.8,281.4,106.5,281.4,102.7,277.6z"/>
<path class="st32" d="M165.5,337l-15.9-15.9c-3.8-3.8-3.8-10.1,0-13.9l42.3-42.3c3.8-3.8,10.1-3.8,13.9,0l15.9,15.9
	c3.8,3.8,3.8,10.1,0,13.9L179.5,337C175.6,340.8,169.4,340.8,165.5,337z"/>
<path class="st32" d="M196.7,366.8l-15.9-15.9c-3.8-3.8-3.8-10.1,0-13.9l42.3-42.3c3.8-3.8,10.1-3.8,13.9,0l15.9,15.9
	c3.8,3.8,3.8,10.1,0,13.9l-42.3,42.3C206.8,370.7,200.6,370.7,196.7,366.8z"/>
<path class="st36" d="M232.6,65.7l-90.4,88.8c0,0,54.1,47.1,117.6-35"/>
</svg>
