<svg id="Layer_1" data-name="Layer 1" xmlns="http://www.w3.org/2000/svg" viewBox="0 0 812 768"><defs><style>.cls-1,.cls-6{fill:#006dff;stroke:#fff;}.cls-1,.cls-2,.cls-3,.cls-4,.cls-5{stroke-miterlimit:10;}.cls-1,.cls-3,.cls-5,.cls-6{stroke-width:14.1px;}.cls-2,.cls-3,.cls-4,.cls-5{fill:#fff;stroke:#006dff;}.cls-2{stroke-width:13px;}.cls-3,.cls-6{stroke-linecap:round;}.cls-4{stroke-width:14.8px;}.cls-6{stroke-linejoin:round;}</style></defs><title>discipline_icons</title><circle class="cls-1" cx="507.28" cy="226.27" r="107.71"/><circle class="cls-2" cx="350.15" cy="226.27" r="107.71"/><path class="cls-3" d="M400.68,275.11l94.53,91.41a21.6,21.6,0,0,1,.47,30.54l-1.25,1.29a21.6,21.6,0,0,1-30.54.47l-103.09-100"/><path class="cls-4" d="M345.67,284.52l118.49,114.9c6.75,6.55,7.41,16.83,1.47,23l-9.8,10.11c-5.94,6.13-16.24,5.79-23-.76L314.34,316.82"/><path class="cls-5" d="M451.21,198.5L570.36,314a21.6,21.6,0,0,1,.47,30.54l-1.25,1.29a21.6,21.6,0,0,1-30.54.47L419.89,230.8"/><path class="cls-3" d="M416.31,227.75L535.45,343.29a21.6,21.6,0,0,1,.47,30.54l-1.25,1.29a21.6,21.6,0,0,1-30.54.47L400.89,275.47"/><rect class="cls-1" x="342.17" y="306.89" width="42.15" height="79.54" rx="9.85" ry="9.85" transform="translate(351.52 -155.32) rotate(45)"/><rect class="cls-1" x="309.8" y="277.73" width="42.15" height="79.54" rx="9.85" ry="9.85" transform="translate(321.42 -140.97) rotate(45)"/><rect class="cls-1" x="372.63" y="337.12" width="42.15" height="79.54" rx="9.85" ry="9.85" transform="translate(381.82 -168) rotate(45)"/><rect class="cls-1" x="403.84" y="366.97" width="42.15" height="79.54" rx="9.85" ry="9.85" transform="translate(412.07 -181.33) rotate(45)"/><path class="cls-6" d="M440.56,141.73l-90.41,88.82s54.15,47.08,117.64-35"/></svg>