<svg id="Layer_1" data-name="Layer 1" xmlns="http://www.w3.org/2000/svg" viewBox="0 0 1024 716"><defs><style>.cls-1{fill:none;stroke:#006dff;stroke-miterlimit:10;stroke-width:11.95px;}</style></defs><title>discipline_icons</title><path class="cls-1" d="M443.24,125.82c30.15,1.85,60.3,3.77,90.46,5.53C549.88,132.3,551.59,144,547,155.88c-1.11,2.85-6.79,5.56-10.43,5.63-17.18.33-34.39,0-51.57-.67-6.51-.25-8.94,1.74-8.59,8.13s-2.72,15.06.49,18.85c3,3.5,12.29,1.62,18.75,2.53,15.06,2.12,30.21,3.89,45.08,7,11.38,2.34,15.61,14.27,8.5,23.3-2.23,2.84-7.4,4.92-11.19,4.88-18.3-.2-36.59-1-54.87-2.11-5.73-.33-8.27.67-7.17,6.89s-0.8,15.11,2.83,18.56,12.5,1.81,19.09,2.2c16.61,1,33.24,1.62,49.83,2.86,12.47,0.94,20.56,16.18,14.65,27-3.21,5.91-8.89,5.48-14.58,5.07-20.17-1.46-40.37-2.58-60.52-4.36-8.14-.72-10.55,1.81-10.08,9.78,0.89,15.17.78,30.39,1,45.6,0.15,11.62-5.72,17.25-17.86,17.36-12.81.12-18.06-4.69-18.08-16.66,0-17.1-.19-34.21.1-51.31,0.09-5.19-1.28-7-6.89-7-16.64.24-33.32,0.43-49.91-.55-4.74-.28-11.38-3.55-13.27-7.32-2.14-4.27-.89-10.94.78-16,0.84-2.53,5.81-5.14,9-5.28q25.74-1.12,51.53-.8c5.48,0.07,7.32-1.06,7-6.59-1.25-24.14,3.94-19.9-20.47-20.71-11.36-.37-22.74.12-34.11,0.13-8,0-13.17-4.53-13.9-12-1-9.88,3.14-16.64,11.76-17.36q24.84-2.08,49.77-2.89c5.26-.16,7.56-1.09,7.08-6.62-0.67-7.72,2-18-2-22.48-3.6-4-14.55-1.75-22.27-2-10.53-.31-21.08-0.2-31.62-0.56-10.84-.36-16.93-7-16.87-18,0-7.65,6.54-12.87,17-13,19.41-.18,38.83-0.05,58.24-0.05Z"/><path class="cls-1" d="M309.88,363.9c-3.76-3-8.6-5.4-11.09-9.22-6.68-10.28-12.07-21.36-18.63-31.72-1.88-3-5.77-6-9.16-6.54-41.53-6.83-83.15-13.11-124.69-19.83-4.74-.77-9.88-2.47-13.6-5.29-10.46-7.94-10.3-17.76.25-25.5q40.59-29.79,81.58-59.05c4.89-3.48,6.23-6,2.89-11.6-7.28-12.15-13.8-24.75-20.43-37.26-5-9.5-2.8-17.67,5.76-22.22s17.47-1.88,22.67,6.85c6.84,11.48,13.63,23,20,34.73,2.63,4.86,4.62,5.89,9.86,2.74q29.39-17.65,59.46-34.23a31.73,31.73,0,0,1,14-3.82c7.1-.19,11.92,4.19,13.89,10.81s-1.35,11.43-7.13,14.89c-22.22,13.3-44.32,26.8-66.7,39.84-5.12,3-6.15,5.45-3.52,10.85q15.74,32.29,30.53,65c2.44,5.43,5.72,7.71,11.53,8.53,26.32,3.71,52.6,7.75,78.88,11.75,10.92,1.66,15,6.82,13.78,17.21-1,8.63-5.91,12.31-14.68,11.19-20.33-2.6-40.69-5-61-7.76-5.58-.75-6.23.91-4,5.44,2,4.16,3.65,8.49,5.43,12.76C330.57,354.16,324.57,362.39,309.88,363.9ZM176.11,273.72c28.43,3.64,54.91,7,81.37,10.47,5.14,0.68,5-1.08,3.11-4.78-7.88-15.19-15.72-30.39-23.32-45.71-2-4.06-3.7-4.37-7.25-1.59-14,11-28.28,21.7-42.43,32.55C184.21,267.25,180.9,269.93,176.11,273.72Z"/><path class="cls-1" d="M570.46,313.07l71.78-158.62c5-10.95,14.12-17.56,26.46-17.56h2.65c12.36,0,21.18,6.61,26.18,17.56L769.3,313.07a20.67,20.67,0,0,1-19.12,30.24c-10.59,0-17.65-6-21.77-15.26l-13.82-31.67H624l-14.42,33.1c-3.82,8.65-11.47,13.83-20.88,13.83a20.62,20.62,0,0,1-20.88-20.74C567.81,319.4,569,316.23,570.46,313.07Zm127.36-55.84-28.54-66.5-28.52,66.5h57.06Z"/></svg>