<?xml version="1.0" encoding="utf-8"?>
<!-- Generator: Adobe Illustrator 19.2.0, SVG Export Plug-In . SVG Version: 6.00 Build 0)  -->
<svg version="1.1" id="Layer_1" xmlns="http://www.w3.org/2000/svg" xmlns:xlink="http://www.w3.org/1999/xlink" x="0px" y="0px"
	 viewBox="0 0 684.1 339.3" style="enable-background:new 0 0 684.1 339.3;" xml:space="preserve">
<style type="text/css">
	.st0{fill:#F9DC32;}
	.st1{fill:none;stroke:#006DFF;stroke-width:13.6756;stroke-linecap:round;stroke-linejoin:round;stroke-miterlimit:10;}
	.st2{fill:none;stroke:#006DFF;stroke-width:13;stroke-linecap:round;stroke-linejoin:round;stroke-miterlimit:10;}
	.st3{fill:#006DFF;}
	.st4{fill:none;stroke:#FFFFFF;stroke-width:13;stroke-linecap:round;stroke-linejoin:round;stroke-miterlimit:10;}
	.st5{fill:#FFFFFF;}
	.st6{fill:none;stroke:#006DFF;stroke-width:13;stroke-miterlimit:10;}
	.st7{fill:none;stroke:#FFFFFF;stroke-width:13;stroke-miterlimit:10;}
	.st8{fill:#5123AF;stroke:#FFFFFF;stroke-width:13;stroke-miterlimit:10;}
	.st9{fill:none;stroke:#006DFF;stroke-width:12;stroke-miterlimit:10;}
	.st10{fill:#006DFF;stroke:#006DFF;stroke-miterlimit:10;}
	.st11{fill:none;stroke:#FFFFFF;stroke-width:12;stroke-miterlimit:10;}
	.st12{fill:#FFFFFF;stroke:#FFFFFF;stroke-miterlimit:10;}
	.st13{fill:none;}
	.st14{fill:#FFFFFF;stroke:#006DFF;stroke-width:12;stroke-linecap:round;stroke-linejoin:round;stroke-miterlimit:10;}
	.st15{fill:none;stroke:#006DFF;stroke-width:12;stroke-linecap:round;stroke-linejoin:round;stroke-miterlimit:10;}
	.st16{fill:#EAE050;stroke:#FFFFFF;stroke-width:12;stroke-linecap:round;stroke-linejoin:round;stroke-miterlimit:10;}
	.st17{fill:none;stroke:#FFFFFF;stroke-width:12;stroke-linecap:round;stroke-linejoin:round;stroke-miterlimit:10;}
	.st18{fill:none;stroke:#006DFF;stroke-width:11.1252;stroke-linecap:round;stroke-linejoin:round;stroke-miterlimit:10;}
	.st19{fill:#006DFF;stroke:#006DFF;stroke-width:13;stroke-linecap:round;stroke-linejoin:round;stroke-miterlimit:10;}
	.st20{fill:none;stroke:#FFFFFF;stroke-width:11.5112;stroke-miterlimit:10;}
	.st21{fill:#FFFFFF;stroke:#FFFFFF;stroke-width:3;stroke-linecap:round;stroke-linejoin:round;stroke-miterlimit:10;}
	.st22{fill:#FFFFFF;stroke:#FFFFFF;stroke-width:13;stroke-linecap:round;stroke-linejoin:round;stroke-miterlimit:10;}
	.st23{fill:none;stroke:#AEA38A;stroke-width:11.5112;stroke-miterlimit:10;}
	.st24{fill:#AEA38A;stroke:#AEA38A;stroke-width:3;stroke-linecap:round;stroke-linejoin:round;stroke-miterlimit:10;}
	.st25{fill:#AEA38A;}
	.st26{fill:none;stroke:#006DFF;stroke-width:14.4715;stroke-linecap:round;stroke-linejoin:round;stroke-miterlimit:10;}
	.st27{fill:none;stroke:#006DFF;stroke-width:27;stroke-linecap:round;stroke-linejoin:round;stroke-miterlimit:10;}
	.st28{fill:none;stroke:#FFFFFF;stroke-width:14.0783;stroke-linecap:round;stroke-linejoin:round;stroke-miterlimit:10;}
	.st29{fill:none;stroke:#FFFFFF;stroke-width:14.655;stroke-linecap:round;stroke-linejoin:round;stroke-miterlimit:10;}
	.st30{fill:#F1413D;stroke:#FFFFFF;stroke-width:14.4715;stroke-linecap:round;stroke-linejoin:round;stroke-miterlimit:10;}
	.st31{fill:#F1413D;stroke:#FFFFFF;stroke-width:27;stroke-linecap:round;stroke-linejoin:round;stroke-miterlimit:10;}
	.st32{fill:#006DFF;stroke:#FFFFFF;stroke-width:14.0953;stroke-miterlimit:10;}
	.st33{fill:none;stroke:#006DFF;stroke-width:14.0953;stroke-linecap:round;stroke-miterlimit:10;}
	.st34{fill:none;stroke:#006DFF;stroke-width:14.7982;stroke-miterlimit:10;}
	.st35{fill:none;stroke:#006DFF;stroke-width:14.0953;stroke-miterlimit:10;}
	.st36{fill:#006DFF;stroke:#FFFFFF;stroke-width:14.0953;stroke-linecap:round;stroke-linejoin:round;stroke-miterlimit:10;}
	.st37{fill:#C46CC7;stroke:#FFFFFF;stroke-width:14.0953;stroke-miterlimit:10;}
	.st38{fill:#FFFFFF;stroke:#C46CC7;stroke-width:13;stroke-miterlimit:10;}
	.st39{fill:#FFFFFF;stroke:#C46CC7;stroke-width:14.0953;stroke-linecap:round;stroke-miterlimit:10;}
	.st40{fill:#FFFFFF;stroke:#C46CC7;stroke-width:14.7982;stroke-miterlimit:10;}
	.st41{fill:#FFFFFF;stroke:#C46CC7;stroke-width:14.0953;stroke-miterlimit:10;}
	.st42{fill:#C46CC7;stroke:#FFFFFF;stroke-width:14.0953;stroke-linecap:round;stroke-linejoin:round;stroke-miterlimit:10;}
	.st43{fill:#FFFFFF;stroke:#006DFF;stroke-miterlimit:10;}
	.st44{fill:#006DFF;stroke:#006DFF;stroke-width:12;stroke-miterlimit:10;}
	.st45{fill:#FFFFFF;stroke:#006DFF;stroke-width:12;stroke-miterlimit:10;}
	.st46{fill:#FFFFFF;stroke:#FFFFFF;stroke-width:12;stroke-miterlimit:10;}
	.st47{fill:#008080;stroke:#FFFFFF;stroke-width:12;stroke-miterlimit:10;}
	.st48{fill:none;stroke:#006DFF;stroke-width:11.9462;stroke-miterlimit:10;}
	.st49{fill:none;stroke:#FFFFFF;stroke-width:11.9462;stroke-miterlimit:10;}
	.st50{fill:#F9DC32;stroke:#FFFFFF;stroke-width:13;stroke-linecap:round;stroke-linejoin:round;stroke-miterlimit:10;}
	.st51{fill:#F9DC32;stroke:#FFFFFF;stroke-width:13;stroke-miterlimit:10;}
</style>
<g>
	<path class="st48" d="M339.3,61.8c30.2,1.9,60.3,3.8,90.5,5.5c16.2,0.9,17.9,12.7,13.3,24.5c-1.1,2.8-6.8,5.6-10.4,5.6
		c-17.2,0.3-34.4,0-51.6-0.7c-6.5-0.2-8.9,1.7-8.6,8.1c0.3,6.5-2.7,15.1,0.5,18.9c3,3.5,12.3,1.6,18.8,2.5c15.1,2.1,30.2,3.9,45.1,7
		c11.4,2.3,15.6,14.3,8.5,23.3c-2.2,2.8-7.4,4.9-11.2,4.9c-18.3-0.2-36.6-1-54.9-2.1c-5.7-0.3-8.3,0.7-7.2,6.9
		c1.1,6.3-0.8,15.1,2.8,18.6c3.7,3.5,12.5,1.8,19.1,2.2c16.6,1,33.2,1.6,49.8,2.9c12.5,0.9,20.6,16.2,14.6,27
		c-3.2,5.9-8.9,5.5-14.6,5.1c-20.2-1.5-40.4-2.6-60.5-4.4c-8.1-0.7-10.6,1.8-10.1,9.8c0.9,15.2,0.8,30.4,1,45.6
		c0.2,11.6-5.7,17.2-17.9,17.4c-12.8,0.1-18.1-4.7-18.1-16.7c0-17.1-0.2-34.2,0.1-51.3c0.1-5.2-1.3-7-6.9-7
		c-16.6,0.2-33.3,0.4-49.9-0.5c-4.7-0.3-11.4-3.5-13.3-7.3c-2.1-4.3-0.9-10.9,0.8-16c0.8-2.5,5.8-5.1,9-5.3
		c17.2-0.7,34.4-1,51.5-0.8c5.5,0.1,7.3-1.1,7-6.6c-1.2-24.1,3.9-19.9-20.5-20.7c-11.4-0.4-22.7,0.1-34.1,0.1c-8,0-13.2-4.5-13.9-12
		c-1-9.9,3.1-16.6,11.8-17.4c16.6-1.4,33.2-2.4,49.8-2.9c5.3-0.2,7.6-1.1,7.1-6.6c-0.7-7.7,2-18-2-22.5c-3.6-4-14.6-1.7-22.3-2
		c-10.5-0.3-21.1-0.2-31.6-0.6c-10.8-0.4-16.9-7-16.9-18c0-7.7,6.5-12.9,17-13c19.4-0.2,38.8-0.1,58.2-0.1
		C339.3,62.9,339.3,62.4,339.3,61.8z"/>
	<path class="st48" d="M206,299.9c-3.8-3-8.6-5.4-11.1-9.2c-6.7-10.3-12.1-21.4-18.6-31.7c-1.9-3-5.8-6-9.2-6.5
		c-41.5-6.8-83.1-13.1-124.7-19.8c-4.7-0.8-9.9-2.5-13.6-5.3c-10.5-7.9-10.3-17.8,0.3-25.5c27.1-19.9,54.2-39.6,81.6-59.1
		c4.9-3.5,6.2-6,2.9-11.6c-7.3-12.2-13.8-24.8-20.4-37.3c-5-9.5-2.8-17.7,5.8-22.2c8.4-4.5,17.5-1.9,22.7,6.9
		c6.8,11.5,13.6,23,20,34.7c2.6,4.9,4.6,5.9,9.9,2.7c19.6-11.8,39.5-23.1,59.5-34.2c4.1-2.3,9.3-3.7,14-3.8
		c7.1-0.2,11.9,4.2,13.9,10.8c2,6.8-1.4,11.4-7.1,14.9c-22.2,13.3-44.3,26.8-66.7,39.8c-5.1,3-6.1,5.4-3.5,10.8
		c10.5,21.5,20.7,43.2,30.5,65c2.4,5.4,5.7,7.7,11.5,8.5c26.3,3.7,52.6,7.8,78.9,11.7c10.9,1.7,15,6.8,13.8,17.2
		c-1,8.6-5.9,12.3-14.7,11.2c-20.3-2.6-40.7-5-61-7.8c-5.6-0.7-6.2,0.9-4,5.4c2,4.2,3.7,8.5,5.4,12.8
		C226.7,290.2,220.7,298.4,206,299.9z M72.2,209.7c28.4,3.6,54.9,7,81.4,10.5c5.1,0.7,5-1.1,3.1-4.8c-7.9-15.2-15.7-30.4-23.3-45.7
		c-2-4.1-3.7-4.4-7.2-1.6c-14,11-28.3,21.7-42.4,32.5C80.3,203.3,77,205.9,72.2,209.7z"/>
	<g>
		<path class="st48" d="M466.6,249.1l71.8-158.6c5-10.9,14.1-17.6,26.5-17.6h2.6c12.4,0,21.2,6.6,26.2,17.6l71.8,158.6
			c1.5,3.2,2.3,6,2.3,8.9c0,11.8-9.4,21.3-21.5,21.3c-10.6,0-17.7-6-21.8-15.3l-13.8-31.7h-90.6l-14.4,33.1
			c-3.8,8.6-11.5,13.8-20.9,13.8c-11.8,0-20.9-9.2-20.9-20.7C463.9,255.4,465.1,252.2,466.6,249.1z M593.9,193.2l-28.5-66.5
			l-28.5,66.5H593.9z"/>
	</g>
</g>
</svg>
