<?xml version="1.0" encoding="utf-8"?>
<!-- Generator: Adobe Illustrator 19.2.0, SVG Export Plug-In . SVG Version: 6.00 Build 0)  -->
<svg version="1.1" id="Layer_1" xmlns="http://www.w3.org/2000/svg" xmlns:xlink="http://www.w3.org/1999/xlink" x="0px" y="0px"
	 viewBox="0 0 684.1 339.3" style="enable-background:new 0 0 684.1 339.3;" xml:space="preserve">
<style type="text/css">
	.st0{fill:#006DFF;}
</style>
<g>
	<g>
		<path class="st0" d="M356,296.3c-8.2,0-13.9-1.8-17.9-5.8c-3.8-3.8-5.7-9.3-5.7-16.8c0-3.8,0-7.5,0-11.3c0-13.1-0.1-26.7,0.1-40.1
			c0-0.4,0-0.6,0-0.9c-0.2,0-0.5,0-0.8,0c-17.9,0.3-34.1,0.4-50.3-0.6c-6.4-0.4-15.2-4.5-18.3-10.6c-3.2-6.3-1.5-14.6,0.5-20.5
			c1.9-5.7,9.7-9.2,14.4-9.4c17.1-0.7,34.6-1,51.9-0.8c0.4,0,0.7,0,1,0c0-0.1,0-0.2,0-0.3c-0.2-4.3-0.2-7.8-0.3-10.5
			c0-1.5,0-3.2-0.1-4.3c-1.3-0.1-3.2-0.1-5.1-0.1c-2.5,0-5.5,0-9.2-0.1c-7.1-0.2-14.5-0.1-21.6,0c-4,0.1-8.2,0.1-12.3,0.1
			c0,0,0,0,0,0c-11,0-18.8-6.8-19.8-17.4c-0.7-7.2,0.8-13.3,4.4-17.6c3.1-3.7,7.5-5.9,12.8-6.3c16.9-1.4,33.8-2.4,50.1-2.9
			c0.5,0,1,0,1.3-0.1c0,0,0,0,0-0.1c-0.3-3-0.1-6.1,0.1-9.1c0.2-3.2,0.5-8.4-0.5-9.8c-1.6-0.8-7.4-0.5-10.5-0.3
			c-2.5,0.1-5.1,0.3-7.6,0.2c-5-0.1-10.1-0.2-15-0.3c-5.5-0.1-11.1-0.1-16.7-0.3c-14-0.5-22.7-9.7-22.6-24
			c0.1-11.2,9.3-18.8,22.9-18.9c13.7-0.1,27.7-0.1,41.2-0.1c3.8,0,7.6,0,11.4,0l0.1-2l6.1,0.4c8.9,0.5,17.7,1.1,26.6,1.6
			c20.9,1.3,42.6,2.6,63.8,3.9c10.6,0.6,15.7,5.3,18.1,9.1c3.8,6,4,14.4,0.3,23.6c-2.3,5.9-10.9,9.3-15.9,9.4
			c-15.5,0.3-32,0.1-51.9-0.7c-1.2,0-2,0-2.4,0.1c0,0.4-0.1,0.9,0,1.8c0.2,2.8-0.2,5.7-0.5,8.4c-0.2,2-0.6,5.3-0.4,6.6
			c1.5,0.4,4.8,0.4,6.9,0.3c2.7,0,5.5,0,8.1,0.3c3.2,0.4,6.4,0.9,9.6,1.3c11.8,1.6,24,3.3,35.9,5.7c7.4,1.5,13.2,6.3,15.6,12.9
			c2.4,6.6,1.1,14-3.6,20c-3.7,4.7-10.8,7.2-15.8,7.2c-0.1,0-0.1,0-0.2,0c-15.9-0.2-33-0.8-55.1-2.1c-0.4,0-0.7,0-0.9,0
			c0.5,2.7,0.5,5.5,0.5,8.2c0,2.2,0,5.9,0.6,7c1.2,0.7,6.1,0.6,8.7,0.5c2.2-0.1,4.4-0.1,6.5,0c6.1,0.4,12.2,0.7,18.2,1
			c10.4,0.5,21.1,1.1,31.7,1.9c7.8,0.6,14.9,5.4,19,12.8c4.1,7.5,4.3,16.1,0.5,23.1c-5,9.3-14.2,8.6-20.2,8.2
			c-6.9-0.5-13.7-1-20.6-1.4c-13.1-0.9-26.7-1.8-40.1-3c-2-0.2-3-0.1-3.5,0c-0.1,0.5-0.2,1.5-0.1,3.5c0.7,11.7,0.8,23.6,0.9,35.1
			c0,3.6,0.1,7.2,0.1,10.8c0.1,7.3-1.9,13-5.8,17c-4.1,4.2-10.1,6.3-18,6.4C356.3,296.3,356.1,296.3,356,296.3z M331.9,209.5
			c2.8,0,6.6,0.4,9.4,3.2c2.9,2.9,3.2,6.8,3.1,9.9c-0.2,13.3-0.2,26.8-0.1,39.9c0,3.8,0,7.6,0,11.3c0,4.1,0.7,6.9,2.2,8.4
			c1.6,1.6,4.9,2.4,9.9,2.3c4.6,0,7.8-1,9.6-2.8c1.6-1.7,2.4-4.5,2.4-8.5c0-3.6-0.1-7.2-0.1-10.8c-0.1-11.3-0.2-23.1-0.9-34.5
			c-0.2-4.1,0-9.2,3.6-12.8c3.7-3.6,9.2-3.6,12.9-3.3c13.2,1.2,26.8,2.1,39.8,2.9c6.9,0.5,13.7,0.9,20.6,1.4c6.3,0.5,7.7,0.1,8.9-2
			c1.8-3.4,1.7-7.7-0.5-11.6c-2.1-3.8-5.6-6.3-9.4-6.6c-10.4-0.8-21.1-1.3-31.5-1.9c-6-0.3-12.2-0.6-18.3-1c-1.6-0.1-3.5,0-5.5,0
			c-6.1,0.2-12.9,0.4-17.3-3.8c-4.2-4-4.2-10.1-4.3-15.6c0-2.2,0-4.6-0.3-6.3c-0.3-1.7-1.2-6.9,2.1-10.6c3.4-3.8,8.7-3.5,11.3-3.3
			c22,1.3,38.8,1.9,54.6,2.1c0,0,0,0,0.1,0c2.2,0,5.5-1.5,6.4-2.6c2.1-2.7,2.7-5.8,1.8-8.5c-1-2.7-3.4-4.6-6.8-5.3
			c-11.5-2.4-23.5-4-35.1-5.6c-3.2-0.4-6.4-0.9-9.6-1.3c-1.8-0.3-4.1-0.2-6.4-0.2c-6.1,0-12.3,0.1-16.1-4.4c-3.7-4.4-3-10.6-2.4-16
			c0.3-2.3,0.6-4.6,0.5-6.4c-0.1-1.8-0.4-7.2,3.3-10.9c3.4-3.4,8.2-3.6,11.5-3.5c19.7,0.7,36,1,51.2,0.7c1.5,0,4.3-1.3,5.1-2.1
			c2-5.4,2.3-9.9,0.6-12.5c-1.4-2.1-4.3-3.3-8.8-3.6c-21.3-1.2-42.9-2.6-63.9-3.9c-6.8-0.4-13.7-0.8-20.5-1.3l0,1.3h-5.8
			c-5.7,0-11.4,0-17.1,0c-13.5,0-27.4-0.1-41.1,0.1c-2.6,0-11,0.6-11,7c0,7.8,3.6,11.8,11.1,12c5.4,0.2,11,0.2,16.4,0.3
			c5,0.1,10.1,0.1,15.2,0.3c1.9,0.1,4.2-0.1,6.6-0.2c7.6-0.4,15.5-0.8,20,4.1c4.4,4.9,4,11.8,3.7,18.5c-0.1,2.7-0.3,5.3-0.1,7.4
			c0.1,1.5,0.5,6.1-2.5,9.4c-3.1,3.5-7.8,3.6-10.4,3.7c-16.1,0.5-32.7,1.5-49.5,2.9c-2.1,0.2-3.6,0.9-4.6,2.1
			c-1.5,1.8-2.1,4.9-1.7,8.8c0.4,4.4,3,6.6,7.9,6.6c0,0,0,0,0,0c4,0,8.1-0.1,12.1-0.1c7.3-0.1,14.7-0.2,22.2,0
			c3.5,0.1,6.5,0.1,8.9,0.1c6.6,0,10.7,0,13.8,2.9c3.3,3.1,3.3,7.2,3.4,13.4c0,2.6,0,5.9,0.2,9.9c0.1,2.7,0,6.7-2.8,9.6
			c-2.8,2.9-6.8,3.3-10.3,3.2c-17.1-0.2-34.3,0.1-51.2,0.8c-1,0-3,1-3.8,1.7c-1.7,5.4-1.7,9.4-1,10.9c0.7,1.3,5,3.8,8.3,4
			c15.9,0.9,31.8,0.8,49.5,0.5C331.6,209.5,331.8,209.5,331.9,209.5z M379.1,223.7C379.1,223.7,379.1,223.7,379.1,223.7
			C379.1,223.7,379.1,223.7,379.1,223.7z M330.9,121.3C330.9,121.3,330.9,121.3,330.9,121.3S330.9,121.3,330.9,121.3z M377.7,120.2
			C377.7,120.2,377.7,120.2,377.7,120.2S377.7,120.2,377.7,120.2z M377.1,119.6L377.1,119.6z"/>
	</g>
	<g>
		<path class="st0" d="M204.1,306.1l-1.9-1.5c-1-0.8-2.2-1.6-3.4-2.5c-3.1-2.1-6.6-4.5-9-8.2c-3.6-5.6-6.9-11.4-10-17
			c-2.8-4.9-5.6-10-8.7-14.8c-1.2-1.9-3.7-3.6-5.1-3.8c-23-3.8-46.3-7.4-68.9-11c-18.3-2.9-37.2-5.8-55.7-8.8
			c-3.7-0.6-10.7-2.2-16.3-6.4c-8.4-6.4-10.2-13.1-10.1-17.6c0-4.5,1.9-11.2,10.4-17.5c29.1-21.3,55.8-40.7,81.6-59.1
			c1.3-0.9,1.9-1.5,2.2-1.8c-0.1-0.3-0.3-0.9-0.9-1.9c-6.3-10.5-12.1-21.5-17.7-32.2l-2.8-5.4c-6.5-12.3-3.3-24.2,8.2-30.3
			c11.3-6,23.9-2.3,30.6,9.1c6.6,11.1,13.6,23,20.1,34.9c0.2,0.4,0.4,0.7,0.6,1c0.3-0.1,0.6-0.3,1-0.5c18.5-11.1,38-22.4,59.6-34.3
			c5-2.8,11.1-4.4,16.8-4.6c9.5-0.2,16.9,5.4,19.8,15.1c1.5,5,2.2,14.5-9.8,21.7c-6.8,4.1-13.6,8.2-20.4,12.3
			c-15.1,9.1-30.8,18.5-46.3,27.6c-1,0.6-1.6,1-1.9,1.3c0.1,0.3,0.3,0.9,0.7,1.8c11.2,22.9,21.2,44.2,30.6,65.2
			c1.5,3.4,3,4.5,6.9,5.1c23.1,3.3,46.6,6.8,69.3,10.3l9.6,1.5c14.1,2.1,20.4,10.1,18.8,23.8c-0.7,5.9-2.9,10.3-6.6,13.2
			c-3.7,2.9-8.7,4-14.8,3.2c-7.5-1-15-1.9-22.4-2.8c-11.4-1.4-23.2-2.9-34.8-4.4c0.9,2.1,1.7,4.1,2.6,6.2c0.4,1.1,0.9,2.2,1.4,3.3
			c3.7,8.9,1.9,15.3-0.4,19c-2.5,4.2-8.1,9.4-20.4,10.7L204.1,306.1z M107.1,75.5c-1.7,0-3.6,0.5-5.4,1.5c-2.1,1.1-8.4,4.5-3.3,14.1
			l2.9,5.4c5.5,10.5,11.3,21.3,17.4,31.6c6.1,10.1,0.8,15.8-4.5,19.5c-25.8,18.4-52.5,37.7-81.5,59c-3.6,2.6-5.5,5.4-5.6,8
			c0,2.5,1.9,5.3,5.4,8c2.5,1.9,6.5,3.4,10.9,4.2c18.5,3,37.4,6,55.7,8.8c22.6,3.6,46,7.2,69,11c5.7,0.9,10.8,5.4,13.2,9.2
			c3.2,5.1,6.1,10.3,9,15.4c3.1,5.4,6.2,11.1,9.6,16.3c1.1,1.6,3.3,3.2,5.7,4.8c0.7,0.5,1.3,0.9,2,1.4c4.6-0.8,7.8-2.4,9.1-4.6
			c1.5-2.5,0.6-5.9-0.4-8.3c-0.5-1.1-0.9-2.3-1.4-3.4c-1.3-3.2-2.5-6.1-3.9-9c-0.9-1.9-3.3-6.8-0.3-10.9c3-4.1,8.5-3.4,10.5-3.1
			c12.8,1.7,25.9,3.4,38.5,4.9c7.5,0.9,15,1.9,22.5,2.8c1.9,0.2,4.5,0.3,5.9-0.8c1.3-1,1.9-3.4,2.1-5.1c0.7-6.4-0.3-9.3-8.7-10.6
			l-9.6-1.5c-22.7-3.5-46.1-7-69.2-10.3c-7.9-1.1-12.9-4.8-16.1-12c-9.4-20.9-19.3-42.1-30.5-64.9c-5.2-10.6,0.9-15.7,5.9-18.6
			c15.5-9,31.1-18.4,46.2-27.5c6.8-4.1,13.6-8.2,20.5-12.3c5.4-3.2,5.2-5.7,4.5-8.1c-1.3-4.4-4-6.7-8-6.5c-3.8,0.1-8,1.2-11.3,3.1
			c-21.5,11.9-40.9,23.1-59.3,34.1c-2.8,1.7-6.4,3.4-10.4,2.3c-3.9-1.1-6.1-4.3-7.8-7.3c-6.4-11.8-13.3-23.5-19.9-34.5
			C114,77.6,110.7,75.5,107.1,75.5z M218,266.1C218,266.1,218,266.1,218,266.1S218,266.1,218,266.1z M155.4,226.3
			c-1.1,0-2-0.1-2.6-0.2c-19.5-2.6-38.9-5-59.3-7.7c-7.2-0.9-14.6-1.9-22-2.8l-14.1-1.8l11.1-8.8c1.6-1.3,3.1-2.4,4.4-3.5
			c2.6-2.1,4.9-3.9,7.2-5.6c4.5-3.4,9-6.9,13.5-10.3c9.5-7.2,19.3-14.7,28.9-22.2c1.4-1.1,4.9-3.9,9.2-2.9c4.3,1,6.3,5,7,6.5
			c7.9,15.9,16.2,31.9,23.3,45.6c1,1.9,3.3,6.4,0.6,10.4C160.7,225.8,157.7,226.3,155.4,226.3z M87.1,205.6c2.7,0.3,5.3,0.7,7.9,1
			c18.6,2.4,36.3,4.6,54,7c-6.4-12.3-13.5-26.1-20.3-39.9c-9.3,7.2-18.7,14.4-27.9,21.4c-4.5,3.4-9,6.9-13.5,10.3
			C87.2,205.5,87.2,205.5,87.1,205.6z"/>
	</g>
	<g>
		<g>
			<path class="st0" d="M646.3,285.3c-12.1,0-21.8-6.7-27.2-18.8l-12.3-28.1H524l-12.9,29.5c-4.8,10.9-14.7,17.4-26.4,17.4
				c-7.3,0-14-2.8-19.1-7.8c-5-5-7.8-11.7-7.8-18.9c0-4.5,1.6-8.6,3.2-12L532.9,88c6.2-13.6,17.5-21.1,31.9-21.1h2.6
				c14.2,0,25.4,7.5,31.6,21.1l71.8,158.6c2,4.2,2.9,7.9,2.9,11.4C673.7,273.3,661.7,285.3,646.3,285.3z M516.2,226.4h98.4
				l15.4,35.3c3.5,7.8,8.8,11.7,16.3,11.7c8.7,0,15.5-6.7,15.5-15.3c0-1.7-0.6-3.8-1.8-6.4L588.2,92.9c-4.2-9.3-11.2-14-20.7-14
				h-2.6c-12.1,0-18.1,7.6-21,14.1L472,251.6c-1,2.2-2.1,4.8-2.1,7c0,8.3,6.5,14.8,14.9,14.8c6.9,0,12.5-3.7,15.4-10.3L516.2,226.4z
				 M603,199.2h-75.2l37.6-87.6L603,199.2z M545.9,187.3h38.9l-19.5-45.4L545.9,187.3z"/>
		</g>
	</g>
</g>
</svg>
