<svg id="Layer_1" data-name="Layer 1" xmlns="http://www.w3.org/2000/svg" viewBox="0 0 744.07 768"><defs><style>.cls-1{fill:#006dff;}.cls-2,.cls-4{fill:#fff;}.cls-3,.cls-5{fill:none;}.cls-4,.cls-5{stroke:#006dff;stroke-linecap:round;stroke-linejoin:round;stroke-width:12px;}</style></defs><title>discipline_icons</title><path class="cls-1" d="M576.31,131H184.76c-6.92,0-14.82,2.77-14.82,9.9V386.64c0,7.14,7.9,14.36,14.82,14.36H336.94v1.2c0,7.14,8,16.8,15,16.8H405.7c6.92,0,10.24-9.66,10.24-16.8V401H576.31c6.92,0,11.63-7.22,11.63-14.36V140.9C587.94,133.77,583.23,131,576.31,131Z"/><rect class="cls-2" x="182.91" y="338.54" width="392.1" height="45.24"/><rect class="cls-3" x="354.9" y="360.38" width="48.12" height="38.12" rx="3.95" ry="3.95"/><path class="cls-4" d="M429.68,118.35c-37.1,2.36-50.75,17.7-50.75,17.7V383.79s14.27-26.54,66.82-26.54,126.18,23.59,126.18,23.59V136s-65.58-26-142.25-17.7"/><path class="cls-4" d="M378.94,136V383.79s-15.27-26.54-67.82-26.54-127.18,23.59-127.18,23.59V136s66.58-26,143.25-17.7C364.29,120.71,378.94,136,378.94,136Z"/><line class="cls-5" x1="417.94" y1="177" x2="533.94" y2="177"/><line class="cls-5" x1="417.94" y1="217" x2="533.94" y2="217"/><line class="cls-5" x1="417.94" y1="257" x2="533.94" y2="257"/><line class="cls-5" x1="417.94" y1="297" x2="533.94" y2="297"/></svg>