<?xml version="1.0" encoding="utf-8"?>
<!-- Generator: Adobe Illustrator 19.2.0, SVG Export Plug-In . SVG Version: 6.00 Build 0)  -->
<svg version="1.1" id="Layer_1" xmlns="http://www.w3.org/2000/svg" xmlns:xlink="http://www.w3.org/1999/xlink" x="0px" y="0px"
	 viewBox="0 0 464 382.3" style="enable-background:new 0 0 464 382.3;" xml:space="preserve">
<style type="text/css">
	.st0{fill:#006DFF;}
</style>
<path class="st0" d="M422.4,55h-21.7c10.7,2.9,17.3,5,17.3,5l3.1,247.7h-172v10.8c0,2.2-1.8,3.9-3.9,3.9h-40.2
	c-2.2,0-3.9-1.8-3.9-3.9v-10.8H29L30,60c0,0,7.7-2.2,20-5H30.8C23.9,55,16,57.8,16,64.9v245.7c0,7.1,7.9,14.4,14.8,14.4H183v1.2
	c0,7.1,8,16.8,15,16.8h53.8c6.9,0,10.2-9.7,10.2-16.8V325h160.4c6.9,0,11.6-7.2,11.6-14.4V64.9C434,57.8,429.3,55,422.4,55z"/>
<g>
	<path class="st0" d="M420.2,54.5c-2.7-1.1-67.8-26.4-145-18.1c-27.8,1.8-43.4,10.6-50.3,15.8c-7.1-5.2-23.3-14.1-51.1-15.8
		c-77.2-8.3-143.2,17-145.9,18.1C25.5,55.4,24,57.6,24,60v244.8c0,1.9,0.9,3.7,2.5,4.8c1.5,1.1,3.5,1.5,5.4,0.9
		c0.7-0.2,74.4-23.3,125.4-23.3c46.6,0,61.3,21.4,62.5,23.4c0,0,0.1,0.1,0.1,0.1c0,0,0,0,0,0c0,0,0,0,0,0c0.8,1.4,2.1,2.4,3.7,2.8
		c0.5,0.1,1,0.2,1.5,0.2c2.2,0,4.2-1.2,5.3-3.1c0.5-1,13.8-23.4,61.6-23.4c51,0,123.6,23.1,124.3,23.3c1.8,0.6,3.8,0.3,5.4-0.9
		c1.5-1.1,2.5-2.9,2.5-4.8V60C424,57.6,422.5,55.4,420.2,54.5z M219,293c-10.6-8.2-29.8-17.7-61.8-17.7c-22.3,0-50.7,4-84.7,12
		c-15.5,3.6-28.7,7.3-36.5,9.6V64.3c15.1-5.2,72.6-22.8,136.6-16c0.1,0,0.2,0,0.3,0c27.3,1.7,41.5,10.9,46.1,14.4V293z M412,296.7
		c-7.8-2.3-20.7-5.9-36-9.5c-33.6-7.9-61.9-12-84.2-12c-31.6,0-50.4,9.2-60.8,17.4v-230c4.3-3.5,17.9-12.6,45.1-14.3
		c0.1,0,0.2,0,0.3,0c63.9-6.9,120.7,10.8,135.6,15.9V296.7z"/>
	<path class="st0" d="M258,101c0,3.3,2.7,6,6,6h116c3.3,0,6-2.7,6-6s-2.7-6-6-6H264C260.7,95,258,97.7,258,101z"/>
</g>
<g>
	<path class="st0" d="M380,147H264c-3.3,0-6-2.7-6-6s2.7-6,6-6h116c3.3,0,6,2.7,6,6S383.3,147,380,147z"/>
</g>
<g>
	<path class="st0" d="M380,187H264c-3.3,0-6-2.7-6-6s2.7-6,6-6h116c3.3,0,6,2.7,6,6S383.3,187,380,187z"/>
</g>
<g>
	<path class="st0" d="M380,227H264c-3.3,0-6-2.7-6-6s2.7-6,6-6h116c3.3,0,6,2.7,6,6S383.3,227,380,227z"/>
</g>
</svg>
