<?xml version="1.0" encoding="utf-8"?>
<!-- Generator: Adobe Illustrator 19.2.0, SVG Export Plug-In . SVG Version: 6.00 Build 0)  -->
<svg version="1.1" id="Layer_1" xmlns="http://www.w3.org/2000/svg" xmlns:xlink="http://www.w3.org/1999/xlink" x="0px" y="0px"
	 viewBox="0 0 448 432" style="enable-background:new 0 0 448 432;" xml:space="preserve">
<style type="text/css">
	.st0{fill:#006DFF;}
</style>
<g>
	<path class="st0" d="M367.8,91.6h-44.3c2.3-3.8,3.5-8.1,3.5-12.7v-33c0-14.7-13.3-26.7-29.7-26.7H133.8c-16.4,0-29.7,12-29.7,26.7
		v33c0,4.6,1.3,8.9,3.5,12.7H63.4c-16.9,0-30.6,13.7-30.6,30.6v231.1c0,16.9,13.7,30.6,30.6,30.6h304.4c16.9,0,30.6-13.7,30.6-30.6
		V122.2C398.5,105.3,384.7,91.6,367.8,91.6z M164.9,91.6c-6.9-1.4-12-6.5-12-12.5v-5.1c0-7.1,7.1-12.9,15.9-12.9h93.7
		c8.7,0,15.9,5.8,15.9,12.9V79c0,6.1-5.1,11.1-12,12.5H164.9z M117.8,78.9v-33c0-7.2,7.2-13.1,16-13.1h163.6c8.8,0,16,5.9,16,13.1
		v33c0,6.1-5.2,11.2-12.2,12.7h-12.8c2.2-3.7,3.5-8,3.5-12.5v-5.1c0-14.7-13.3-26.6-29.5-26.6h-93.7c-16.3,0-29.5,11.9-29.5,26.6V79
		c0,4.5,1.3,8.8,3.5,12.5H130C123,90.1,117.8,85,117.8,78.9z M384,353.3c0,8.9-7.3,16.2-16.2,16.2H63.4c-8.9,0-16.2-7.3-16.2-16.2
		V122.2c0-8.9,7.3-16.2,16.2-16.2h304.4c8.9,0,16.2,7.3,16.2,16.2V353.3z"/>
	<path class="st0" d="M274.5,226.3h-46.4v-46.4c0-7.5-6-13.5-13.5-13.5s-13.5,6-13.5,13.5v46.4h-46.4c-7.5,0-13.5,6-13.5,13.5
		s6,13.5,13.5,13.5h46.4v46.4c0,7.5,6,13.5,13.5,13.5s13.5-6,13.5-13.5v-46.4h46.4c7.5,0,13.5-6,13.5-13.5S282,226.3,274.5,226.3z"
		/>
</g>
</svg>
