<?xml version="1.0" encoding="utf-8"?>
<!-- Generator: Adobe Illustrator 19.2.0, SVG Export Plug-In . SVG Version: 6.00 Build 0)  -->
<svg version="1.1" id="Layer_1" xmlns="http://www.w3.org/2000/svg" xmlns:xlink="http://www.w3.org/1999/xlink" x="0px" y="0px"
	 viewBox="0 0 432 302.2" style="enable-background:new 0 0 432 302.2;" xml:space="preserve">
<style type="text/css">
	.st0{fill:#006DFF;}
</style>
<path class="st0" d="M398.4,49.4c-10-10.1-22-17.1-35.1-22.3c-13-5.2-26.4-8.5-40.3-10.2c-13.2-1.7-26.3-2.5-39.3-2.5
	c-38.9,0-76.9,7.6-113.7,23c-18.7,7.8-35.8,18.2-50.4,32.4c-21.5,21-33.1,46.3-33.6,76.5c-0.2,13.4,1.9,26.6,5.5,39.7
	c-29.2,11-56,25.7-75.2,51.5c2,1.5,3.8,2.9,5.6,4.1c1.8,1.3,3.7,2.6,5.6,4c17.6-23.2,41.8-36.3,68.4-46.3c0.4,0.9,0.7,1.7,1,2.4
	c6.7,17.6,15.3,34.1,27.7,48.4c19.9,23.1,44.7,36.3,75.4,37.5c1.6,0.1,3.3,0.1,4.9,0.1c21.2,0,41.4-5.6,61-13.7
	c25.9-10.7,49.4-25.3,71-43.1c28.5-23.5,53-50.5,69.4-84c6.2-12.7,10.6-26,12-40.1C420.3,84.7,414.1,65.4,398.4,49.4z M250,47.3
	c-4.5,33.8-8.9,67.6-13.4,101.4c-0.2,1.3-0.3,2.3-2,2.7c-14.9,3.1-29.8,6.3-44.7,9.5c0,0-0.1,0-0.1,0c-0.1,0-0.3,0-0.6-0.1
	c0.3-3.5,0.6-6.9,1-10.4c3.7-35.7,7.3-71.4,11-107.1c0.2-1.6,0.7-2.4,2.4-2.9c15.3-4.4,30.8-7.7,46.5-9.6c0.6-0.1,1.2-0.1,2.1-0.2
	C251.5,36.3,250.8,41.8,250,47.3z M396.8,74.1c-14.4,15.3-31,27.9-49.4,38.1c-7.6,4.2-15.4,7.8-23.2,11.6c-0.5,0.3-1.1,0.4-2,0.7
	c5.2-30.2,10.4-60,15.6-90.3c1.7,0.4,3.3,0.7,4.9,1.2c14.7,4.1,28.6,9.8,40.7,19.4c5.5,4.3,10,9.4,13.6,15.4
	C398.2,71.7,398.2,72.6,396.8,74.1z M322.2,44.4c-4.9,28.1-9.8,56.2-14.9,84.3c-0.2,0.9-1.1,2.2-1.9,2.5
	c-17.4,6.6-35.3,11.7-53.4,16.1c-0.2,0.1-0.5,0-1,0c5.1-39.4,10.2-78.6,15.4-118c6.8-0.5,13.6-0.7,20.4-0.7c12.5,0,25,0.9,37.7,2.9
	C323.7,35.8,323,40.1,322.2,44.4z M187,46.3c-4.1,39.2-8.2,78.3-12.3,117.7c-10.7,2.3-21.3,4.7-32,7c0.1-8.3,0.1-16.4,0.2-24.6
	c0.2-25.3,0.4-50.6,0.6-75.9c0-1.3,0.2-2.3,1.4-3.1c12.9-8.7,26.7-15.5,41.2-21C186.4,46.3,186.5,46.3,187,46.3z M129.1,83
	c-0.3,29.6-0.5,59.2-0.7,88.9c0,2.1-0.6,2.9-2.7,3.5c-6.8,1.7-13.4,3.7-20.4,5.7c-10.2-37.8-5.6-72,23.7-100.9
	C129.1,81.4,129.1,82.2,129.1,83z M131.9,188.4c0.1,0,0.1,0,0.2,0c0.7,0,1.7,0.7,2.2,1.3c12.6,14.1,25.2,28.2,37.8,42.3
	c11.6,13,23.3,26.1,34.9,39.1c0.5,0.5,0.9,1,1.6,1.9c-1.1,0-2.2,0-3.3,0c-23.1,0-43.1-7.4-60.1-22.9c-13.4-12.1-23-26.9-30.4-43.2
	c-1.8-4-3.4-8.1-5.3-12.4C117.2,192.3,124.5,190.3,131.9,188.4z M226.8,270.7c-0.7,0-1.3-0.2-1.9-1c-25.1-28.3-50.2-56.5-75.3-84.7
	c-0.2-0.2-0.3-0.4-0.7-0.9c7.3-1.6,14.3-3.1,21.3-4.6c1.6-0.3,3.3-0.5,4.8-1c1-0.4,2-0.5,2.9-0.5c2.1,0,4,0.9,6,2.2
	c31.3,20.9,62.7,41.6,94.1,62.4c2.5,1.6,4.9,3.3,7.8,5.2c-5.9,3-11.5,5.9-17.1,8.6c-13.1,6.1-26.5,11.4-40.8,14.2
	C227.6,270.6,227.2,270.7,226.8,270.7z M311.9,230.9c-3.5,2.6-7.2,5-10.9,7.5c-0.6,0.4-1,0.6-1.5,0.6c-0.4,0-0.9-0.2-1.4-0.5
	c-32.2-21.3-64.4-42.5-96.6-63.7c-0.5-0.3-1-0.7-1.7-1.3c4.1-0.9,7.7-1.6,11.4-2.4c9.7-2.1,19.5-4.3,29.2-6.3c0.3-0.1,0.7-0.1,1-0.1
	c0.9,0,1.8,0.2,2.5,0.6c24.3,13.3,48.5,26.7,72.7,40.1c4.8,2.7,9.6,5.3,14.4,7.9c0.5,0.3,1,0.7,2.1,1.4
	C325.8,220.3,318.9,225.7,311.9,230.9z M343.4,204.3c-0.4,0-0.9-0.2-1.5-0.5c-17-9.6-34.1-19.1-51.2-28.6
	c-8.8-4.9-17.5-9.8-26.3-14.7c-0.5-0.3-0.9-0.5-1.9-1.1c1.1-0.4,1.8-0.6,2.5-0.8c15.4-4.8,30.9-9.5,46.3-14.4
	c0.8-0.2,1.5-0.4,2.2-0.4c1.3,0,2.4,0.4,3.7,0.8c9.8,3.7,19.5,7.4,29.3,11c9.3,3.5,18.7,7,28,10.5c0.6,0.2,1.3,0.6,2.4,1.1
	c-3.7,4.7-7,9.3-10.8,13.5c-6.8,7.6-13.9,14.9-20.8,22.3C344.7,204,344.1,204.3,343.4,204.3z M386,153.5c-0.5,0.9-1,1.3-1.8,1.3
	c-0.4,0-0.8-0.1-1.3-0.3c-15-5.7-30-11.3-44.9-16.9c-1.5-0.6-3-1.2-5.1-2c26.3-11.9,49.9-27,70.4-47.7c1.5,9.7,0.7,18.8-1.4,27.8
	C398.8,129.2,393,141.6,386,153.5z"/>
</svg>
