<?xml version="1.0" encoding="utf-8"?>
<!-- Generator: Adobe Illustrator 19.2.0, SVG Export Plug-In . SVG Version: 6.00 Build 0)  -->
<svg version="1.1" id="Layer_1" xmlns="http://www.w3.org/2000/svg" xmlns:xlink="http://www.w3.org/1999/xlink" x="0px" y="0px"
	 viewBox="0 0 432 302.2" style="enable-background:new 0 0 432 302.2;" xml:space="preserve">
<style type="text/css">
	.st0{fill:#F9DC32;}
	.st1{fill:none;stroke:#006DFF;stroke-width:13.6756;stroke-linecap:round;stroke-linejoin:round;stroke-miterlimit:10;}
	.st2{fill:none;stroke:#006DFF;stroke-width:13;stroke-linecap:round;stroke-linejoin:round;stroke-miterlimit:10;}
	.st3{fill:#006DFF;}
	.st4{fill:none;stroke:#FFFFFF;stroke-width:13;stroke-linecap:round;stroke-linejoin:round;stroke-miterlimit:10;}
	.st5{fill:#FFFFFF;}
	.st6{fill:none;stroke:#006DFF;stroke-width:13;stroke-miterlimit:10;}
	.st7{fill:none;stroke:#FFFFFF;stroke-width:13;stroke-miterlimit:10;}
	.st8{fill:#5123AF;stroke:#FFFFFF;stroke-width:13;stroke-miterlimit:10;}
	.st9{fill:none;stroke:#006DFF;stroke-width:12;stroke-miterlimit:10;}
	.st10{fill:#006DFF;stroke:#006DFF;stroke-miterlimit:10;}
	.st11{fill:none;stroke:#FFFFFF;stroke-width:12;stroke-miterlimit:10;}
	.st12{fill:#FFFFFF;stroke:#FFFFFF;stroke-miterlimit:10;}
	.st13{fill:none;}
	.st14{fill:#FFFFFF;stroke:#006DFF;stroke-width:12;stroke-linecap:round;stroke-linejoin:round;stroke-miterlimit:10;}
	.st15{fill:none;stroke:#006DFF;stroke-width:12;stroke-linecap:round;stroke-linejoin:round;stroke-miterlimit:10;}
	.st16{fill:#EAE050;stroke:#FFFFFF;stroke-width:12;stroke-linecap:round;stroke-linejoin:round;stroke-miterlimit:10;}
	.st17{fill:none;stroke:#FFFFFF;stroke-width:12;stroke-linecap:round;stroke-linejoin:round;stroke-miterlimit:10;}
	.st18{fill:none;stroke:#006DFF;stroke-width:11.1252;stroke-linecap:round;stroke-linejoin:round;stroke-miterlimit:10;}
	.st19{fill:#006DFF;stroke:#006DFF;stroke-width:13;stroke-linecap:round;stroke-linejoin:round;stroke-miterlimit:10;}
	.st20{fill:none;stroke:#FFFFFF;stroke-width:11.5112;stroke-miterlimit:10;}
	.st21{fill:#FFFFFF;stroke:#FFFFFF;stroke-width:3;stroke-linecap:round;stroke-linejoin:round;stroke-miterlimit:10;}
	.st22{fill:#FFFFFF;stroke:#FFFFFF;stroke-width:13;stroke-linecap:round;stroke-linejoin:round;stroke-miterlimit:10;}
	.st23{fill:none;stroke:#AEA38A;stroke-width:11.5112;stroke-miterlimit:10;}
	.st24{fill:#AEA38A;stroke:#AEA38A;stroke-width:3;stroke-linecap:round;stroke-linejoin:round;stroke-miterlimit:10;}
	.st25{fill:#AEA38A;}
	.st26{fill:none;stroke:#006DFF;stroke-width:14.4715;stroke-linecap:round;stroke-linejoin:round;stroke-miterlimit:10;}
	.st27{fill:none;stroke:#006DFF;stroke-width:27;stroke-linecap:round;stroke-linejoin:round;stroke-miterlimit:10;}
	.st28{fill:none;stroke:#FFFFFF;stroke-width:14.0783;stroke-linecap:round;stroke-linejoin:round;stroke-miterlimit:10;}
	.st29{fill:none;stroke:#FFFFFF;stroke-width:14.655;stroke-linecap:round;stroke-linejoin:round;stroke-miterlimit:10;}
	.st30{fill:#F1413D;stroke:#FFFFFF;stroke-width:14.4715;stroke-linecap:round;stroke-linejoin:round;stroke-miterlimit:10;}
	.st31{fill:#F1413D;stroke:#FFFFFF;stroke-width:27;stroke-linecap:round;stroke-linejoin:round;stroke-miterlimit:10;}
	.st32{fill:#006DFF;stroke:#FFFFFF;stroke-width:14.0953;stroke-miterlimit:10;}
	.st33{fill:none;stroke:#006DFF;stroke-width:14.0953;stroke-linecap:round;stroke-miterlimit:10;}
	.st34{fill:none;stroke:#006DFF;stroke-width:14.7982;stroke-miterlimit:10;}
	.st35{fill:none;stroke:#006DFF;stroke-width:14.0953;stroke-miterlimit:10;}
	.st36{fill:#006DFF;stroke:#FFFFFF;stroke-width:14.0953;stroke-linecap:round;stroke-linejoin:round;stroke-miterlimit:10;}
	.st37{fill:#C46CC7;stroke:#FFFFFF;stroke-width:14.0953;stroke-miterlimit:10;}
	.st38{fill:#FFFFFF;stroke:#C46CC7;stroke-width:13;stroke-miterlimit:10;}
	.st39{fill:#FFFFFF;stroke:#C46CC7;stroke-width:14.0953;stroke-linecap:round;stroke-miterlimit:10;}
	.st40{fill:#FFFFFF;stroke:#C46CC7;stroke-width:14.7982;stroke-miterlimit:10;}
	.st41{fill:#FFFFFF;stroke:#C46CC7;stroke-width:14.0953;stroke-miterlimit:10;}
	.st42{fill:#C46CC7;stroke:#FFFFFF;stroke-width:14.0953;stroke-linecap:round;stroke-linejoin:round;stroke-miterlimit:10;}
	.st43{fill:#FFFFFF;stroke:#006DFF;stroke-miterlimit:10;}
	.st44{fill:#006DFF;stroke:#006DFF;stroke-width:12;stroke-miterlimit:10;}
	.st45{fill:#FFFFFF;stroke:#006DFF;stroke-width:12;stroke-miterlimit:10;}
	.st46{fill:#FFFFFF;stroke:#FFFFFF;stroke-width:12;stroke-miterlimit:10;}
	.st47{fill:#008080;stroke:#FFFFFF;stroke-width:12;stroke-miterlimit:10;}
	.st48{fill:none;stroke:#006DFF;stroke-width:11.9462;stroke-miterlimit:10;}
	.st49{fill:none;stroke:#FFFFFF;stroke-width:11.9462;stroke-miterlimit:10;}
	.st50{fill:#F9DC32;stroke:#FFFFFF;stroke-width:13;stroke-linecap:round;stroke-linejoin:round;stroke-miterlimit:10;}
	.st51{fill:#F9DC32;stroke:#FFFFFF;stroke-width:13;stroke-miterlimit:10;}
</style>
<g>
	<path class="st3" d="M204.8,281.7c-1.6,0-3.1,0-4.7-0.1c-28.4-1.2-51.6-12.7-71.1-35.4c-10.7-12.5-19.2-27.3-26.6-46.7
		c-0.2-0.5-0.4-1-0.6-1.6l-0.4-0.9c-0.9-2.3-3.2-3.8-5.6-3.8c-0.7,0-1.4,0.1-2.1,0.4c-21.1,8-47.5,20-67.4,43.7
		c-0.3-0.2-1.3-1-1.5-1.1c15.6-18.9,37.1-32.8,68.8-44.8c2.9-1.1,4.5-4.2,3.7-7.2c-3.8-13.5-5.5-25.9-5.3-38
		c0.5-27.9,11.1-52.2,31.8-72.3c13.3-12.9,29.1-23.1,48.5-31.2c35.8-14.9,73.3-22.5,111.4-22.5c12.7,0,25.6,0.8,38.6,2.5
		c13.7,1.7,26.7,5.1,38.8,9.9c13.8,5.5,24.6,12.3,33,20.9c14.2,14.5,20.1,31.7,18.1,52.6c-1.2,12.4-5,24.9-11.4,38.1
		c-14.4,29.5-36.6,56.3-67.8,82c-21.7,17.9-45.1,32-69.5,42.1C241.7,277.5,223.1,281.7,204.8,281.7z M132.1,182.3
		c-0.6,0-1.2,0.1-1.7,0.2c-5.8,1.5-11.6,3.1-17.6,4.8l-4.8,1.3c-1.7,0.5-3,1.6-3.8,3.2s-0.8,3.3-0.1,4.9c0.6,1.4,1.2,2.8,1.7,4.1
		c1.2,2.9,2.4,5.7,3.6,8.5c8.4,18.6,18.8,33.4,31.8,45.2c17.9,16.2,39.4,24.4,64.1,24.4c1.2,0,2.3,0,3.5-0.1
		c2.3-0.1,4.3-1.4,5.3-3.5c0.9-2.1,0.6-4.5-0.8-6.3l-0.6-0.8c-0.4-0.5-0.8-0.9-1.1-1.3c0,0-28.4-31.7-34.9-39.1l-9.7-10.9
		c-9.3-10.5-18.7-20.9-28-31.4C138.2,185.1,135.6,182.3,132.1,182.3z M178,171.9c-1.6,0-3.3,0.3-4.9,0.9c-0.5,0.2-1.3,0.3-2.1,0.4
		c-0.6,0.1-1.3,0.2-1.9,0.4c-5.2,1.1-10.4,2.2-15.6,3.4l-5.7,1.2c-2,0.4-3.6,1.8-4.3,3.7s-0.5,4,0.7,5.6l0.3,0.4
		c0.2,0.3,0.4,0.6,0.8,1l13.4,15.1c20.3,22.8,41.2,46.4,61.8,69.6c2.2,2.5,4.7,3,6.4,3c0.9,0,1.7-0.1,2.3-0.3
		c12.9-2.6,26.3-7.2,42.2-14.7c4-1.9,7.8-3.8,11.8-5.9c1.8-0.9,3.6-1.9,5.5-2.8c1.9-1,3.2-2.9,3.3-5c0.1-2.1-0.9-4.2-2.7-5.3
		l-2.7-1.8c-1.8-1.2-3.5-2.3-5.2-3.4l-21.2-14c-23.9-15.8-48.6-32.2-72.8-48.3C185.1,173.6,182,171.9,178,171.9z M241.4,158.7
		c-0.8,0-1.5,0.1-2.2,0.2c-7.2,1.5-14.4,3.1-21.4,4.6c-2.6,0.6-5.2,1.1-7.8,1.7c-2.5,0.5-5,1.1-7.6,1.6l-3.8,0.8
		c-2.3,0.5-4.1,2.3-4.6,4.6c-0.5,2.3,0.4,4.7,2.2,6.1c0.3,0.2,0.5,0.4,0.7,0.5c0.5,0.4,0.9,0.7,1.4,1l20.2,13.3
		c25.5,16.8,50.9,33.5,76.3,50.4c1.5,1,3.1,1.5,4.7,1.5c2.5,0,4.4-1.3,5-1.7c1.3-0.9,2.6-1.8,4-2.7c2.3-1.6,4.7-3.2,7-4.9
		c5-3.7,9.8-7.4,14.9-11.4c2.1-1.6,4.2-3.3,6.4-4.9c1.5-1.2,2.4-3,2.3-4.9c-0.1-1.9-1.1-3.7-2.7-4.8c-0.4-0.2-0.6-0.4-0.9-0.6
		c-0.5-0.4-1-0.7-1.7-1.1c-2.1-1.2-4.2-2.3-6.3-3.4c-2.7-1.5-5.4-3-8.1-4.4l-16.6-9.2c-18.4-10.2-37.4-20.7-56.1-30.9
		C245.2,159.2,243.3,158.7,241.4,158.7z M313.6,137.9c-1.3,0-2.7,0.2-4,0.6c-11.5,3.7-23.3,7.3-34.7,10.9c-3.8,1.2-7.7,2.4-11.5,3.6
		c-0.5,0.1-0.9,0.3-1.6,0.5l-1,0.3c-2.2,0.7-3.8,2.7-4.1,5.1c-0.2,2.3,0.9,4.6,2.9,5.8l0.8,0.5c0.5,0.3,0.8,0.5,1.1,0.7l34.7,19.3
		c14,7.8,28.5,15.9,42.8,23.9c1.5,0.8,3,1.2,4.4,1.2h0c2.3,0,4.4-1,6.3-3c2.6-2.8,5.1-5.5,7.7-8.2c4.4-4.6,8.9-9.4,13.2-14.2
		c2.7-3,5.2-6.3,7.6-9.4c1.1-1.4,2.2-2.9,3.4-4.3c1.1-1.4,1.6-3.3,1.1-5.1s-1.6-3.3-3.3-4c-0.4-0.2-0.7-0.3-1-0.5
		c-0.6-0.3-1.2-0.6-1.8-0.8c-6.1-2.3-12.1-4.6-18.2-6.9l-18.8-7.1c-6.8-2.6-13.5-5.1-20.3-7.7C317.8,138.5,315.8,137.9,313.6,137.9z
		 M129,74.2c-1.5,0-3.1,0.6-4.2,1.7c-28.7,28.3-37,63.2-25.3,106.7c0.4,1.5,1.4,2.9,2.8,3.7c0.9,0.5,1.9,0.8,3,0.8
		c0.5,0,1.1-0.1,1.6-0.2c2-0.6,3.9-1.1,5.8-1.7c5-1.4,9.7-2.8,14.5-4c4.7-1.2,7.2-4.4,7.2-9.2c0.1-22.9,0.3-46.1,0.5-68.6l0.2-20.3
		c0-0.6,0-1.2,0-2l0-1.1c-0.1-2.4-1.5-4.5-3.8-5.4C130.5,74.4,129.8,74.2,129,74.2z M187,40.3c-0.2,0-0.4,0-0.5,0l-0.2,0
		c-0.4,0-1.2,0.1-2.1,0.4c-16,6-29.9,13.1-42.5,21.6c-4,2.7-4,6.7-4.1,8c-0.1,20.1-0.3,40.2-0.5,60.2l-0.3,40.2
		c0,1.8,0.8,3.6,2.2,4.7c1.1,0.9,2.4,1.3,3.8,1.3c0.4,0,0.9,0,1.3-0.1l32-7c2.5-0.6,4.4-2.7,4.7-5.2L193,46.9
		c0.2-1.8-0.4-3.5-1.7-4.8C190.1,40.9,188.6,40.3,187,40.3z M252.2,24.6c-0.2,0-0.4,0-0.6,0l-0.7,0.1c-0.5,0-1,0.1-1.5,0.1
		c-15.8,1.9-31.8,5.2-47.5,9.8c-2.7,0.8-6.1,2.8-6.7,8c-2.7,27-5.5,53.9-8.3,80.9l-2.7,26.3c-0.2,2.4-0.5,4.8-0.7,7.2l-0.3,3.2
		c-0.2,1.6,0.3,3.2,1.4,4.4c1,1.2,2.5,2,4.1,2.1l0.1,0c0.4,0,0.7,0.1,1,0.1c0.5,0,0.9,0,1.4-0.1l11.9-2.5
		c10.7-2.3,21.8-4.6,32.7-6.9c3.9-0.8,6.1-3.4,6.7-7.7c3.1-23.6,6.2-47.1,9.3-70.7l4.1-30.8c0.5-3.8,1-7.5,1.5-11.3l0.7-5.4
		c0.2-1.8-0.4-3.6-1.6-4.9C255.4,25.3,253.8,24.6,252.2,24.6z M403.4,81.9c-1.6,0-3.1,0.6-4.3,1.8c-18.6,18.8-41,34-68.6,46.4
		c-2.2,1-3.6,3.2-3.5,5.6c0.1,2.4,1.6,4.5,3.8,5.4l1.9,0.8c1.2,0.5,2.2,0.9,3.3,1.3l12.1,4.5c10.8,4,21.9,8.2,32.8,12.4
		c1.2,0.5,2.3,0.7,3.4,0.7h0c1.7,0,4.8-0.6,6.9-4.3c8.4-14.3,13.7-26.8,16.6-39.5c2.5-10.6,3-20.4,1.5-30.1
		c-0.3-2.2-1.9-4.1-4.1-4.8C404.6,82,404,81.9,403.4,81.9z M286.8,22.5c-6.7,0-13.7,0.3-20.8,0.8c-2.8,0.2-5.1,2.4-5.5,5.2
		l-15.4,118c-0.2,1.7,0.3,3.5,1.5,4.8c1.1,1.2,2.7,2,4.4,2c0.1,0,0.5,0,0.5,0c0.4,0,1.1,0,1.9-0.2c21-5.1,38.2-10.3,54.1-16.3
		c2.8-1.1,5.1-3.9,5.7-7c4.6-25.8,9.2-52,13.6-77.4l1.2-6.9c0.5-3,1-5.9,1.5-9l0.7-4.1c0.3-1.6-0.1-3.2-1-4.5
		c-0.9-1.3-2.4-2.2-3.9-2.4C312.8,23.5,300.2,22.5,286.8,22.5z M337.9,28.1c-1.2,0-2.3,0.3-3.3,1c-1.4,0.9-2.3,2.3-2.6,4l-15.6,90.3
		c-0.4,2.1,0.4,4.2,2,5.6c1.1,0.9,2.5,1.5,3.9,1.5c0.6,0,1.3-0.1,1.9-0.3c0.2-0.1,0.4-0.1,0.6-0.2c0.6-0.2,1.3-0.4,2.1-0.8
		c2.3-1.1,4.6-2.3,6.9-3.4c5.4-2.6,11-5.3,16.5-8.3c19.2-10.6,36.4-23.8,50.8-39.2c3.2-3.4,3.6-7.2,1.2-11.2c-3.9-6.5-9-12.2-15-17
		c-11.4-9-25-15.5-42.9-20.5c-1.2-0.3-2.4-0.6-3.6-0.9c-0.5-0.1-1-0.2-1.5-0.4C338.9,28.2,338.4,28.1,337.9,28.1z"/>
	<path class="st3" d="M283.7,14.4c-38.9,0-76.9,7.6-113.7,23c-18.7,7.8-35.8,18.2-50.4,32.4c-21.5,21-33.1,46.3-33.6,76.5
		c-0.2,13.4,1.9,26.6,5.5,39.7c-29.2,11-56,25.7-75.2,51.5c2,1.5,3.8,2.9,5.6,4.1c1.8,1.3,3.7,2.6,5.6,4
		c17.6-23.2,41.8-36.3,68.4-46.3c0.4,0.9,0.7,1.7,1,2.4c6.7,17.6,15.3,34.1,27.7,48.4c19.9,23.1,44.7,36.3,75.4,37.5
		c1.6,0.1,3.3,0.1,4.9,0.1c21.2,0,41.4-5.6,61-13.7c25.9-10.7,49.4-25.3,71-43.1c28.5-23.5,53-50.5,69.4-84
		c6.2-12.7,10.6-26,12-40.1c2.2-22.1-4.1-41.4-19.8-57.4c-10-10.1-22-17.1-35.1-22.3c-13-5.2-26.4-8.5-40.3-10.2
		C309.8,15.2,296.7,14.4,283.7,14.4L283.7,14.4z M251,147.3c5.1-39.4,10.2-78.6,15.4-118c6.8-0.5,13.6-0.7,20.4-0.7
		c12.5,0,25,0.9,37.7,2.9c-0.8,4.4-1.5,8.7-2.2,13c-4.9,28.1-9.8,56.2-14.9,84.3c-0.2,0.9-1.1,2.2-1.9,2.5
		c-17.4,6.6-35.3,11.7-53.4,16.1C251.8,147.3,251.6,147.2,251,147.3L251,147.3z M252.2,30.6c-0.7,5.7-1.4,11.2-2.1,16.7
		c-4.5,33.8-8.9,67.6-13.4,101.4c-0.2,1.3-0.3,2.3-2,2.7c-14.9,3.1-29.8,6.3-44.7,9.5c0,0-0.1,0-0.1,0c-0.1,0-0.3,0-0.6-0.1
		c0.3-3.5,0.6-6.9,1-10.4c3.7-35.7,7.3-71.4,11-107.1c0.2-1.6,0.7-2.4,2.4-2.9c15.3-4.4,30.8-7.7,46.5-9.6
		C250.7,30.7,251.4,30.7,252.2,30.6L252.2,30.6z M322.3,124.4c5.2-30.2,10.4-60,15.6-90.3c1.7,0.4,3.3,0.7,4.9,1.2
		c14.7,4.1,28.6,9.8,40.7,19.4c5.5,4.3,10,9.4,13.6,15.4c0.9,1.6,0.9,2.5-0.4,4c-14.4,15.3-31,27.9-49.4,38.1
		c-7.6,4.2-15.4,7.8-23.2,11.6C323.8,124,323.2,124.1,322.3,124.4L322.3,124.4z M187,46.3c-4.1,39.2-8.2,78.3-12.3,117.7
		c-10.7,2.3-21.3,4.7-32,7c0.1-8.3,0.1-16.4,0.2-24.6c0.2-25.3,0.4-50.6,0.6-75.9c0-1.3,0.2-2.3,1.4-3.1c12.9-8.7,26.7-15.5,41.2-21
		C186.4,46.3,186.5,46.3,187,46.3L187,46.3z M105.3,181.1c-10.2-37.8-5.6-72,23.7-100.9c0,1.2,0.1,2,0.1,2.8
		c-0.3,29.6-0.5,59.2-0.7,88.9c0,2.1-0.6,2.9-2.7,3.5C119,177.1,112.3,179.1,105.3,181.1L105.3,181.1z M384.2,154.8
		c-0.4,0-0.8-0.1-1.3-0.3c-15-5.7-30-11.3-44.9-16.9c-1.5-0.6-3-1.2-5.1-2c26.3-11.9,49.9-27,70.4-47.7c1.5,9.7,0.7,18.8-1.4,27.8
		c-3.2,13.5-9,25.9-16,37.8C385.5,154.4,385,154.8,384.2,154.8L384.2,154.8z M343.4,204.3c-0.4,0-0.9-0.2-1.5-0.5
		c-17-9.6-34.1-19.1-51.2-28.6c-8.8-4.9-17.5-9.8-26.3-14.7c-0.5-0.3-0.9-0.5-1.9-1.1c1.1-0.4,1.8-0.6,2.5-0.8
		c15.4-4.8,30.9-9.5,46.3-14.4c0.8-0.2,1.5-0.4,2.2-0.4c1.3,0,2.4,0.4,3.7,0.8c9.8,3.7,19.5,7.4,29.3,11c9.3,3.5,18.7,7,28,10.5
		c0.6,0.2,1.3,0.6,2.4,1.1c-3.7,4.7-7,9.3-10.8,13.5c-6.8,7.6-13.9,14.9-20.8,22.3C344.7,204,344.1,204.3,343.4,204.3L343.4,204.3z
		 M299.5,239c-0.4,0-0.9-0.2-1.4-0.5c-32.2-21.3-64.4-42.5-96.6-63.7c-0.5-0.3-1-0.7-1.7-1.3c4.1-0.9,7.7-1.6,11.4-2.4
		c9.7-2.1,19.5-4.3,29.2-6.3c0.3-0.1,0.7-0.1,1-0.1c0.9,0,1.8,0.2,2.5,0.6c24.3,13.3,48.5,26.7,72.7,40.1c4.8,2.7,9.6,5.3,14.4,7.9
		c0.5,0.3,1,0.7,2.1,1.4c-7.3,5.6-14.3,11-21.3,16.2c-3.5,2.6-7.2,5-10.9,7.5C300.5,238.8,300,239,299.5,239L299.5,239z
		 M226.8,270.7c-0.7,0-1.3-0.2-1.9-1c-25.1-28.3-50.2-56.5-75.3-84.7c-0.2-0.2-0.3-0.4-0.7-0.9c7.3-1.6,14.3-3.1,21.3-4.6
		c1.6-0.3,3.3-0.5,4.8-1c1-0.4,2-0.5,2.9-0.5c2.1,0,4,0.9,6,2.2c31.3,20.9,62.7,41.6,94.1,62.4c2.5,1.6,4.9,3.3,7.8,5.2
		c-5.9,3-11.5,5.9-17.1,8.6c-13.1,6.1-26.5,11.4-40.8,14.2C227.6,270.6,227.2,270.7,226.8,270.7L226.8,270.7z M205.2,273
		c-23.1,0-43.1-7.4-60.1-22.9c-13.4-12.1-23-26.9-30.4-43.2c-1.8-4-3.4-8.1-5.3-12.4c7.7-2.1,15-4.2,22.3-6.1c0.1,0,0.1,0,0.2,0
		c0.7,0,1.7,0.7,2.2,1.3c12.6,14.1,25.2,28.2,37.8,42.3c11.6,13,23.3,26.1,34.9,39.1c0.5,0.5,0.9,1,1.6,1.9
		C207.4,272.9,206.3,273,205.2,273L205.2,273z"/>
</g>
</svg>
