<svg id="Layer_1" data-name="Layer 1" xmlns="http://www.w3.org/2000/svg" viewBox="0 0 792 681.74"><defs><style>.cls-1{fill:#006dff;}</style></defs><title>discipline_icons</title><path class="cls-1" d="M346.09,418.6c-1.55,0-3.12,0-4.66-.09-28.36-1.15-51.63-12.74-71.12-35.43-10.72-12.48-19.17-27.3-26.6-46.66-0.19-.5-0.4-1-0.62-1.57l-0.35-.88a6,6,0,0,0-7.67-3.38c-21.14,8-47.52,20-67.42,43.73l-1.53-1.12c15.63-18.86,37.15-32.8,68.84-44.76a6,6,0,0,0,3.66-7.22,131.92,131.92,0,0,1-5.32-38C233.73,255.37,244.42,231,265,211c13.27-12.92,29.13-23.13,48.51-31.21A288.21,288.21,0,0,1,425,157.25a306.4,306.4,0,0,1,38.57,2.48,159.87,159.87,0,0,1,38.81,9.87c13.8,5.48,24.61,12.32,33,20.91,14.24,14.49,20.15,31.69,18.07,52.59-1.23,12.41-5,24.87-11.43,38.11-14.38,29.48-36.56,56.32-67.79,82a275,275,0,0,1-69.49,42.15C383,414.4,364.35,418.6,346.09,418.6Zm-72.75-99.37a6.8,6.8,0,0,0-1.7.21c-5.84,1.51-11.55,3.1-17.59,4.79l-4.84,1.35a6,6,0,0,0-3.92,8.1c0.59,1.39,1.15,2.75,1.7,4.09,1.21,2.93,2.36,5.7,3.62,8.49,8.41,18.62,18.81,33.39,31.79,45.17,17.87,16.2,39.44,24.42,64.11,24.42q1.73,0,3.48-.05a6,6,0,0,0,4.45-9.79l-0.64-.79c-0.43-.53-0.76-0.94-1.12-1.34l-34.93-39.11-9.71-10.88q-14-15.71-28-31.39C279.52,322,276.89,319.23,273.34,319.23Zm46-10.44a14.42,14.42,0,0,0-4.93.9,13.82,13.82,0,0,1-2.11.45c-0.65.11-1.29,0.22-1.92,0.35l-15.64,3.36-5.7,1.23a6,6,0,0,0-3.61,9.34l0.31,0.44a9.8,9.8,0,0,0,.77,1L299.9,341c20.27,22.8,41.23,46.38,61.81,69.6a8.38,8.38,0,0,0,6.42,3,11.63,11.63,0,0,0,2.32-.26c12.88-2.58,26.28-7.25,42.16-14.69,4-1.86,7.77-3.81,11.79-5.87,1.8-.92,3.62-1.86,5.48-2.8a6,6,0,0,0,.63-10.33l-2.68-1.79-5.17-3.45-21.21-14c-23.89-15.81-48.59-32.17-72.84-48.32A16.62,16.62,0,0,0,319.3,308.79Zm63.38-13.17a11,11,0,0,0-2.22.22c-7.16,1.48-14.41,3.06-21.42,4.59l-7.84,1.7-7.58,1.62-3.8.81a6,6,0,0,0-2.36,10.64l0.67,0.51c0.53,0.41.95,0.72,1.38,1l20.22,13.33q38.18,25.16,76.33,50.35a8.42,8.42,0,0,0,4.69,1.49,8.67,8.67,0,0,0,5-1.68c1.31-.91,2.64-1.8,4-2.69,2.32-1.55,4.71-3.15,7-4.89,5-3.72,9.82-7.44,14.93-11.37l6.4-4.92a6,6,0,0,0-.31-9.73l-0.88-.6a18.25,18.25,0,0,0-1.65-1.06l-6.3-3.45q-4.07-2.22-8.12-4.45l-16.6-9.17c-18.39-10.15-37.4-20.65-56.13-30.94A11.39,11.39,0,0,0,382.68,295.62Zm72.18-20.8a13.16,13.16,0,0,0-4,.64c-11.54,3.7-23.32,7.34-34.71,10.86l-11.52,3.56-1.56.5-1,.34a6,6,0,0,0-1.16,10.87l0.83,0.48,1.13,0.65,34.7,19.33c14,7.82,28.53,15.9,42.77,23.88a8.93,8.93,0,0,0,4.44,1.25h0a8.4,8.4,0,0,0,6.28-3q3.84-4.13,7.73-8.23c4.35-4.6,8.85-9.36,13.18-14.18,2.73-3,5.23-6.29,7.64-9.44,1.1-1.43,2.21-2.88,3.36-4.34a6,6,0,0,0-2.18-9.16l-1-.47c-0.63-.3-1.17-0.56-1.83-0.81l-18.22-6.87-18.75-7.07q-10.16-3.84-20.32-7.65A16.08,16.08,0,0,0,454.86,274.82Zm-184.53-63.7a6,6,0,0,0-4.2,1.72c-28.73,28.28-37,63.18-25.32,106.69a6,6,0,0,0,7.42,4.21l5.81-1.67c5-1.43,9.67-2.79,14.46-4s7.15-4.39,7.18-9.22c0.14-22.85.34-46.09,0.54-68.56L276.4,220c0-.61,0-1.22,0-2l0-1.08A6,6,0,0,0,270.33,211.13Zm58-34-0.53,0-0.23,0a6.86,6.86,0,0,0-2.14.42,198.72,198.72,0,0,0-42.5,21.63,9.22,9.22,0,0,0-4.05,8q-0.22,30.12-.49,60.25L278,307.77a6,6,0,0,0,7.27,5.9l32-7a6,6,0,0,0,4.68-5.23l12.26-117.66A6,6,0,0,0,328.3,177.16Zm65.18-15.64-0.55,0-0.74.07c-0.55,0-1,.09-1.49.15a304.46,304.46,0,0,0-47.45,9.79,8.74,8.74,0,0,0-6.65,8q-4.1,40.44-8.27,80.88l-2.69,26.26c-0.25,2.39-.47,4.79-0.69,7.19l-0.3,3.24a6,6,0,0,0,5.5,6.54h0.13a8,8,0,0,0,1,.06,6.51,6.51,0,0,0,1.35-.14l11.94-2.54c10.72-2.28,21.8-4.64,32.71-6.92,3.86-.8,6.1-3.4,6.67-7.73q4.65-35.39,9.32-70.68L397.27,185c0.49-3.75,1-7.5,1.46-11.3l0.69-5.38A6,6,0,0,0,393.48,161.52Zm151.17,57.25a6,6,0,0,0-4.26,1.77c-18.58,18.76-41,34-68.6,46.45a6,6,0,0,0,.27,11l1.89,0.75c1.2,0.48,2.23.89,3.27,1.28l12.09,4.54c10.77,4,21.91,8.23,32.84,12.39a9.43,9.43,0,0,0,3.38.67h0a7.86,7.86,0,0,0,6.93-4.26c8.38-14.3,13.66-26.84,16.62-39.45a78,78,0,0,0,1.48-30.09A6,6,0,0,0,544.65,218.77ZM428.08,159.39c-6.73,0-13.73.26-20.8,0.76a6,6,0,0,0-5.51,5.2l-15.39,118a6,6,0,0,0,5.94,6.76h0.55a7.81,7.81,0,0,0,1.89-.21,461.43,461.43,0,0,0,54.09-16.27,9.57,9.57,0,0,0,5.7-7c4.6-25.8,9.2-52,13.65-77.43l1.21-6.9c0.52-3,1-5.95,1.55-9l0.7-4.06a6,6,0,0,0-5-6.93A245.57,245.57,0,0,0,428.08,159.39ZM479.23,165a6,6,0,0,0-5.9,5l-15.64,90.25a6,6,0,0,0,7.79,6.71l0.63-.19a12.72,12.72,0,0,0,2.12-.79c2.3-1.14,4.6-2.25,6.91-3.37,5.43-2.63,11-5.34,16.47-8.33A205.74,205.74,0,0,0,542.45,215c3.16-3.36,3.57-7.21,1.21-11.16a63.14,63.14,0,0,0-15-17c-11.41-9-25-15.53-42.85-20.45-1.23-.34-2.44-0.61-3.61-0.87l-1.54-.35A6,6,0,0,0,479.23,165Z"/><path class="cls-1" d="M425,151.26a292.89,292.89,0,0,0-113.73,23c-18.69,7.79-35.79,18.23-50.38,32.45-21.51,21-33.08,46.31-33.57,76.51a138.27,138.27,0,0,0,5.54,39.66c-29.23,11-56,25.68-75.23,51.48,2,1.53,3.78,2.85,5.55,4.14s3.65,2.62,5.61,4c17.59-23.21,41.79-36.29,68.4-46.3,0.38,0.95.67,1.66,1,2.38,6.74,17.55,15.32,34.07,27.65,48.41,19.85,23.1,44.72,36.26,75.42,37.51q2.46,0.1,4.91.1c21.23,0,41.38-5.56,61-13.66a279.66,279.66,0,0,0,71-43.06c28.55-23.51,53-50.47,69.36-84,6.2-12.71,10.6-26,12-40.15,2.2-22.15-4.06-41.41-19.76-57.38-10-10.14-22-17.07-35.1-22.28a165.16,165.16,0,0,0-40.27-10.24A310.87,310.87,0,0,0,425,151.26h0Zm-32.65,132.9,15.39-118q10.19-.73,20.37-0.75a241.37,241.37,0,0,1,37.66,2.87c-0.76,4.43-1.49,8.72-2.24,13q-7.39,42.16-14.85,84.31a3.74,3.74,0,0,1-1.91,2.48,461.23,461.23,0,0,1-53.4,16.06,7,7,0,0,1-1,0h0Zm1.16-116.65c-0.73,5.65-1.42,11.16-2.15,16.66Q384.64,234.89,378,285.6c-0.17,1.31-.29,2.34-2,2.69-14.9,3.11-29.79,6.3-44.68,9.46h-0.1c-0.13,0-.3,0-0.62-0.06,0.33-3.47.64-6.93,1-10.39q5.49-53.57,11-107.15a2.81,2.81,0,0,1,2.36-2.87,297,297,0,0,1,46.52-9.6c0.61-.07,1.22-0.11,2.05-0.19h0Zm70.11,93.74L479.23,171c1.68,0.4,3.32.73,4.93,1.17,14.71,4.06,28.64,9.8,40.73,19.38A56.91,56.91,0,0,1,538.52,207c0.94,1.57.92,2.53-.44,4A198.85,198.85,0,0,1,488.72,249c-7.55,4.16-15.42,7.75-23.15,11.58a17.18,17.18,0,0,1-2,.67h0ZM328.3,183.15L316,300.81l-32,7c0.07-8.27.13-16.41,0.2-24.55q0.32-38,.62-75.93a3.27,3.27,0,0,1,1.43-3.14,194,194,0,0,1,41.24-21,4.59,4.59,0,0,1,.8-0.08h0ZM246.59,318c-10.17-37.85-5.59-72,23.74-100.86,0,1.21.09,2,.08,2.81q-0.38,44.44-.72,88.87c0,2.11-.64,2.92-2.69,3.45C260.25,314,253.57,316,246.59,318h0Zm278.94-26.31a3.61,3.61,0,0,1-1.25-.28c-15-5.69-30-11.3-44.94-16.94-1.52-.57-3-1.19-5.08-2,26.3-11.91,49.93-27,70.39-47.69a71.79,71.79,0,0,1-1.39,27.81c-3.17,13.5-9,25.89-16,37.79a2,2,0,0,1-1.76,1.3h0Zm-40.8,49.53a3.14,3.14,0,0,1-1.51-.48q-25.55-14.33-51.16-28.56L405.73,297.5c-0.46-.26-0.91-0.53-1.85-1.08,1.13-.37,1.81-0.6,2.5-0.81,15.44-4.79,30.9-9.51,46.29-14.44a7.11,7.11,0,0,1,2.2-.35,10.32,10.32,0,0,1,3.66.81q14.66,5.49,29.3,11l28,10.55c0.65,0.24,1.26.57,2.43,1.11-3.73,4.71-7,9.31-10.76,13.49-6.81,7.57-13.92,14.87-20.85,22.33a2.61,2.61,0,0,1-1.89,1.05h0Zm-44,34.7a2.51,2.51,0,0,1-1.39-.5q-48.26-31.88-96.56-63.68c-0.49-.33-1-0.71-1.75-1.31,4.07-.87,7.74-1.63,11.41-2.43,9.73-2.11,19.46-4.26,29.21-6.28a5,5,0,0,1,1-.1,5.42,5.42,0,0,1,2.51.59q36.39,20,72.71,40.1c4.8,2.65,9.63,5.26,14.44,7.9,0.53,0.29,1,.67,2.08,1.38-7.34,5.62-14.25,11-21.28,16.25-3.52,2.62-7.25,5-10.85,7.47a2.74,2.74,0,0,1-1.55.61h0Zm-72.62,31.67a2.42,2.42,0,0,1-1.93-1q-37.58-42.41-75.26-84.74c-0.16-.17-0.28-0.38-0.68-0.95l21.34-4.59a36.43,36.43,0,0,0,4.83-1,8.38,8.38,0,0,1,2.89-.54,10.82,10.82,0,0,1,6,2.22q47,31.29,94.06,62.37c2.47,1.64,4.93,3.29,7.83,5.23-5.93,3-11.46,5.94-17.12,8.59-13.11,6.14-26.54,11.38-40.8,14.24a6,6,0,0,1-1.15.15h0Zm-21.6,2.27c-23.09,0-43.06-7.43-60.08-22.86-13.35-12.11-23-26.87-30.36-43.19-1.8-4-3.42-8.06-5.27-12.44,7.67-2.13,15-4.2,22.33-6.11l0.2,0a3.82,3.82,0,0,1,2.21,1.28q18.92,21.09,37.75,42.26l34.93,39.11c0.45,0.51.86,1,1.59,1.94q-1.66,0-3.3,0h0Z"/></svg>