<?xml version="1.0" encoding="utf-8"?>
<!-- Generator: Adobe Illustrator 19.2.0, SVG Export Plug-In . SVG Version: 6.00 Build 0)  -->
<svg version="1.1" id="Layer_1" xmlns="http://www.w3.org/2000/svg" xmlns:xlink="http://www.w3.org/1999/xlink" x="0px" y="0px"
	 viewBox="0 0 416 423.8" style="enable-background:new 0 0 416 423.8;" xml:space="preserve">
<style type="text/css">
	.st0{fill:#006DFF;}
</style>
<g>
	<path class="st0" d="M205.8,258.5c-22.6,0-41-18.4-41-41s18.4-41,41-41s41,18.4,41,41S228.4,258.5,205.8,258.5z M205.8,188.4
		c-16,0-29,13-29,29c0,16,13,29,29,29s29-13,29-29C234.8,201.4,221.8,188.4,205.8,188.4z"/>
</g>
<path class="st0" d="M344.6,232.5c-26.2-26-65-52.5-109.2-74.5s-88.7-37.1-125.3-42.3c-38.7-5.6-64.7,0.7-73.2,17.7
	s2.2,41.5,29.9,69.1c26.2,26,65,52.5,109.2,74.5c44.2,22,88.7,37.1,125.3,42.3c9.2,1.3,17.7,2,25.4,2c2.1,0,4.1-0.1,6-0.1
	c2.8,6.2,9.1,10.6,16.4,10.6c9.9,0,18-8.1,18-18c0-1-0.1-1.9-0.2-2.8c3.3-2.6,5.8-5.7,7.6-9.3C383,284.6,372.4,260.1,344.6,232.5z
	 M303.1,307.3c-35.3-5.1-78.5-19.7-121.6-41.2c-43.1-21.5-80.8-47.2-106.1-72.3c-23.1-22.9-33.4-43.6-27.6-55.2
	c4.2-8.5,17.5-13,37-13c7.1,0,15.1,0.6,23.7,1.8c35.3,5.1,78.5,19.7,121.6,41.2c43.1,21.5,80.8,47.2,106.1,72.3
	c23.1,22.9,33.4,43.6,27.6,55.2c-0.7,1.4-1.7,2.7-2.8,3.9c-3.2-2.8-7.3-4.5-11.8-4.5c-8.4,0-15.4,5.7-17.4,13.5
	C323.4,309.4,313.8,308.9,303.1,307.3z"/>
<path class="st0" d="M254.2,86.4c-12.3-37.1-29.5-57.6-48.5-57.6c-11.5,0-22.4,7.6-31.9,21.9c-0.3,0-0.5,0-0.8,0
	c-9.3,0-16.9,7.6-16.9,16.9c0,4.1,1.5,7.9,4,10.8c-1,2.6-1.9,5.3-2.8,8c-11.6,35.1-18,81.6-18,131s6.4,95.9,18,131
	c12.3,37.1,29.5,57.6,48.5,57.6s36.2-20.5,48.5-57.6c11.6-35.1,18-81.6,18-131S265.9,121.5,254.2,86.4z M242.8,344.6
	c-10.2,30.9-24.1,49.4-37.1,49.4s-26.8-18.5-37.1-49.4c-11.2-33.9-17.4-79.1-17.4-127.2s6.2-93.3,17.4-127.2c0.7-2,1.4-4,2.1-6
	c0.7,0.1,1.5,0.2,2.3,0.2c9.3,0,16.9-7.6,16.9-16.9c0-4.6-1.9-8.9-4.9-11.9c6.7-9.6,13.9-14.8,20.8-14.8c13,0,26.8,18.5,37.1,49.4
	c11.2,33.9,17.4,79.1,17.4,127.2S254.1,310.8,242.8,344.6z"/>
<path class="st0" d="M384.6,157.6c-6-17.9-30.6-27.7-69.2-27.7c-0.2,0-0.5,0-0.7,0c-36.9,0.1-83.1,8.8-129.9,24.5
	c-44.1,14.8-84,34.1-113.2,54.8c-2.7-1.6-5.8-2.5-9.1-2.5c-9.9,0-18,8.1-18,18c0,2.2,0.4,4.3,1.1,6.2c-16.5,17-23,33-18.6,46.3
	c6,17.9,30.6,27.7,69.2,27.7c0.2,0,0.5,0,0.7,0c36.9-0.1,83.1-8.8,129.9-24.5c46.8-15.7,88.9-36.5,118.5-58.7
	C376.7,198.3,390.6,175.5,384.6,157.6z M338.2,212.2c-28.6,21.4-69.5,41.6-115.1,56.9c-45.7,15.3-90.5,23.8-126.2,23.9
	c-32.5,0.1-54.5-7.2-58.6-19.5c-2.9-8.5,2.6-20.3,14.9-33.3c2.7,1.6,5.8,2.5,9.1,2.5c9.9,0,18-8.1,18-18c0-2.2-0.4-4.3-1.2-6.3
	c28.2-19.8,66.6-38.4,109.2-52.6c45.7-15.3,90.5-23.8,126.2-23.9c0.2,0,0.5,0,0.7,0c32.2,0,53.8,7.3,57.9,19.5
	C377.3,173.7,364.2,192.7,338.2,212.2z"/>
</svg>
