<svg id="Layer_1" data-name="Layer 1" xmlns="http://www.w3.org/2000/svg" viewBox="0 0 868 716"><defs><style>.cls-1{fill:none;stroke:#006dff;stroke-linecap:round;stroke-linejoin:round;stroke-width:13px;}</style></defs><title>discipline_icons</title><circle class="cls-1" cx="254.79" cy="161.1" r="36.34"/><path class="cls-1" d="M321.39,293.82l-18.14-71.26c-0.72-2.72-1.92.45-3.46-1.75-2.75-5.87-8.7-4.31-15.66-4.31H225.54c-8,0-14.73-1.76-16.7,5.57-0.7,1.38-1.29-.77-1.72.78l-18.79,72.58c-4.11,14.9,7.1,34.07,22.56,34.07h3L221.1,458c0.53,9.15,8.1,19.48,17.27,19.48h32.92c9.17,0,16.74-10.33,17.27-19.48l7.25-128.52h3C314.15,329.5,325.35,308.68,321.39,293.82Z"/><circle class="cls-1" cx="570.26" cy="162.98" r="36.34"/><path class="cls-1" d="M636.86,295.77l-18.14-71.29c-0.72-2.72-1.92.5-3.46-1.71-2.75-5.87-8.7-4.27-15.66-4.27H541c-8,0-14.73-1.82-16.7,5.52-0.7,1.38-1.29-.8-1.72.75L503.8,297.39c-4.11,14.9,7.1,34.11,22.56,34.11h3l7.25,129c0.53,9.15,8.1,20,17.27,20h32.92c9.17,0,16.74-10.83,17.27-20l7.25-129h3C629.62,331.5,640.82,310.62,636.86,295.77Z"/><circle class="cls-1" cx="410.83" cy="160.36" r="36.34"/><path class="cls-1" d="M477.39,342.52L459.25,232.46a80.91,80.91,0,0,0-1.92-9.64l0.07,5.42c0.57-9.93-7.32-11.73-17.27-11.73H381.53c-9.95,0-17.84.77-17.27,10.7l0.16-1c-0.53,1.78-1,1.75-1.32,3.69L344.32,343.15c-4.11,23.17-4.69,53.35,22.56,53.35h6.65l3.56,63.13c0.53,9.15,8.1,17.87,17.27,17.87h32.92c9.17,0,16.74-8.71,17.27-17.87l3.56-63.13h6.65C487.21,396.5,481.34,365.62,477.39,342.52Z"/></svg>