<?xml version="1.0" encoding="utf-8"?>
<!-- Generator: Adobe Illustrator 19.2.0, SVG Export Plug-In . SVG Version: 6.00 Build 0)  -->
<svg version="1.1" id="Layer_1" xmlns="http://www.w3.org/2000/svg" xmlns:xlink="http://www.w3.org/1999/xlink" x="0px" y="0px"
	 viewBox="0 0 498 402" style="enable-background:new 0 0 498 402;" xml:space="preserve">
<style type="text/css">
	.st0{fill:#006DFF;}
</style>
<g>
	<g>
		<path class="st0" d="M93.5,106.1c-23.6,0-42.8-19.2-42.8-42.8s19.2-42.8,42.8-42.8c23.6,0,42.8,19.2,42.8,42.8
			S117.2,106.1,93.5,106.1z M93.5,33.5c-16.5,0-29.8,13.4-29.8,29.8s13.4,29.8,29.8,29.8s29.8-13.4,29.8-29.8S110,33.5,93.5,33.5z"
			/>
	</g>
	<g>
		<path class="st0" d="M110,386.2H77.1c-13.1,0-23.1-13.5-23.8-25.6L46.4,238c-7.3-0.9-14.1-5.1-19.1-11.7
			c-6.7-8.8-9.2-20.4-6.5-30.3l18.8-72.5c0,0,0-0.1,0-0.1c0.6-2.3,2-3.6,3.1-4.3c4-7.4,12.5-7.1,17.9-6.9c1.2,0,2.5,0.1,3.7,0.1
			h58.6c1.1,0,2.3,0,3.4-0.1c4.9-0.2,11.9-0.5,16.3,5.1c0.7,0.1,1.3,0.4,2,0.7c1.8,1,3.1,2.7,3.7,5.1l18.1,71.3
			c2.7,10.2-0.2,22.8-7.3,32.1c-5,6.6-11.5,10.6-18.4,11.5l-6.9,122.6C133.1,372.7,123.2,386.2,110,386.2z M51.4,129.7l-18,69.5
			c0,0,0,0.1,0,0.1c-1.6,6,0,13.5,4.3,19c1.9,2.5,6.1,6.8,12,6.8h3c3.4,0,6.3,2.7,6.5,6.1l7.2,128.5c0.3,5.9,5.5,13.3,10.8,13.3H110
			c5.3,0,10.4-7.5,10.8-13.4l7.2-128.5c0.2-3.4,3-6.1,6.5-6.1h3c5.4,0,9.4-4.2,11.3-6.6c4.6-6,6.7-14.6,5-20.9c0,0,0,0,0-0.1
			l-17.3-68c-1.8-0.9-2.9-2.2-3.3-2.8c-0.2-0.3-0.4-0.6-0.6-1c-0.2-0.3-0.3-0.5-0.3-0.5c-0.7-0.4-3.7-0.3-5.6-0.2
			c-1.2,0.1-2.5,0.1-3.9,0.1H64.3c-1.5,0-2.9-0.1-4.2-0.1c-2-0.1-5.1-0.2-6,0.2c-0.1,0.1-0.1,0.3-0.2,0.7c-0.1,0.4-0.3,0.9-0.5,1.3
			C52.8,128.4,52.1,129.2,51.4,129.7z"/>
	</g>
</g>
<g>
	<g>
		<path class="st0" d="M409,108c-23.6,0-42.8-19.2-42.8-42.8c0-23.6,19.2-42.8,42.8-42.8s42.8,19.2,42.8,42.8
			C451.8,88.8,432.6,108,409,108z M409,35.4c-16.5,0-29.8,13.4-29.8,29.8S392.6,95,409,95s29.8-13.4,29.8-29.8S425.5,35.4,409,35.4z
			"/>
	</g>
	<g>
		<path class="st0" d="M425.5,389.2h-32.9c-6.3,0-12.3-3.2-16.9-9c-4-5-6.5-11.2-6.8-17.1L361.9,240c-7.3-0.9-14.1-5.1-19.1-11.7
			c-6.7-8.8-9.2-20.5-6.5-30.4l18.8-72.6c0,0,0-0.1,0-0.1c0.6-2.3,2-3.6,3.1-4.4c4-7.3,12.5-7,17.8-6.8c1.2,0,2.5,0.1,3.8,0.1h58.6
			c1.1,0,2.3-0.1,3.4-0.1c4.8-0.2,11.8-0.5,16.2,5.1c0.7,0.1,1.3,0.4,2,0.7c1.9,1,3.1,2.7,3.8,5.1l18.1,71.3
			c2.7,10.2-0.2,22.9-7.3,32.2c-5,6.6-11.5,10.6-18.4,11.5l-6.9,123.1c-0.3,5.9-2.8,12.2-6.8,17.1
			C437.8,386,431.8,389.2,425.5,389.2z M366.8,131.7l-18,69.5c0,0,0,0.1,0,0.1c-1.7,6,0,13.5,4.3,19.1c1.9,2.5,6.1,6.8,12,6.8h3
			c3.4,0,6.3,2.7,6.5,6.1l7.2,129c0.3,6,5.6,13.8,10.8,13.8h32.9c5.1,0,10.4-7.8,10.8-13.9l7.2-129c0.2-3.4,3-6.1,6.5-6.1h3
			c5.4,0,9.4-4.2,11.3-6.6c4.6-6,6.7-14.6,5.1-20.9c0,0,0,0,0-0.1l-17.3-68c-1.8-0.8-2.9-2.2-3.3-2.8c-0.2-0.3-0.4-0.6-0.6-1
			c-0.2-0.3-0.3-0.4-0.3-0.4c-0.7-0.4-3.7-0.3-5.5-0.2c-1.3,0.1-2.6,0.1-4,0.1h-58.6c-1.5,0-2.9-0.1-4.3-0.1c-2-0.1-5-0.2-5.9,0.2
			c-0.1,0.1-0.1,0.3-0.2,0.7c-0.1,0.4-0.3,0.9-0.5,1.3C368.3,130.3,367.6,131.1,366.8,131.7z"/>
	</g>
</g>
<g>
	<g>
		<path class="st0" d="M249.6,105.4c-23.6,0-42.8-19.2-42.8-42.8c0-23.6,19.2-42.8,42.8-42.8c23.6,0,42.8,19.2,42.8,42.8
			C292.4,86.2,273.2,105.4,249.6,105.4z M249.6,32.7c-16.5,0-29.8,13.4-29.8,29.8s13.4,29.8,29.8,29.8s29.8-13.4,29.8-29.8
			S266,32.7,249.6,32.7z"/>
	</g>
	<g>
		<path class="st0" d="M266,386.2h-32.9c-12.1,0-23-11-23.8-24l-3.2-57h-0.5c-9.8,0-17.5-3.3-22.8-9.7c-8.5-10.1-10.5-26.9-6.1-51.3
			l18.8-113.2c0.3-1.6,0.7-2.6,1.1-3.5c0.2-4,1.4-7.4,3.9-9.9c4.8-5.1,12.1-5.5,19.9-5.5h58.6c6.9,0,14.7,0.7,19.7,6
			c0.5,0.5,0.9,1,1.3,1.5c1.1,0.8,2,1.9,2.4,3.2c0.8,2.5,1.4,6.1,1.9,9.1c0.1,0.6,0.2,1.1,0.3,1.6l18.3,111.3
			c2.9,16.9,6.5,37.9-4.1,50.6c-5.5,6.5-13.9,9.8-25.1,9.8H293l-3.2,57C289,375.2,278.2,386.2,266,386.2z M208.3,133.2
			C208.3,133.3,208.3,133.3,208.3,133.2l-18.8,113.2c-4.5,25.1-0.7,36,3.3,40.7c2.8,3.4,7.1,5,12.9,5h6.6c3.4,0,6.3,2.7,6.5,6.1
			l3.6,63.1c0.4,6.1,5.5,11.7,10.8,11.7H266c5.3,0,10.4-5.6,10.8-11.7l3.6-63.1c0.2-3.4,3-6.1,6.5-6.1h6.6c7.2,0,12.2-1.7,15.2-5.2
			c6.8-8,3.7-25.7,1.3-40l-0.2-1.2c0,0,0,0,0,0l-18.1-110.1c0-0.2-0.1-0.5-0.1-0.8c-1.1-1.2-1.8-2.7-1.8-4.4l0-2
			c-0.1-0.6-0.2-1.1-0.5-1.4c-0.7-0.7-2.9-1.9-10.2-1.9h-58.6c-6.1,0-9.6,0.5-10.5,1.4c-0.1,0.1-0.2,0.3-0.2,0.7
			c0.1,0.7,0.1,1.5,0,2.3l-0.2,1C209.2,131.5,208.8,132.5,208.3,133.2z"/>
	</g>
</g>
</svg>
