<?xml version="1.0" encoding="utf-8"?>
<svg xmlns="http://www.w3.org/2000/svg"
	xmlns:xlink="http://www.w3.org/1999/xlink"
	width="201px" height="212px" viewBox="0 0 201 212">
<path fillRule="evenodd" d="M 72.25 1.72C 72.2 1.21 72.57 0.76 73.09 0.72 73.09 0.72 76 0.46 76 0.46 77.06 0.36 77.92 0.59 78.52 1.09 79.03 1.51 79.34 2.15 79.41 2.94 79.41 2.94 79.41 2.96 79.41 2.96 79.53 4.28 78.94 5.15 77.96 5.66 77.96 5.66 79.38 7.1 79.38 7.1 79.58 7.31 79.72 7.49 79.74 7.78 79.79 8.29 79.39 8.67 78.94 8.71 78.52 8.74 78.23 8.57 77.99 8.31 77.99 8.31 75.99 6.2 75.99 6.2 75.99 6.2 74.52 6.33 74.52 6.33 74.52 6.33 74.68 8.16 74.68 8.16 74.73 8.67 74.36 9.12 73.84 9.16 73.33 9.21 72.88 8.84 72.84 8.32 72.84 8.32 72.25 1.72 72.25 1.72ZM 76.24 4.53C 77.14 4.45 77.61 3.93 77.55 3.22 77.55 3.22 77.55 3.2 77.55 3.2 77.48 2.41 76.89 2.05 75.99 2.13 75.99 2.13 74.16 2.3 74.16 2.3 74.16 2.3 74.37 4.7 74.37 4.7 74.37 4.7 76.24 4.53 76.24 4.53ZM 81.91 7.58C 81.91 7.58 81.8 1.02 81.8 1.02 81.79 0.51 82.19 0.09 82.71 0.09 82.71 0.09 87.37 0.01 87.37 0.01 87.83-0 88.21 0.37 88.22 0.82 88.22 1.28 87.86 1.65 87.4 1.65 87.4 1.65 83.65 1.72 83.65 1.72 83.65 1.72 83.68 3.42 83.68 3.42 83.68 3.42 86.89 3.37 86.89 3.37 87.34 3.36 87.72 3.73 87.73 4.18 87.74 4.64 87.37 5 86.91 5.01 86.91 5.01 83.7 5.07 83.7 5.07 83.7 5.07 83.73 6.83 83.73 6.83 83.73 6.83 87.54 6.77 87.54 6.77 88 6.76 88.38 7.13 88.39 7.58 88.4 8.04 88.03 8.41 87.57 8.41 87.57 8.41 82.85 8.49 82.85 8.49 82.33 8.5 81.91 8.1 81.91 7.58ZM 89.88 7.26C 89.88 7.26 93.3 0.88 93.3 0.88 93.53 0.44 93.92 0.19 94.43 0.23 94.43 0.23 94.54 0.24 94.54 0.24 95.04 0.27 95.38 0.58 95.55 1.05 95.55 1.05 97.99 7.86 97.99 7.86 98.04 8 98.06 8.12 98.06 8.24 98.02 8.73 97.61 9.1 97.11 9.06 96.68 9.03 96.41 8.76 96.27 8.36 96.27 8.36 95.81 7 95.81 7 95.81 7 92.11 6.73 92.11 6.73 92.11 6.73 91.42 8.06 91.42 8.06 91.24 8.41 90.91 8.6 90.53 8.58 90.05 8.54 89.71 8.13 89.74 7.65 89.75 7.52 89.81 7.39 89.88 7.26ZM 95.25 5.32C 95.25 5.32 94.29 2.47 94.29 2.47 94.29 2.47 92.92 5.15 92.92 5.15 92.92 5.15 95.25 5.32 95.25 5.32ZM 100.94 1.85C 101.02 1.34 101.49 1 102 1.08 102.51 1.15 102.85 1.62 102.77 2.13 102.77 2.13 101.86 7.94 101.86 7.94 101.86 7.94 105.25 8.46 105.25 8.46 105.71 8.54 106.03 8.96 105.95 9.42 105.88 9.89 105.46 10.2 104.99 10.13 104.99 10.13 100.69 9.46 100.69 9.46 100.18 9.38 99.84 8.91 99.92 8.4 99.92 8.4 100.94 1.85 100.94 1.85ZM 111.43 10.56C 111.27 10.37 111.2 10.08 111.28 9.8 111.4 9.33 111.87 9.07 112.34 9.2 112.57 9.26 112.71 9.39 112.81 9.5 113.3 10.12 113.89 10.58 114.68 10.8 115.41 11 115.94 10.83 116.06 10.35 116.06 10.35 116.07 10.33 116.07 10.33 116.2 9.88 115.98 9.57 114.72 8.85 113.19 7.99 112.26 7.25 112.7 5.64 112.7 5.64 112.71 5.61 112.71 5.61 113.11 4.14 114.56 3.49 116.22 3.94 117.21 4.21 118 4.7 118.6 5.36 118.77 5.53 118.9 5.83 118.8 6.18 118.68 6.64 118.21 6.9 117.74 6.77 117.57 6.73 117.44 6.64 117.32 6.52 116.83 6.01 116.32 5.66 115.77 5.51 115.08 5.33 114.63 5.54 114.53 5.94 114.53 5.94 114.52 5.96 114.52 5.96 114.38 6.49 114.68 6.76 115.98 7.5 117.51 8.38 118.28 9.23 117.9 10.64 117.9 10.64 117.89 10.66 117.89 10.66 117.45 12.28 115.97 12.84 114.22 12.37 113.15 12.08 112.16 11.46 111.43 10.56ZM 120.15 9.58C 120.15 9.58 120.16 9.55 120.16 9.55 120.97 7.3 123.34 6.07 125.77 6.95 126.96 7.38 127.65 7.98 128.13 8.71 128.26 8.91 128.33 9.21 128.22 9.52 128.05 9.99 127.53 10.23 127.05 10.06 126.81 9.97 126.69 9.82 126.59 9.7 126.24 9.16 125.8 8.78 125.18 8.55 123.84 8.07 122.48 8.83 121.99 10.19 121.99 10.19 121.98 10.21 121.98 10.21 121.49 11.57 122.02 13.04 123.38 13.53 124.12 13.79 124.68 13.74 125.33 13.52 125.5 13.46 125.71 13.45 125.92 13.52 126.36 13.68 126.6 14.17 126.44 14.62 126.34 14.89 126.13 15.05 125.92 15.13 124.98 15.5 124.01 15.57 122.74 15.11 120.41 14.27 119.33 11.85 120.15 9.58ZM 130.82 10.03C 131.03 9.55 131.57 9.34 132.04 9.55 132.51 9.75 132.73 10.29 132.52 10.76 132.52 10.76 129.84 16.91 129.84 16.91 129.63 17.38 129.09 17.6 128.62 17.39 128.15 17.18 127.93 16.64 128.14 16.17 128.14 16.17 130.82 10.03 130.82 10.03ZM 132.16 17.85C 132.16 17.85 135.14 12.01 135.14 12.01 135.37 11.54 135.92 11.37 136.38 11.6 136.38 11.6 140.54 13.72 140.54 13.72 140.95 13.92 141.11 14.43 140.91 14.83 140.7 15.24 140.2 15.39 139.8 15.18 139.8 15.18 136.45 13.48 136.45 13.48 136.45 13.48 135.68 15 135.68 15 135.68 15 138.54 16.46 138.54 16.46 138.95 16.67 139.11 17.17 138.9 17.57 138.69 17.98 138.2 18.13 137.79 17.93 137.79 17.93 134.93 16.47 134.93 16.47 134.93 16.47 134.12 18.05 134.12 18.05 134.12 18.05 137.52 19.77 137.52 19.77 137.93 19.98 138.09 20.48 137.89 20.89 137.68 21.3 137.18 21.45 136.78 21.24 136.78 21.24 132.56 19.1 132.56 19.1 132.1 18.86 131.92 18.31 132.16 17.85ZM 143.16 16.14C 143.44 15.7 144 15.57 144.44 15.85 144.44 15.85 144.6 15.95 144.6 15.95 144.98 16.18 145.09 16.5 145.14 16.91 145.14 16.91 145.69 22.78 145.69 22.78 145.69 22.78 147.99 19.09 147.99 19.09 148.25 18.66 148.82 18.53 149.24 18.8 149.67 19.07 149.81 19.63 149.54 20.06 149.54 20.06 146 25.74 146 25.74 145.73 26.18 145.17 26.31 144.73 26.04 144.73 26.04 144.68 26.01 144.68 26.01 144.3 25.77 144.19 25.45 144.14 25.04 144.14 25.04 143.56 18.96 143.56 18.96 143.56 18.96 141.18 22.79 141.18 22.79 140.92 23.22 140.35 23.35 139.92 23.08 139.49 22.82 139.36 22.26 139.63 21.83 139.63 21.83 143.16 16.14 143.16 16.14ZM 153.02 23.61C 153.02 23.61 151.6 22.55 151.6 22.55 151.22 22.27 151.14 21.74 151.42 21.36 151.7 20.98 152.24 20.9 152.62 21.18 152.62 21.18 156.96 24.41 156.96 24.41 157.33 24.69 157.41 25.23 157.13 25.6 156.85 25.98 156.32 26.06 155.94 25.78 155.94 25.78 154.51 24.72 154.51 24.72 154.51 24.72 151.02 29.41 151.02 29.41 150.71 29.83 150.14 29.91 149.72 29.6 149.31 29.29 149.22 28.72 149.53 28.31 149.53 28.31 153.02 23.61 153.02 23.61ZM 158.84 27.04C 159.18 26.65 159.75 26.6 160.15 26.93 160.55 27.26 160.6 27.83 160.26 28.23 160.26 28.23 155.95 33.37 155.95 33.37 155.62 33.77 155.05 33.82 154.65 33.49 154.25 33.15 154.2 32.58 154.53 32.18 154.53 32.18 158.84 27.04 158.84 27.04ZM 162.41 30.17C 162.77 29.79 163.35 29.77 163.72 30.13 163.72 30.13 167.15 33.36 167.15 33.36 167.49 33.68 167.51 34.2 167.19 34.54 166.87 34.88 166.34 34.9 166 34.58 166 34.58 163.24 31.99 163.24 31.99 163.24 31.99 162.01 33.29 162.01 33.29 162.01 33.29 164.38 35.51 164.38 35.51 164.72 35.83 164.73 36.36 164.41 36.7 164.09 37.04 163.56 37.06 163.22 36.73 163.22 36.73 160.86 34.51 160.86 34.51 160.86 34.51 159.21 36.26 159.21 36.26 158.86 36.63 158.28 36.65 157.9 36.3 157.53 35.94 157.51 35.37 157.86 34.99 157.86 34.99 162.41 30.17 162.41 30.17ZM 168.77 36.26C 169.15 35.9 169.73 35.92 170.08 36.29 170.44 36.67 170.42 37.25 170.04 37.6 170.04 37.6 165.16 42.2 165.16 42.2 164.78 42.55 164.21 42.53 163.85 42.16 163.5 41.78 163.51 41.2 163.89 40.85 163.89 40.85 168.77 36.26 168.77 36.26ZM 169.2 41.6C 169.2 41.6 169.22 41.59 169.22 41.59 171.06 40.06 173.72 40.2 175.37 42.18 176.18 43.15 176.47 44.03 176.51 44.89 176.52 45.13 176.43 45.43 176.18 45.64 175.79 45.96 175.22 45.9 174.9 45.51 174.74 45.32 174.71 45.13 174.69 44.97 174.65 44.33 174.47 43.77 174.05 43.26 173.14 42.17 171.59 42.14 170.48 43.06 170.48 43.06 170.46 43.08 170.46 43.08 169.35 44 169.06 45.53 169.98 46.64 170.48 47.24 170.99 47.48 171.66 47.62 171.84 47.66 172.03 47.75 172.17 47.92 172.47 48.28 172.42 48.83 172.06 49.13 171.84 49.31 171.57 49.35 171.35 49.31 170.36 49.15 169.49 48.72 168.63 47.68 167.05 45.78 167.34 43.14 169.2 41.6ZM 180.66 50.91C 181.1 50.63 181.66 50.75 181.94 51.19 181.94 51.19 183.52 53.65 183.52 53.65 184.1 54.55 184.29 55.41 184.13 56.17 183.99 56.82 183.57 57.39 182.9 57.81 182.9 57.81 182.88 57.83 182.88 57.83 181.76 58.54 180.72 58.43 179.81 57.8 179.81 57.8 179.19 59.72 179.19 59.72 179.09 60 179 60.2 178.75 60.36 178.32 60.64 177.8 60.46 177.56 60.08 177.33 59.73 177.35 59.38 177.47 59.05 177.47 59.05 178.42 56.3 178.42 56.3 178.42 56.3 177.62 55.06 177.62 55.06 177.62 55.06 176.07 56.05 176.07 56.05 175.64 56.33 175.07 56.21 174.79 55.77 174.51 55.34 174.63 54.77 175.07 54.49 175.07 54.49 180.66 50.91 180.66 50.91ZM 180.01 55.75C 180.5 56.51 181.18 56.69 181.78 56.3 181.78 56.3 181.8 56.29 181.8 56.29 182.47 55.86 182.51 55.17 182.03 54.42 182.03 54.42 181.03 52.87 181.03 52.87 181.03 52.87 179 54.17 179 54.17 179 54.17 180.01 55.75 180.01 55.75ZM 179.94 62.14C 179.94 62.14 185.74 59.05 185.74 59.05 186.19 58.81 186.75 58.98 186.99 59.43 186.99 59.43 189.19 63.55 189.19 63.55 189.4 63.95 189.25 64.45 188.85 64.67 188.44 64.88 187.95 64.72 187.73 64.32 187.73 64.32 185.97 61.01 185.97 61.01 185.97 61.01 184.46 61.82 184.46 61.82 184.46 61.82 185.97 64.65 185.97 64.65 186.19 65.05 186.03 65.55 185.63 65.77 185.23 65.98 184.73 65.82 184.52 65.42 184.52 65.42 183.01 62.59 183.01 62.59 183.01 62.59 181.45 63.42 181.45 63.42 181.45 63.42 183.24 66.78 183.24 66.78 183.45 67.19 183.3 67.69 182.9 67.9 182.49 68.12 182 67.96 181.79 67.56 181.79 67.56 179.56 63.39 179.56 63.39 179.32 62.93 179.49 62.38 179.94 62.14ZM 183.74 69.51C 183.79 69.26 183.97 69.02 184.24 68.91 184.68 68.71 185.17 68.92 185.37 69.36 185.46 69.58 185.45 69.76 185.42 69.91 185.25 70.68 185.27 71.43 185.6 72.18 185.9 72.87 186.36 73.17 186.81 72.97 186.81 72.97 186.83 72.96 186.83 72.96 187.26 72.78 187.37 72.41 187.13 70.98 186.85 69.26 186.84 68.07 188.37 67.4 188.37 67.4 188.39 67.39 188.39 67.39 189.79 66.77 191.21 67.49 191.9 69.06 192.31 70 192.42 70.92 192.29 71.81 192.26 72.04 192.11 72.33 191.78 72.47 191.34 72.67 190.84 72.47 190.65 72.03 190.58 71.86 190.56 71.71 190.58 71.54 190.67 70.84 190.62 70.23 190.39 69.7 190.1 69.05 189.66 68.84 189.28 69 189.28 69 189.26 69.01 189.26 69.01 188.75 69.24 188.73 69.64 188.98 71.12 189.26 72.86 189.08 73.98 187.74 74.57 187.74 74.57 187.72 74.58 187.72 74.58 186.18 75.25 184.81 74.47 184.08 72.8 183.64 71.79 183.5 70.63 183.74 69.51ZM 189.52 76.08C 189.52 76.08 193.26 74.8 193.26 74.8 193.75 74.63 194.27 74.88 194.44 75.37 194.61 75.86 194.36 76.38 193.87 76.55 193.87 76.55 190.17 77.82 190.17 77.82 188.87 78.26 188.42 79.14 188.79 80.21 189.16 81.28 190.03 81.71 191.29 81.27 191.29 81.27 195.05 79.98 195.05 79.98 195.54 79.81 196.06 80.07 196.23 80.55 196.4 81.04 196.14 81.56 195.65 81.73 195.65 81.73 191.97 83 191.97 83 189.55 83.83 187.9 82.88 187.17 80.74 186.43 78.61 187.18 76.89 189.52 76.08ZM 196.42 84.44C 196.92 84.31 197.42 84.6 197.55 85.1 197.68 85.6 197.38 86.1 196.88 86.23 196.88 86.23 191.18 87.69 191.18 87.69 191.18 87.69 192.03 91 192.03 91 192.15 91.46 191.88 91.91 191.42 92.03 190.97 92.14 190.51 91.88 190.4 91.42 190.4 91.42 189.32 87.21 189.32 87.21 189.19 86.71 189.49 86.21 189.99 86.08 189.99 86.08 196.42 84.44 196.42 84.44ZM 197.66 93.4C 197.66 93.4 197.33 91.65 197.33 91.65 197.24 91.19 197.55 90.74 198.01 90.66 198.47 90.57 198.92 90.88 199.01 91.34 199.01 91.34 200.01 96.65 200.01 96.65 200.1 97.11 199.79 97.56 199.33 97.65 198.87 97.74 198.42 97.43 198.33 96.97 198.33 96.97 198 95.22 198 95.22 198 95.22 192.25 96.31 192.25 96.31 191.74 96.4 191.26 96.08 191.16 95.57 191.07 95.06 191.39 94.58 191.9 94.49 191.9 94.49 197.66 93.4 197.66 93.4ZM 192.96 100.24C 193.08 100.02 193.32 99.85 193.61 99.82 194.09 99.76 194.5 100.1 194.56 100.58 194.58 100.82 194.52 101 194.45 101.13 194.05 101.81 193.85 102.54 193.94 103.35 194.03 104.1 194.38 104.52 194.87 104.46 194.87 104.46 194.89 104.46 194.89 104.46 195.35 104.41 195.56 104.09 195.76 102.66 196 100.92 196.34 99.79 198 99.6 198 99.6 198.03 99.59 198.03 99.59 199.54 99.42 200.68 100.52 200.88 102.23 200.99 103.24 200.83 104.16 200.44 104.96 200.34 105.18 200.12 105.41 199.76 105.45 199.28 105.51 198.87 105.17 198.81 104.69 198.79 104.51 198.82 104.36 198.89 104.21 199.18 103.56 199.32 102.96 199.25 102.39 199.17 101.69 198.81 101.35 198.4 101.4 198.4 101.4 198.38 101.4 198.38 101.4 197.83 101.47 197.69 101.84 197.48 103.33 197.23 105.07 196.73 106.1 195.28 106.26 195.28 106.26 195.25 106.27 195.25 106.27 193.59 106.46 192.52 105.3 192.31 103.5 192.19 102.4 192.39 101.25 192.96 100.24ZM 41.63 129.55C 40.92 129.55 40.29 129.03 40.16 128.31 40.01 127.49 40.56 126.71 41.38 126.57 43.01 126.28 44.1 124.72 43.81 123.09 43.67 122.3 43.24 121.61 42.58 121.15 41.92 120.69 41.12 120.51 40.33 120.65 40.33 120.65 38.85 120.91 38.85 120.91 38.85 120.91 34.69 97.35 34.69 97.35 34.55 96.53 35.09 95.75 35.91 95.61 36.72 95.46 37.51 96.01 37.65 96.82 37.65 96.82 41.32 117.62 41.32 117.62 42.38 117.7 43.41 118.06 44.3 118.69 45.62 119.61 46.5 120.98 46.78 122.56 47.35 125.83 45.16 128.95 41.9 129.52 41.81 129.54 41.72 129.55 41.63 129.55ZM 7.75 135.02C 4.17 135.02 0.99 132.45 0.35 128.81-0 126.83 0.44 124.84 1.59 123.2 2.75 121.56 4.47 120.46 6.45 120.11 7.59 119.91 8.73 119.97 9.84 120.29 10.64 120.52 11.1 121.35 10.87 122.15 10.64 122.95 9.8 123.41 9 123.18 8.34 122.98 7.65 122.95 6.97 123.07 5.78 123.28 4.75 123.94 4.06 124.92 3.37 125.91 3.1 127.1 3.31 128.29 3.52 129.47 4.18 130.51 5.16 131.2 6.15 131.89 7.35 132.15 8.54 131.94 9.34 131.8 10.08 131.45 10.69 130.92 11.33 130.38 12.27 130.45 12.82 131.08 13.36 131.7 13.29 132.65 12.66 133.19 11.64 134.08 10.39 134.67 9.06 134.9 8.62 134.98 8.18 135.02 7.75 135.02ZM 73.29 123.47C 72.38 123.47 71.48 123.31 70.63 122.98 69.85 122.69 69.46 121.82 69.76 121.05 70.05 120.27 70.92 119.89 71.7 120.18 72.45 120.46 73.28 120.54 74.07 120.4 75.26 120.19 76.3 119.53 76.99 118.55 77.68 117.56 77.94 116.37 77.73 115.18 77.53 113.99 76.87 112.96 75.88 112.27 74.89 111.58 73.7 111.31 72.51 111.53 71.82 111.65 71.19 111.91 70.63 112.32 69.97 112.81 69.02 112.67 68.53 112 68.04 111.33 68.19 110.39 68.86 109.9 69.79 109.22 70.84 108.77 71.99 108.57 73.96 108.22 75.96 108.66 77.61 109.81 79.25 110.96 80.35 112.68 80.7 114.66 81.05 116.63 80.6 118.63 79.45 120.27 78.3 121.91 76.58 123.01 74.6 123.36 74.16 123.43 73.73 123.47 73.29 123.47ZM 41.6 158.78C 26.66 158.78 13.93 148.1 11.33 133.38 11.33 133.38 6.28 104.76 6.28 104.76 5.66 101.28 5.65 97.77 6.23 94.33 6.76 91.16 7.79 88.1 9.29 85.23 10.45 83.01 11.87 80.93 13.54 79.06 15.12 77.26 16.92 75.65 18.89 74.27 20.79 72.92 22.86 71.8 25.04 70.93 27.03 70.12 29.12 69.52 31.24 69.15 33.36 68.77 35.53 68.62 37.69 68.69 39.57 68.76 41.48 69.01 43.36 69.43 43.78 69.52 44.2 69.63 44.62 69.75 46.91 70.36 49.16 71.26 51.28 72.42 53.48 73.61 55.53 75.07 57.38 76.76 60.44 79.56 62.87 82.9 64.59 86.66 65.66 89.03 66.44 91.53 66.89 94.08 66.89 94.08 71.94 122.71 71.94 122.71 74.89 139.4 63.69 155.37 46.98 158.31 45.2 158.63 43.39 158.78 41.6 158.78ZM 36.65 71.68C 35.02 71.68 33.37 71.82 31.76 72.11 29.85 72.44 27.96 72.98 26.16 73.71 24.2 74.5 22.34 75.51 20.62 76.72 18.84 77.97 17.22 79.42 15.79 81.04 14.29 82.74 13 84.61 11.96 86.62 10.6 89.21 9.67 91.97 9.19 94.82 8.67 97.93 8.68 101.1 9.24 104.24 9.24 104.24 14.29 132.86 14.29 132.86 16.64 146.14 28.12 155.78 41.6 155.78 43.22 155.78 44.85 155.64 46.46 155.35 61.53 152.7 71.64 138.29 68.98 123.23 68.98 123.23 63.93 94.61 63.93 94.61 63.52 92.3 62.82 90.04 61.85 87.91 60.3 84.51 58.11 81.5 55.35 78.98 53.68 77.45 51.83 76.13 49.84 75.05 47.93 74.01 45.9 73.2 43.82 72.64 43.45 72.54 43.08 72.44 42.71 72.36 41 71.98 39.27 71.76 37.58 71.69 37.27 71.68 36.96 71.68 36.65 71.68ZM 42.84 146.43C 37.35 146.43 32.47 142.49 31.48 136.91 31.48 136.91 30.96 133.92 30.96 133.92 30.96 133.92 33.66 135.31 33.66 135.31 33.7 135.34 38.44 137.73 42.96 136.93 47.37 136.16 49.32 133.27 49.34 133.24 49.8 132.54 50.73 132.35 51.42 132.81 52.12 133.26 52.31 134.2 51.85 134.89 51.74 135.05 49.16 138.89 43.48 139.89 40.54 140.41 37.62 139.87 35.5 139.23 37.25 142.2 40.73 143.93 44.33 143.3 45.14 143.16 45.93 143.7 46.07 144.52 46.22 145.33 45.67 146.11 44.85 146.26 44.18 146.38 43.51 146.43 42.84 146.43ZM 23.82 123.47C 18.4 123.47 13.78 119.59 12.84 114.25 11.77 108.19 15.83 102.4 21.9 101.33 22.54 101.21 23.2 101.16 23.85 101.16 29.27 101.16 33.89 105.03 34.83 110.37 35.35 113.31 34.69 116.27 32.98 118.71 31.27 121.15 28.71 122.78 25.78 123.29 25.13 123.41 24.47 123.47 23.82 123.47ZM 23.85 104.16C 23.37 104.16 22.89 104.2 22.42 104.29 17.99 105.07 15.02 109.3 15.8 113.73 16.49 117.63 19.87 120.46 23.82 120.46 24.3 120.46 24.78 120.42 25.25 120.34 27.4 119.96 29.27 118.77 30.52 116.99 31.77 115.2 32.25 113.04 31.87 110.9 31.18 106.99 27.81 104.16 23.85 104.16ZM 25.95 111.94C 26.16 113.1 25.38 114.22 24.21 114.42 23.04 114.63 21.93 113.85 21.72 112.68 21.52 111.52 22.3 110.4 23.46 110.2 24.63 109.99 25.75 110.77 25.95 111.94ZM 50.86 107.55C 51.07 108.72 52.18 109.5 53.35 109.29 54.52 109.09 55.3 107.97 55.09 106.81 54.88 105.64 53.77 104.86 52.6 105.07 51.44 105.27 50.66 106.38 50.86 107.55ZM 52.96 118.33C 52.96 118.33 52.96 118.33 52.96 118.33 47.54 118.33 42.92 114.46 41.98 109.12 41.46 106.18 42.12 103.22 43.83 100.78 45.54 98.34 48.1 96.71 51.04 96.2 51.68 96.08 52.34 96.02 52.99 96.02 58.41 96.02 63.03 99.9 63.97 105.24 65.04 111.3 60.98 117.09 54.91 118.16 54.27 118.28 53.61 118.33 52.96 118.33ZM 52.99 99.03C 52.51 99.03 52.03 99.07 51.56 99.15 49.41 99.53 47.54 100.72 46.29 102.5 45.04 104.29 44.56 106.45 44.94 108.59 45.63 112.5 49 115.33 52.96 115.33 52.96 115.33 52.96 115.33 52.96 115.33 53.44 115.33 53.92 115.29 54.39 115.2 58.82 114.42 61.79 110.19 61.01 105.76 60.32 101.86 56.95 99.03 52.99 99.03ZM 33.21 111.55C 32.49 111.55 31.86 111.04 31.73 110.31 31.42 108.56 31.81 106.79 32.83 105.33 33.86 103.87 35.39 102.9 37.14 102.59 38.89 102.28 40.67 102.67 42.13 103.69 43.59 104.71 44.56 106.24 44.87 108 45.02 108.81 44.47 109.59 43.65 109.74 42.84 109.88 42.06 109.33 41.91 108.52 41.74 107.55 41.21 106.71 40.4 106.15 39.6 105.59 38.63 105.38 37.67 105.55 36.7 105.72 35.86 106.25 35.3 107.05 34.74 107.85 34.52 108.83 34.69 109.79 34.84 110.6 34.29 111.38 33.47 111.53 33.38 111.54 33.3 111.55 33.21 111.55ZM 62.49 107C 61.77 107 61.14 106.49 61.01 105.76 60.87 104.95 61.41 104.17 62.23 104.02 62.23 104.02 69.77 102.69 69.77 102.69 70.59 102.55 71.37 103.1 71.52 103.91 71.66 104.73 71.11 105.51 70.3 105.65 70.3 105.65 62.75 106.98 62.75 106.98 62.66 107 62.58 107 62.49 107ZM 6.77 116.82C 6.06 116.82 5.42 116.31 5.3 115.58 5.15 114.76 5.7 113.98 6.51 113.84 6.51 113.84 14.06 112.51 14.06 112.51 14.87 112.36 15.66 112.91 15.8 113.73 15.95 114.54 15.4 115.32 14.58 115.47 14.58 115.47 7.04 116.8 7.04 116.8 6.95 116.81 6.86 116.82 6.77 116.82ZM 31.49 78.27C 28.1 78.27 25.08 75.99 24.15 72.73 24.15 72.73 23.78 71.43 23.78 71.43 23.78 71.43 25.03 70.93 25.03 70.93 27.03 70.12 29.12 69.52 31.24 69.15 33.36 68.77 35.53 68.62 37.69 68.69 37.69 68.69 39.04 68.74 39.04 68.74 39.04 68.74 39.14 70.09 39.14 70.09 39.41 74 36.7 77.47 32.83 78.15 32.39 78.23 31.94 78.27 31.49 78.27ZM 27.62 73.17C 28.61 74.66 30.45 75.52 32.31 75.19 34.19 74.86 35.61 73.45 36.03 71.68 34.6 71.72 33.17 71.86 31.76 72.11 30.36 72.35 28.97 72.71 27.62 73.17ZM 31.49 84.84C 25.72 84.84 20.56 81.4 18.36 76.07 18.36 76.07 17.9 74.96 17.9 74.96 17.9 74.96 18.88 74.27 18.88 74.27 20.79 72.92 22.86 71.8 25.04 70.93 27.03 70.12 29.12 69.52 31.24 69.15 33.36 68.77 35.53 68.62 37.69 68.69 39.57 68.76 41.48 69.01 43.36 69.43 43.78 69.52 44.2 69.63 44.62 69.75 44.62 69.75 45.77 70.06 45.77 70.06 45.77 70.06 45.72 71.26 45.72 71.26 45.44 77.85 40.5 83.47 33.97 84.62 33.15 84.77 32.32 84.84 31.49 84.84ZM 21.66 76.02C 23.61 79.59 27.35 81.84 31.49 81.84 32.14 81.84 32.8 81.78 33.45 81.67 38.19 80.83 41.87 77 42.59 72.34 40.92 71.97 39.24 71.75 37.58 71.69 35.68 71.63 33.68 71.77 31.76 72.11 29.85 72.44 27.96 72.98 26.16 73.71 24.59 74.34 23.09 75.11 21.66 76.02ZM 31.48 91.42C 23.97 91.42 17.02 87.35 13.35 80.78 13.35 80.78 12.83 79.86 12.83 79.86 12.83 79.86 13.53 79.06 13.53 79.06 15.12 77.26 16.92 75.65 18.89 74.27 20.79 72.92 22.86 71.8 25.04 70.92 27.03 70.12 29.12 69.52 31.24 69.15 33.36 68.77 35.53 68.62 37.69 68.69 39.57 68.76 41.48 69.01 43.36 69.43 43.78 69.52 44.2 69.63 44.62 69.75 46.91 70.36 49.16 71.26 51.28 72.42 51.28 72.42 52.22 72.93 52.22 72.93 52.22 72.93 52.05 73.98 52.05 73.98 50.63 82.69 43.83 89.57 35.12 91.1 33.91 91.31 32.69 91.42 31.48 91.42ZM 16.53 80.24C 19.78 85.31 25.41 88.42 31.48 88.42 32.52 88.42 33.56 88.32 34.59 88.14 41.69 86.89 47.31 81.5 48.87 74.55 47.25 73.75 45.55 73.11 43.82 72.64 43.45 72.54 43.08 72.44 42.71 72.36 41 71.98 39.27 71.76 37.58 71.69 35.68 71.63 33.68 71.77 31.76 72.11 29.85 72.44 27.96 72.98 26.16 73.71 24.2 74.5 22.34 75.51 20.62 76.72 19.14 77.76 17.77 78.94 16.53 80.24ZM 31.48 97.99C 22.81 97.99 14.56 93.81 9.41 86.81 9.41 86.81 8.86 86.06 8.86 86.06 8.86 86.06 9.29 85.23 9.29 85.23 10.45 83.01 11.87 80.93 13.54 79.06 15.12 77.26 16.92 75.65 18.89 74.27 20.79 72.92 22.86 71.8 25.04 70.92 27.03 70.12 29.12 69.52 31.24 69.15 33.36 68.77 35.53 68.62 37.69 68.69 39.57 68.76 41.48 69.01 43.36 69.43 43.78 69.52 44.2 69.63 44.62 69.75 46.91 70.36 49.16 71.26 51.28 72.42 53.48 73.61 55.53 75.07 57.38 76.76 57.38 76.76 58.07 77.39 58.07 77.39 58.07 77.39 57.8 78.29 57.8 78.29 54.86 88.36 46.6 95.75 36.26 97.57 34.68 97.85 33.07 97.99 31.48 97.99ZM 12.41 85.78C 17.02 91.57 24.08 94.99 31.48 94.99 32.89 94.99 34.33 94.86 35.74 94.62 44.64 93.05 51.8 86.85 54.64 78.35 53.16 77.09 51.55 75.98 49.84 75.05 47.93 74.01 45.9 73.2 43.82 72.64 43.45 72.54 43.08 72.44 42.71 72.36 41 71.98 39.27 71.76 37.58 71.69 35.68 71.63 33.68 71.77 31.76 72.11 29.85 72.44 27.96 72.98 26.16 73.71 24.2 74.5 22.34 75.51 20.62 76.72 18.84 77.97 17.22 79.42 15.79 81.04 14.5 82.5 13.36 84.09 12.41 85.78ZM 128.35 136.01C 128 136.01 127.64 135.97 127.29 135.91 126.47 135.77 125.93 134.99 126.07 134.17 126.22 133.36 126.99 132.81 127.81 132.95 128.6 133.09 129.4 132.92 130.06 132.46 130.72 132 131.16 131.31 131.3 130.52 131.44 129.73 131.26 128.93 130.8 128.27 130.34 127.62 129.65 127.18 128.86 127.04 128.86 127.04 127.38 126.78 127.38 126.78 127.38 126.78 129.47 114.94 129.47 114.94 129.61 114.13 130.39 113.58 131.21 113.73 132.03 113.87 132.57 114.65 132.43 115.47 132.43 115.47 130.83 124.53 130.83 124.53 131.8 124.96 132.64 125.66 133.26 126.55 134.18 127.86 134.54 129.46 134.26 131.04 133.98 132.62 133.1 134 131.79 134.92 130.76 135.63 129.57 136.01 128.35 136.01ZM 127.15 145.24C 123.47 145.1 120.68 142.12 119.43 138.92 119.43 138.92 124.6 141.18 127.96 140.66 131.31 140.13 132.9 145.45 127.15 145.24ZM 95.41 124.59C 94.98 124.59 94.54 124.55 94.1 124.47 90.02 123.76 87.29 119.85 88 115.77 88.73 111.7 92.63 108.97 96.71 109.68 97.86 109.89 98.91 110.33 99.84 111.01 100.51 111.5 100.66 112.44 100.17 113.11 99.68 113.78 98.74 113.93 98.07 113.44 97.51 113.03 96.88 112.76 96.19 112.64 93.74 112.2 91.4 113.85 90.97 116.3 90.54 118.74 92.18 121.08 94.63 121.52 95.43 121.66 96.25 121.58 97 121.29 97.78 121 98.65 121.39 98.94 122.16 99.24 122.94 98.85 123.81 98.07 124.1 97.22 124.43 96.32 124.59 95.41 124.59ZM 163.72 136.62C 163.28 136.62 162.84 136.58 162.39 136.5 161.06 136.27 159.81 135.68 158.79 134.79 158.16 134.25 158.09 133.3 158.64 132.68 159.18 132.05 160.13 131.98 160.76 132.52 161.37 133.05 162.11 133.4 162.92 133.54 164.11 133.75 165.3 133.49 166.29 132.8 167.27 132.11 167.93 131.07 168.14 129.89 168.35 128.7 168.09 127.51 167.39 126.52 166.7 125.54 165.67 124.88 164.48 124.67 163.8 124.55 163.11 124.59 162.45 124.78 161.65 125.01 160.82 124.55 160.59 123.75 160.35 122.95 160.81 122.12 161.61 121.89 162.72 121.57 163.86 121.51 165.01 121.71 169.09 122.43 171.82 126.33 171.1 130.41 170.76 132.39 169.66 134.11 168.01 135.26 166.73 136.15 165.24 136.62 163.72 136.62ZM 125.26 154.63C 125.26 154.63 125.26 154.63 125.26 154.63 123.67 154.63 122.09 154.11 120.81 153.15 112.8 147.14 94.45 131.56 97.04 116.9 97.04 116.9 98.57 108.19 98.57 108.19 101.42 92.08 115.18 80.38 131.29 80.38 133 80.38 134.72 80.52 136.42 80.79 145.25 82.2 152.98 86.97 158.16 94.24 163.35 101.51 165.35 110.36 163.8 119.15 163.8 119.15 162.18 128.37 162.18 128.37 159.59 143.04 137.01 151.4 127.42 154.31 126.72 154.53 125.99 154.63 125.26 154.63ZM 131.29 83.39C 116.64 83.39 104.13 94.04 101.53 108.71 101.53 108.71 100 117.42 100 117.42 97.63 130.81 116.72 146.32 122.62 150.75 123.39 151.33 124.3 151.63 125.26 151.63 125.26 151.63 125.26 151.63 125.26 151.63 125.7 151.63 126.13 151.57 126.54 151.44 133.61 149.29 156.85 141.24 159.21 127.85 159.21 127.85 160.84 118.63 160.84 118.63 162.25 110.64 160.43 102.6 155.72 95.99 151 89.38 143.98 85.03 135.95 83.76 134.41 83.51 132.84 83.39 131.29 83.39ZM 162.38 117.38C 162.38 117.38 100.66 106.51 100.66 106.51 100.66 106.51 101.19 103.55 101.19 103.55 101.19 103.55 162.9 114.42 162.9 114.42 162.9 114.42 162.38 117.38 162.38 117.38ZM 111.29 107.81C 111.14 107.81 110.99 107.79 110.84 107.75 110.05 107.5 109.6 106.66 109.85 105.87 112.83 96.19 124.64 79.12 136.56 81.02 137.38 81.15 137.94 81.92 137.81 82.74 137.68 83.56 136.92 84.11 136.09 83.98 127.07 82.55 115.86 96.59 112.72 106.75 112.52 107.4 111.93 107.81 111.29 107.81ZM 121.57 109.59C 121.43 109.59 121.28 109.57 121.13 109.53 120.34 109.28 119.89 108.44 120.14 107.65 120.84 105.36 123.27 98.65 126.28 92.57 131.6 81.78 134.77 80.95 136.7 81.24 137.52 81.37 138.08 82.15 137.95 82.96 137.82 83.78 137.06 84.35 136.23 84.21 136.19 84.2 136.14 84.2 136.1 84.2 133.11 84.2 125.89 99.18 123.01 108.53 122.81 109.18 122.22 109.59 121.57 109.59ZM 152.06 115C 152.03 115 152.01 114.99 151.98 114.99 151.15 114.95 150.51 114.25 150.55 113.42 151.09 102.79 145.38 85.78 136.39 84.04 135.58 83.88 135.05 83.09 135.2 82.28 135.36 81.46 136.15 80.93 136.97 81.09 148.82 83.38 154.07 103.45 153.56 113.57 153.52 114.37 152.85 115 152.06 115ZM 141.78 113.15C 141.76 113.15 141.73 113.15 141.71 113.15 140.88 113.11 140.24 112.4 140.28 111.58 141 97.3 138.27 84.61 136.18 84.2 135.37 84.05 134.83 83.26 134.99 82.44 135.15 81.63 135.94 81.1 136.75 81.25 138.67 81.62 141.36 83.5 142.67 95.46 143.41 102.2 143.4 109.33 143.28 111.73 143.24 112.53 142.58 113.15 141.78 113.15ZM 131.86 111.37C 131.77 111.37 131.69 111.37 131.6 111.35 130.78 111.21 130.23 110.43 130.38 109.61 130.38 109.61 135.13 82.69 135.13 82.69 135.27 81.88 136.05 81.33 136.87 81.48 137.69 81.62 138.24 82.4 138.09 83.22 138.09 83.22 133.34 110.13 133.34 110.13 133.21 110.86 132.58 111.37 131.86 111.37ZM 152.59 89.62C 152.59 89.62 149.85 88.39 149.85 88.39 150.35 87.26 150.72 86.08 150.93 84.87 151.63 80.93 150.74 76.97 148.45 73.69 146.15 70.42 142.72 68.24 138.78 67.55 130.65 66.11 122.87 71.55 121.44 79.67 121.19 81.1 121.14 82.53 121.3 83.92 121.3 83.92 118.32 84.27 118.32 84.27 118.12 82.59 118.18 80.87 118.48 79.15 120.2 69.4 129.53 62.87 139.3 64.59 144.03 65.42 148.16 68.04 150.91 71.97 153.67 75.9 154.73 80.67 153.89 85.39 153.64 86.84 153.2 88.27 152.59 89.62ZM 136.19 83.78C 136.1 83.78 136.01 83.77 135.92 83.75 135.1 83.61 134.56 82.83 134.7 82.01 134.7 82.01 137.56 65.81 137.56 65.81 137.71 64.99 138.48 64.45 139.3 64.59 140.12 64.73 140.67 65.51 140.52 66.33 140.52 66.33 137.66 82.53 137.66 82.53 137.54 83.26 136.9 83.78 136.19 83.78ZM 136.18 83.78C 135.71 83.78 135.24 83.55 134.95 83.13 134.48 82.46 134.64 81.52 135.32 81.04 135.32 81.04 148.8 71.61 148.8 71.61 149.48 71.14 150.42 71.3 150.9 71.98 151.37 72.66 151.21 73.6 150.53 74.07 150.53 74.07 137.05 83.5 137.05 83.5 136.78 83.69 136.48 83.78 136.18 83.78ZM 136.18 83.78C 135.71 83.78 135.24 83.55 134.95 83.13 134.95 83.13 125.5 69.65 125.5 69.65 125.02 68.97 125.19 68.04 125.87 67.56 126.55 67.09 127.49 67.25 127.96 67.93 127.96 67.93 137.41 81.41 137.41 81.41 137.89 82.09 137.73 83.03 137.05 83.5 136.78 83.69 136.48 83.78 136.18 83.78ZM 117.62 121.75C 117.54 121.75 117.45 121.74 117.36 121.73 116.54 121.58 116 120.8 116.14 119.98 116.48 118.08 115.2 116.26 113.29 115.93 111.4 115.59 109.57 116.86 109.23 118.77 109.09 119.59 108.3 120.13 107.49 119.99 106.67 119.84 106.12 119.06 106.27 118.25 106.89 114.71 110.27 112.35 113.82 112.97 117.35 113.59 119.73 116.97 119.1 120.51 118.97 121.24 118.34 121.75 117.62 121.75ZM 151.19 127.66C 151.1 127.66 151.01 127.65 150.92 127.64 150.11 127.49 149.56 126.71 149.7 125.9 150.04 123.99 148.76 122.17 146.86 121.84 145.94 121.67 145 121.88 144.24 122.42 143.47 122.95 142.96 123.76 142.79 124.68 142.65 125.5 141.87 126.04 141.05 125.9 140.23 125.75 139.69 124.97 139.83 124.16 140.13 122.44 141.09 120.95 142.51 119.96 143.94 118.96 145.66 118.57 147.38 118.88 149.09 119.18 150.59 120.13 151.59 121.56 152.58 122.98 152.97 124.71 152.67 126.42 152.54 127.15 151.9 127.66 151.19 127.66ZM 55.47 167.94C 55.47 167.94 55.47 201.83 55.47 201.83 55.47 201.83 27.65 201.83 27.65 201.83 27.65 201.83 27.65 177.31 27.65 177.31 27.65 177.31 37.02 167.94 37.02 167.94 37.02 167.94 55.47 167.94 55.47 167.94M 57.5 165.91C 57.5 165.91 55.47 165.91 55.47 165.91 55.47 165.91 37.02 165.91 37.02 165.91 37.02 165.91 36.18 165.91 36.18 165.91 36.18 165.91 35.58 166.5 35.58 166.5 35.58 166.5 26.21 175.87 26.21 175.87 26.21 175.87 25.61 176.47 25.61 176.47 25.61 176.47 25.61 177.31 25.61 177.31 25.61 177.31 25.61 201.83 25.61 201.83 25.61 201.83 25.61 203.86 25.61 203.86 25.61 203.86 27.65 203.86 27.65 203.86 27.65 203.86 55.47 203.86 55.47 203.86 55.47 203.86 57.5 203.86 57.5 203.86 57.5 203.86 57.5 201.83 57.5 201.83 57.5 201.83 57.5 167.94 57.5 167.94 57.5 167.94 57.5 165.91 57.5 165.91 57.5 165.91 57.5 165.91 57.5 165.91ZM 38.04 178.45C 38.04 178.45 27.65 178.45 27.65 178.45 27.65 178.45 27.65 176.41 27.65 176.41 27.65 176.41 36.01 176.41 36.01 176.41 36.01 176.41 36.01 168.06 36.01 168.06 36.01 168.06 38.04 168.06 38.04 168.06 38.04 168.06 38.04 178.45 38.04 178.45ZM 30.57 184.57C 30.57 184.22 30.85 183.94 31.2 183.94 31.2 183.94 32.8 183.94 32.8 183.94 34.59 183.94 35.82 185.17 35.82 186.77 35.82 186.77 35.82 186.79 35.82 186.79 35.82 188.39 34.59 189.63 32.8 189.63 32.8 189.63 31.2 189.63 31.2 189.63 30.85 189.63 30.57 189.35 30.57 189.01 30.57 189.01 30.57 184.57 30.57 184.57ZM 32.8 188.5C 33.82 188.5 34.51 187.81 34.51 186.8 34.51 186.8 34.51 186.79 34.51 186.79 34.51 185.78 33.82 185.07 32.8 185.07 32.8 185.07 31.83 185.07 31.83 185.07 31.83 185.07 31.83 188.5 31.83 188.5 31.83 188.5 32.8 188.5 32.8 188.5ZM 36.38 188.83C 36.38 188.83 38.37 184.35 38.37 184.35 38.5 184.04 38.76 183.85 39.1 183.85 39.1 183.85 39.17 183.85 39.17 183.85 39.51 183.85 39.76 184.04 39.9 184.35 39.9 184.35 41.88 188.83 41.88 188.83 41.92 188.92 41.95 189 41.95 189.08 41.95 189.41 41.69 189.68 41.35 189.68 41.06 189.68 40.86 189.51 40.75 189.25 40.75 189.25 40.37 188.36 40.37 188.36 40.37 188.36 37.86 188.36 37.86 188.36 37.86 188.36 37.46 189.29 37.46 189.29 37.36 189.53 37.14 189.68 36.88 189.68 36.56 189.68 36.31 189.42 36.31 189.09 36.31 189.01 36.34 188.92 36.38 188.83ZM 39.9 187.25C 39.9 187.25 39.11 185.37 39.11 185.37 39.11 185.37 38.33 187.25 38.33 187.25 38.33 187.25 39.9 187.25 39.9 187.25ZM 43.65 185.1C 43.65 185.1 42.45 185.1 42.45 185.1 42.13 185.1 41.87 184.84 41.87 184.52 41.87 184.2 42.13 183.94 42.45 183.94 42.45 183.94 46.11 183.94 46.11 183.94 46.43 183.94 46.69 184.2 46.69 184.52 46.69 184.84 46.43 185.1 46.11 185.1 46.11 185.1 44.9 185.1 44.9 185.1 44.9 185.1 44.9 189.05 44.9 189.05 44.9 189.4 44.63 189.68 44.28 189.68 43.93 189.68 43.65 189.4 43.65 189.05 43.65 189.05 43.65 185.1 43.65 185.1ZM 46.67 188.83C 46.67 188.83 48.66 184.35 48.66 184.35 48.8 184.04 49.05 183.85 49.39 183.85 49.39 183.85 49.46 183.85 49.46 183.85 49.8 183.85 50.05 184.04 50.19 184.35 50.19 184.35 52.17 188.83 52.17 188.83 52.21 188.92 52.24 189 52.24 189.08 52.24 189.41 51.98 189.68 51.64 189.68 51.35 189.68 51.16 189.51 51.04 189.25 51.04 189.25 50.66 188.36 50.66 188.36 50.66 188.36 48.15 188.36 48.15 188.36 48.15 188.36 47.75 189.29 47.75 189.29 47.65 189.53 47.44 189.68 47.18 189.68 46.85 189.68 46.6 189.42 46.6 189.09 46.6 189.01 46.63 188.92 46.67 188.83ZM 50.2 187.25C 50.2 187.25 49.41 185.37 49.41 185.37 49.41 185.37 48.62 187.25 48.62 187.25 48.62 187.25 50.2 187.25 50.2 187.25ZM 63.61 174.04C 63.61 174.04 60.22 174.04 60.22 174.04 60.22 174.04 60.22 176.08 60.22 176.08 60.22 176.08 63.61 176.08 63.61 176.08 63.61 176.08 63.61 209.96 63.61 209.96 63.61 209.96 35.79 209.96 35.79 209.96 35.79 209.96 35.79 206.58 35.79 206.58 35.79 206.58 33.75 206.58 33.75 206.58 33.75 206.58 33.75 209.96 33.75 209.96 33.75 209.96 33.75 212 33.75 212 33.75 212 35.79 212 35.79 212 35.79 212 63.61 212 63.61 212 63.61 212 65.64 212 65.64 212 65.64 212 65.64 209.96 65.64 209.96 65.64 209.96 65.64 176.08 65.64 176.08 65.64 176.08 65.64 174.04 65.64 174.04 65.64 174.04 63.61 174.04 63.61 174.04ZM 59.54 169.98C 59.54 169.98 56.14 169.98 56.14 169.98 56.14 169.98 56.14 172.01 56.14 172.01 56.14 172.01 59.54 172.01 59.54 172.01 59.54 172.01 59.54 205.9 59.54 205.9 59.54 205.9 31.72 205.9 31.72 205.9 31.72 205.9 31.72 202.51 31.72 202.51 31.72 202.51 29.68 202.51 29.68 202.51 29.68 202.51 29.68 205.9 29.68 205.9 29.68 205.9 29.68 207.93 29.68 207.93 29.68 207.93 31.72 207.93 31.72 207.93 31.72 207.93 59.54 207.93 59.54 207.93 59.54 207.93 61.57 207.93 61.57 207.93 61.57 207.93 61.57 205.9 61.57 205.9 61.57 205.9 61.57 172.01 61.57 172.01 61.57 172.01 61.57 169.98 61.57 169.98 61.57 169.98 59.54 169.98 59.54 169.98ZM 98.21 167.94C 98.21 167.94 98.21 201.83 98.21 201.83 98.21 201.83 70.39 201.83 70.39 201.83 70.39 201.83 70.39 177.31 70.39 177.31 70.39 177.31 79.77 167.94 79.77 167.94 79.77 167.94 98.21 167.94 98.21 167.94M 100.25 165.91C 100.25 165.91 98.21 165.91 98.21 165.91 98.21 165.91 79.77 165.91 79.77 165.91 79.77 165.91 78.93 165.91 78.93 165.91 78.93 165.91 78.33 166.5 78.33 166.5 78.33 166.5 68.95 175.87 68.95 175.87 68.95 175.87 68.36 176.47 68.36 176.47 68.36 176.47 68.36 177.31 68.36 177.31 68.36 177.31 68.36 201.83 68.36 201.83 68.36 201.83 68.36 203.86 68.36 203.86 68.36 203.86 70.39 203.86 70.39 203.86 70.39 203.86 98.21 203.86 98.21 203.86 98.21 203.86 100.25 203.86 100.25 203.86 100.25 203.86 100.25 201.83 100.25 201.83 100.25 201.83 100.25 167.94 100.25 167.94 100.25 167.94 100.25 165.91 100.25 165.91 100.25 165.91 100.25 165.91 100.25 165.91ZM 80.79 178.45C 80.79 178.45 70.39 178.45 70.39 178.45 70.39 178.45 70.39 176.41 70.39 176.41 70.39 176.41 78.75 176.41 78.75 176.41 78.75 176.41 78.75 168.06 78.75 168.06 78.75 168.06 80.79 168.06 80.79 168.06 80.79 168.06 80.79 178.45 80.79 178.45ZM 73.32 184.57C 73.32 184.22 73.6 183.94 73.95 183.94 73.95 183.94 75.54 183.94 75.54 183.94 77.33 183.94 78.57 185.17 78.57 186.77 78.57 186.77 78.57 186.79 78.57 186.79 78.57 188.39 77.33 189.63 75.54 189.63 75.54 189.63 73.95 189.63 73.95 189.63 73.6 189.63 73.32 189.35 73.32 189.01 73.32 189.01 73.32 184.57 73.32 184.57ZM 75.54 188.5C 76.57 188.5 77.26 187.81 77.26 186.8 77.26 186.8 77.26 186.79 77.26 186.79 77.26 185.78 76.57 185.07 75.54 185.07 75.54 185.07 74.57 185.07 74.57 185.07 74.57 185.07 74.57 188.5 74.57 188.5 74.57 188.5 75.54 188.5 75.54 188.5ZM 79.13 188.83C 79.13 188.83 81.11 184.35 81.11 184.35 81.25 184.04 81.5 183.85 81.85 183.85 81.85 183.85 81.92 183.85 81.92 183.85 82.26 183.85 82.51 184.04 82.64 184.35 82.64 184.35 84.63 188.83 84.63 188.83 84.67 188.92 84.69 189 84.69 189.08 84.69 189.41 84.43 189.68 84.1 189.68 83.81 189.68 83.61 189.51 83.5 189.25 83.5 189.25 83.11 188.36 83.11 188.36 83.11 188.36 80.61 188.36 80.61 188.36 80.61 188.36 80.21 189.29 80.21 189.29 80.1 189.53 79.89 189.68 79.63 189.68 79.31 189.68 79.05 189.42 79.05 189.09 79.05 189.01 79.09 188.92 79.13 188.83ZM 82.65 187.25C 82.65 187.25 81.86 185.37 81.86 185.37 81.86 185.37 81.07 187.25 81.07 187.25 81.07 187.25 82.65 187.25 82.65 187.25ZM 86.4 185.1C 86.4 185.1 85.19 185.1 85.19 185.1 84.88 185.1 84.62 184.84 84.62 184.52 84.62 184.2 84.88 183.94 85.19 183.94 85.19 183.94 88.86 183.94 88.86 183.94 89.17 183.94 89.43 184.2 89.43 184.52 89.43 184.84 89.17 185.1 88.86 185.1 88.86 185.1 87.65 185.1 87.65 185.1 87.65 185.1 87.65 189.05 87.65 189.05 87.65 189.4 87.38 189.68 87.02 189.68 86.68 189.68 86.4 189.4 86.4 189.05 86.4 189.05 86.4 185.1 86.4 185.1ZM 89.42 188.83C 89.42 188.83 91.41 184.35 91.41 184.35 91.54 184.04 91.8 183.85 92.14 183.85 92.14 183.85 92.21 183.85 92.21 183.85 92.55 183.85 92.8 184.04 92.94 184.35 92.94 184.35 94.92 188.83 94.92 188.83 94.96 188.92 94.99 189 94.99 189.08 94.99 189.41 94.73 189.68 94.39 189.68 94.1 189.68 93.9 189.51 93.79 189.25 93.79 189.25 93.41 188.36 93.41 188.36 93.41 188.36 90.9 188.36 90.9 188.36 90.9 188.36 90.5 189.29 90.5 189.29 90.4 189.53 90.18 189.68 89.92 189.68 89.6 189.68 89.35 189.42 89.35 189.09 89.35 189.01 89.38 188.92 89.42 188.83ZM 92.94 187.25C 92.94 187.25 92.15 185.37 92.15 185.37 92.15 185.37 91.37 187.25 91.37 187.25 91.37 187.25 92.94 187.25 92.94 187.25ZM 106.36 174.04C 106.36 174.04 102.96 174.04 102.96 174.04 102.96 174.04 102.96 176.08 102.96 176.08 102.96 176.08 106.36 176.08 106.36 176.08 106.36 176.08 106.36 209.96 106.36 209.96 106.36 209.96 78.54 209.96 78.54 209.96 78.54 209.96 78.54 206.58 78.54 206.58 78.54 206.58 76.5 206.58 76.5 206.58 76.5 206.58 76.5 209.96 76.5 209.96 76.5 209.96 76.5 212 76.5 212 76.5 212 78.54 212 78.54 212 78.54 212 106.36 212 106.36 212 106.36 212 108.39 212 108.39 212 108.39 212 108.39 209.96 108.39 209.96 108.39 209.96 108.39 176.08 108.39 176.08 108.39 176.08 108.39 174.04 108.39 174.04 108.39 174.04 106.36 174.04 106.36 174.04ZM 102.29 169.98C 102.29 169.98 98.89 169.98 98.89 169.98 98.89 169.98 98.89 172.01 98.89 172.01 98.89 172.01 102.29 172.01 102.29 172.01 102.29 172.01 102.29 205.9 102.29 205.9 102.29 205.9 74.47 205.9 74.47 205.9 74.47 205.9 74.47 202.51 74.47 202.51 74.47 202.51 72.43 202.51 72.43 202.51 72.43 202.51 72.43 205.9 72.43 205.9 72.43 205.9 72.43 207.93 72.43 207.93 72.43 207.93 74.47 207.93 74.47 207.93 74.47 207.93 102.29 207.93 102.29 207.93 102.29 207.93 104.32 207.93 104.32 207.93 104.32 207.93 104.32 205.9 104.32 205.9 104.32 205.9 104.32 172.01 104.32 172.01 104.32 172.01 104.32 169.98 104.32 169.98 104.32 169.98 102.29 169.98 102.29 169.98ZM 140.96 167.94C 140.96 167.94 140.96 201.83 140.96 201.83 140.96 201.83 113.14 201.83 113.14 201.83 113.14 201.83 113.14 177.31 113.14 177.31 113.14 177.31 122.52 167.94 122.52 167.94 122.52 167.94 140.96 167.94 140.96 167.94M 143 165.91C 143 165.91 140.96 165.91 140.96 165.91 140.96 165.91 122.52 165.91 122.52 165.91 122.52 165.91 121.68 165.91 121.68 165.91 121.68 165.91 121.08 166.5 121.08 166.5 121.08 166.5 111.7 175.87 111.7 175.87 111.7 175.87 111.11 176.47 111.11 176.47 111.11 176.47 111.11 177.31 111.11 177.31 111.11 177.31 111.11 201.83 111.11 201.83 111.11 201.83 111.11 203.86 111.11 203.86 111.11 203.86 113.14 203.86 113.14 203.86 113.14 203.86 140.96 203.86 140.96 203.86 140.96 203.86 143 203.86 143 203.86 143 203.86 143 201.83 143 201.83 143 201.83 143 167.94 143 167.94 143 167.94 143 165.91 143 165.91 143 165.91 143 165.91 143 165.91ZM 123.54 178.45C 123.54 178.45 113.14 178.45 113.14 178.45 113.14 178.45 113.14 176.41 113.14 176.41 113.14 176.41 121.5 176.41 121.5 176.41 121.5 176.41 121.5 168.06 121.5 168.06 121.5 168.06 123.54 168.06 123.54 168.06 123.54 168.06 123.54 178.45 123.54 178.45ZM 116.07 184.57C 116.07 184.22 116.35 183.94 116.7 183.94 116.7 183.94 118.29 183.94 118.29 183.94 120.08 183.94 121.32 185.17 121.32 186.77 121.32 186.77 121.32 186.79 121.32 186.79 121.32 188.39 120.08 189.63 118.29 189.63 118.29 189.63 116.7 189.63 116.7 189.63 116.35 189.63 116.07 189.35 116.07 189.01 116.07 189.01 116.07 184.57 116.07 184.57ZM 118.29 188.5C 119.32 188.5 120.01 187.81 120.01 186.8 120.01 186.8 120.01 186.79 120.01 186.79 120.01 185.78 119.32 185.07 118.29 185.07 118.29 185.07 117.32 185.07 117.32 185.07 117.32 185.07 117.32 188.5 117.32 188.5 117.32 188.5 118.29 188.5 118.29 188.5ZM 121.88 188.83C 121.88 188.83 123.86 184.35 123.86 184.35 124 184.04 124.25 183.85 124.59 183.85 124.59 183.85 124.67 183.85 124.67 183.85 125.01 183.85 125.25 184.04 125.39 184.35 125.39 184.35 127.38 188.83 127.38 188.83 127.42 188.92 127.44 189 127.44 189.08 127.44 189.41 127.18 189.68 126.85 189.68 126.56 189.68 126.36 189.51 126.25 189.25 126.25 189.25 125.86 188.36 125.86 188.36 125.86 188.36 123.36 188.36 123.36 188.36 123.36 188.36 122.96 189.29 122.96 189.29 122.85 189.53 122.64 189.68 122.38 189.68 122.06 189.68 121.8 189.42 121.8 189.09 121.8 189.01 121.84 188.92 121.88 188.83ZM 125.4 187.25C 125.4 187.25 124.61 185.37 124.61 185.37 124.61 185.37 123.82 187.25 123.82 187.25 123.82 187.25 125.4 187.25 125.4 187.25ZM 129.15 185.1C 129.15 185.1 127.94 185.1 127.94 185.1 127.63 185.1 127.37 184.84 127.37 184.52 127.37 184.2 127.63 183.94 127.94 183.94 127.94 183.94 131.6 183.94 131.6 183.94 131.92 183.94 132.18 184.2 132.18 184.52 132.18 184.84 131.92 185.1 131.6 185.1 131.6 185.1 130.4 185.1 130.4 185.1 130.4 185.1 130.4 189.05 130.4 189.05 130.4 189.4 130.12 189.68 129.77 189.68 129.42 189.68 129.15 189.4 129.15 189.05 129.15 189.05 129.15 185.1 129.15 185.1ZM 132.17 188.83C 132.17 188.83 134.15 184.35 134.15 184.35 134.29 184.04 134.54 183.85 134.89 183.85 134.89 183.85 134.96 183.85 134.96 183.85 135.3 183.85 135.55 184.04 135.68 184.35 135.68 184.35 137.67 188.83 137.67 188.83 137.71 188.92 137.73 189 137.73 189.08 137.73 189.41 137.47 189.68 137.14 189.68 136.85 189.68 136.65 189.51 136.54 189.25 136.54 189.25 136.16 188.36 136.16 188.36 136.16 188.36 133.65 188.36 133.65 188.36 133.65 188.36 133.25 189.29 133.25 189.29 133.15 189.53 132.93 189.68 132.67 189.68 132.35 189.68 132.1 189.42 132.1 189.09 132.1 189.01 132.13 188.92 132.17 188.83ZM 135.69 187.25C 135.69 187.25 134.9 185.37 134.9 185.37 134.9 185.37 134.11 187.25 134.11 187.25 134.11 187.25 135.69 187.25 135.69 187.25ZM 149.11 174.04C 149.11 174.04 145.71 174.04 145.71 174.04 145.71 174.04 145.71 176.08 145.71 176.08 145.71 176.08 149.11 176.08 149.11 176.08 149.11 176.08 149.11 209.96 149.11 209.96 149.11 209.96 121.29 209.96 121.29 209.96 121.29 209.96 121.29 206.58 121.29 206.58 121.29 206.58 119.25 206.58 119.25 206.58 119.25 206.58 119.25 209.96 119.25 209.96 119.25 209.96 119.25 212 119.25 212 119.25 212 121.29 212 121.29 212 121.29 212 149.11 212 149.11 212 149.11 212 151.14 212 151.14 212 151.14 212 151.14 209.96 151.14 209.96 151.14 209.96 151.14 176.08 151.14 176.08 151.14 176.08 151.14 174.04 151.14 174.04 151.14 174.04 149.11 174.04 149.11 174.04ZM 145.03 169.98C 145.03 169.98 141.64 169.98 141.64 169.98 141.64 169.98 141.64 172.01 141.64 172.01 141.64 172.01 145.03 172.01 145.03 172.01 145.03 172.01 145.03 205.9 145.03 205.9 145.03 205.9 117.21 205.9 117.21 205.9 117.21 205.9 117.21 202.51 117.21 202.51 117.21 202.51 115.18 202.51 115.18 202.51 115.18 202.51 115.18 205.9 115.18 205.9 115.18 205.9 115.18 207.93 115.18 207.93 115.18 207.93 117.21 207.93 117.21 207.93 117.21 207.93 145.03 207.93 145.03 207.93 145.03 207.93 147.07 207.93 147.07 207.93 147.07 207.93 147.07 205.9 147.07 205.9 147.07 205.9 147.07 172.01 147.07 172.01 147.07 172.01 147.07 169.98 147.07 169.98 147.07 169.98 145.03 169.98 145.03 169.98ZM 51.35 50.61C 51.35 50.61 54.29 43.99 54.29 43.99 54.49 43.53 54.86 43.26 55.37 43.26 55.37 43.26 55.48 43.26 55.48 43.26 55.98 43.26 56.34 43.53 56.55 43.99 56.55 43.99 59.48 50.61 59.48 50.61 59.54 50.74 59.58 50.86 59.58 50.98 59.58 51.47 59.19 51.87 58.7 51.87 58.26 51.87 57.98 51.62 57.81 51.23 57.81 51.23 57.24 49.91 57.24 49.91 57.24 49.91 53.54 49.91 53.54 49.91 53.54 49.91 52.95 51.29 52.95 51.29 52.79 51.65 52.48 51.87 52.1 51.87 51.62 51.87 51.24 51.48 51.24 51 51.24 50.87 51.29 50.74 51.35 50.61ZM 56.56 48.28C 56.56 48.28 55.39 45.5 55.39 45.5 55.39 45.5 54.23 48.28 54.23 48.28 54.23 48.28 56.56 48.28 56.56 48.28ZM 59.78 44.57C 59.75 44.46 59.71 44.33 59.71 44.22 59.71 43.7 60.15 43.32 60.66 43.32 61.09 43.32 61.44 43.59 61.56 43.98 61.56 43.98 63.23 49.13 63.23 49.13 63.23 49.13 64.92 44.03 64.92 44.03 65.06 43.59 65.39 43.29 65.85 43.29 65.85 43.29 66 43.29 66 43.29 66.47 43.29 66.79 43.58 66.94 44.03 66.94 44.03 68.62 49.13 68.62 49.13 68.62 49.13 70.29 43.98 70.29 43.98 70.41 43.62 70.72 43.32 71.18 43.32 71.69 43.32 72.09 43.7 72.09 44.21 72.09 44.31 72.06 44.46 72.02 44.57 72.02 44.57 69.67 51.17 69.67 51.17 69.5 51.64 69.15 51.93 68.7 51.93 68.7 51.93 68.51 51.93 68.51 51.93 68.07 51.93 67.73 51.65 67.56 51.17 67.56 51.17 65.9 46.36 65.9 46.36 65.9 46.36 64.24 51.17 64.24 51.17 64.08 51.65 63.74 51.93 63.29 51.93 63.29 51.93 63.1 51.93 63.1 51.93 62.66 51.93 62.31 51.64 62.14 51.17 62.14 51.17 59.78 44.57 59.78 44.57ZM 73.52 50.87C 73.52 50.87 73.52 44.31 73.52 44.31 73.52 43.8 73.93 43.39 74.45 43.39 74.45 43.39 79.11 43.39 79.11 43.39 79.57 43.39 79.94 43.76 79.94 44.22 79.94 44.67 79.57 45.04 79.11 45.04 79.11 45.04 75.36 45.04 75.36 45.04 75.36 45.04 75.36 46.74 75.36 46.74 75.36 46.74 78.57 46.74 78.57 46.74 79.03 46.74 79.4 47.11 79.4 47.57 79.4 48.03 79.03 48.39 78.57 48.39 78.57 48.39 75.36 48.39 75.36 48.39 75.36 48.39 75.36 50.15 75.36 50.15 75.36 50.15 79.17 50.15 79.17 50.15 79.63 50.15 80 50.52 80 50.98 80 51.44 79.63 51.8 79.17 51.8 79.17 51.8 74.45 51.8 74.45 51.8 73.93 51.8 73.52 51.39 73.52 50.87ZM 81.41 50.91C 81.21 50.76 81.06 50.5 81.06 50.21 81.06 49.73 81.45 49.36 81.93 49.36 82.17 49.36 82.34 49.44 82.46 49.53 83.09 49.99 83.79 50.28 84.61 50.28 85.37 50.28 85.82 49.98 85.82 49.49 85.82 49.49 85.82 49.47 85.82 49.47 85.82 49 85.53 48.76 84.13 48.4 82.43 47.97 81.34 47.5 81.34 45.83 81.34 45.83 81.34 45.8 81.34 45.8 81.34 44.28 82.57 43.27 84.28 43.27 85.31 43.27 86.2 43.53 86.95 44.01 87.16 44.13 87.36 44.39 87.36 44.75 87.36 45.23 86.98 45.6 86.5 45.6 86.32 45.6 86.17 45.55 86.03 45.47 85.41 45.11 84.84 44.9 84.26 44.9 83.55 44.9 83.18 45.23 83.18 45.64 83.18 45.64 83.18 45.66 83.18 45.66 83.18 46.21 83.54 46.39 84.99 46.76 86.7 47.21 87.66 47.82 87.66 49.29 87.66 49.29 87.66 49.31 87.66 49.31 87.66 50.98 86.39 51.92 84.57 51.92 83.47 51.92 82.35 51.58 81.41 50.91ZM 88.91 47.62C 88.91 47.62 88.91 47.59 88.91 47.59 88.91 45.2 90.79 43.25 93.39 43.25 95.99 43.25 97.85 45.18 97.85 47.57 97.85 47.57 97.85 47.59 97.85 47.59 97.85 49.98 95.96 51.94 93.37 51.94 90.77 51.94 88.91 50.01 88.91 47.62ZM 95.92 47.62C 95.92 47.62 95.92 47.59 95.92 47.59 95.92 46.15 94.86 44.95 93.37 44.95 91.88 44.95 90.84 46.13 90.84 47.57 90.84 47.57 90.84 47.59 90.84 47.59 90.84 49.03 91.9 50.24 93.39 50.24 94.88 50.24 95.92 49.06 95.92 47.62ZM 99.5 44.27C 99.5 43.75 99.91 43.34 100.43 43.34 100.43 43.34 100.63 43.34 100.63 43.34 101.03 43.34 101.31 43.55 101.47 43.82 101.47 43.82 103.71 47.46 103.71 47.46 103.71 47.46 105.96 43.81 105.96 43.81 106.15 43.5 106.41 43.34 106.79 43.34 106.79 43.34 106.99 43.34 106.99 43.34 107.51 43.34 107.92 43.75 107.92 44.27 107.92 44.27 107.92 50.94 107.92 50.94 107.92 51.46 107.51 51.87 106.99 51.87 106.49 51.87 106.08 51.45 106.08 50.94 106.08 50.94 106.08 46.75 106.08 46.75 106.08 46.75 104.46 49.25 104.46 49.25 104.26 49.54 104.02 49.72 103.69 49.72 103.35 49.72 103.11 49.54 102.92 49.25 102.92 49.25 101.32 46.79 101.32 46.79 101.32 46.79 101.32 50.97 101.32 50.97 101.32 51.47 100.91 51.87 100.4 51.87 99.9 51.87 99.5 51.47 99.5 50.97 99.5 50.97 99.5 44.27 99.5 44.27ZM 109.94 50.87C 109.94 50.87 109.94 44.31 109.94 44.31 109.94 43.8 110.35 43.39 110.87 43.39 110.87 43.39 115.53 43.39 115.53 43.39 115.99 43.39 116.36 43.76 116.36 44.22 116.36 44.67 115.99 45.04 115.53 45.04 115.53 45.04 111.78 45.04 111.78 45.04 111.78 45.04 111.78 46.74 111.78 46.74 111.78 46.74 114.99 46.74 114.99 46.74 115.45 46.74 115.82 47.11 115.82 47.57 115.82 48.03 115.45 48.39 114.99 48.39 114.99 48.39 111.78 48.39 111.78 48.39 111.78 48.39 111.78 50.15 111.78 50.15 111.78 50.15 115.59 50.15 115.59 50.15 116.05 50.15 116.42 50.52 116.42 50.98 116.42 51.44 116.05 51.8 115.59 51.8 115.59 51.8 110.87 51.8 110.87 51.8 110.35 51.8 109.94 51.39 109.94 50.87ZM 117.87 43.97C 117.83 43.62 118.03 43.35 118.35 43.35 118.35 43.35 119.53 43.35 119.53 43.35 119.85 43.35 120.05 43.62 120.01 43.97 120.01 43.97 119.49 48.48 119.49 48.48 119.46 48.81 119.24 49.01 118.94 49.01 118.64 49.01 118.42 48.81 118.39 48.48 118.39 48.48 117.87 43.97 117.87 43.97ZM 118.94 49.8C 119.54 49.8 119.99 50.25 119.99 50.82 119.99 50.82 119.99 50.85 119.99 50.85 119.99 51.42 119.54 51.87 118.94 51.87 118.34 51.87 117.89 51.42 117.89 50.85 117.89 50.85 117.89 50.82 117.89 50.82 117.89 50.25 118.34 49.8 118.94 49.8ZM 109.37 73.82C 109.37 73.82 100.35 61.81 100.35 61.81 100.35 61.81 71.35 61.81 71.35 61.81 71.35 61.81 62.33 73.82 62.33 73.82 62.33 73.82 62.33 61.81 62.33 61.81 62.33 61.81 54.31 61.81 54.31 61.81 46.02 61.81 39.27 55.07 39.27 46.79 39.27 38.51 46.02 31.77 54.31 31.77 54.31 31.77 117.46 31.77 117.46 31.77 125.75 31.77 132.5 38.51 132.5 46.79 132.5 55.07 125.75 61.81 117.46 61.81 117.46 61.81 109.37 61.81 109.37 61.81 109.37 61.81 109.37 73.82 109.37 73.82ZM 70.35 59.81C 70.35 59.81 101.35 59.81 101.35 59.81 101.35 59.81 107.37 67.82 107.37 67.82 107.37 67.82 107.37 59.81 107.37 59.81 107.37 59.81 117.46 59.81 117.46 59.81 124.65 59.81 130.49 53.97 130.49 46.79 130.49 39.61 124.65 33.77 117.46 33.77 117.46 33.77 54.31 33.77 54.31 33.77 47.12 33.77 41.28 39.61 41.28 46.79 41.28 53.97 47.12 59.81 54.31 59.81 54.31 59.81 64.33 59.81 64.33 59.81 64.33 59.81 64.33 67.82 64.33 67.82 64.33 67.82 70.35 59.81 70.35 59.81Z" fill="rgb(0,113,255)"/></svg>