<?xml version="1.0" encoding="utf-8"?>
<svg xmlns="http://www.w3.org/2000/svg"
	xmlns:xlink="http://www.w3.org/1999/xlink"
	width="227px" height="258px" viewBox="0 0 227 258">
<path fillRule="evenodd" d="M 53.68 217.21C 53.68 217.21 53.69 217.19 53.69 217.19 54.92 215.14 57.48 214.39 59.69 215.72 60.77 216.37 61.33 217.1 61.66 217.9 61.75 218.12 61.76 218.43 61.59 218.71 61.33 219.14 60.78 219.27 60.35 219.01 60.13 218.88 60.04 218.71 59.97 218.57 59.72 217.98 59.37 217.51 58.8 217.17 57.59 216.45 56.1 216.93 55.36 218.16 55.36 218.16 55.35 218.18 55.35 218.18 54.61 219.41 54.84 220.95 56.08 221.69 56.75 222.09 57.31 222.16 57.99 222.07 58.17 222.04 58.38 222.07 58.56 222.18 58.97 222.42 59.11 222.95 58.87 223.35 58.72 223.6 58.48 223.72 58.26 223.75 57.27 223.93 56.3 223.81 55.15 223.12 53.03 221.85 52.44 219.27 53.68 217.21ZM 64.47 219.51C 64.71 219.05 65.26 218.88 65.72 219.11 66.18 219.35 66.36 219.89 66.12 220.35 66.12 220.35 63.06 226.31 63.06 226.31 62.82 226.76 62.27 226.94 61.81 226.71 61.35 226.47 61.18 225.92 61.41 225.46 61.41 225.46 64.47 219.51 64.47 219.51ZM 70.42 223.32C 70.42 223.32 68.79 222.61 68.79 222.61 68.36 222.43 68.16 221.92 68.35 221.49 68.53 221.06 69.04 220.87 69.47 221.05 69.47 221.05 74.43 223.21 74.43 223.21 74.86 223.4 75.06 223.91 74.87 224.33 74.68 224.76 74.17 224.96 73.74 224.77 73.74 224.77 72.11 224.06 72.11 224.06 72.11 224.06 69.77 229.41 69.77 229.41 69.56 229.89 69.02 230.1 68.55 229.89 68.08 229.68 67.86 229.15 68.07 228.68 68.07 228.68 70.42 223.32 70.42 223.32ZM 77.23 225.19C 77.41 224.71 77.94 224.46 78.42 224.64 78.91 224.82 79.15 225.34 78.97 225.82 78.97 225.82 76.67 232.11 76.67 232.11 76.49 232.59 75.97 232.84 75.48 232.66 75 232.48 74.75 231.96 74.93 231.47 74.93 231.47 77.23 225.19 77.23 225.19ZM 79.8 233.26C 79.8 233.26 79.81 233.23 79.81 233.23 79.91 232.92 80.1 232.67 80.38 232.49 80.38 232.49 85.99 228.86 85.99 228.86 85.99 228.86 82.41 227.81 82.41 227.81 81.98 227.69 81.72 227.24 81.85 226.81 81.97 226.39 82.43 226.13 82.86 226.26 82.86 226.26 88.02 227.76 88.02 227.76 88.45 227.89 88.7 228.35 88.57 228.78 88.57 228.78 88.56 228.81 88.56 228.81 88.47 229.12 88.28 229.35 88 229.54 88 229.54 82.38 233.18 82.38 233.18 82.38 233.18 86.11 234.26 86.11 234.26 86.54 234.39 86.79 234.85 86.67 235.28 86.54 235.7 86.08 235.94 85.66 235.82 85.66 235.82 80.36 234.27 80.36 234.27 79.93 234.15 79.68 233.69 79.8 233.26ZM 90.19 235.99C 90.19 235.99 91.49 229.58 91.49 229.58 91.59 229.07 92.07 228.75 92.58 228.85 92.58 228.85 97.15 229.78 97.15 229.78 97.6 229.87 97.89 230.3 97.8 230.75 97.71 231.2 97.27 231.48 96.82 231.39 96.82 231.39 93.15 230.64 93.15 230.64 93.15 230.64 92.81 232.31 92.81 232.31 92.81 232.31 95.96 232.95 95.96 232.95 96.4 233.04 96.69 233.48 96.6 233.92 96.51 234.37 96.08 234.65 95.63 234.56 95.63 234.56 92.48 233.92 92.48 233.92 92.48 233.92 92.13 235.65 92.13 235.65 92.13 235.65 95.87 236.4 95.87 236.4 96.32 236.49 96.61 236.93 96.52 237.38 96.43 237.82 95.99 238.1 95.54 238.01 95.54 238.01 90.91 237.08 90.91 237.08 90.4 236.98 90.08 236.5 90.19 235.99ZM 100.78 231.27C 100.83 230.76 101.29 230.4 101.8 230.46 101.8 230.46 101.99 230.48 101.99 230.48 102.43 230.53 102.67 230.77 102.89 231.12 102.89 231.12 105.92 236.16 105.92 236.16 105.92 236.16 106.4 231.85 106.4 231.85 106.45 231.35 106.91 230.99 107.41 231.05 107.91 231.1 108.27 231.55 108.22 232.05 108.22 232.05 107.48 238.69 107.48 238.69 107.43 239.2 106.98 239.56 106.46 239.51 106.46 239.51 106.4 239.5 106.4 239.5 105.96 239.45 105.72 239.21 105.51 238.86 105.51 238.86 102.36 233.64 102.36 233.64 102.36 233.64 101.86 238.11 101.86 238.11 101.81 238.61 101.36 238.97 100.86 238.92 100.35 238.86 99.99 238.41 100.05 237.91 100.05 237.91 100.78 231.27 100.78 231.27ZM 115.94 239.03C 115.73 238.89 115.58 238.63 115.58 238.34 115.57 237.86 115.95 237.48 116.43 237.47 116.67 237.47 116.84 237.55 116.96 237.63 117.61 238.09 118.31 238.37 119.12 238.35 119.88 238.34 120.33 238.03 120.32 237.54 120.32 237.54 120.32 237.52 120.32 237.52 120.32 237.05 120.02 236.82 118.61 236.48 116.91 236.08 115.81 235.63 115.78 233.96 115.78 233.96 115.78 233.94 115.78 233.94 115.76 232.42 116.97 231.39 118.68 231.36 119.7 231.34 120.6 231.59 121.36 232.06 121.57 232.18 121.78 232.43 121.78 232.78 121.79 233.26 121.41 233.64 120.93 233.65 120.75 233.65 120.61 233.61 120.46 233.53 119.84 233.18 119.26 232.98 118.69 232.99 117.98 233 117.61 233.33 117.62 233.74 117.62 233.74 117.62 233.76 117.62 233.76 117.63 234.31 117.99 234.49 119.45 234.84 121.16 235.25 122.13 235.85 122.16 237.31 122.16 237.31 122.16 237.33 122.16 237.33 122.19 239 120.93 239.95 119.11 239.98 118.01 240 116.89 239.68 115.94 239.03ZM 124.94 235.51C 124.94 235.51 124.93 235.48 124.93 235.48 124.7 233.11 126.3 230.98 128.87 230.73 130.13 230.6 131.01 230.85 131.75 231.3 131.96 231.42 132.15 231.67 132.19 231.99 132.24 232.49 131.87 232.92 131.37 232.97 131.12 233 130.94 232.92 130.8 232.85 130.25 232.52 129.69 232.36 129.03 232.42 127.62 232.56 126.72 233.83 126.86 235.27 126.86 235.27 126.86 235.29 126.86 235.29 127 236.72 128.12 237.82 129.55 237.67 130.33 237.6 130.82 237.31 131.31 236.84 131.44 236.7 131.62 236.6 131.84 236.58 132.3 236.53 132.74 236.88 132.78 237.34 132.81 237.63 132.69 237.87 132.54 238.03 131.85 238.76 131 239.24 129.66 239.37 127.2 239.62 125.18 237.9 124.94 235.51ZM 135.01 230.93C 134.92 230.42 135.26 229.95 135.77 229.87 136.28 229.78 136.75 230.12 136.83 230.63 136.83 230.63 137.94 237.23 137.94 237.23 138.03 237.73 137.69 238.2 137.18 238.29 136.67 238.37 136.2 238.04 136.12 237.53 136.12 237.53 135.01 230.93 135.01 230.93ZM 141.48 236.52C 141.48 236.52 140 230.14 140 230.14 139.88 229.64 140.18 229.15 140.69 229.03 140.69 229.03 145.23 227.98 145.23 227.98 145.67 227.88 146.12 228.16 146.22 228.6 146.33 229.04 146.05 229.48 145.6 229.58 145.6 229.58 141.95 230.43 141.95 230.43 141.95 230.43 142.34 232.09 142.34 232.09 142.34 232.09 145.46 231.36 145.46 231.36 145.91 231.26 146.35 231.54 146.46 231.98 146.56 232.42 146.28 232.86 145.83 232.96 145.83 232.96 142.71 233.68 142.71 233.68 142.71 233.68 143.11 235.4 143.11 235.4 143.11 235.4 146.82 234.54 146.82 234.54 147.26 234.44 147.71 234.72 147.81 235.16 147.92 235.6 147.64 236.04 147.19 236.14 147.19 236.14 142.59 237.21 142.59 237.21 142.09 237.32 141.6 237.02 141.48 236.52ZM 149.15 227.84C 148.99 227.35 149.25 226.83 149.74 226.67 149.74 226.67 149.93 226.61 149.93 226.61 150.35 226.47 150.67 226.59 151.01 226.82 151.01 226.82 155.87 230.14 155.87 230.14 155.87 230.14 154.51 226.03 154.51 226.03 154.35 225.56 154.61 225.04 155.09 224.88 155.57 224.72 156.09 224.98 156.24 225.46 156.24 225.46 158.35 231.8 158.35 231.8 158.51 232.29 158.25 232.81 157.76 232.97 157.76 232.97 157.7 232.99 157.7 232.99 157.28 233.13 156.96 233 156.62 232.78 156.62 232.78 151.58 229.34 151.58 229.34 151.58 229.34 152.99 233.61 152.99 233.61 153.15 234.08 152.89 234.6 152.41 234.76 151.93 234.92 151.42 234.66 151.26 234.18 151.26 234.18 149.15 227.84 149.15 227.84ZM 161.56 224.24C 161.56 224.24 159.92 224.94 159.92 224.94 159.49 225.13 158.99 224.93 158.8 224.5 158.62 224.07 158.82 223.57 159.25 223.38 159.25 223.38 164.21 221.24 164.21 221.24 164.64 221.06 165.15 221.26 165.33 221.69 165.52 222.12 165.32 222.62 164.89 222.81 164.89 222.81 163.26 223.51 163.26 223.51 163.26 223.51 165.58 228.87 165.58 228.87 165.78 229.34 165.57 229.88 165.1 230.08 164.62 230.29 164.08 230.07 163.88 229.6 163.88 229.6 161.56 224.24 161.56 224.24ZM 167.57 220.56C 167.33 220.1 167.51 219.55 167.97 219.32 168.43 219.08 168.98 219.26 169.22 219.72 169.22 219.72 172.25 225.68 172.25 225.68 172.49 226.14 172.31 226.69 171.85 226.92 171.38 227.16 170.84 226.98 170.6 226.52 170.6 226.52 167.57 220.56 167.57 220.56ZM 175.26 224.07C 175.01 224.05 174.76 223.9 174.61 223.65 174.37 223.24 174.51 222.72 174.92 222.48 175.13 222.36 175.32 222.35 175.47 222.36 176.25 222.44 177 222.34 177.7 221.92 178.36 221.54 178.6 221.05 178.35 220.63 178.35 220.63 178.34 220.61 178.34 220.61 178.1 220.2 177.73 220.14 176.33 220.54 174.65 221.03 173.47 221.17 172.63 219.74 172.63 219.74 172.62 219.72 172.62 219.72 171.84 218.41 172.39 216.92 173.87 216.05 174.75 215.54 175.65 215.32 176.55 215.35 176.79 215.35 177.09 215.46 177.27 215.77 177.52 216.18 177.37 216.7 176.96 216.94 176.8 217.03 176.65 217.06 176.49 217.06 175.78 217.06 175.17 217.18 174.68 217.47 174.07 217.83 173.91 218.29 174.12 218.65 174.12 218.65 174.13 218.67 174.13 218.67 174.41 219.14 174.81 219.12 176.25 218.7 177.95 218.22 179.09 218.26 179.83 219.52 179.83 219.52 179.84 219.55 179.84 219.55 180.69 220.98 180.06 222.43 178.5 223.35 177.55 223.9 176.41 224.18 175.26 224.07ZM 181.61 213.33C 181.61 213.33 180.15 214.34 180.15 214.34 179.77 214.6 179.23 214.51 178.96 214.13 178.7 213.74 178.79 213.21 179.18 212.94 179.18 212.94 183.61 209.86 183.61 209.86 184 209.6 184.53 209.69 184.8 210.07 185.07 210.46 184.97 210.99 184.59 211.26 184.59 211.26 183.13 212.27 183.13 212.27 183.13 212.27 186.47 217.06 186.47 217.06 186.76 217.48 186.66 218.05 186.24 218.34 185.82 218.64 185.25 218.53 184.95 218.11 184.95 218.11 181.61 213.33 181.61 213.33ZM 190.83 213.83C 190.58 213.85 190.3 213.74 190.11 213.52 189.81 213.14 189.87 212.61 190.24 212.31 190.43 212.16 190.61 212.12 190.76 212.11 191.55 212.07 192.27 211.85 192.91 211.33 193.49 210.85 193.66 210.33 193.34 209.95 193.34 209.95 193.33 209.94 193.33 209.94 193.03 209.57 192.66 209.57 191.34 210.18 189.75 210.91 188.61 211.24 187.55 209.95 187.55 209.95 187.53 209.94 187.53 209.94 186.57 208.76 186.88 207.2 188.21 206.12 189 205.47 189.86 205.12 190.75 205.01 190.98 204.97 191.3 205.04 191.53 205.32 191.83 205.69 191.77 206.22 191.4 206.52 191.26 206.64 191.12 206.69 190.95 206.72 190.25 206.82 189.67 207.03 189.23 207.39 188.68 207.84 188.59 208.33 188.85 208.64 188.85 208.64 188.87 208.66 188.87 208.66 189.22 209.09 189.61 209 190.97 208.37 192.58 207.64 193.71 207.5 194.64 208.63 194.64 208.63 194.65 208.65 194.65 208.65 195.71 209.94 195.32 211.47 193.91 212.62 193.06 213.32 191.98 213.76 190.83 213.83ZM 136.41 9.23C 149.03 9.23 159.26 19.43 159.26 32.02 159.26 44.6 149.03 54.8 136.41 54.8 123.79 54.8 113.56 44.6 113.56 32.02 113.56 19.43 123.79 9.23 136.41 9.23M 136.41 6.89C 122.51 6.89 111.21 18.16 111.21 32.02 111.21 45.87 122.51 57.14 136.41 57.14 150.3 57.14 161.6 45.87 161.6 32.02 161.6 18.16 150.3 6.89 136.41 6.89 136.41 6.89 136.41 6.89 136.41 6.89ZM 123.89 34.59C 123.24 34.59 122.71 34.07 122.71 33.42 122.71 33.42 122.71 26.87 122.71 26.87 122.71 26.22 123.24 25.7 123.89 25.7 124.54 25.7 125.06 26.22 125.06 26.87 125.06 26.87 125.06 33.42 125.06 33.42 125.06 34.07 124.54 34.59 123.89 34.59ZM 148.93 34.59C 148.28 34.59 147.75 34.07 147.75 33.42 147.75 33.42 147.75 26.87 147.75 26.87 147.75 26.22 148.28 25.7 148.93 25.7 149.58 25.7 150.1 26.22 150.1 26.87 150.1 26.87 150.1 33.42 150.1 33.42 150.1 34.07 149.58 34.59 148.93 34.59ZM 136.41 39.9C 135.76 39.9 135.23 39.37 135.23 38.73 135.23 38.08 135.76 37.56 136.41 37.56 137.7 37.56 138.75 36.51 138.75 35.22 138.75 33.93 137.7 32.88 136.41 32.88 136.41 32.88 135.23 32.88 135.23 32.88 135.23 32.88 135.23 17.98 135.23 17.98 135.23 17.33 135.76 16.81 136.41 16.81 137.06 16.81 137.58 17.33 137.58 17.98 137.58 17.98 137.58 30.68 137.58 30.68 139.6 31.2 141.1 33.04 141.1 35.22 141.1 37.8 139 39.9 136.41 39.9ZM 136.8 49.82C 132.35 49.82 128.74 46.21 128.74 41.78 128.74 41.14 129.26 40.61 129.91 40.61 130.56 40.61 131.09 41.14 131.09 41.78 131.09 44.92 133.65 47.48 136.8 47.48 139.95 47.48 142.51 44.92 142.51 41.78 142.51 41.14 143.04 40.61 143.68 40.61 144.33 40.61 144.86 41.14 144.86 41.78 144.86 46.21 141.24 49.82 136.8 49.82ZM 162.39 45.2C 160.55 45.2 158.79 44.42 157.56 43.06 157.13 42.58 157.17 41.84 157.65 41.41 158.13 40.97 158.87 41.01 159.3 41.49 160.09 42.36 161.21 42.86 162.39 42.86 164.67 42.86 166.53 41.01 166.53 38.73 166.53 36.45 164.67 34.59 162.39 34.59 161.86 34.59 161.34 34.69 160.86 34.89 160.25 35.13 159.57 34.83 159.33 34.23 159.09 33.63 159.38 32.95 159.99 32.71 160.75 32.41 161.56 32.25 162.39 32.25 165.97 32.25 168.88 35.16 168.88 38.73 168.88 42.3 165.97 45.2 162.39 45.2ZM 110.19 45.2C 106.61 45.2 103.7 42.3 103.7 38.73 103.7 35.16 106.61 32.25 110.19 32.25 111.02 32.25 111.83 32.41 112.59 32.71 113.19 32.95 113.49 33.63 113.25 34.23 113.01 34.83 112.32 35.13 111.72 34.89 111.23 34.69 110.72 34.59 110.19 34.59 107.9 34.59 106.04 36.45 106.04 38.73 106.04 41.01 107.9 42.86 110.19 42.86 111.36 42.86 112.49 42.36 113.27 41.49 113.71 41.01 114.45 40.98 114.93 41.41 115.41 41.84 115.45 42.58 115.02 43.06 113.78 44.42 112.02 45.2 110.19 45.2ZM 136.41 19.15C 131.01 19.15 125.74 17.27 121.57 13.87 121.07 13.46 121 12.73 121.41 12.23 121.82 11.73 122.56 11.65 123.06 12.06 126.81 15.12 131.55 16.81 136.41 16.81 146.06 16.81 154.46 10.31 156.85 1 157.01 0.37 157.65-0 158.28 0.15 158.91 0.32 159.29 0.95 159.13 1.58 156.47 11.92 147.13 19.15 136.41 19.15ZM 136.41 14.04C 132.85 14.04 129.4 13.02 126.43 11.1 125.89 10.75 125.74 10.02 126.09 9.48 126.44 8.94 127.17 8.79 127.71 9.14 130.3 10.81 133.31 11.7 136.41 11.7 142.38 11.7 147.82 8.42 150.58 3.13 150.88 2.55 151.59 2.33 152.17 2.63 152.74 2.93 152.97 3.64 152.67 4.21 149.49 10.28 143.26 14.04 136.41 14.04ZM 168.94 181.96C 168.94 181.96 168.94 154.02 168.94 154.02 168.94 153.36 169.48 152.82 170.14 152.82 170.81 152.82 171.34 153.36 171.34 154.02 171.34 154.02 171.34 178.53 171.34 178.53 171.34 178.53 193.74 170.34 193.74 170.34 193.74 170.34 216.14 178.53 216.14 178.53 216.14 178.53 216.14 154.02 216.14 154.02 216.14 153.36 216.68 152.82 217.34 152.82 218.01 152.82 218.54 153.36 218.54 154.02 218.54 154.02 218.54 181.96 218.54 181.96 218.54 181.96 193.74 172.89 193.74 172.89 193.74 172.89 168.94 181.96 168.94 181.96ZM 193.74 123.67C 196.95 123.67 200 124.31 202.78 125.48 209.45 128.27 214.56 134.06 216.4 141.16 216.88 143.03 217.14 144.99 217.14 147.01 217.14 159.89 206.66 170.33 193.74 170.33 180.82 170.33 170.35 159.89 170.35 147.01 170.35 144.27 170.82 141.64 171.69 139.2 174.91 130.15 183.57 123.67 193.74 123.67M 193.74 121.28C 182.84 121.28 173.07 128.16 169.42 138.4 168.44 141.15 167.94 144.05 167.94 147.01 167.94 161.19 179.52 172.73 193.74 172.73 207.97 172.73 219.54 161.19 219.54 147.01 219.54 144.83 219.27 142.67 218.72 140.56 216.72 132.83 211.11 126.36 203.71 123.27 200.55 121.95 197.2 121.28 193.74 121.28 193.74 121.28 193.74 121.28 193.74 121.28ZM 180.92 150.92C 180.26 150.92 179.72 150.38 179.72 149.72 179.72 149.72 179.72 144.61 179.72 144.61 179.72 143.95 180.26 143.41 180.92 143.41 181.59 143.41 182.12 143.95 182.12 144.61 182.12 144.61 182.12 149.72 182.12 149.72 182.12 150.38 181.59 150.92 180.92 150.92ZM 183.49 150.92C 183.49 150.92 178.36 150.92 178.36 150.92 177.69 150.92 177.16 150.38 177.16 149.72 177.16 149.06 177.69 148.52 178.36 148.52 178.36 148.52 183.49 148.52 183.49 148.52 184.15 148.52 184.69 149.06 184.69 149.72 184.69 150.38 184.15 150.92 183.49 150.92ZM 209.13 150.92C 209.13 150.92 204 150.92 204 150.92 203.33 150.92 202.8 150.38 202.8 149.72 202.8 149.06 203.33 148.52 204 148.52 204 148.52 209.13 148.52 209.13 148.52 209.79 148.52 210.33 149.06 210.33 149.72 210.33 150.38 209.79 150.92 209.13 150.92ZM 206.56 150.92C 205.9 150.92 205.36 150.38 205.36 149.72 205.36 149.72 205.36 144.61 205.36 144.61 205.36 143.95 205.9 143.41 206.56 143.41 207.23 143.41 207.76 143.95 207.76 144.61 207.76 144.61 207.76 149.72 207.76 149.72 207.76 150.38 207.23 150.92 206.56 150.92ZM 194.14 165.23C 191.24 165.23 188.6 163.76 187.09 161.28 186.74 160.71 186.92 159.97 187.49 159.63 188.06 159.29 188.8 159.47 189.14 160.03 190.21 161.79 192.08 162.84 194.14 162.84 194.81 162.84 195.35 163.37 195.35 164.04 195.35 164.7 194.81 165.23 194.14 165.23ZM 166.5 154.92C 163.18 154.92 160.49 152.23 160.49 148.92 160.49 145.62 163.18 142.93 166.5 142.93 167.43 142.93 168.32 143.14 169.14 143.54 169.74 143.83 169.99 144.55 169.69 145.15 169.4 145.74 168.68 145.99 168.08 145.69 167.59 145.45 167.05 145.33 166.5 145.33 164.51 145.33 162.89 146.94 162.89 148.92 162.89 150.91 164.51 152.52 166.5 152.52 167.15 152.52 167.78 152.34 168.34 152.01 168.91 151.68 169.65 151.86 169.99 152.43 170.33 153 170.14 153.73 169.57 154.07 168.64 154.62 167.58 154.92 166.5 154.92ZM 220.99 154.92C 219.9 154.92 218.84 154.62 217.91 154.07 217.34 153.73 217.16 153 217.5 152.43 217.84 151.86 218.58 151.68 219.15 152.01 219.7 152.34 220.34 152.52 220.99 152.52 222.98 152.52 224.59 150.91 224.59 148.92 224.59 146.94 222.98 145.33 220.99 145.33 220.43 145.33 219.9 145.45 219.4 145.69 218.81 145.98 218.08 145.74 217.79 145.15 217.5 144.55 217.74 143.83 218.34 143.54 219.17 143.14 220.06 142.93 220.99 142.93 224.3 142.93 227 145.62 227 148.92 227 152.23 224.3 154.92 220.99 154.92ZM 181.42 142.63C 177.83 142.63 174.37 141.84 171.16 140.28 170.56 139.99 170.32 139.27 170.61 138.68 170.9 138.08 171.61 137.83 172.21 138.12 175.09 139.52 178.19 140.23 181.42 140.23 188.87 140.23 195.84 136.24 199.6 129.82 200.48 128.34 201.15 126.77 201.63 125.14 201.81 124.51 202.48 124.15 203.12 124.33 203.75 124.51 204.12 125.18 203.94 125.81 203.41 127.62 202.65 129.38 201.68 131.03 197.49 138.18 189.72 142.63 181.42 142.63ZM 216.4 142.36C 216.34 142.36 216.27 142.35 216.21 142.34 209.24 141.26 203.18 137.13 199.6 131.03 199.27 130.46 199.46 129.73 200.04 129.39 200.61 129.06 201.34 129.25 201.68 129.82 204.89 135.3 210.32 139 216.58 139.97 217.24 140.07 217.69 140.69 217.58 141.34 217.49 141.93 216.98 142.36 216.4 142.36ZM 194.34 156.72C 193.24 156.72 192.21 156.29 191.43 155.52 190.96 155.05 190.96 154.29 191.43 153.82 191.9 153.35 192.66 153.35 193.13 153.82 193.8 154.49 194.88 154.48 195.55 153.82 196.21 153.16 196.21 152.08 195.55 151.41 194.88 150.75 193.8 150.75 193.13 151.41 192.66 151.88 191.9 151.88 191.43 151.41 190.96 150.94 190.96 150.19 191.43 149.72 193.04 148.12 195.65 148.12 197.25 149.72 198.85 151.32 198.85 153.92 197.25 155.52 196.47 156.29 195.44 156.72 194.34 156.72ZM 193.74 150.42C 193.08 150.42 192.54 149.88 192.54 149.22 192.54 149.22 192.54 142.92 192.54 142.92 192.54 142.26 193.08 141.73 193.74 141.73 194.41 141.73 194.95 142.26 194.95 142.92 194.95 142.92 194.95 149.22 194.95 149.22 194.95 149.88 194.41 150.42 193.74 150.42ZM 55.29 99.95C 51.05 99.95 47.59 96.51 47.59 92.28 47.59 91.45 48.26 90.78 49.09 90.78 49.92 90.78 50.6 91.45 50.6 92.28 50.6 94.86 52.7 96.96 55.29 96.96 57.88 96.96 59.99 94.86 59.99 92.28 59.99 91.45 60.66 90.78 61.49 90.78 62.32 90.78 62.99 91.45 62.99 92.28 62.99 96.51 59.54 99.95 55.29 99.95ZM 55.29 48C 59.3 48 63.11 48.81 66.59 50.26 73.74 53.25 79.44 58.98 82.37 66.14 82.86 67.34 83.28 68.58 83.61 69.86 84.21 72.2 84.53 74.65 84.53 77.17 84.53 93.27 71.44 106.33 55.29 106.33 39.14 106.33 26.05 93.27 26.05 77.17 26.05 73.75 26.64 70.46 27.72 67.41 27.88 66.98 28.04 66.55 28.22 66.13 32.59 55.49 43.06 48 55.29 48M 55.29 45.01C 42.14 45.01 30.42 52.85 25.44 64.99 25.27 65.4 25.08 65.88 24.89 66.41 23.67 69.85 23.04 73.47 23.04 77.17 23.04 94.9 37.51 109.33 55.29 109.33 73.07 109.33 87.54 94.9 87.54 77.17 87.54 74.46 87.2 71.75 86.52 69.11 86.16 67.72 85.7 66.34 85.15 65.01 81.94 57.16 75.6 50.78 67.75 47.5 63.8 45.85 59.61 45.01 55.29 45.01 55.29 45.01 55.29 45.01 55.29 45.01ZM 83.22 67.17C 79.49 63.18 75.06 60.09 70.04 58 65.36 56.04 60.4 55.05 55.29 55.05 44.74 55.05 34.57 59.46 27.37 67.15 27.37 67.15 25.18 65.1 25.18 65.1 32.94 56.81 43.91 52.05 55.29 52.05 60.8 52.05 66.16 53.12 71.21 55.24 76.62 57.5 81.4 60.82 85.42 65.12 85.42 65.12 83.22 67.17 83.22 67.17ZM 39.27 82.06C 38.44 82.06 37.76 81.39 37.76 80.57 37.76 80.57 37.76 74.17 37.76 74.17 37.76 73.35 38.44 72.68 39.27 72.68 40.1 72.68 40.77 73.35 40.77 74.17 40.77 74.17 40.77 80.57 40.77 80.57 40.77 81.39 40.1 82.06 39.27 82.06ZM 74.4 83.09C 74.01 83.09 73.63 82.95 73.33 82.65 73.33 82.65 67.74 77.07 67.74 77.07 67.74 77.07 72.74 72.09 72.74 72.09 73.33 71.5 74.28 71.5 74.87 72.09 75.45 72.67 75.45 73.62 74.87 74.21 74.87 74.21 71.99 77.07 71.99 77.07 71.99 77.07 75.46 80.54 75.46 80.54 76.05 81.12 76.05 82.07 75.46 82.65 75.17 82.95 74.78 83.09 74.4 83.09ZM 21.23 87.06C 17.09 87.06 13.72 83.7 13.72 79.57 13.72 75.44 17.09 72.08 21.23 72.08 22.4 72.08 23.51 72.33 24.54 72.84 25.29 73.21 25.59 74.1 25.23 74.84 24.86 75.59 23.96 75.9 23.22 75.53 22.6 75.23 21.93 75.07 21.23 75.07 18.75 75.07 16.73 77.09 16.73 79.57 16.73 82.04 18.75 84.06 21.23 84.06 22.05 84.06 22.84 83.84 23.54 83.43 24.25 83.01 25.17 83.24 25.6 83.95 26.02 84.66 25.79 85.58 25.08 86.01 23.92 86.69 22.59 87.06 21.23 87.06ZM 89.35 87.06C 87.99 87.06 86.66 86.69 85.5 86.01 84.79 85.58 84.56 84.66 84.98 83.95 85.41 83.24 86.33 83.01 87.04 83.43 87.74 83.84 88.53 84.06 89.35 84.06 91.83 84.06 93.85 82.04 93.85 79.57 93.85 77.09 91.83 75.07 89.35 75.07 88.65 75.07 87.98 75.23 87.36 75.53 86.62 75.89 85.72 75.59 85.35 74.84 84.99 74.1 85.29 73.21 86.04 72.84 87.07 72.33 88.18 72.08 89.35 72.08 93.49 72.08 96.86 75.44 96.86 79.57 96.86 83.7 93.49 87.06 89.35 87.06ZM 57.86 88.25C 57.48 88.25 57.09 88.1 56.8 87.81 56.21 87.22 56.21 86.28 56.8 85.69 57.63 84.86 57.63 83.51 56.8 82.68 55.97 81.85 54.62 81.85 53.78 82.68 52.95 83.51 52.95 84.86 53.78 85.69 54.37 86.28 54.37 87.22 53.78 87.81 53.2 88.4 52.25 88.4 51.66 87.81 49.66 85.81 49.66 82.56 51.66 80.56 53.66 78.57 56.92 78.57 58.93 80.56 60.93 82.56 60.93 85.81 58.93 87.81 58.63 88.1 58.25 88.25 57.86 88.25ZM 55.29 81.44C 54.46 81.44 53.79 80.77 53.79 79.94 53.79 79.94 53.79 72.07 53.79 72.07 53.79 71.24 54.46 70.57 55.29 70.57 56.12 70.57 56.79 71.24 56.79 72.07 56.79 72.07 56.79 79.94 56.79 79.94 56.79 80.77 56.12 81.44 55.29 81.44ZM 26.68 65.23C 23.42 65.23 20.32 64.05 17.88 61.87 15.24 59.52 13.69 56.29 13.49 52.77 13.29 49.25 14.48 45.87 16.84 43.24 19.2 40.62 22.44 39.06 25.96 38.87 29.49 38.68 32.88 39.86 35.52 42.21 38.15 44.56 39.71 47.79 39.9 51.31 39.95 52.13 39.32 52.84 38.49 52.89 37.67 52.92 36.95 52.3 36.9 51.47 36.75 48.75 35.55 46.26 33.51 44.44 31.48 42.62 28.86 41.71 26.13 41.86 23.4 42.01 20.9 43.21 19.08 45.24 17.26 47.27 16.34 49.88 16.49 52.6 16.64 55.32 17.85 57.82 19.88 59.64 21.92 61.45 24.54 62.37 27.26 62.22 28.09 62.19 28.8 62.8 28.85 63.63 28.89 64.46 28.26 65.16 27.43 65.21 27.18 65.22 26.93 65.23 26.68 65.23ZM 83.91 65.23C 83.66 65.23 83.41 65.22 83.15 65.21 82.33 65.16 81.69 64.46 81.74 63.63 81.78 62.8 82.47 62.19 83.32 62.22 86.06 62.37 88.67 61.45 90.7 59.64 92.74 57.82 93.94 55.32 94.09 52.6 94.25 49.88 93.33 47.27 91.51 45.24 89.69 43.21 87.18 42.01 84.45 41.86 81.73 41.71 79.11 42.62 77.07 44.44 75.04 46.26 73.83 48.75 73.68 51.47 73.63 52.3 72.94 52.91 72.1 52.89 71.27 52.84 70.63 52.13 70.68 51.31 70.88 47.79 72.43 44.56 75.07 42.21 77.7 39.86 81.1 38.67 84.62 38.87 88.15 39.06 91.39 40.62 93.74 43.24 96.1 45.87 97.29 49.25 97.09 52.77 96.9 56.29 95.34 59.52 92.71 61.87 90.26 64.05 87.16 65.23 83.91 65.23ZM 116.1 139.2C 112.67 139.2 109.87 136.41 109.87 132.99 109.87 132.36 110.38 131.85 111.01 131.85 111.64 131.85 112.15 132.36 112.15 132.99 112.15 135.16 113.92 136.93 116.1 136.93 118.28 136.93 120.06 135.16 120.06 132.99 120.06 132.36 120.57 131.85 121.19 131.85 121.82 131.85 122.33 132.36 122.33 132.99 122.33 136.41 119.54 139.2 116.1 139.2ZM 128.61 119.68C 128.61 120.83 127.68 121.76 126.52 121.76 125.37 121.76 124.43 120.83 124.43 119.68 124.43 118.52 125.37 117.59 126.52 117.59 127.68 117.59 128.61 118.52 128.61 119.68ZM 107.73 119.68C 107.73 120.83 106.79 121.76 105.64 121.76 104.48 121.76 103.55 120.83 103.55 119.68 103.55 118.52 104.48 117.59 105.64 117.59 106.79 117.59 107.73 118.52 107.73 119.68ZM 116.1 144.11C 113.07 144.11 110.22 142.93 108.07 140.79 105.93 138.65 104.75 135.81 104.75 132.78 104.75 132.78 104.75 128.54 104.75 128.54 100.34 127.98 96.92 124.22 96.92 119.68 96.92 116.6 98.48 113.78 101.08 112.13 103.13 110.83 105.89 110.64 108.22 111.63 108.22 111.63 113.29 113.79 113.29 113.79 115.08 114.55 117.13 114.55 118.92 113.79 118.92 113.79 123.99 111.63 123.99 111.63 126.32 110.64 129.08 110.83 131.13 112.13 133.73 113.78 135.28 116.6 135.28 119.68 135.28 124.22 131.86 127.98 127.46 128.54 127.46 128.54 127.46 132.57 127.46 132.57 127.46 138.76 122.51 143.94 116.42 144.1 116.42 144.1 116.1 144.11 116.1 144.11ZM 105.08 113.26C 104.07 113.26 103.11 113.53 102.3 114.04 100.36 115.28 99.2 117.38 99.2 119.68 99.2 123.35 102.2 126.35 105.88 126.35 105.88 126.35 107.02 126.35 107.02 126.35 107.02 126.35 107.02 132.78 107.02 132.78 107.02 135.2 107.97 137.48 109.68 139.19 111.4 140.9 113.68 141.84 116.1 141.84 116.1 141.84 116.36 141.84 116.36 141.84 121.22 141.7 125.18 137.55 125.18 132.57 125.18 132.57 125.18 126.35 125.18 126.35 125.18 126.35 126.32 126.35 126.32 126.35 130.01 126.35 133.01 123.35 133.01 119.68 133.01 117.38 131.85 115.28 129.9 114.04 128.48 113.14 126.53 113.01 124.88 113.72 124.88 113.72 119.81 115.87 119.81 115.87 117.45 116.88 114.75 116.88 112.4 115.87 112.4 115.87 107.32 113.72 107.32 113.72 106.61 113.41 105.84 113.26 105.08 113.26ZM 118.14 128.67C 117.97 128.67 117.8 128.61 117.66 128.47 117.4 128.21 117.4 127.78 117.66 127.51 117.66 127.51 118.69 126.49 118.69 126.49 118.96 126.22 119.39 126.22 119.66 126.49 119.92 126.75 119.92 127.18 119.66 127.45 119.66 127.45 118.63 128.47 118.63 128.47 118.49 128.61 118.32 128.67 118.14 128.67ZM 114.06 128.67C 113.89 128.67 113.71 128.61 113.58 128.47 113.58 128.47 112.55 127.45 112.55 127.45 112.28 127.18 112.28 126.75 112.55 126.49 112.81 126.22 113.25 126.22 113.51 126.49 113.51 126.49 114.54 127.51 114.54 127.51 114.81 127.78 114.81 128.21 114.54 128.47 114.41 128.61 114.24 128.67 114.06 128.67ZM 116.1 144.11C 102.03 144.11 90.58 132.69 90.58 118.66 90.58 104.62 102.03 93.2 116.1 93.2 130.18 93.2 141.62 104.62 141.62 118.66 141.62 132.69 130.18 144.11 116.1 144.11ZM 116.1 95.47C 103.28 95.47 92.85 105.87 92.85 118.66 92.85 131.44 103.28 141.84 116.1 141.84 128.92 141.84 139.35 131.44 139.35 118.66 139.35 105.87 128.92 95.47 116.1 95.47ZM 88.81 130.05C 82.51 130.05 77.38 124.94 77.38 118.66 77.38 112.37 82.51 107.26 88.81 107.26 90.48 107.26 92.1 107.62 93.61 108.31 94.18 108.58 94.43 109.25 94.16 109.82 93.9 110.39 93.22 110.63 92.65 110.37 91.44 109.81 90.15 109.53 88.81 109.53 83.76 109.53 79.65 113.62 79.65 118.66 79.65 123.69 83.76 127.78 88.81 127.78 90.05 127.78 91.26 127.54 92.39 127.06 92.97 126.81 93.63 127.08 93.88 127.65 94.13 128.23 93.86 128.9 93.28 129.14 91.86 129.74 90.36 130.05 88.81 130.05ZM 88.98 125.11C 85.4 125.11 82.5 122.22 82.5 118.66 82.5 115.09 85.4 112.19 88.98 112.19 89.35 112.19 89.66 112.5 89.66 112.87 89.66 113.25 89.35 113.55 88.98 113.55 86.16 113.55 83.86 115.84 83.86 118.66 83.86 121.47 86.16 123.76 88.98 123.76 89.35 123.76 89.66 124.06 89.66 124.44 89.66 124.81 89.35 125.11 88.98 125.11ZM 143.4 130.05C 141.85 130.05 140.34 129.74 138.92 129.14 138.35 128.9 138.08 128.23 138.32 127.65 138.57 127.08 139.24 126.81 139.82 127.06 140.95 127.54 142.15 127.78 143.4 127.78 148.44 127.78 152.55 123.69 152.55 118.66 152.55 113.62 148.44 109.53 143.4 109.53 142.05 109.53 140.76 109.81 139.55 110.37 138.98 110.63 138.31 110.39 138.04 109.82 137.78 109.25 138.03 108.58 138.6 108.31 140.11 107.62 141.72 107.26 143.4 107.26 149.7 107.26 154.82 112.37 154.82 118.66 154.82 124.94 149.7 130.05 143.4 130.05ZM 143.23 125.11C 142.85 125.11 142.55 124.81 142.55 124.44 142.55 124.06 142.85 123.76 143.23 123.76 146.05 123.76 148.34 121.47 148.34 118.66 148.34 115.84 146.05 113.55 143.23 113.55 142.85 113.55 142.55 113.25 142.55 112.87 142.55 112.5 142.85 112.19 143.23 112.19 146.8 112.19 149.71 115.09 149.71 118.66 149.71 122.22 146.8 125.11 143.23 125.11ZM 182.27 114.61C 173.98 114.61 166.16 111.41 160.27 105.61 154.25 99.69 150.94 91.79 150.94 83.37 150.94 66.14 164.99 52.13 182.27 52.13 199.54 52.13 213.59 66.14 213.59 83.37 213.59 91.79 210.28 99.69 204.26 105.61 198.37 111.41 190.56 114.61 182.27 114.61ZM 182.27 54.7C 166.42 54.7 153.52 67.56 153.52 83.37 153.52 91.1 156.56 98.35 162.08 103.78 167.49 109.1 174.66 112.03 182.27 112.03 189.87 112.03 197.04 109.1 202.45 103.78 207.97 98.35 211.01 91.1 211.01 83.37 211.01 67.56 198.12 54.7 182.27 54.7ZM 164.67 66.6C 164.47 66.6 164.28 66.52 164.12 66.37 163.82 66.07 163.82 65.58 164.12 65.28 174.13 55.3 190.41 55.3 200.41 65.28 200.71 65.58 200.71 66.07 200.41 66.37 200.11 66.67 199.62 66.67 199.31 66.37 189.91 57 174.62 57 165.22 66.37 165.07 66.52 164.87 66.6 164.67 66.6ZM 149.03 91.42C 144.87 91.42 141.48 88.04 141.48 83.89 141.48 79.74 144.87 76.36 149.03 76.36 150.19 76.36 151.31 76.62 152.35 77.13 152.99 77.44 153.26 78.21 152.94 78.85 152.63 79.49 151.86 79.75 151.22 79.44 150.53 79.1 149.8 78.93 149.03 78.93 146.29 78.93 144.06 81.16 144.06 83.89 144.06 86.62 146.29 88.84 149.03 88.84 149.93 88.84 150.81 88.6 151.57 88.15 152.18 87.78 152.97 87.98 153.34 88.59 153.7 89.2 153.5 89.99 152.89 90.36 151.73 91.05 150.39 91.42 149.03 91.42ZM 215.5 91.42C 214.14 91.42 212.8 91.05 211.64 90.36 211.03 89.99 210.83 89.2 211.19 88.59 211.56 87.98 212.35 87.78 212.96 88.15 213.73 88.6 214.6 88.84 215.5 88.84 218.24 88.84 220.47 86.62 220.47 83.89 220.47 81.16 218.24 78.93 215.5 78.93 214.73 78.93 214 79.1 213.31 79.44 212.67 79.75 211.9 79.49 211.59 78.85 211.27 78.21 211.54 77.44 212.18 77.13 213.22 76.62 214.34 76.36 215.5 76.36 219.66 76.36 223.05 79.74 223.05 83.89 223.05 88.04 219.66 91.42 215.5 91.42ZM 185.49 88.72C 185.16 88.72 184.83 88.6 184.57 88.35 184.07 87.84 184.07 87.03 184.57 86.53 185.19 85.91 185.53 85.1 185.53 84.23 185.53 83.36 185.19 82.54 184.57 81.92 183.3 80.66 181.23 80.65 179.96 81.92 178.68 83.19 178.68 85.26 179.96 86.53 180.46 87.03 180.46 87.84 179.96 88.35 179.45 88.85 178.64 88.85 178.13 88.35 175.85 86.08 175.85 82.38 178.13 80.11 180.41 77.83 184.12 77.83 186.4 80.11 187.5 81.21 188.11 82.67 188.11 84.23 188.11 85.78 187.5 87.25 186.4 88.35 186.15 88.6 185.82 88.72 185.49 88.72ZM 182.27 80.19C 181.55 80.19 180.98 79.62 180.98 78.91 180.98 78.91 180.98 73.58 180.98 73.58 180.98 72.87 181.55 72.29 182.27 72.29 182.98 72.29 183.56 72.87 183.56 73.58 183.56 73.58 183.56 78.91 183.56 78.91 183.56 79.62 182.98 80.19 182.27 80.19ZM 182.24 105.98C 179.84 105.98 175.22 103.02 175.22 98.97 175.22 98.26 175.79 97.68 176.51 97.68 177.22 97.68 177.8 98.26 177.8 98.97 177.8 101.3 181 103.41 182.24 103.41 183.49 103.41 186.69 101.3 186.69 98.97 186.69 98.26 187.27 97.68 187.98 97.68 188.69 97.68 189.27 98.26 189.27 98.97 189.27 103.02 184.65 105.98 182.24 105.98ZM 199.75 80.65C 199.75 80.65 195.31 80.65 195.31 80.65 194.6 80.65 194.02 80.08 194.02 79.37 194.02 78.66 194.6 78.08 195.31 78.08 195.31 78.08 199.75 78.08 199.75 78.08 200.47 78.08 201.04 78.66 201.04 79.37 201.04 80.08 200.47 80.65 199.75 80.65ZM 169.22 80.65C 169.22 80.65 164.78 80.65 164.78 80.65 164.07 80.65 163.49 80.08 163.49 79.37 163.49 78.66 164.07 78.08 164.78 78.08 164.78 78.08 169.22 78.08 169.22 78.08 169.93 78.08 170.51 78.66 170.51 79.37 170.51 80.08 169.93 80.65 169.22 80.65ZM 203.36 105.98C 202.85 105.98 202.37 105.68 202.17 105.18 198.84 97.1 191.03 91.88 182.27 91.88 173.5 91.88 165.69 97.1 162.37 105.18 162.1 105.84 161.34 106.15 160.68 105.88 160.02 105.61 159.71 104.86 159.98 104.21 163.71 95.15 172.45 89.31 182.27 89.31 192.08 89.31 200.83 95.15 204.55 104.21 204.82 104.86 204.51 105.61 203.85 105.88 203.69 105.95 203.52 105.98 203.36 105.98ZM 207.37 79.93C 207.37 79.93 205.39 79.93 205.39 79.93 205.11 79.93 204.88 79.7 204.88 79.41 204.88 79.13 205.11 78.9 205.39 78.9 205.39 78.9 207.37 78.9 207.37 78.9 207.66 78.9 207.89 79.13 207.89 79.41 207.89 79.7 207.66 79.93 207.37 79.93ZM 206.75 82.07C 206.66 82.07 206.57 82.05 206.49 82 206.49 82 204.78 81.01 204.78 81.01 204.53 80.87 204.45 80.55 204.59 80.31 204.73 80.06 205.05 79.98 205.29 80.12 205.29 80.12 207.01 81.11 207.01 81.11 207.25 81.25 207.34 81.56 207.2 81.81 207.1 81.97 206.93 82.07 206.75 82.07ZM 205.04 78.77C 204.86 78.77 204.68 78.68 204.59 78.52 204.45 78.27 204.53 77.95 204.78 77.81 204.78 77.81 206.49 76.83 206.49 76.83 206.74 76.68 207.05 76.77 207.2 77.01 207.34 77.26 207.25 77.57 207.01 77.72 207.01 77.72 205.29 78.7 205.29 78.7 205.21 78.75 205.12 78.77 205.04 78.77ZM 159.14 79.93C 159.14 79.93 157.16 79.93 157.16 79.93 156.87 79.93 156.64 79.7 156.64 79.41 156.64 79.13 156.87 78.9 157.16 78.9 157.16 78.9 159.14 78.9 159.14 78.9 159.42 78.9 159.65 79.13 159.65 79.41 159.65 79.7 159.42 79.93 159.14 79.93ZM 157.78 82.07C 157.6 82.07 157.43 81.97 157.34 81.81 157.19 81.56 157.28 81.25 157.52 81.11 157.52 81.11 159.24 80.12 159.24 80.12 159.48 79.98 159.8 80.06 159.94 80.31 160.09 80.55 160 80.87 159.75 81.01 159.75 81.01 158.04 82 158.04 82 157.96 82.05 157.87 82.07 157.78 82.07ZM 159.5 78.77C 159.41 78.77 159.32 78.75 159.24 78.7 159.24 78.7 157.52 77.72 157.52 77.72 157.28 77.57 157.19 77.26 157.34 77.01 157.48 76.77 157.79 76.68 158.04 76.83 158.04 76.83 159.75 77.81 159.75 77.81 160 77.95 160.09 78.27 159.94 78.52 159.85 78.68 159.67 78.77 159.5 78.77ZM 191.55 65.39C 191.43 65.39 191.32 65.36 191.21 65.31 188.41 63.92 185.4 63.22 182.27 63.22 179.13 63.22 176.12 63.92 173.32 65.31 172.94 65.5 172.48 65.34 172.29 64.96 172.1 64.57 172.26 64.11 172.64 63.92 175.65 62.44 178.89 61.68 182.27 61.68 185.64 61.68 188.88 62.44 191.89 63.92 192.28 64.11 192.43 64.57 192.24 64.96 192.11 65.23 191.83 65.39 191.55 65.39ZM 40.87 189.25C 32.56 189.25 24.73 186.05 18.82 180.23 12.8 174.3 9.48 166.39 9.48 157.95 9.48 140.69 23.56 126.64 40.87 126.64 58.18 126.64 72.26 140.69 72.26 157.95 72.26 166.39 68.94 174.3 62.91 180.23 57 186.05 49.17 189.25 40.87 189.25ZM 40.87 129.22C 24.99 129.22 12.06 142.11 12.06 157.95 12.06 165.69 15.11 172.96 20.64 178.4 26.06 183.74 33.25 186.67 40.87 186.67 48.49 186.67 55.68 183.74 61.1 178.4 66.63 172.96 69.67 165.69 69.67 157.95 69.67 142.11 56.75 129.22 40.87 129.22ZM 7.56 166.01C 3.39 166.01 0 162.63 0 158.47 0 154.31 3.39 150.93 7.56 150.93 8.73 150.93 9.85 151.18 10.89 151.69 11.53 152.01 11.8 152.78 11.49 153.42 11.17 154.06 10.4 154.32 9.76 154.01 9.07 153.67 8.33 153.5 7.56 153.5 4.82 153.5 2.59 155.73 2.59 158.47 2.59 161.21 4.82 163.43 7.56 163.43 8.46 163.43 9.34 163.19 10.11 162.74 10.72 162.37 11.51 162.57 11.88 163.18 12.24 163.79 12.04 164.59 11.43 164.95 10.27 165.64 8.93 166.01 7.56 166.01ZM 74.17 166.01C 72.81 166.01 71.47 165.64 70.3 164.95 69.69 164.59 69.49 163.79 69.86 163.18 70.22 162.57 71.02 162.37 71.63 162.74 72.39 163.19 73.27 163.43 74.17 163.43 76.92 163.43 79.15 161.21 79.15 158.47 79.15 155.73 76.92 153.5 74.17 153.5 73.4 153.5 72.67 153.67 71.98 154.01 71.34 154.32 70.56 154.06 70.25 153.42 69.94 152.78 70.2 152.01 70.84 151.69 71.88 151.18 73.01 150.93 74.17 150.93 78.34 150.93 81.74 154.31 81.74 158.47 81.74 162.63 78.34 166.01 74.17 166.01ZM 44.57 167.99C 44.24 167.99 43.91 167.87 43.65 167.61 43.15 167.11 43.15 166.29 43.65 165.79 44.4 165.05 44.81 164.06 44.81 163.01 44.81 161.96 44.4 160.98 43.65 160.23 42.12 158.7 39.62 158.7 38.08 160.23 36.55 161.77 36.55 164.26 38.08 165.79 38.59 166.3 38.59 167.11 38.08 167.61 37.58 168.12 36.76 168.12 36.25 167.61 33.71 165.08 33.71 160.95 36.25 158.41 38.8 155.87 42.94 155.87 45.48 158.41 46.71 159.64 47.39 161.28 47.39 163.01 47.39 164.75 46.71 166.39 45.48 167.61 45.23 167.87 44.9 167.99 44.57 167.99ZM 40.87 158.68C 40.15 158.68 39.58 158.11 39.58 157.39 39.58 157.39 39.58 147.2 39.58 147.2 39.58 146.49 40.15 145.91 40.87 145.91 41.58 145.91 42.16 146.49 42.16 147.2 42.16 147.2 42.16 157.39 42.16 157.39 42.16 158.11 41.58 158.68 40.87 158.68ZM 40.87 179.92C 37.75 179.92 35.03 177.93 34.11 174.96 33.89 174.28 34.27 173.56 34.96 173.35 35.64 173.14 36.36 173.51 36.57 174.19 37.16 176.08 38.89 177.34 40.87 177.34 42.82 177.34 44.54 176.1 45.14 174.25 45.37 173.57 46.09 173.2 46.77 173.42 47.45 173.64 47.82 174.37 47.6 175.05 46.65 177.96 43.95 179.92 40.87 179.92ZM 56.78 159.75C 56.06 159.75 55.49 159.17 55.49 158.46 55.49 158.46 55.49 154.67 55.49 154.67 55.49 153.96 56.06 153.38 56.78 153.38 57.49 153.38 58.07 153.96 58.07 154.67 58.07 154.67 58.07 158.46 58.07 158.46 58.07 159.17 57.49 159.75 56.78 159.75ZM 24.96 159.75C 24.24 159.75 23.67 159.17 23.67 158.46 23.67 158.46 23.67 154.67 23.67 154.67 23.67 153.96 24.24 153.38 24.96 153.38 25.67 153.38 26.25 153.96 26.25 154.67 26.25 154.67 26.25 158.46 26.25 158.46 26.25 159.17 25.67 159.75 24.96 159.75ZM 40.87 129.04C 40.15 129.04 39.58 128.47 39.58 127.75 39.58 127.75 39.58 121.86 39.58 121.86 39.58 121.15 40.15 120.57 40.87 120.57 41.58 120.57 42.16 121.15 42.16 121.86 42.16 121.86 42.16 127.75 42.16 127.75 42.16 128.47 41.58 129.04 40.87 129.04ZM 30.76 130.77C 30.24 130.77 29.75 130.45 29.55 129.93 29.55 129.93 27.47 124.39 27.47 124.39 27.22 123.73 27.56 122.98 28.23 122.74 28.9 122.48 29.64 122.82 29.89 123.49 29.89 123.49 31.97 129.03 31.97 129.03 32.22 129.69 31.88 130.44 31.22 130.69 31.07 130.74 30.91 130.77 30.76 130.77ZM 21.88 135.74C 21.51 135.74 21.15 135.59 20.9 135.29 20.9 135.29 16.99 130.78 16.99 130.78 16.52 130.24 16.58 129.42 17.12 128.96 17.66 128.49 18.47 128.55 18.94 129.09 18.94 129.09 22.85 133.61 22.85 133.61 23.32 134.14 23.26 134.96 22.72 135.42 22.48 135.63 22.18 135.74 21.88 135.74ZM 15.28 143.35C 15.06 143.35 14.85 143.3 14.65 143.18 14.65 143.18 10.86 141.06 10.86 141.06 9.4 140.25 8.81 138.43 9.52 136.91 10.61 134.57 13.19 130.05 18.16 126.15 24.19 121.42 31.83 119.02 40.87 119.02 49.9 119.02 57.54 121.42 63.58 126.15 68.55 130.05 71.12 134.57 72.22 136.91 72.93 138.43 72.34 140.25 70.88 141.06 70.88 141.06 67.09 143.18 67.09 143.18 66.47 143.53 65.68 143.31 65.33 142.69 64.98 142.07 65.2 141.28 65.82 140.93 65.82 140.93 69.62 138.81 69.62 138.81 69.91 138.65 70.02 138.3 69.88 138 67.58 133.07 60.15 121.6 40.87 121.6 21.59 121.6 14.16 133.07 11.86 138 11.72 138.3 11.83 138.65 12.12 138.81 12.12 138.81 15.91 140.93 15.91 140.93 16.53 141.28 16.76 142.07 16.41 142.69 16.17 143.11 15.73 143.35 15.28 143.35ZM 50.97 130.77C 50.82 130.77 50.67 130.74 50.52 130.69 49.85 130.44 49.51 129.69 49.76 129.03 49.76 129.03 51.85 123.49 51.85 123.49 52.1 122.82 52.84 122.48 53.51 122.74 54.18 122.98 54.52 123.73 54.27 124.39 54.27 124.39 52.18 129.93 52.18 129.93 51.99 130.45 51.5 130.77 50.97 130.77ZM 59.86 135.74C 59.56 135.74 59.26 135.63 59.02 135.42 58.48 134.96 58.42 134.14 58.88 133.61 58.88 133.61 62.79 129.09 62.79 129.09 63.26 128.55 64.08 128.49 64.62 128.96 65.16 129.42 65.22 130.24 64.75 130.78 64.75 130.78 60.84 135.29 60.84 135.29 60.58 135.59 60.22 135.74 59.86 135.74ZM 24.96 167.35C 19.45 167.35 14.97 162.88 14.97 157.39 14.97 148.83 16.37 147.44 24.96 147.44 33.45 147.44 34.94 148.93 34.94 157.39 34.94 162.88 30.46 167.35 24.96 167.35ZM 24.96 150.02C 17.83 150.02 17.56 150.29 17.56 157.39 17.56 161.46 20.88 164.77 24.96 164.77 29.04 164.77 32.36 161.46 32.36 157.39 32.36 150.36 32.01 150.02 24.96 150.02ZM 56.78 167.35C 51.27 167.35 46.79 162.88 46.79 157.39 46.79 148.93 48.29 147.44 56.78 147.44 65.36 147.44 66.76 148.83 66.76 157.39 66.76 162.88 62.28 167.35 56.78 167.35ZM 56.78 150.02C 49.72 150.02 49.38 150.36 49.38 157.39 49.38 161.46 52.7 164.77 56.78 164.77 60.86 164.77 64.18 161.46 64.18 157.39 64.18 150.29 63.9 150.02 56.78 150.02ZM 48.83 152.42C 48.78 152.42 48.73 152.41 48.68 152.41 48.68 152.41 46.72 152.17 46.72 152.17 42.84 151.71 38.9 151.71 35.02 152.17 35.02 152.17 33.06 152.41 33.06 152.41 32.35 152.49 31.71 151.99 31.62 151.28 31.54 150.57 32.04 149.93 32.75 149.85 32.75 149.85 34.71 149.62 34.71 149.62 38.8 149.13 42.94 149.13 47.03 149.62 47.03 149.62 48.99 149.85 48.99 149.85 49.7 149.93 50.2 150.57 50.12 151.28 50.04 151.94 49.48 152.42 48.83 152.42ZM 16.8 151.87C 16.8 151.87 11.38 151.87 11.38 151.87 10.67 151.87 10.09 151.3 10.09 150.58 10.09 149.87 10.67 149.3 11.38 149.3 11.38 149.3 16.8 149.3 16.8 149.3 17.52 149.3 18.1 149.87 18.1 150.58 18.1 151.3 17.52 151.87 16.8 151.87ZM 70.36 151.87C 70.36 151.87 64.93 151.87 64.93 151.87 64.22 151.87 63.64 151.3 63.64 150.58 63.64 149.87 64.22 149.3 64.93 149.3 64.93 149.3 70.36 149.3 70.36 149.3 71.07 149.3 71.65 149.87 71.65 150.58 71.65 151.3 71.07 151.87 70.36 151.87ZM 121.61 217.69C 103.91 217.69 89.52 203.33 89.52 185.69 89.52 168.04 103.91 153.69 121.61 153.69 139.3 153.69 153.7 168.04 153.7 185.69 153.7 203.33 139.3 217.69 121.61 217.69ZM 121.61 156.68C 105.57 156.68 92.52 169.7 92.52 185.69 92.52 201.68 105.57 214.69 121.61 214.69 137.64 214.69 150.69 201.68 150.69 185.69 150.69 169.7 137.64 156.68 121.61 156.68ZM 121.61 209.49C 115.23 209.49 109.24 207.01 104.73 202.52 104.15 201.93 104.15 200.98 104.73 200.4 105.32 199.81 106.27 199.81 106.86 200.4 110.8 204.33 116.04 206.49 121.61 206.49 127.18 206.49 132.42 204.33 136.36 200.4 136.94 199.81 137.9 199.81 138.48 200.4 139.07 200.98 139.07 201.93 138.48 202.52 133.98 207.01 127.98 209.49 121.61 209.49ZM 124.18 194.72C 123.79 194.72 123.41 194.58 123.12 194.28 122.53 193.7 122.53 192.75 123.12 192.16 123.95 191.33 123.95 189.98 123.12 189.15 122.29 188.33 120.93 188.33 120.1 189.15 119.27 189.98 119.27 191.33 120.1 192.16 120.69 192.75 120.69 193.7 120.1 194.28 119.51 194.87 118.56 194.87 117.97 194.28 115.97 192.29 115.97 189.03 117.97 187.04 119.98 185.04 123.24 185.04 125.24 187.04 127.25 189.03 127.25 192.29 125.24 194.28 124.95 194.58 124.56 194.72 124.18 194.72ZM 121.61 187.91C 120.78 187.91 120.11 187.24 120.11 186.42 120.11 186.42 120.11 180.34 120.11 180.34 120.11 179.51 120.78 178.84 121.61 178.84 122.44 178.84 123.11 179.51 123.11 180.34 123.11 180.34 123.11 186.42 123.11 186.42 123.11 187.24 122.44 187.91 121.61 187.91ZM 156.3 196.91C 154.7 196.91 153.14 196.48 151.77 195.67 151.06 195.24 150.83 194.33 151.25 193.61 151.68 192.9 152.6 192.67 153.31 193.1 154.21 193.63 155.24 193.91 156.3 193.91 159.52 193.91 162.14 191.3 162.14 188.09 162.14 184.87 159.52 182.26 156.3 182.26 155.39 182.26 154.53 182.46 153.73 182.85 152.98 183.22 152.08 182.91 151.72 182.17 151.35 181.43 151.66 180.53 152.4 180.16 153.62 179.57 154.93 179.26 156.3 179.26 161.18 179.26 165.14 183.22 165.14 188.09 165.14 192.95 161.18 196.91 156.3 196.91ZM 86.92 196.91C 82.04 196.91 78.07 192.95 78.07 188.09 78.07 183.22 82.04 179.26 86.92 179.26 88.28 179.26 89.59 179.57 90.81 180.16 91.56 180.53 91.86 181.43 91.5 182.17 91.13 182.91 90.23 183.22 89.49 182.85 88.69 182.46 87.82 182.26 86.92 182.26 83.69 182.26 81.07 184.87 81.07 188.09 81.07 191.3 83.69 193.91 86.92 193.91 87.97 193.91 89 193.63 89.9 193.1 90.62 192.67 91.54 192.9 91.96 193.61 92.39 194.33 92.15 195.24 91.44 195.67 90.08 196.48 88.51 196.91 86.92 196.91ZM 115.03 185.02C 110.57 185.02 106.95 181.41 106.95 176.96 106.95 176.96 106.95 158.37 106.95 158.37 106.95 157.55 107.62 156.87 108.45 156.87 109.28 156.87 109.95 157.55 109.95 158.37 109.95 158.37 109.95 176.96 109.95 176.96 109.95 179.75 112.23 182.02 115.03 182.02 117.83 182.02 120.11 179.75 120.11 176.96 120.11 176.96 120.11 156.39 120.11 156.39 120.11 155.56 120.78 154.89 121.61 154.89 122.44 154.89 123.11 155.56 123.11 156.39 123.11 156.39 123.11 176.96 123.11 176.96 123.11 181.41 119.49 185.02 115.03 185.02ZM 128.19 185.02C 123.73 185.02 120.11 181.41 120.11 176.96 120.11 176.14 120.78 175.46 121.61 175.46 122.44 175.46 123.11 176.14 123.11 176.96 123.11 179.75 125.39 182.02 128.19 182.02 130.98 182.02 133.26 179.75 133.26 176.96 133.26 176.96 133.26 158.37 133.26 158.37 133.26 157.55 133.93 156.87 134.76 156.87 135.59 156.87 136.27 157.55 136.27 158.37 136.27 158.37 136.27 176.96 136.27 176.96 136.27 181.41 132.64 185.02 128.19 185.02ZM 141.34 185.02C 136.89 185.02 133.26 181.41 133.26 176.96 133.26 176.14 133.93 175.46 134.76 175.46 135.59 175.46 136.27 176.14 136.27 176.96 136.27 179.75 138.54 182.02 141.34 182.02 144.14 182.02 146.42 179.75 146.42 176.96 146.42 176.96 146.42 170.53 146.42 170.53 146.42 169.7 147.09 169.03 147.92 169.03 148.75 169.03 149.42 169.7 149.42 170.53 149.42 170.53 149.42 176.96 149.42 176.96 149.42 181.41 145.8 185.02 141.34 185.02ZM 101.87 185.02C 97.42 185.02 93.79 181.41 93.79 176.96 93.79 176.96 93.79 170.53 93.79 170.53 93.79 169.7 94.47 169.03 95.3 169.03 96.13 169.03 96.8 169.7 96.8 170.53 96.8 170.53 96.8 176.96 96.8 176.96 96.8 179.75 99.08 182.02 101.87 182.02 104.67 182.02 106.95 179.75 106.95 176.96 106.95 176.14 107.62 175.46 108.45 175.46 109.28 175.46 109.95 176.14 109.95 176.96 109.95 181.41 106.33 185.02 101.87 185.02ZM 101.98 257.77C 100.02 256.59 99 255.04 99 252.88 99 250.72 100.02 249.17 101.98 247.99 102.04 247.96 102.21 247.9 102.41 247.9 102.77 247.9 103.11 248.27 103.11 248.64 103.11 248.92 102.97 249.11 102.81 249.23 101.42 250.26 100.81 251.32 100.81 252.88 100.81 254.46 101.42 255.5 102.81 256.54 102.97 256.65 103.11 256.84 103.11 257.13 103.11 257.5 102.77 257.86 102.41 257.86 102.21 257.86 102.04 257.8 101.98 257.77ZM 107.18 253.08C 107.18 253.08 104.48 249.44 104.48 249.44 104.34 249.26 104.25 249.05 104.25 248.79 104.25 248.3 104.65 247.91 105.17 247.91 105.59 247.91 105.85 248.14 106.08 248.47 106.08 248.47 108.12 251.38 108.12 251.38 108.12 251.38 110.19 248.45 110.19 248.45 110.42 248.11 110.69 247.9 111.07 247.9 111.64 247.9 111.97 248.29 111.97 248.79 111.97 249.04 111.85 249.26 111.73 249.43 111.73 249.43 109.03 253.05 109.03 253.05 109.03 253.05 109.03 255.44 109.03 255.44 109.03 255.95 108.62 256.36 108.1 256.36 107.59 256.36 107.18 255.95 107.18 255.44 107.18 255.44 107.18 253.08 107.18 253.08ZM 112.8 252.16C 112.8 252.16 112.8 252.14 112.8 252.14 112.8 249.77 114.68 247.84 117.27 247.84 119.86 247.84 121.71 249.75 121.71 252.11 121.71 252.11 121.71 252.14 121.71 252.14 121.71 254.5 119.83 256.43 117.25 256.43 114.66 256.43 112.8 254.52 112.8 252.16ZM 119.79 252.16C 119.79 252.16 119.79 252.14 119.79 252.14 119.79 250.71 118.73 249.53 117.25 249.53 115.76 249.53 114.73 250.69 114.73 252.11 114.73 252.11 114.73 252.14 114.73 252.14 114.73 253.56 115.79 254.74 117.27 254.74 118.76 254.74 119.79 253.58 119.79 252.16ZM 123.59 252.73C 123.59 252.73 123.59 248.83 123.59 248.83 123.59 248.32 124 247.91 124.51 247.91 125.03 247.91 125.43 248.32 125.43 248.83 125.43 248.83 125.43 252.68 125.43 252.68 125.43 254.03 126.12 254.73 127.24 254.73 128.37 254.73 129.05 254.06 129.05 252.74 129.05 252.74 129.05 248.83 129.05 248.83 129.05 248.32 129.46 247.91 129.97 247.91 130.49 247.91 130.9 248.32 130.9 248.83 130.9 248.83 130.9 252.67 130.9 252.67 130.9 255.18 129.47 256.42 127.22 256.42 124.97 256.42 123.59 255.17 123.59 252.73ZM 133.01 248.55C 132.97 248.21 133.16 247.95 133.49 247.95 133.49 247.95 134.66 247.95 134.66 247.95 134.99 247.95 135.18 248.21 135.14 248.55 135.14 248.55 134.63 253.01 134.63 253.01 134.59 253.33 134.37 253.53 134.08 253.53 133.78 253.53 133.56 253.33 133.52 253.01 133.52 253.01 133.01 248.55 133.01 248.55ZM 134.08 254.32C 134.67 254.32 135.12 254.76 135.12 255.33 135.12 255.33 135.12 255.35 135.12 255.35 135.12 255.92 134.67 256.36 134.08 256.36 133.48 256.36 133.03 255.92 133.03 255.35 133.03 255.35 133.03 255.33 133.03 255.33 133.03 254.76 133.48 254.32 134.08 254.32ZM 136.89 257.13C 136.89 256.84 137.02 256.65 137.19 256.54 138.58 255.5 139.19 254.45 139.19 252.88 139.19 251.3 138.58 250.26 137.19 249.23 137.02 249.11 136.89 248.92 136.89 248.64 136.89 248.27 137.23 247.9 137.59 247.9 137.79 247.9 137.96 247.96 138.02 247.99 139.98 249.17 141 250.72 141 252.88 141 255.04 139.98 256.59 138.02 257.77 137.96 257.8 137.79 257.86 137.59 257.86 137.23 257.86 136.89 257.5 136.89 257.13Z" fill="rgb(0,113,255)"/></svg>