<?xml version="1.0" encoding="utf-8"?>
<svg xmlns="http://www.w3.org/2000/svg"
	xmlns:xlink="http://www.w3.org/1999/xlink"
	width="187px" height="211px" viewBox="0 0 187 211">
<path fillRule="evenodd" d="M 16.01 41.78C 15.77 41.83 15.48 41.75 15.27 41.56 14.92 41.23 14.92 40.69 15.25 40.34 15.41 40.17 15.59 40.11 15.73 40.08 16.51 39.94 17.19 39.63 17.75 39.04 18.27 38.49 18.37 37.96 18.01 37.62 18.01 37.62 17.99 37.6 17.99 37.6 17.66 37.28 17.28 37.33 16.06 38.09 14.58 39.02 13.5 39.49 12.29 38.35 12.29 38.35 12.27 38.33 12.27 38.33 11.17 37.28 11.28 35.7 12.46 34.46 13.16 33.72 13.96 33.26 14.83 33.04 15.05 32.98 15.38 33 15.64 33.25 15.98 33.58 15.99 34.11 15.66 34.46 15.54 34.59 15.4 34.66 15.24 34.71 14.56 34.9 14.02 35.18 13.62 35.6 13.14 36.11 13.11 36.6 13.41 36.88 13.41 36.88 13.43 36.9 13.43 36.9 13.83 37.28 14.2 37.14 15.47 36.35 16.96 35.42 18.07 35.14 19.13 36.15 19.13 36.15 19.14 36.17 19.14 36.17 20.35 37.31 20.15 38.88 18.91 40.19 18.15 40.99 17.14 41.57 16.01 41.78ZM 19.26 33.67C 19.26 33.67 19.24 33.65 19.24 33.65 17.65 31.88 17.68 29.22 19.6 27.5 20.54 26.66 21.39 26.34 22.25 26.26 22.49 26.24 22.79 26.32 23.01 26.56 23.35 26.94 23.31 27.51 22.93 27.84 22.75 28.01 22.56 28.05 22.4 28.08 21.76 28.13 21.22 28.33 20.73 28.77 19.68 29.72 19.7 31.27 20.66 32.34 20.66 32.34 20.68 32.36 20.68 32.36 21.64 33.43 23.18 33.66 24.25 32.7 24.83 32.18 25.05 31.66 25.16 30.99 25.19 30.81 25.28 30.62 25.44 30.47 25.78 30.16 26.33 30.18 26.65 30.53 26.84 30.74 26.88 31.01 26.85 31.23 26.73 32.22 26.34 33.11 25.34 34.01 23.5 35.65 20.87 35.46 19.26 33.67ZM 24.64 24.53C 24.32 24.12 24.39 23.55 24.79 23.23 25.19 22.91 25.77 22.98 26.09 23.38 26.09 23.38 30.24 28.63 30.24 28.63 30.56 29.04 30.49 29.61 30.08 29.93 29.68 30.25 29.11 30.18 28.79 29.78 28.79 29.78 24.64 24.53 24.64 24.53ZM 32.18 27.02C 32.18 27.02 28.44 21.65 28.44 21.65 28.14 21.23 28.25 20.66 28.67 20.36 28.67 20.36 32.48 17.7 32.48 17.7 32.86 17.44 33.37 17.53 33.63 17.91 33.89 18.28 33.79 18.79 33.42 19.05 33.42 19.05 30.35 21.19 30.35 21.19 30.35 21.19 31.33 22.59 31.33 22.59 31.33 22.59 33.95 20.75 33.95 20.75 34.33 20.49 34.84 20.59 35.1 20.96 35.36 21.33 35.27 21.84 34.89 22.1 34.89 22.1 32.27 23.93 32.27 23.93 32.27 23.93 33.28 25.38 33.28 25.38 33.28 25.38 36.39 23.2 36.39 23.2 36.76 22.94 37.28 23.03 37.54 23.41 37.8 23.78 37.7 24.29 37.33 24.55 37.33 24.55 33.47 27.25 33.47 27.25 33.05 27.54 32.48 27.44 32.18 27.02ZM 35.83 16.55C 35.57 16.1 35.72 15.55 36.16 15.29 36.16 15.29 36.33 15.19 36.33 15.19 36.71 14.97 37.05 15.02 37.43 15.18 37.43 15.18 42.85 17.44 42.85 17.44 42.85 17.44 40.69 13.69 40.69 13.69 40.43 13.26 40.58 12.7 41.02 12.45 41.45 12.2 42.01 12.35 42.26 12.78 42.26 12.78 45.61 18.56 45.61 18.56 45.86 19.01 45.72 19.57 45.27 19.83 45.27 19.83 45.22 19.86 45.22 19.86 44.83 20.08 44.5 20.02 44.12 19.87 44.12 19.87 38.5 17.53 38.5 17.53 38.5 17.53 40.75 21.42 40.75 21.42 41 21.85 40.85 22.41 40.42 22.66 39.98 22.92 39.42 22.77 39.17 22.33 39.17 22.33 35.83 16.55 35.83 16.55ZM 47.04 11.39C 47.04 11.39 45.44 12.15 45.44 12.15 45.02 12.35 44.51 12.16 44.31 11.74 44.11 11.32 44.29 10.81 44.72 10.61 44.72 10.61 49.59 8.31 49.59 8.31 50.01 8.11 50.52 8.3 50.72 8.72 50.92 9.14 50.74 9.65 50.32 9.85 50.32 9.85 48.71 10.61 48.71 10.61 48.71 10.61 51.2 15.89 51.2 15.89 51.42 16.35 51.22 16.89 50.76 17.11 50.29 17.33 49.75 17.14 49.53 16.67 49.53 16.67 47.04 11.39 47.04 11.39ZM 52.8 7.89C 52.61 7.41 52.83 6.88 53.31 6.69 53.79 6.5 54.32 6.72 54.51 7.2 54.51 7.2 57 13.41 57 13.41 57.19 13.89 56.97 14.42 56.49 14.61 56.01 14.8 55.48 14.58 55.29 14.1 55.29 14.1 52.8 7.89 52.8 7.89ZM 59.17 12.51C 58.93 12.44 58.71 12.24 58.62 11.96 58.46 11.51 58.71 11.03 59.16 10.88 59.39 10.81 59.58 10.83 59.72 10.87 60.47 11.11 61.22 11.17 61.99 10.91 62.71 10.67 63.05 10.24 62.89 9.77 62.89 9.77 62.88 9.75 62.88 9.75 62.73 9.31 62.38 9.17 60.94 9.27 59.2 9.4 58.02 9.31 57.49 7.73 57.49 7.73 57.48 7.7 57.48 7.7 57 6.26 57.84 4.91 59.46 4.37 60.43 4.05 61.35 4.01 62.22 4.23 62.45 4.28 62.72 4.45 62.84 4.79 62.99 5.25 62.75 5.72 62.29 5.87 62.12 5.93 61.97 5.93 61.81 5.9 61.11 5.75 60.5 5.74 59.96 5.92 59.29 6.15 59.04 6.57 59.17 6.96 59.17 6.96 59.17 6.98 59.17 6.98 59.35 7.51 59.75 7.56 61.24 7.45 63 7.33 64.1 7.61 64.56 9 64.56 9 64.57 9.02 64.57 9.02 65.1 10.6 64.19 11.89 62.48 12.47 61.43 12.82 60.27 12.85 59.17 12.51ZM 67.3 3.93C 67.3 3.93 65.58 4.36 65.58 4.36 65.13 4.48 64.66 4.2 64.55 3.75 64.43 3.29 64.71 2.83 65.16 2.71 65.16 2.71 70.39 1.38 70.39 1.38 70.84 1.27 71.31 1.54 71.42 2 71.54 2.45 71.26 2.92 70.81 3.03 70.81 3.03 69.09 3.47 69.09 3.47 69.09 3.47 70.53 9.13 70.53 9.13 70.66 9.63 70.36 10.12 69.86 10.25 69.36 10.38 68.87 10.08 68.74 9.58 68.74 9.58 67.3 3.93 67.3 3.93ZM 74.42 8.18C 74.19 8.07 74 7.84 73.95 7.56 73.87 7.08 74.18 6.65 74.65 6.57 74.89 6.53 75.07 6.58 75.2 6.64 75.91 6.99 76.64 7.15 77.44 7.01 78.19 6.88 78.58 6.5 78.5 6.02 78.5 6.02 78.49 6 78.49 6 78.41 5.54 78.09 5.35 76.64 5.24 74.91 5.11 73.75 4.84 73.46 3.2 73.46 3.2 73.46 3.18 73.46 3.18 73.19 1.68 74.22 0.47 75.91 0.18 76.91-0 77.83 0.1 78.65 0.44 78.88 0.53 79.12 0.74 79.18 1.09 79.27 1.56 78.95 2 78.48 2.08 78.3 2.11 78.15 2.09 78 2.03 77.33 1.78 76.73 1.68 76.17 1.78 75.47 1.91 75.16 2.29 75.23 2.69 75.23 2.69 75.24 2.72 75.24 2.72 75.33 3.26 75.72 3.37 77.21 3.49 78.96 3.63 80.01 4.06 80.27 5.5 80.27 5.5 80.27 5.52 80.27 5.52 80.56 7.16 79.47 8.31 77.69 8.62 76.61 8.81 75.45 8.68 74.42 8.18ZM 52.12 132.6C 51.29 132.6 50.62 131.93 50.62 131.1 50.62 130.28 51.29 129.6 52.12 129.6 53.77 129.6 55.12 128.26 55.12 126.61 55.12 124.95 53.77 123.61 52.12 123.61 52.12 123.61 50.62 123.61 50.62 123.61 50.62 123.61 50.62 99.73 50.62 99.73 50.62 98.91 51.29 98.23 52.12 98.23 52.95 98.23 53.62 98.91 53.62 99.73 53.62 99.73 53.62 120.8 53.62 120.8 56.2 121.47 58.11 123.82 58.11 126.61 58.11 129.91 55.43 132.6 52.12 132.6ZM 18.97 132.2C 14.84 132.2 11.48 128.84 11.48 124.71 11.48 120.58 14.84 117.21 18.97 117.21 20.13 117.21 21.24 117.47 22.27 117.98 23.01 118.34 23.32 119.24 22.95 119.99 22.59 120.73 21.69 121.04 20.95 120.67 20.33 120.37 19.67 120.21 18.97 120.21 16.49 120.21 14.48 122.23 14.48 124.71 14.48 127.19 16.49 129.2 18.97 129.2 19.78 129.2 20.58 128.99 21.27 128.57 21.98 128.15 22.9 128.38 23.32 129.09 23.74 129.8 23.51 130.72 22.8 131.15 21.65 131.84 20.32 132.2 18.97 132.2ZM 85.27 132.2C 83.92 132.2 82.6 131.84 81.44 131.15 80.73 130.72 80.5 129.8 80.92 129.09 81.35 128.38 82.27 128.15 82.98 128.57 83.67 128.99 84.46 129.2 85.27 129.2 87.75 129.2 89.77 127.19 89.77 124.71 89.77 122.23 87.75 120.21 85.27 120.21 84.58 120.21 83.91 120.37 83.29 120.67 82.55 121.04 81.65 120.73 81.29 119.99 80.92 119.24 81.23 118.34 81.97 117.98 83.01 117.47 84.12 117.21 85.27 117.21 89.4 117.21 92.76 120.58 92.76 124.71 92.76 128.84 89.4 132.2 85.27 132.2ZM 52.12 161.77C 35.22 161.77 21.46 148.01 21.46 131.1 21.46 131.1 21.46 102.1 21.46 102.1 21.46 98.57 22.06 95.12 23.22 91.84 24.29 88.82 25.84 85.99 27.8 83.43 29.32 81.45 31.08 79.65 33.04 78.1 34.9 76.61 36.94 75.34 39.12 74.32 41.22 73.32 43.45 72.58 45.73 72.1 49.91 71.21 54.31 71.2 58.53 72.09 60.37 72.49 62.19 73.06 63.96 73.8 64.36 73.96 64.75 74.14 65.14 74.33 67.28 75.33 69.33 76.6 71.22 78.11 73.17 79.66 74.93 81.45 76.45 83.43 78.97 86.72 80.77 90.41 81.81 94.41 82.45 96.93 82.78 99.51 82.78 102.1 82.78 102.1 82.78 131.1 82.78 131.1 82.78 148.01 69.03 161.77 52.12 161.77ZM 52.12 74.42C 50.18 74.42 48.24 74.63 46.35 75.03 44.29 75.46 42.29 76.14 40.39 77.03 38.43 77.95 36.58 79.1 34.9 80.44 33.14 81.85 31.55 83.46 30.18 85.25 28.4 87.56 27.01 90.12 26.04 92.84 24.99 95.8 24.46 98.92 24.46 102.1 24.46 102.1 24.46 131.1 24.46 131.1 24.46 146.36 36.87 158.77 52.12 158.77 67.37 158.77 79.78 146.36 79.78 131.1 79.78 131.1 79.78 102.1 79.78 102.1 79.78 99.76 79.49 97.43 78.9 95.16 77.97 91.55 76.35 88.22 74.07 85.26 72.7 83.47 71.11 81.86 69.35 80.45 67.65 79.09 65.8 77.95 63.86 77.04 63.51 76.87 63.17 76.72 62.82 76.57 61.21 75.9 59.56 75.38 57.9 75.03 56 74.63 54.06 74.42 52.12 74.42ZM 62.12 145.07C 61.29 145.07 60.62 144.4 60.62 143.57 60.62 138.88 56.81 135.07 52.12 135.07 47.44 135.07 43.62 138.88 43.62 143.57 43.62 144.4 42.95 145.07 42.13 145.07 41.3 145.07 40.63 144.4 40.63 143.57 40.63 137.23 45.78 132.07 52.12 132.07 58.46 132.07 63.62 137.23 63.62 143.57 63.62 144.4 62.95 145.07 62.12 145.07ZM 37.38 123.69C 31.25 123.69 26.26 118.7 26.26 112.56 26.26 106.42 31.25 101.43 37.38 101.43 43.52 101.43 48.51 106.42 48.51 112.56 48.51 118.7 43.52 123.69 37.38 123.69ZM 37.38 104.43C 32.9 104.43 29.26 108.08 29.26 112.56 29.26 117.04 32.9 120.69 37.38 120.69 41.87 120.69 45.51 117.04 45.51 112.56 45.51 108.08 41.87 104.43 37.38 104.43ZM 39.52 112.56C 39.52 113.74 38.56 114.7 37.38 114.7 36.2 114.7 35.24 113.74 35.24 112.56 35.24 111.38 36.2 110.42 37.38 110.42 38.56 110.42 39.52 111.38 39.52 112.56ZM 64.72 112.56C 64.72 113.74 65.68 114.7 66.86 114.7 68.04 114.7 69 113.74 69 112.56 69 111.38 68.04 110.42 66.86 110.42 65.68 110.42 64.72 111.38 64.72 112.56ZM 66.86 123.69C 60.73 123.69 55.74 118.7 55.74 112.56 55.74 106.42 60.73 101.43 66.86 101.43 72.99 101.43 77.98 106.42 77.98 112.56 77.98 118.7 72.99 123.69 66.86 123.69ZM 66.86 104.43C 62.38 104.43 58.73 108.08 58.73 112.56 58.73 117.04 62.38 120.69 66.86 120.69 71.34 120.69 74.99 117.04 74.99 112.56 74.99 108.08 71.34 104.43 66.86 104.43ZM 57.27 113.46C 56.44 113.46 55.77 112.79 55.77 111.96 55.77 109.95 54.14 108.31 52.12 108.31 50.11 108.31 48.47 109.95 48.47 111.96 48.47 112.79 47.8 113.46 46.97 113.46 46.14 113.46 45.47 112.79 45.47 111.96 45.47 108.29 48.46 105.31 52.12 105.31 55.79 105.31 58.77 108.29 58.77 111.96 58.77 112.79 58.1 113.46 57.27 113.46ZM 84.12 114.06C 84.12 114.06 76.49 114.06 76.49 114.06 75.66 114.06 74.99 113.39 74.99 112.56 74.99 111.73 75.66 111.06 76.49 111.06 76.49 111.06 84.12 111.06 84.12 111.06 84.95 111.06 85.62 111.73 85.62 112.56 85.62 113.39 84.95 114.06 84.12 114.06ZM 27.76 114.06C 27.76 114.06 20.12 114.06 20.12 114.06 19.3 114.06 18.63 113.39 18.63 112.56 18.63 111.73 19.3 111.06 20.12 111.06 20.12 111.06 27.76 111.06 27.76 111.06 28.59 111.06 29.26 111.73 29.26 112.56 29.26 113.39 28.59 114.06 27.76 114.06ZM 52.12 80.55C 48.21 80.55 44.95 77.62 44.55 73.72 44.55 73.72 44.41 72.38 44.41 72.38 44.41 72.38 45.72 72.1 45.72 72.1 49.91 71.21 54.31 71.2 58.53 72.09 58.53 72.09 59.85 72.37 59.85 72.37 59.85 72.37 59.71 73.72 59.71 73.72 59.3 77.61 56.04 80.55 52.12 80.55ZM 47.87 74.75C 48.58 76.41 50.23 77.55 52.12 77.55 54.02 77.55 55.67 76.41 56.38 74.75 53.55 74.31 50.68 74.32 47.87 74.75ZM 52.12 87.11C 45.52 87.11 39.71 82.44 38.29 76 38.29 76 38.03 74.83 38.03 74.83 38.03 74.83 39.11 74.32 39.11 74.32 41.22 73.32 43.45 72.58 45.73 72.1 49.91 71.21 54.31 71.2 58.53 72.09 60.37 72.49 62.19 73.06 63.96 73.8 64.36 73.96 64.75 74.14 65.14 74.33 65.14 74.33 66.22 74.84 66.22 74.84 66.22 74.84 65.96 76.01 65.96 76.01 64.54 82.44 58.72 87.11 52.12 87.11ZM 41.54 76.52C 43.06 80.98 47.33 84.11 52.12 84.11 56.92 84.11 61.19 80.98 62.71 76.53 61.13 75.88 59.52 75.37 57.9 75.03 54.1 74.22 50.13 74.22 46.35 75.03 44.7 75.38 43.09 75.88 41.54 76.52ZM 52.12 93.67C 43.31 93.67 35.45 88.08 32.55 79.77 32.55 79.77 32.21 78.76 32.21 78.76 32.21 78.76 33.03 78.1 33.03 78.1 34.9 76.61 36.94 75.34 39.12 74.32 41.22 73.32 43.45 72.58 45.73 72.1 49.91 71.21 54.31 71.2 58.53 72.09 60.37 72.49 62.19 73.06 63.96 73.8 64.36 73.96 64.75 74.14 65.14 74.33 67.28 75.33 69.33 76.6 71.22 78.11 71.22 78.11 72.05 78.77 72.05 78.77 72.05 78.77 71.7 79.77 71.7 79.77 68.8 88.09 60.93 93.67 52.12 93.67ZM 35.77 79.78C 38.5 86.34 44.94 90.67 52.12 90.67 59.3 90.67 65.75 86.34 68.49 79.79 67.03 78.72 65.48 77.79 63.86 77.04 63.51 76.87 63.17 76.72 62.82 76.57 61.21 75.9 59.56 75.38 57.9 75.03 54.1 74.22 50.13 74.22 46.35 75.03 44.29 75.46 42.29 76.14 40.39 77.03 38.76 77.8 37.21 78.72 35.77 79.78ZM 52.12 100.23C 41.66 100.23 32.29 94.4 27.65 85.01 27.65 85.01 27.23 84.17 27.23 84.17 27.23 84.17 27.8 83.43 27.8 83.43 29.32 81.45 31.08 79.65 33.04 78.1 34.9 76.61 36.94 75.34 39.12 74.32 41.22 73.32 43.45 72.58 45.73 72.1 49.91 71.21 54.31 71.2 58.53 72.09 60.37 72.49 62.19 73.06 63.96 73.8 64.36 73.96 64.75 74.14 65.14 74.33 67.28 75.33 69.33 76.6 71.22 78.11 73.17 79.66 74.93 81.45 76.45 83.43 76.45 83.43 77.01 84.17 77.01 84.17 77.01 84.17 76.6 85.01 76.6 85.01 71.97 94.4 62.59 100.23 52.12 100.23ZM 30.76 84.52C 35.03 92.38 43.13 97.23 52.12 97.23 61.12 97.23 69.22 92.38 73.48 84.52 72.25 83.02 70.87 81.66 69.35 80.45 67.65 79.09 65.8 77.95 63.86 77.04 63.51 76.87 63.17 76.72 62.82 76.57 61.21 75.9 59.56 75.38 57.9 75.03 54.1 74.22 50.13 74.22 46.35 75.03 44.29 75.46 42.29 76.14 40.39 77.03 38.43 77.95 36.58 79.1 34.9 80.44 33.38 81.65 32 83.02 30.76 84.52ZM 144.97 136.8C 144.14 136.8 143.47 136.13 143.47 135.3 143.47 134.47 144.14 133.8 144.97 133.8 146.62 133.8 147.97 132.46 147.97 130.81 147.97 129.15 146.62 127.81 144.97 127.81 144.97 127.81 143.47 127.81 143.47 127.81 143.47 127.81 143.47 115.82 143.47 115.82 143.47 114.99 144.14 114.32 144.97 114.32 145.8 114.32 146.47 114.99 146.47 115.82 146.47 115.82 146.47 125 146.47 125 149.05 125.67 150.96 128.02 150.96 130.81 150.96 134.11 148.27 136.8 144.97 136.8ZM 146.44 139.13C 142.81 138.63 139.56 141.08 137.78 144 137.78 144 143.24 142.68 146.44 143.78 149.65 144.87 152.12 139.92 146.44 139.13ZM 110.43 131.31C 106.3 131.31 102.94 127.94 102.94 123.81 102.94 119.68 106.3 116.32 110.43 116.32 111.58 116.32 112.7 116.58 113.73 117.08 114.47 117.45 114.78 118.35 114.41 119.09 114.05 119.83 113.15 120.14 112.41 119.77 111.79 119.47 111.12 119.32 110.43 119.32 107.95 119.32 105.93 121.33 105.93 123.81 105.93 126.29 107.95 128.31 110.43 128.31 111.24 128.31 112.03 128.09 112.72 127.68 113.44 127.25 114.35 127.49 114.78 128.2 115.2 128.91 114.97 129.83 114.26 130.25 113.1 130.94 111.78 131.31 110.43 131.31ZM 179.51 131.31C 178.16 131.31 176.84 130.94 175.68 130.25 174.97 129.83 174.74 128.91 175.16 128.2 175.58 127.49 176.5 127.25 177.21 127.68 177.91 128.09 178.7 128.31 179.51 128.31 181.99 128.31 184 126.29 184 123.81 184 121.33 181.99 119.32 179.51 119.32 178.82 119.32 178.15 119.47 177.53 119.77 176.79 120.14 175.89 119.83 175.53 119.09 175.16 118.35 175.47 117.45 176.21 117.08 177.24 116.58 178.35 116.32 179.51 116.32 183.64 116.32 187 119.68 187 123.81 187 127.94 183.64 131.31 179.51 131.31ZM 144.94 155.66C 143.79 155.66 142.63 155.39 141.6 154.86 132.7 150.34 111.99 138.21 111.99 123.35 111.99 123.35 111.99 114.53 111.99 114.53 111.99 96.37 126.52 81.35 144.38 81.05 144.38 81.05 144.94 81.05 144.94 81.05 163.11 81.05 177.89 95.84 177.89 114.01 177.89 114.01 177.89 123.35 177.89 123.35 177.89 138.21 157.18 150.34 148.28 154.86 147.25 155.39 146.1 155.66 144.94 155.66ZM 144.94 84.05C 144.94 84.05 144.43 84.05 144.43 84.05 128.2 84.32 114.99 97.99 114.99 114.53 114.99 114.53 114.99 123.35 114.99 123.35 114.99 136.92 136.4 148.86 142.96 152.19 144.18 152.81 145.7 152.81 146.92 152.19 153.49 148.86 174.89 136.92 174.89 123.35 174.89 123.35 174.89 114.01 174.89 114.01 174.89 97.49 161.46 84.05 144.94 84.05ZM 176.19 112.52C 176.19 112.52 113.75 112.52 113.75 112.52 113.75 112.52 113.75 109.52 113.75 109.52 113.75 109.52 176.19 109.52 176.19 109.52 176.19 109.52 176.19 112.52 176.19 112.52ZM 128.27 126.09C 127.44 126.09 126.77 125.42 126.77 124.59 126.77 124.59 126.77 117.82 126.77 117.82 126.77 116.99 127.44 116.32 128.27 116.32 129.1 116.32 129.77 116.99 129.77 117.82 129.77 117.82 129.77 124.59 129.77 124.59 129.77 125.42 129.1 126.09 128.27 126.09ZM 161.67 126.09C 160.84 126.09 160.17 125.42 160.17 124.59 160.17 124.59 160.17 117.82 160.17 117.82 160.17 116.99 160.84 116.32 161.67 116.32 162.5 116.32 163.17 116.99 163.17 117.82 163.17 117.82 163.17 124.59 163.17 124.59 163.17 125.42 162.5 126.09 161.67 126.09ZM 124.14 111.98C 124.08 111.98 124.02 111.98 123.96 111.97 123.13 111.87 122.55 111.12 122.65 110.3 123.91 100.27 132.53 81.45 144.56 81.25 145.38 81.28 146.07 81.9 146.08 82.73 146.09 83.55 145.43 84.24 144.61 84.25 135.49 84.4 126.94 100.14 125.63 110.67 125.53 111.43 124.89 111.98 124.14 111.98ZM 134.54 111.95C 134.48 111.95 134.42 111.95 134.36 111.94 133.53 111.84 132.95 111.09 133.05 110.27 133.35 107.89 134.58 100.88 136.47 94.39 139.83 82.86 142.8 81.48 144.74 81.45 145.58 81.47 146.25 82.1 146.26 82.92 146.27 83.75 145.61 84.44 144.79 84.45 142.66 84.48 137.79 96.48 136.03 110.64 135.93 111.4 135.29 111.95 134.54 111.95ZM 165.38 111.98C 164.64 111.98 163.99 111.43 163.9 110.67 162.58 100.14 154.03 84.4 144.92 84.25 144.09 84.24 143.43 83.55 143.44 82.73 143.46 81.9 144.13 81.28 144.97 81.25 156.99 81.45 165.62 100.27 166.87 110.3 166.97 111.12 166.39 111.87 165.57 111.97 165.51 111.98 165.44 111.98 165.38 111.98ZM 154.98 111.95C 154.24 111.95 153.59 111.4 153.5 110.64 151.73 96.48 146.86 84.48 144.74 84.45 143.91 84.44 143.25 83.75 143.26 82.92 143.28 82.1 143.97 81.4 144.79 81.45 146.73 81.48 149.7 82.86 153.06 94.39 154.95 100.88 156.17 107.89 156.47 110.27 156.57 111.09 155.99 111.84 155.17 111.94 155.11 111.95 155.04 111.95 154.98 111.95ZM 144.94 111.92C 144.11 111.92 143.44 111.25 143.44 110.42 143.44 110.42 143.44 83.15 143.44 83.15 143.44 82.32 144.11 81.65 144.94 81.65 145.77 81.65 146.44 82.32 146.44 83.15 146.44 83.15 146.44 110.42 146.44 110.42 146.44 111.25 145.77 111.92 144.94 111.92ZM 127.22 87.61C 126.74 85.99 126.49 84.28 126.49 82.55 126.49 72.67 134.53 64.63 144.4 64.63 154.28 64.63 162.32 72.67 162.32 82.55 162.32 84.03 162.14 85.5 161.78 86.93 161.78 86.93 158.87 86.2 158.87 86.2 159.17 85.01 159.32 83.78 159.32 82.55 159.32 74.32 152.63 67.63 144.4 67.63 136.18 67.63 129.49 74.32 129.49 82.55 129.49 83.99 129.69 85.41 130.09 86.75 130.09 86.75 127.22 87.61 127.22 87.61ZM 144.4 84.05C 143.58 84.05 142.91 83.38 142.91 82.55 142.91 82.55 142.91 66.13 142.91 66.13 142.91 65.3 143.58 64.63 144.4 64.63 145.23 64.63 145.9 65.3 145.9 66.13 145.9 66.13 145.9 82.55 145.9 82.55 145.9 83.38 145.23 84.05 144.4 84.05ZM 144.4 84.05C 144.02 84.05 143.64 83.91 143.34 83.61 142.76 83.03 142.76 82.08 143.34 81.49 143.34 81.49 154.94 69.89 154.94 69.89 155.52 69.31 156.47 69.31 157.06 69.89 157.64 70.48 157.64 71.43 157.06 72.01 157.06 72.01 145.46 83.61 145.46 83.61 145.17 83.91 144.79 84.05 144.4 84.05ZM 144.4 84.05C 144.02 84.05 143.64 83.91 143.34 83.61 143.34 83.61 131.74 72 131.74 72 131.15 71.42 131.15 70.47 131.74 69.88 132.32 69.3 133.27 69.3 133.86 69.88 133.86 69.88 145.46 81.49 145.46 81.49 146.05 82.08 146.05 83.03 145.46 83.61 145.17 83.91 144.79 84.05 144.4 84.05ZM 119.83 14.18C 119.83 14.18 119.83 64.13 119.83 64.13 119.83 64.13 78.89 64.13 78.89 64.13 78.89 64.13 78.89 27.99 78.89 27.99 78.89 27.99 92.69 14.18 92.69 14.18 92.69 14.18 119.83 14.18 119.83 14.18M 122.83 11.18C 122.83 11.18 119.83 11.18 119.83 11.18 119.83 11.18 92.69 11.18 92.69 11.18 92.69 11.18 91.45 11.18 91.45 11.18 91.45 11.18 90.57 12.06 90.57 12.06 90.57 12.06 76.77 25.87 76.77 25.87 76.77 25.87 75.89 26.74 75.89 26.74 75.89 26.74 75.89 27.99 75.89 27.99 75.89 27.99 75.89 64.13 75.89 64.13 75.89 64.13 75.89 67.13 75.89 67.13 75.89 67.13 78.89 67.13 78.89 67.13 78.89 67.13 119.83 67.13 119.83 67.13 119.83 67.13 122.83 67.13 122.83 67.13 122.83 67.13 122.83 64.13 122.83 64.13 122.83 64.13 122.83 14.18 122.83 14.18 122.83 14.18 122.83 11.18 122.83 11.18 122.83 11.18 122.83 11.18 122.83 11.18ZM 94.19 29.66C 94.19 29.66 78.89 29.66 78.89 29.66 78.89 29.66 78.89 26.67 78.89 26.67 78.89 26.67 91.19 26.67 91.19 26.67 91.19 26.67 91.19 14.36 91.19 14.36 91.19 14.36 94.19 14.36 94.19 14.36 94.19 14.36 94.19 29.66 94.19 29.66ZM 83.2 38.68C 83.2 38.17 83.6 37.76 84.12 37.76 84.12 37.76 86.47 37.76 86.47 37.76 89.1 37.76 90.92 39.57 90.92 41.93 90.92 41.93 90.92 41.96 90.92 41.96 90.92 44.32 89.1 46.15 86.47 46.15 86.47 46.15 84.12 46.15 84.12 46.15 83.6 46.15 83.2 45.74 83.2 45.23 83.2 45.23 83.2 38.68 83.2 38.68ZM 86.47 44.48C 87.98 44.48 88.99 43.47 88.99 41.98 88.99 41.98 88.99 41.96 88.99 41.96 88.99 40.47 87.98 39.43 86.47 39.43 86.47 39.43 85.04 39.43 85.04 39.43 85.04 39.43 85.04 44.48 85.04 44.48 85.04 44.48 86.47 44.48 86.47 44.48ZM 91.74 44.96C 91.74 44.96 94.66 38.36 94.66 38.36 94.87 37.91 95.24 37.63 95.74 37.63 95.74 37.63 95.85 37.63 95.85 37.63 96.35 37.63 96.71 37.91 96.92 38.36 96.92 38.36 99.84 44.96 99.84 44.96 99.9 45.09 99.93 45.21 99.93 45.33 99.93 45.83 99.55 46.22 99.06 46.22 98.63 46.22 98.34 45.97 98.17 45.59 98.17 45.59 97.61 44.27 97.61 44.27 97.61 44.27 93.92 44.27 93.92 44.27 93.92 44.27 93.33 45.65 93.33 45.65 93.18 46.01 92.87 46.22 92.48 46.22 92.01 46.22 91.63 45.84 91.63 45.36 91.63 45.23 91.68 45.09 91.74 44.96ZM 96.93 42.64C 96.93 42.64 95.77 39.87 95.77 39.87 95.77 39.87 94.6 42.64 94.6 42.64 94.6 42.64 96.93 42.64 96.93 42.64ZM 102.44 39.46C 102.44 39.46 100.67 39.46 100.67 39.46 100.2 39.46 99.82 39.08 99.82 38.61 99.82 38.14 100.2 37.76 100.67 37.76 100.67 37.76 106.06 37.76 106.06 37.76 106.53 37.76 106.91 38.14 106.91 38.61 106.91 39.08 106.53 39.46 106.06 39.46 106.06 39.46 104.29 39.46 104.29 39.46 104.29 39.46 104.29 45.3 104.29 45.3 104.29 45.81 103.88 46.22 103.36 46.22 102.85 46.22 102.44 45.81 102.44 45.3 102.44 45.3 102.44 39.46 102.44 39.46ZM 106.89 44.96C 106.89 44.96 109.81 38.36 109.81 38.36 110.01 37.91 110.39 37.63 110.89 37.63 110.89 37.63 111 37.63 111 37.63 111.5 37.63 111.86 37.91 112.06 38.36 112.06 38.36 114.99 44.96 114.99 44.96 115.04 45.09 115.08 45.21 115.08 45.33 115.08 45.83 114.7 46.22 114.21 46.22 113.78 46.22 113.49 45.97 113.32 45.59 113.32 45.59 112.76 44.27 112.76 44.27 112.76 44.27 109.07 44.27 109.07 44.27 109.07 44.27 108.48 45.65 108.48 45.65 108.33 46.01 108.01 46.22 107.63 46.22 107.15 46.22 106.78 45.84 106.78 45.36 106.78 45.23 106.83 45.09 106.89 44.96ZM 112.07 42.64C 112.07 42.64 110.91 39.87 110.91 39.87 110.91 39.87 109.75 42.64 109.75 42.64 109.75 42.64 112.07 42.64 112.07 42.64ZM 65.91 31.46C 65.91 31.46 65.91 63.13 65.91 63.13 65.91 63.13 39.94 63.13 39.94 63.13 39.94 63.13 39.94 40.21 39.94 40.21 39.94 40.21 48.69 31.46 48.69 31.46 48.69 31.46 65.91 31.46 65.91 31.46M 67.81 29.56C 67.81 29.56 65.91 29.56 65.91 29.56 65.91 29.56 48.69 29.56 48.69 29.56 48.69 29.56 47.91 29.56 47.91 29.56 47.91 29.56 47.35 30.11 47.35 30.11 47.35 30.11 38.6 38.87 38.6 38.87 38.6 38.87 38.04 39.42 38.04 39.42 38.04 39.42 38.04 40.21 38.04 40.21 38.04 40.21 38.04 63.13 38.04 63.13 38.04 63.13 38.04 65.04 38.04 65.04 38.04 65.04 39.94 65.04 39.94 65.04 39.94 65.04 65.91 65.04 65.91 65.04 65.91 65.04 67.81 65.04 67.81 65.04 67.81 65.04 67.81 63.13 67.81 63.13 67.81 63.13 67.81 31.46 67.81 31.46 67.81 31.46 67.81 29.56 67.81 29.56 67.81 29.56 67.81 29.56 67.81 29.56ZM 49.64 41.28C 49.64 41.28 39.94 41.28 39.94 41.28 39.94 41.28 39.94 39.38 39.94 39.38 39.94 39.38 47.74 39.38 47.74 39.38 47.74 39.38 47.74 31.57 47.74 31.57 47.74 31.57 49.64 31.57 49.64 31.57 49.64 31.57 49.64 41.28 49.64 41.28ZM 42.68 46.99C 42.68 46.66 42.93 46.4 43.26 46.4 43.26 46.4 44.75 46.4 44.75 46.4 46.42 46.4 47.58 47.55 47.58 49.05 47.58 49.05 47.58 49.07 47.58 49.07 47.58 50.57 46.42 51.73 44.75 51.73 44.75 51.73 43.26 51.73 43.26 51.73 42.93 51.73 42.68 51.47 42.68 51.14 42.68 51.14 42.68 46.99 42.68 46.99ZM 44.75 50.67C 45.71 50.67 46.36 50.03 46.36 49.08 46.36 49.08 46.36 49.07 46.36 49.07 46.36 48.12 45.71 47.46 44.75 47.46 44.75 47.46 43.85 47.46 43.85 47.46 43.85 47.46 43.85 50.67 43.85 50.67 43.85 50.67 44.75 50.67 44.75 50.67ZM 48.09 50.98C 48.09 50.98 49.95 46.78 49.95 46.78 50.08 46.5 50.31 46.32 50.63 46.32 50.63 46.32 50.7 46.32 50.7 46.32 51.02 46.32 51.25 46.5 51.38 46.78 51.38 46.78 53.23 50.98 53.23 50.98 53.27 51.06 53.29 51.14 53.29 51.21 53.29 51.52 53.05 51.78 52.74 51.78 52.47 51.78 52.28 51.62 52.18 51.37 52.18 51.37 51.82 50.54 51.82 50.54 51.82 50.54 49.48 50.54 49.48 50.54 49.48 50.54 49.11 51.41 49.11 51.41 49.01 51.64 48.81 51.78 48.57 51.78 48.26 51.78 48.03 51.53 48.03 51.23 48.03 51.14 48.06 51.06 48.09 50.98ZM 51.39 49.5C 51.39 49.5 50.65 47.74 50.65 47.74 50.65 47.74 49.91 49.5 49.91 49.5 49.91 49.5 51.39 49.5 51.39 49.5ZM 54.88 47.49C 54.88 47.49 53.76 47.49 53.76 47.49 53.46 47.49 53.22 47.24 53.22 46.94 53.22 46.65 53.46 46.4 53.76 46.4 53.76 46.4 57.18 46.4 57.18 46.4 57.47 46.4 57.72 46.65 57.72 46.94 57.72 47.24 57.47 47.49 57.18 47.49 57.18 47.49 56.05 47.49 56.05 47.49 56.05 47.49 56.05 51.19 56.05 51.19 56.05 51.52 55.79 51.78 55.47 51.78 55.14 51.78 54.88 51.52 54.88 51.19 54.88 51.19 54.88 47.49 54.88 47.49ZM 57.7 50.98C 57.7 50.98 59.55 46.78 59.55 46.78 59.68 46.5 59.92 46.32 60.24 46.32 60.24 46.32 60.31 46.32 60.31 46.32 60.63 46.32 60.85 46.5 60.98 46.78 60.98 46.78 62.84 50.98 62.84 50.98 62.88 51.06 62.9 51.14 62.9 51.21 62.9 51.52 62.66 51.78 62.34 51.78 62.07 51.78 61.89 51.62 61.78 51.37 61.78 51.37 61.42 50.54 61.42 50.54 61.42 50.54 59.08 50.54 59.08 50.54 59.08 50.54 58.71 51.41 58.71 51.41 58.61 51.64 58.41 51.78 58.17 51.78 57.87 51.78 57.63 51.53 57.63 51.23 57.63 51.14 57.66 51.06 57.7 50.98ZM 60.99 49.5C 60.99 49.5 60.25 47.74 60.25 47.74 60.25 47.74 59.52 49.5 59.52 49.5 59.52 49.5 60.99 49.5 60.99 49.5ZM 114.84 140.36C 114.84 140.36 114.84 172.04 114.84 172.04 114.84 172.04 88.87 172.04 88.87 172.04 88.87 172.04 88.87 149.11 88.87 149.11 88.87 149.11 97.63 140.36 97.63 140.36 97.63 140.36 114.84 140.36 114.84 140.36M 116.84 138.36C 116.84 138.36 114.84 138.36 114.84 138.36 114.84 138.36 97.63 138.36 97.63 138.36 97.63 138.36 96.8 138.36 96.8 138.36 96.8 138.36 96.21 138.94 96.21 138.94 96.21 138.94 87.46 147.7 87.46 147.7 87.46 147.7 86.88 148.28 86.88 148.28 86.88 148.28 86.88 149.11 86.88 149.11 86.88 149.11 86.88 172.04 86.88 172.04 86.88 172.04 86.88 174.03 86.88 174.03 86.88 174.03 88.87 174.03 88.87 174.03 88.87 174.03 114.84 174.03 114.84 174.03 114.84 174.03 116.84 174.03 116.84 174.03 116.84 174.03 116.84 172.04 116.84 172.04 116.84 172.04 116.84 140.36 116.84 140.36 116.84 140.36 116.84 138.36 116.84 138.36 116.84 138.36 116.84 138.36 116.84 138.36ZM 98.58 150.18C 98.58 150.18 88.87 150.18 88.87 150.18 88.87 150.18 88.87 148.28 88.87 148.28 88.87 148.28 96.68 148.28 96.68 148.28 96.68 148.28 96.68 140.47 96.68 140.47 96.68 140.47 98.58 140.47 98.58 140.47 98.58 140.47 98.58 150.18 98.58 150.18ZM 91.61 155.89C 91.61 155.56 91.87 155.31 92.19 155.31 92.19 155.31 93.68 155.31 93.68 155.31 95.36 155.31 96.51 156.45 96.51 157.95 96.51 157.95 96.51 157.97 96.51 157.97 96.51 159.47 95.36 160.63 93.68 160.63 93.68 160.63 92.19 160.63 92.19 160.63 91.87 160.63 91.61 160.37 91.61 160.04 91.61 160.04 91.61 155.89 91.61 155.89ZM 93.68 159.57C 94.64 159.57 95.29 158.93 95.29 157.98 95.29 157.98 95.29 157.97 95.29 157.97 95.29 157.03 94.64 156.36 93.68 156.36 93.68 156.36 92.78 156.36 92.78 156.36 92.78 156.36 92.78 159.57 92.78 159.57 92.78 159.57 93.68 159.57 93.68 159.57ZM 97.03 159.88C 97.03 159.88 98.88 155.69 98.88 155.69 99.01 155.4 99.25 155.22 99.57 155.22 99.57 155.22 99.63 155.22 99.63 155.22 99.95 155.22 100.18 155.4 100.31 155.69 100.31 155.69 102.17 159.88 102.17 159.88 102.2 159.96 102.23 160.04 102.23 160.11 102.23 160.43 101.98 160.68 101.67 160.68 101.4 160.68 101.22 160.52 101.11 160.27 101.11 160.27 100.75 159.44 100.75 159.44 100.75 159.44 98.41 159.44 98.41 159.44 98.41 159.44 98.04 160.31 98.04 160.31 97.94 160.54 97.74 160.68 97.5 160.68 97.19 160.68 96.96 160.43 96.96 160.13 96.96 160.04 96.99 159.96 97.03 159.88ZM 100.32 158.4C 100.32 158.4 99.58 156.64 99.58 156.64 99.58 156.64 98.84 158.4 98.84 158.4 98.84 158.4 100.32 158.4 100.32 158.4ZM 103.81 156.39C 103.81 156.39 102.69 156.39 102.69 156.39 102.39 156.39 102.15 156.14 102.15 155.85 102.15 155.55 102.39 155.31 102.69 155.31 102.69 155.31 106.11 155.31 106.11 155.31 106.41 155.31 106.65 155.55 106.65 155.85 106.65 156.14 106.41 156.39 106.11 156.39 106.11 156.39 104.98 156.39 104.98 156.39 104.98 156.39 104.98 160.09 104.98 160.09 104.98 160.42 104.73 160.68 104.4 160.68 104.07 160.68 103.81 160.42 103.81 160.09 103.81 160.09 103.81 156.39 103.81 156.39ZM 106.63 159.88C 106.63 159.88 108.49 155.69 108.49 155.69 108.62 155.4 108.85 155.22 109.17 155.22 109.17 155.22 109.24 155.22 109.24 155.22 109.56 155.22 109.79 155.4 109.92 155.69 109.92 155.69 111.77 159.88 111.77 159.88 111.81 159.96 111.83 160.04 111.83 160.11 111.83 160.43 111.59 160.68 111.28 160.68 111 160.68 110.82 160.52 110.71 160.27 110.71 160.27 110.36 159.44 110.36 159.44 110.36 159.44 108.02 159.44 108.02 159.44 108.02 159.44 107.64 160.31 107.64 160.31 107.54 160.54 107.35 160.68 107.1 160.68 106.8 160.68 106.56 160.43 106.56 160.13 106.56 160.04 106.59 159.96 106.63 159.88ZM 109.92 158.4C 109.92 158.4 109.19 156.64 109.19 156.64 109.19 156.64 108.45 158.4 108.45 158.4 108.45 158.4 109.92 158.4 109.92 158.4ZM 157.78 164.34C 157.78 164.34 157.78 187.48 157.78 187.48 157.78 187.48 138.8 187.48 138.8 187.48 138.8 187.48 138.8 170.73 138.8 170.73 138.8 170.73 145.2 164.34 145.2 164.34 145.2 164.34 157.78 164.34 157.78 164.34M 159.78 162.34C 159.78 162.34 157.78 162.34 157.78 162.34 157.78 162.34 145.2 162.34 145.2 162.34 145.2 162.34 144.37 162.34 144.37 162.34 144.37 162.34 143.79 162.92 143.79 162.92 143.79 162.92 137.39 169.32 137.39 169.32 137.39 169.32 136.81 169.91 136.81 169.91 136.81 169.91 136.81 170.73 136.81 170.73 136.81 170.73 136.81 187.48 136.81 187.48 136.81 187.48 136.81 189.48 136.81 189.48 136.81 189.48 138.8 189.48 138.8 189.48 138.8 189.48 157.78 189.48 157.78 189.48 157.78 189.48 159.78 189.48 159.78 189.48 159.78 189.48 159.78 187.48 159.78 187.48 159.78 187.48 159.78 164.34 159.78 164.34 159.78 164.34 159.78 162.34 159.78 162.34 159.78 162.34 159.78 162.34 159.78 162.34ZM 146.2 171.82C 146.2 171.82 138.8 171.82 138.8 171.82 138.8 171.82 138.8 169.82 138.8 169.82 138.8 169.82 144.2 169.82 144.2 169.82 144.2 169.82 144.2 164.42 144.2 164.42 144.2 164.42 146.2 164.42 146.2 164.42 146.2 164.42 146.2 171.82 146.2 171.82ZM 48.93 167.04C 48.93 167.04 48.93 190.19 48.93 190.19 48.93 190.19 29.96 190.19 29.96 190.19 29.96 190.19 29.96 173.44 29.96 173.44 29.96 173.44 36.35 167.04 36.35 167.04 36.35 167.04 48.93 167.04 48.93 167.04M 50.93 165.04C 50.93 165.04 48.93 165.04 48.93 165.04 48.93 165.04 36.35 165.04 36.35 165.04 36.35 165.04 35.52 165.04 35.52 165.04 35.52 165.04 34.94 165.63 34.94 165.63 34.94 165.63 28.54 172.03 28.54 172.03 28.54 172.03 27.96 172.61 27.96 172.61 27.96 172.61 27.96 173.44 27.96 173.44 27.96 173.44 27.96 190.19 27.96 190.19 27.96 190.19 27.96 192.19 27.96 192.19 27.96 192.19 29.96 192.19 29.96 192.19 29.96 192.19 48.93 192.19 48.93 192.19 48.93 192.19 50.93 192.19 50.93 192.19 50.93 192.19 50.93 190.19 50.93 190.19 50.93 190.19 50.93 167.04 50.93 167.04 50.93 167.04 50.93 165.04 50.93 165.04 50.93 165.04 50.93 165.04 50.93 165.04ZM 37.35 174.52C 37.35 174.52 29.96 174.52 29.96 174.52 29.96 174.52 29.96 172.52 29.96 172.52 29.96 172.52 35.35 172.52 35.35 172.52 35.35 172.52 35.35 167.12 35.35 167.12 35.35 167.12 37.35 167.12 37.35 167.12 37.35 167.12 37.35 174.52 37.35 174.52ZM 31.95 178.4C 31.95 178.16 32.14 177.97 32.38 177.97 32.38 177.97 33.47 177.97 33.47 177.97 34.69 177.97 35.53 178.81 35.53 179.9 35.53 179.9 35.53 179.91 35.53 179.91 35.53 181.01 34.69 181.86 33.47 181.86 33.47 181.86 32.38 181.86 32.38 181.86 32.14 181.86 31.95 181.67 31.95 181.43 31.95 181.43 31.95 178.4 31.95 178.4ZM 33.47 181.08C 34.17 181.08 34.64 180.61 34.64 179.92 34.64 179.92 34.64 179.91 34.64 179.91 34.64 179.22 34.17 178.74 33.47 178.74 33.47 178.74 32.81 178.74 32.81 178.74 32.81 178.74 32.81 181.08 32.81 181.08 32.81 181.08 33.47 181.08 33.47 181.08ZM 35.91 181.31C 35.91 181.31 37.27 178.25 37.27 178.25 37.36 178.04 37.53 177.91 37.76 177.91 37.76 177.91 37.81 177.91 37.81 177.91 38.05 177.91 38.21 178.04 38.31 178.25 38.31 178.25 39.66 181.31 39.66 181.31 39.69 181.37 39.71 181.42 39.71 181.48 39.71 181.7 39.53 181.89 39.3 181.89 39.1 181.89 38.97 181.77 38.89 181.59 38.89 181.59 38.63 180.98 38.63 180.98 38.63 180.98 36.92 180.98 36.92 180.98 36.92 180.98 36.65 181.62 36.65 181.62 36.58 181.79 36.43 181.89 36.26 181.89 36.03 181.89 35.86 181.71 35.86 181.49 35.86 181.43 35.88 181.37 35.91 181.31ZM 38.31 180.23C 38.31 180.23 37.78 178.95 37.78 178.95 37.78 178.95 37.24 180.23 37.24 180.23 37.24 180.23 38.31 180.23 38.31 180.23ZM 40.87 178.76C 40.87 178.76 40.05 178.76 40.05 178.76 39.83 178.76 39.66 178.58 39.66 178.37 39.66 178.15 39.83 177.97 40.05 177.97 40.05 177.97 42.54 177.97 42.54 177.97 42.76 177.97 42.94 178.15 42.94 178.37 42.94 178.58 42.76 178.76 42.54 178.76 42.54 178.76 41.72 178.76 41.72 178.76 41.72 178.76 41.72 181.46 41.72 181.46 41.72 181.7 41.54 181.89 41.3 181.89 41.06 181.89 40.87 181.7 40.87 181.46 40.87 181.46 40.87 178.76 40.87 178.76ZM 42.93 181.31C 42.93 181.31 44.28 178.25 44.28 178.25 44.38 178.04 44.55 177.91 44.78 177.91 44.78 177.91 44.83 177.91 44.83 177.91 45.07 177.91 45.23 178.04 45.33 178.25 45.33 178.25 46.68 181.31 46.68 181.31 46.71 181.37 46.73 181.42 46.73 181.48 46.73 181.7 46.55 181.89 46.32 181.89 46.12 181.89 45.99 181.77 45.91 181.59 45.91 181.59 45.65 180.98 45.65 180.98 45.65 180.98 43.94 180.98 43.94 180.98 43.94 180.98 43.67 181.62 43.67 181.62 43.6 181.79 43.45 181.89 43.28 181.89 43.05 181.89 42.88 181.71 42.88 181.49 42.88 181.43 42.9 181.37 42.93 181.31ZM 45.33 180.23C 45.33 180.23 44.8 178.95 44.8 178.95 44.8 178.95 44.26 180.23 44.26 180.23 44.26 180.23 45.33 180.23 45.33 180.23ZM 109.85 181.03C 109.85 181.03 109.85 198.08 109.85 198.08 109.85 198.08 95.86 198.08 95.86 198.08 95.86 198.08 95.86 185.74 95.86 185.74 95.86 185.74 100.58 181.03 100.58 181.03 100.58 181.03 109.85 181.03 109.85 181.03M 111.84 179.03C 111.84 179.03 109.85 179.03 109.85 179.03 109.85 179.03 100.58 179.03 100.58 179.03 100.58 179.03 99.75 179.03 99.75 179.03 99.75 179.03 99.16 179.61 99.16 179.61 99.16 179.61 94.45 184.33 94.45 184.33 94.45 184.33 93.87 184.91 93.87 184.91 93.87 184.91 93.87 185.74 93.87 185.74 93.87 185.74 93.87 198.08 93.87 198.08 93.87 198.08 93.87 200.08 93.87 200.08 93.87 200.08 95.86 200.08 95.86 200.08 95.86 200.08 109.85 200.08 109.85 200.08 109.85 200.08 111.84 200.08 111.84 200.08 111.84 200.08 111.84 198.08 111.84 198.08 111.84 198.08 111.84 181.03 111.84 181.03 111.84 181.03 111.84 179.03 111.84 179.03 111.84 179.03 111.84 179.03 111.84 179.03ZM 101.58 186.8C 101.58 186.8 95.86 186.8 95.86 186.8 95.86 186.8 95.86 184.8 95.86 184.8 95.86 184.8 99.58 184.8 99.58 184.8 99.58 184.8 99.58 181.09 99.58 181.09 99.58 181.09 101.58 181.09 101.58 181.09 101.58 181.09 101.58 186.8 101.58 186.8ZM 18.97 146.06C 18.97 146.06 18.97 160.05 18.97 160.05 18.97 160.05 7.51 160.05 7.51 160.05 7.51 160.05 7.51 149.93 7.51 149.93 7.51 149.93 11.37 146.06 11.37 146.06 11.37 146.06 18.97 146.06 18.97 146.06M 20.97 144.06C 20.97 144.06 18.97 144.06 18.97 144.06 18.97 144.06 11.37 144.06 11.37 144.06 11.37 144.06 10.54 144.06 10.54 144.06 10.54 144.06 9.96 144.65 9.96 144.65 9.96 144.65 6.09 148.51 6.09 148.51 6.09 148.51 5.51 149.1 5.51 149.1 5.51 149.1 5.51 149.93 5.51 149.93 5.51 149.93 5.51 160.05 5.51 160.05 5.51 160.05 5.51 162.04 5.51 162.04 5.51 162.04 7.51 162.04 7.51 162.04 7.51 162.04 18.97 162.04 18.97 162.04 18.97 162.04 20.97 162.04 20.97 162.04 20.97 162.04 20.97 160.05 20.97 160.05 20.97 160.05 20.97 146.06 20.97 146.06 20.97 146.06 20.97 144.06 20.97 144.06 20.97 144.06 20.97 144.06 20.97 144.06ZM 12.37 150.97C 12.37 150.97 7.51 150.97 7.51 150.97 7.51 150.97 7.51 148.98 7.51 148.98 7.51 148.98 10.37 148.98 10.37 148.98 10.37 148.98 10.37 146.11 10.37 146.11 10.37 146.11 12.37 146.11 12.37 146.11 12.37 146.11 12.37 150.97 12.37 150.97ZM 182.22 147.06C 182.22 147.06 182.22 161.05 182.22 161.05 182.22 161.05 170.76 161.05 170.76 161.05 170.76 161.05 170.76 150.92 170.76 150.92 170.76 150.92 174.62 147.06 174.62 147.06 174.62 147.06 182.22 147.06 182.22 147.06M 184.22 145.06C 184.22 145.06 182.22 145.06 182.22 145.06 182.22 145.06 174.62 145.06 174.62 145.06 174.62 145.06 173.8 145.06 173.8 145.06 173.8 145.06 173.21 145.65 173.21 145.65 173.21 145.65 169.35 149.51 169.35 149.51 169.35 149.51 168.76 150.1 168.76 150.1 168.76 150.1 168.76 150.92 168.76 150.92 168.76 150.92 168.76 161.05 168.76 161.05 168.76 161.05 168.76 163.04 168.76 163.04 168.76 163.04 170.76 163.04 170.76 163.04 170.76 163.04 182.22 163.04 182.22 163.04 182.22 163.04 184.22 163.04 184.22 163.04 184.22 163.04 184.22 161.05 184.22 161.05 184.22 161.05 184.22 147.06 184.22 147.06 184.22 147.06 184.22 145.06 184.22 145.06 184.22 145.06 184.22 145.06 184.22 145.06ZM 175.62 151.97C 175.62 151.97 170.76 151.97 170.76 151.97 170.76 151.97 170.76 149.97 170.76 149.97 170.76 149.97 173.63 149.97 173.63 149.97 173.63 149.97 173.63 147.11 173.63 147.11 173.63 147.11 175.62 147.11 175.62 147.11 175.62 147.11 175.62 151.97 175.62 151.97ZM 105.85 80.12C 105.85 80.12 105.85 94.11 105.85 94.11 105.85 94.11 94.39 94.11 94.39 94.11 94.39 94.11 94.39 83.98 94.39 83.98 94.39 83.98 98.25 80.12 98.25 80.12 98.25 80.12 105.85 80.12 105.85 80.12M 107.85 78.12C 107.85 78.12 105.85 78.12 105.85 78.12 105.85 78.12 98.25 78.12 98.25 78.12 98.25 78.12 97.42 78.12 97.42 78.12 97.42 78.12 96.84 78.71 96.84 78.71 96.84 78.71 92.97 82.57 92.97 82.57 92.97 82.57 92.39 83.16 92.39 83.16 92.39 83.16 92.39 83.98 92.39 83.98 92.39 83.98 92.39 94.11 92.39 94.11 92.39 94.11 92.39 96.1 92.39 96.1 92.39 96.1 94.39 96.1 94.39 96.1 94.39 96.1 105.85 96.1 105.85 96.1 105.85 96.1 107.85 96.1 107.85 96.1 107.85 96.1 107.85 94.11 107.85 94.11 107.85 94.11 107.85 80.12 107.85 80.12 107.85 80.12 107.85 78.12 107.85 78.12 107.85 78.12 107.85 78.12 107.85 78.12ZM 99.25 85.03C 99.25 85.03 94.39 85.03 94.39 85.03 94.39 85.03 94.39 83.04 94.39 83.04 94.39 83.04 97.25 83.04 97.25 83.04 97.25 83.04 97.25 80.17 97.25 80.17 97.25 80.17 99.25 80.17 99.25 80.17 99.25 80.17 99.25 85.03 99.25 85.03ZM 131.81 191.94C 131.81 191.94 131.81 209 131.81 209 131.81 209 117.83 209 117.83 209 117.83 209 117.83 196.66 117.83 196.66 117.83 196.66 122.55 191.94 122.55 191.94 122.55 191.94 131.81 191.94 131.81 191.94M 133.81 189.95C 133.81 189.95 131.81 189.95 131.81 189.95 131.81 189.95 122.55 189.95 122.55 189.95 122.55 189.95 121.72 189.95 121.72 189.95 121.72 189.95 121.13 190.53 121.13 190.53 121.13 190.53 116.42 195.25 116.42 195.25 116.42 195.25 115.84 195.83 115.84 195.83 115.84 195.83 115.84 196.66 115.84 196.66 115.84 196.66 115.84 209 115.84 209 115.84 209 115.84 211 115.84 211 115.84 211 117.83 211 117.83 211 117.83 211 131.81 211 131.81 211 131.81 211 133.81 211 133.81 211 133.81 211 133.81 209 133.81 209 133.81 209 133.81 191.94 133.81 191.94 133.81 191.94 133.81 189.95 133.81 189.95 133.81 189.95 133.81 189.95 133.81 189.95ZM 123.54 197.72C 123.54 197.72 117.83 197.72 117.83 197.72 117.83 197.72 117.83 195.72 117.83 195.72 117.83 195.72 121.55 195.72 121.55 195.72 121.55 195.72 121.55 192.01 121.55 192.01 121.55 192.01 123.54 192.01 123.54 192.01 123.54 192.01 123.54 197.72 123.54 197.72ZM 145.8 40.08C 145.8 40.08 145.8 57.14 145.8 57.14 145.8 57.14 131.81 57.14 131.81 57.14 131.81 57.14 131.81 44.8 131.81 44.8 131.81 44.8 136.53 40.08 136.53 40.08 136.53 40.08 145.8 40.08 145.8 40.08M 147.79 38.08C 147.79 38.08 145.8 38.08 145.8 38.08 145.8 38.08 136.53 38.08 136.53 38.08 136.53 38.08 135.7 38.08 135.7 38.08 135.7 38.08 135.11 38.67 135.11 38.67 135.11 38.67 130.4 43.38 130.4 43.38 130.4 43.38 129.82 43.97 129.82 43.97 129.82 43.97 129.82 44.8 129.82 44.8 129.82 44.8 129.82 57.14 129.82 57.14 129.82 57.14 129.82 59.14 129.82 59.14 129.82 59.14 131.81 59.14 131.81 59.14 131.81 59.14 145.8 59.14 145.8 59.14 145.8 59.14 147.79 59.14 147.79 59.14 147.79 59.14 147.79 57.14 147.79 57.14 147.79 57.14 147.79 40.08 147.79 40.08 147.79 40.08 147.79 38.08 147.79 38.08 147.79 38.08 147.79 38.08 147.79 38.08ZM 137.53 45.86C 137.53 45.86 131.81 45.86 131.81 45.86 131.81 45.86 131.81 43.86 131.81 43.86 131.81 43.86 135.53 43.86 135.53 43.86 135.53 43.86 135.53 40.14 135.53 40.14 135.53 40.14 137.53 40.14 137.53 40.14 137.53 40.14 137.53 45.86 137.53 45.86ZM 181.75 67.06C 181.75 67.06 181.75 84.12 181.75 84.12 181.75 84.12 167.76 84.12 167.76 84.12 167.76 84.12 167.76 71.77 167.76 71.77 167.76 71.77 172.48 67.06 172.48 67.06 172.48 67.06 181.75 67.06 181.75 67.06M 183.74 65.06C 183.74 65.06 181.75 65.06 181.75 65.06 181.75 65.06 172.48 65.06 172.48 65.06 172.48 65.06 171.65 65.06 171.65 65.06 171.65 65.06 171.06 65.64 171.06 65.64 171.06 65.64 166.35 70.36 166.35 70.36 166.35 70.36 165.77 70.94 165.77 70.94 165.77 70.94 165.77 71.77 165.77 71.77 165.77 71.77 165.77 84.12 165.77 84.12 165.77 84.12 165.77 86.11 165.77 86.11 165.77 86.11 167.76 86.11 167.76 86.11 167.76 86.11 181.75 86.11 181.75 86.11 181.75 86.11 183.74 86.11 183.74 86.11 183.74 86.11 183.74 84.12 183.74 84.12 183.74 84.12 183.74 67.06 183.74 67.06 183.74 67.06 183.74 65.06 183.74 65.06 183.74 65.06 183.74 65.06 183.74 65.06ZM 173.48 72.83C 173.48 72.83 167.76 72.83 167.76 72.83 167.76 72.83 167.76 70.84 167.76 70.84 167.76 70.84 171.48 70.84 171.48 70.84 171.48 70.84 171.48 67.12 171.48 67.12 171.48 67.12 173.48 67.12 173.48 67.12 173.48 67.12 173.48 72.83 173.48 72.83ZM 29.96 54.14C 29.96 54.14 29.96 71.2 29.96 71.2 29.96 71.2 15.98 71.2 15.98 71.2 15.98 71.2 15.98 58.86 15.98 58.86 15.98 58.86 20.69 54.14 20.69 54.14 20.69 54.14 29.96 54.14 29.96 54.14M 31.95 52.14C 31.95 52.14 29.96 52.14 29.96 52.14 29.96 52.14 20.69 52.14 20.69 52.14 20.69 52.14 19.86 52.14 19.86 52.14 19.86 52.14 19.28 52.73 19.28 52.73 19.28 52.73 14.56 57.44 14.56 57.44 14.56 57.44 13.98 58.03 13.98 58.03 13.98 58.03 13.98 58.86 13.98 58.86 13.98 58.86 13.98 71.2 13.98 71.2 13.98 71.2 13.98 73.2 13.98 73.2 13.98 73.2 15.98 73.2 15.98 73.2 15.98 73.2 29.96 73.2 29.96 73.2 29.96 73.2 31.95 73.2 31.95 73.2 31.95 73.2 31.95 71.2 31.95 71.2 31.95 71.2 31.95 54.14 31.95 54.14 31.95 54.14 31.95 52.14 31.95 52.14 31.95 52.14 31.95 52.14 31.95 52.14ZM 21.69 59.92C 21.69 59.92 15.98 59.92 15.98 59.92 15.98 59.92 15.98 57.92 15.98 57.92 15.98 57.92 19.69 57.92 19.69 57.92 19.69 57.92 19.69 54.2 19.69 54.2 19.69 54.2 21.69 54.2 21.69 54.2 21.69 54.2 21.69 59.92 21.69 59.92ZM 15.98 84.04C 15.98 84.04 15.98 101.1 15.98 101.1 15.98 101.1 1.99 101.1 1.99 101.1 1.99 101.1 1.99 88.76 1.99 88.76 1.99 88.76 6.71 84.04 6.71 84.04 6.71 84.04 15.98 84.04 15.98 84.04M 17.97 82.04C 17.97 82.04 15.98 82.04 15.98 82.04 15.98 82.04 6.71 82.04 6.71 82.04 6.71 82.04 5.88 82.04 5.88 82.04 5.88 82.04 5.29 82.63 5.29 82.63 5.29 82.63 0.58 87.34 0.58 87.34 0.58 87.34-0 87.93-0 87.93-0 87.93-0 88.76-0 88.76-0 88.76-0 101.1-0 101.1-0 101.1-0 103.1-0 103.1-0 103.1 1.99 103.1 1.99 103.1 1.99 103.1 15.98 103.1 15.98 103.1 15.98 103.1 17.97 103.1 17.97 103.1 17.97 103.1 17.97 101.1 17.97 101.1 17.97 101.1 17.97 84.04 17.97 84.04 17.97 84.04 17.97 82.04 17.97 82.04 17.97 82.04 17.97 82.04 17.97 82.04ZM 7.71 89.82C 7.71 89.82 1.99 89.82 1.99 89.82 1.99 89.82 1.99 87.82 1.99 87.82 1.99 87.82 5.71 87.82 5.71 87.82 5.71 87.82 5.71 84.1 5.71 84.1 5.71 84.1 7.71 84.1 7.71 84.1 7.71 84.1 7.71 89.82 7.71 89.82ZM 84.84 178.03C 84.84 178.03 84.84 206 84.84 206 84.84 206 61.91 206 61.91 206 61.91 206 61.91 185.76 61.91 185.76 61.91 185.76 69.64 178.03 69.64 178.03 69.64 178.03 84.84 178.03 84.84 178.03M 86.84 176.03C 86.84 176.03 84.84 176.03 84.84 176.03 84.84 176.03 69.64 176.03 69.64 176.03 69.64 176.03 68.81 176.03 68.81 176.03 68.81 176.03 68.23 176.62 68.23 176.62 68.23 176.62 60.5 184.35 60.5 184.35 60.5 184.35 59.91 184.93 59.91 184.93 59.91 184.93 59.91 185.76 59.91 185.76 59.91 185.76 59.91 206 59.91 206 59.91 206 59.91 208 59.91 208 59.91 208 61.91 208 61.91 208 61.91 208 84.84 208 84.84 208 84.84 208 86.84 208 86.84 208 86.84 208 86.84 206 86.84 206 86.84 206 86.84 178.03 86.84 178.03 86.84 178.03 86.84 176.03 86.84 176.03 86.84 176.03 86.84 176.03 86.84 176.03ZM 70.64 186.86C 70.64 186.86 61.91 186.86 61.91 186.86 61.91 186.86 61.91 184.86 61.91 184.86 61.91 184.86 68.64 184.86 68.64 184.86 68.64 184.86 68.64 178.13 68.64 178.13 68.64 178.13 70.64 178.13 70.64 178.13 70.64 178.13 70.64 186.86 70.64 186.86ZM 64.32 191.75C 64.32 191.46 64.55 191.24 64.84 191.24 64.84 191.24 66.15 191.24 66.15 191.24 67.63 191.24 68.65 192.25 68.65 193.57 68.65 193.57 68.65 193.58 68.65 193.58 68.65 194.91 67.63 195.93 66.15 195.93 66.15 195.93 64.84 195.93 64.84 195.93 64.55 195.93 64.32 195.7 64.32 195.42 64.32 195.42 64.32 191.75 64.32 191.75ZM 66.15 195C 67 195 67.57 194.43 67.57 193.6 67.57 193.6 67.57 193.58 67.57 193.58 67.57 192.75 67 192.17 66.15 192.17 66.15 192.17 65.36 192.17 65.36 192.17 65.36 192.17 65.36 195 65.36 195 65.36 195 66.15 195 66.15 195ZM 69.11 195.27C 69.11 195.27 70.74 191.57 70.74 191.57 70.86 191.32 71.07 191.16 71.35 191.16 71.35 191.16 71.41 191.16 71.41 191.16 71.69 191.16 71.89 191.32 72 191.57 72 191.57 73.64 195.27 73.64 195.27 73.67 195.34 73.69 195.41 73.69 195.48 73.69 195.75 73.48 195.97 73.2 195.97 72.96 195.97 72.8 195.83 72.71 195.62 72.71 195.62 72.39 194.88 72.39 194.88 72.39 194.88 70.33 194.88 70.33 194.88 70.33 194.88 70 195.65 70 195.65 69.91 195.85 69.74 195.97 69.52 195.97 69.26 195.97 69.05 195.76 69.05 195.49 69.05 195.42 69.07 195.34 69.11 195.27ZM 72.01 193.97C 72.01 193.97 71.36 192.42 71.36 192.42 71.36 192.42 70.71 193.97 70.71 193.97 70.71 193.97 72.01 193.97 72.01 193.97ZM 75.1 192.19C 75.1 192.19 74.11 192.19 74.11 192.19 73.85 192.19 73.63 191.97 73.63 191.71 73.63 191.45 73.85 191.24 74.11 191.24 74.11 191.24 77.12 191.24 77.12 191.24 77.39 191.24 77.6 191.45 77.6 191.71 77.6 191.97 77.39 192.19 77.12 192.19 77.12 192.19 76.13 192.19 76.13 192.19 76.13 192.19 76.13 195.46 76.13 195.46 76.13 195.74 75.9 195.97 75.62 195.97 75.33 195.97 75.1 195.74 75.1 195.46 75.1 195.46 75.1 192.19 75.1 192.19ZM 77.59 195.27C 77.59 195.27 79.23 191.57 79.23 191.57 79.34 191.32 79.55 191.16 79.83 191.16 79.83 191.16 79.89 191.16 79.89 191.16 80.17 191.16 80.37 191.32 80.49 191.57 80.49 191.57 82.12 195.27 82.12 195.27 82.16 195.34 82.18 195.41 82.18 195.48 82.18 195.75 81.96 195.97 81.69 195.97 81.45 195.97 81.28 195.83 81.19 195.62 81.19 195.62 80.88 194.88 80.88 194.88 80.88 194.88 78.81 194.88 78.81 194.88 78.81 194.88 78.48 195.65 78.48 195.65 78.4 195.85 78.22 195.97 78.01 195.97 77.74 195.97 77.53 195.76 77.53 195.49 77.53 195.42 77.56 195.34 77.59 195.27ZM 80.49 193.97C 80.49 193.97 79.84 192.42 79.84 192.42 79.84 192.42 79.19 193.97 79.19 193.97 79.19 193.97 80.49 193.97 80.49 193.97Z" fill="rgb(0,113,255)"/></svg>