<?xml version="1.0" encoding="utf-8"?>
<svg xmlns="http://www.w3.org/2000/svg"
	xmlns:xlink="http://www.w3.org/1999/xlink"
	width="171px" height="180px" viewBox="0 0 171 180">
<path fillRule="evenodd" d="M 41.8 97.65C 41.09 97.65 40.46 97.14 40.33 96.41 40.18 95.6 40.73 94.82 41.54 94.67 43.17 94.39 44.26 92.83 43.97 91.2 43.68 89.57 42.11 88.47 40.5 88.77 40.5 88.77 39.03 89.03 39.03 89.03 39.03 89.03 34.89 65.49 34.89 65.49 34.74 64.68 35.29 63.9 36.1 63.75 36.91 63.61 37.69 64.15 37.84 64.97 37.84 64.97 41.49 85.74 41.49 85.74 44.14 85.95 46.43 87.93 46.92 90.68 47.49 93.94 45.31 97.05 42.06 97.63 41.97 97.65 41.89 97.65 41.8 97.65ZM 8.06 103.12C 6.54 103.12 5.06 102.65 3.79 101.76 2.15 100.61 1.06 98.89 0.71 96.92-0.01 92.84 2.72 88.95 6.78 88.23 7.92 88.03 9.06 88.09 10.16 88.41 10.95 88.64 11.41 89.47 11.18 90.27 10.95 91.06 10.12 91.52 9.32 91.29 8.66 91.1 7.98 91.06 7.3 91.18 4.86 91.61 3.23 93.95 3.66 96.4 4.09 98.84 6.43 100.48 8.86 100.05 9.66 99.9 10.4 99.55 11.01 99.03 11.63 98.48 12.58 98.55 13.12 99.18 13.66 99.81 13.59 100.76 12.96 101.3 11.95 102.18 10.71 102.76 9.38 103 8.94 103.08 8.5 103.12 8.06 103.12ZM 73.3 91.59C 72.4 91.59 71.5 91.42 70.66 91.1 69.88 90.81 69.49 89.94 69.79 89.17 70.08 88.39 70.95 88 71.72 88.3 72.47 88.58 73.29 88.66 74.09 88.52 75.27 88.31 76.3 87.65 76.98 86.67 77.67 85.68 77.94 84.49 77.73 83.3 77.52 82.12 76.86 81.09 75.88 80.4 74.9 79.71 73.71 79.44 72.53 79.65 71.84 79.77 71.22 80.04 70.66 80.45 70 80.94 69.06 80.79 68.57 80.12 68.08 79.45 68.23 78.52 68.89 78.03 69.82 77.35 70.87 76.9 72.01 76.7 73.97 76.35 75.96 76.79 77.6 77.94 79.24 79.09 80.33 80.81 80.68 82.78 81.02 84.75 80.58 86.75 79.44 88.39 78.29 90.03 76.57 91.12 74.61 91.47 74.17 91.55 73.74 91.59 73.3 91.59ZM 41.77 126.85C 26.9 126.85 14.22 116.19 11.64 101.49 11.64 101.49 6.61 72.9 6.61 72.9 6 69.42 5.98 65.91 6.56 62.48 7.09 59.31 8.12 56.25 9.61 53.39 10.76 51.17 12.18 49.1 13.83 47.23 15.41 45.43 17.2 43.82 19.16 42.44 21.06 41.1 23.12 39.97 25.28 39.1 27.25 38.3 29.33 37.7 31.45 37.33 33.57 36.96 35.74 36.8 37.87 36.87 39.75 36.94 41.65 37.19 43.52 37.61 43.93 37.7 44.35 37.81 44.76 37.93 47.05 38.54 49.28 39.44 51.4 40.59 53.59 41.79 55.63 43.25 57.47 44.93 60.52 47.73 62.93 51.06 64.64 54.82 65.71 57.19 66.48 59.68 66.93 62.23 66.93 62.23 71.96 90.82 71.96 90.82 73.38 98.9 71.58 107.04 66.89 113.76 62.19 120.48 55.17 124.96 47.12 126.38 45.35 126.7 43.55 126.85 41.77 126.85ZM 36.84 39.86C 35.21 39.86 33.58 40 31.97 40.28 30.06 40.62 28.19 41.16 26.4 41.89 24.45 42.67 22.6 43.68 20.88 44.9 19.11 46.14 17.5 47.59 16.08 49.21 14.58 50.9 13.3 52.77 12.26 54.78 10.91 57.36 9.99 60.12 9.51 62.97 8.99 66.07 9.01 69.24 9.56 72.37 9.56 72.37 14.59 100.96 14.59 100.96 16.92 114.23 28.35 123.85 41.77 123.85 43.38 123.85 45 123.71 46.6 123.43 53.87 122.14 60.2 118.1 64.43 112.04 68.67 105.98 70.29 98.63 69.01 91.34 69.01 91.34 63.98 62.75 63.98 62.75 63.58 60.45 62.88 58.2 61.92 56.07 60.38 52.67 58.2 49.67 55.44 47.15 53.79 45.63 51.95 44.31 49.97 43.23 48.06 42.19 46.04 41.38 43.98 40.82 43.6 40.72 43.24 40.62 42.87 40.54 41.17 40.16 39.46 39.93 37.76 39.87 37.46 39.86 37.15 39.86 36.84 39.86ZM 43 114.52C 37.54 114.52 32.68 110.58 31.7 105.01 31.7 105.01 31.17 102.02 31.17 102.02 31.17 102.02 33.86 103.41 33.86 103.41 33.9 103.44 38.62 105.83 43.12 105.03 47.44 104.26 49.39 101.45 49.47 101.33 49.93 100.65 50.86 100.46 51.55 100.92 52.23 101.38 52.42 102.3 51.97 102.99 51.86 103.15 49.28 106.99 43.64 107.98 40.71 108.5 37.8 107.96 35.69 107.33 37.44 110.29 40.89 112.02 44.48 111.39 45.29 111.25 46.07 111.79 46.22 112.6 46.36 113.42 45.81 114.2 45 114.34 44.33 114.46 43.66 114.52 43 114.52ZM 24.08 91.58C 18.68 91.58 14.08 87.71 13.14 82.37 12.08 76.32 16.12 70.54 22.16 69.47 22.8 69.36 23.45 69.3 24.1 69.3 29.49 69.3 34.09 73.17 35.03 78.5 36.09 84.55 32.05 90.34 26.02 91.41 25.37 91.52 24.72 91.58 24.08 91.58ZM 24.1 72.3C 23.62 72.3 23.15 72.34 22.68 72.42 18.27 73.2 15.31 77.43 16.09 81.85 16.78 85.75 20.13 88.58 24.08 88.58 24.55 88.58 25.03 88.54 25.5 88.45 29.91 87.67 32.86 83.44 32.08 79.03 31.4 75.13 28.04 72.3 24.1 72.3ZM 26.19 80.07C 26.4 81.23 25.62 82.34 24.46 82.55 23.3 82.75 22.19 81.98 21.98 80.81 21.78 79.65 22.55 78.54 23.72 78.33 24.88 78.12 25.99 78.9 26.19 80.07ZM 50.98 75.69C 51.19 76.85 52.29 77.63 53.46 77.42 54.62 77.22 55.39 76.11 55.19 74.94 54.98 73.78 53.88 73 52.71 73.2 51.55 73.41 50.78 74.52 50.98 75.69ZM 53.07 86.45C 53.07 86.45 53.07 86.45 53.07 86.45 47.68 86.45 43.08 82.58 42.14 77.25 41.08 71.2 45.12 65.41 51.16 64.34 51.8 64.23 52.45 64.17 53.1 64.17 58.49 64.17 63.09 68.04 64.03 73.38 64.54 76.31 63.89 79.27 62.19 81.7 60.49 84.14 57.94 85.77 55.02 86.28 54.37 86.4 53.72 86.45 53.07 86.45ZM 53.1 67.17C 52.62 67.17 52.15 67.21 51.68 67.3 47.27 68.08 44.31 72.31 45.09 76.73 45.78 80.63 49.13 83.45 53.07 83.45 53.07 83.45 53.07 83.45 53.07 83.45 53.55 83.45 54.02 83.41 54.5 83.33 56.63 82.95 58.49 81.76 59.74 79.98 60.98 78.2 61.46 76.04 61.08 73.9 60.4 70 57.04 67.17 53.1 67.17ZM 33.41 79.68C 32.7 79.68 32.07 79.17 31.94 78.44 31.31 74.83 33.72 71.37 37.33 70.73 39.08 70.42 40.84 70.81 42.29 71.83 43.74 72.85 44.72 74.38 45.02 76.13 45.17 76.94 44.62 77.72 43.81 77.87 43 78.01 42.22 77.47 42.07 76.65 41.91 75.69 41.37 74.85 40.57 74.29 39.78 73.73 38.81 73.51 37.85 73.68 35.87 74.03 34.54 75.93 34.89 77.92 35.03 78.74 34.49 79.51 33.67 79.66 33.59 79.67 33.5 79.68 33.41 79.68ZM 62.55 75.14C 61.84 75.14 61.21 74.63 61.08 73.9 60.94 73.08 61.48 72.31 62.3 72.16 62.3 72.16 69.81 70.84 69.81 70.84 70.62 70.69 71.4 71.24 71.54 72.05 71.68 72.87 71.14 73.65 70.33 73.79 70.33 73.79 62.82 75.12 62.82 75.12 62.73 75.13 62.64 75.14 62.55 75.14ZM 7.1 84.94C 6.39 84.94 5.76 84.43 5.63 83.7 5.49 82.88 6.03 82.11 6.85 81.96 6.85 81.96 14.36 80.63 14.36 80.63 15.17 80.49 15.95 81.04 16.09 81.85 16.23 82.67 15.69 83.45 14.88 83.59 14.88 83.59 7.37 84.92 7.37 84.92 7.28 84.93 7.19 84.94 7.1 84.94ZM 31.71 46.44C 28.34 46.44 25.33 44.17 24.4 40.91 24.4 40.91 24.03 39.61 24.03 39.61 24.03 39.61 25.27 39.11 25.27 39.11 27.25 38.3 29.33 37.7 31.45 37.33 33.57 36.96 35.74 36.8 37.87 36.87 37.87 36.87 39.22 36.92 39.22 36.92 39.22 36.92 39.31 38.27 39.31 38.27 39.59 42.18 36.89 45.64 33.04 46.32 32.6 46.4 32.15 46.44 31.71 46.44ZM 27.85 41.34C 28.83 42.84 30.68 43.69 32.52 43.37 34.39 43.04 35.81 41.63 36.22 39.86 34.8 39.9 33.37 40.04 31.97 40.28 30.57 40.53 29.19 40.89 27.85 41.34ZM 31.7 53C 25.96 53 20.83 49.56 18.64 44.24 18.64 44.24 18.18 43.14 18.18 43.14 18.18 43.14 19.16 42.44 19.16 42.44 21.06 41.1 23.12 39.97 25.28 39.1 27.25 38.3 29.33 37.7 31.45 37.33 33.57 36.96 35.74 36.8 37.87 36.87 39.75 36.94 41.65 37.19 43.52 37.61 43.93 37.7 44.35 37.81 44.76 37.93 44.76 37.93 45.91 38.24 45.91 38.24 45.91 38.24 45.86 39.44 45.86 39.44 45.58 46.02 40.67 51.64 34.17 52.79 33.36 52.93 32.53 53 31.7 53ZM 21.92 44.19C 23.86 47.76 27.58 50 31.7 50 32.35 50 33.01 49.95 33.65 49.83 38.37 49 42.03 45.17 42.75 40.51 41.09 40.15 39.42 39.93 37.76 39.87 35.88 39.81 33.88 39.95 31.97 40.28 30.06 40.62 28.19 41.16 26.4 41.89 24.84 42.51 23.34 43.29 21.92 44.19ZM 31.69 59.58C 24.21 59.58 17.3 55.5 13.65 48.95 13.65 48.95 13.13 48.03 13.13 48.03 13.13 48.03 13.83 47.23 13.83 47.23 15.41 45.43 17.2 43.82 19.16 42.44 21.06 41.1 23.12 39.97 25.28 39.1 27.25 38.3 29.33 37.7 31.45 37.33 33.57 36.96 35.74 36.8 37.87 36.87 39.75 36.94 41.65 37.19 43.52 37.61 43.93 37.7 44.35 37.81 44.76 37.93 47.05 38.54 49.28 39.44 51.4 40.59 51.4 40.59 52.33 41.1 52.33 41.1 52.33 41.1 52.16 42.15 52.16 42.15 50.75 50.85 43.98 57.72 35.31 59.26 34.12 59.47 32.9 59.58 31.69 59.58ZM 16.81 48.41C 20.05 53.47 25.66 56.58 31.69 56.58 32.73 56.58 33.77 56.48 34.79 56.3 41.85 55.05 47.44 49.66 49 42.73 47.38 41.92 45.7 41.28 43.98 40.82 43.6 40.72 43.24 40.62 42.87 40.54 41.17 40.16 39.46 39.93 37.76 39.87 35.88 39.81 33.88 39.95 31.97 40.28 30.06 40.62 28.19 41.16 26.4 41.89 24.45 42.67 22.6 43.68 20.88 44.9 19.41 45.93 18.04 47.11 16.81 48.41ZM 31.69 66.14C 23.06 66.14 14.85 61.97 9.73 54.97 9.73 54.97 9.18 54.22 9.18 54.22 9.18 54.22 9.61 53.39 9.61 53.39 10.76 51.17 12.18 49.1 13.83 47.23 15.41 45.43 17.2 43.82 19.16 42.44 21.06 41.1 23.12 39.97 25.28 39.1 27.25 38.3 29.33 37.7 31.45 37.33 33.57 36.96 35.74 36.8 37.87 36.87 39.75 36.94 41.65 37.19 43.52 37.61 43.93 37.7 44.35 37.81 44.76 37.93 47.05 38.54 49.28 39.44 51.4 40.59 53.59 41.79 55.63 43.25 57.47 44.93 57.47 44.93 58.15 45.56 58.15 45.56 58.15 45.56 57.89 46.46 57.89 46.46 54.96 56.52 46.74 63.9 36.45 65.72 34.88 66 33.27 66.14 31.69 66.14ZM 12.71 53.94C 17.3 59.72 24.32 63.14 31.69 63.14 33.1 63.14 34.53 63.01 35.93 62.77 44.78 61.2 51.91 55.01 54.74 46.52 53.27 45.26 51.67 44.16 49.97 43.23 48.06 42.19 46.04 41.38 43.98 40.82 43.6 40.72 43.24 40.62 42.87 40.54 41.17 40.16 39.46 39.93 37.76 39.87 35.88 39.81 33.88 39.95 31.97 40.28 30.06 40.62 28.19 41.16 26.4 41.89 24.45 42.67 22.6 43.68 20.88 44.9 19.11 46.14 17.5 47.59 16.08 49.21 14.79 50.67 13.66 52.25 12.71 53.94ZM 128.09 104.1C 127.75 104.1 127.4 104.07 127.05 104.01 126.23 103.87 125.69 103.09 125.83 102.27 125.98 101.46 126.75 100.91 127.57 101.05 129.18 101.35 130.75 100.25 131.03 98.62 131.32 96.99 130.23 95.43 128.61 95.15 128.61 95.15 127.13 94.89 127.13 94.89 127.13 94.89 129.21 83.07 129.21 83.07 129.36 82.25 130.14 81.71 130.95 81.85 131.76 82 132.3 82.77 132.16 83.59 132.16 83.59 130.57 92.64 130.57 92.64 132.99 93.75 134.47 96.39 133.98 99.14 133.47 102.05 130.94 104.1 128.09 104.1ZM 126.9 113.33C 123.24 113.19 120.47 110.21 119.23 107.02 119.23 107.02 124.37 109.27 127.71 108.75 131.05 108.22 132.63 113.54 126.9 113.33ZM 95.32 92.7C 94.89 92.7 94.45 92.66 94.02 92.59 92.05 92.24 90.33 91.14 89.19 89.5 88.04 87.86 87.6 85.87 87.95 83.9 88.3 81.92 89.39 80.21 91.03 79.06 92.66 77.91 94.65 77.47 96.62 77.81 97.75 78.01 98.8 78.46 99.73 79.14 100.4 79.63 100.54 80.57 100.05 81.24 99.57 81.91 98.63 82.05 97.96 81.56 97.41 81.16 96.78 80.89 96.1 80.77 94.92 80.56 93.73 80.82 92.74 81.51 91.76 82.2 91.1 83.24 90.9 84.42 90.69 85.6 90.95 86.8 91.64 87.78 92.33 88.77 93.36 89.42 94.54 89.63 95.33 89.77 96.15 89.7 96.91 89.41 97.68 89.12 98.54 89.51 98.84 90.28 99.13 91.05 98.74 91.92 97.97 92.21 97.12 92.54 96.22 92.7 95.32 92.7ZM 163.3 104.71C 162.86 104.71 162.42 104.68 161.98 104.6 160.66 104.37 159.41 103.78 158.4 102.9 157.77 102.35 157.7 101.41 158.24 100.78 158.78 100.15 159.73 100.08 160.35 100.62 160.96 101.15 161.71 101.5 162.5 101.64 163.68 101.86 164.87 101.59 165.86 100.9 166.84 100.21 167.5 99.18 167.7 97.99 167.91 96.81 167.65 95.62 166.96 94.63 166.27 93.65 165.24 92.99 164.06 92.78 163.38 92.66 162.7 92.7 162.04 92.89 161.25 93.12 160.41 92.66 160.18 91.87 159.95 91.07 160.41 90.24 161.2 90.01 162.31 89.69 163.45 89.63 164.58 89.83 166.55 90.17 168.26 91.27 169.41 92.91 170.56 94.55 171 96.54 170.65 98.52 170.3 100.49 169.21 102.21 167.57 103.36 166.3 104.25 164.82 104.71 163.3 104.71ZM 125.03 122.71C 125.03 122.71 125.03 122.71 125.03 122.71 123.44 122.71 121.87 122.18 120.6 121.23 112.63 115.22 94.36 99.67 96.94 85.02 96.94 85.02 98.47 76.32 98.47 76.32 101.3 60.23 114.99 48.55 131.03 48.55 132.73 48.55 134.44 48.69 136.13 48.96 144.92 50.36 152.61 55.13 157.77 62.39 162.94 69.65 164.93 78.49 163.39 87.27 163.39 87.27 161.77 96.48 161.77 96.48 159.19 111.13 136.72 119.48 127.17 122.39 126.48 122.6 125.75 122.71 125.03 122.71ZM 131.03 51.55C 116.45 51.55 103.99 62.19 101.41 76.85 101.41 76.85 99.88 85.54 99.88 85.54 97.53 98.92 116.52 114.4 122.4 118.83 123.16 119.4 124.07 119.71 125.03 119.71 125.03 119.71 125.03 119.71 125.03 119.71 125.46 119.71 125.89 119.64 126.3 119.52 133.34 117.37 156.47 109.33 158.82 95.96 158.82 95.96 160.44 86.75 160.44 86.75 161.84 78.77 160.03 70.73 155.34 64.13 150.64 57.53 143.66 53.2 135.66 51.92 134.13 51.68 132.57 51.55 131.03 51.55ZM 161.97 85.5C 161.97 85.5 100.55 74.65 100.55 74.65 100.55 74.65 101.07 71.69 101.07 71.69 101.07 71.69 162.49 82.55 162.49 82.55 162.49 82.55 161.97 85.5 161.97 85.5ZM 111.12 75.95C 110.97 75.95 110.83 75.93 110.68 75.88 109.89 75.64 109.45 74.8 109.69 74.01 112.66 64.34 124.41 47.31 136.27 49.18 137.09 49.31 137.65 50.08 137.52 50.9 137.39 51.72 136.62 52.28 135.8 52.15 126.78 50.72 115.67 64.74 112.55 74.89 112.35 75.53 111.76 75.95 111.12 75.95ZM 121.36 77.73C 121.21 77.73 121.06 77.7 120.92 77.66 120.13 77.42 119.68 76.58 119.93 75.78 120.63 73.49 123.05 66.8 126.04 60.72 131.34 49.95 134.5 49.11 136.42 49.41 137.23 49.54 137.79 50.31 137.66 51.13 137.53 51.95 136.76 52.51 135.95 52.37 133.03 51.9 125.7 67.19 122.79 76.67 122.59 77.31 122 77.73 121.36 77.73ZM 151.69 83.12C 151.67 83.12 151.64 83.12 151.62 83.12 150.79 83.08 150.16 82.37 150.2 81.55 150.73 70.93 145.05 53.94 136.11 52.2 135.29 52.04 134.76 51.26 134.92 50.44 135.08 49.63 135.86 49.1 136.68 49.26 148.47 51.54 153.7 71.59 153.19 81.7 153.15 82.5 152.49 83.12 151.69 83.12ZM 141.47 81.28C 141.44 81.28 141.42 81.28 141.39 81.28 140.57 81.24 139.93 80.53 139.97 79.71 140.69 65.45 137.98 52.77 135.9 52.37 135.08 52.21 134.55 51.42 134.71 50.61 134.87 49.79 135.65 49.26 136.46 49.42 138.37 49.79 141.05 51.66 142.36 63.61 143.09 70.34 143.08 77.46 142.96 79.86 142.92 80.66 142.26 81.28 141.47 81.28ZM 131.6 79.5C 131.51 79.5 131.42 79.5 131.33 79.48 130.52 79.34 129.98 78.56 130.12 77.74 130.12 77.74 134.85 50.86 134.85 50.86 134.99 50.04 135.77 49.5 136.58 49.64 137.4 49.79 137.94 50.56 137.8 51.38 137.8 51.38 133.07 78.26 133.07 78.26 132.94 78.99 132.31 79.5 131.6 79.5ZM 152.23 57.78C 152.23 57.78 149.5 56.55 149.5 56.55 150 55.43 150.36 54.24 150.57 53.03 151.27 49.1 150.39 45.14 148.1 41.87 145.82 38.6 142.4 36.42 138.48 35.73 134.56 35.04 130.61 35.92 127.35 38.2 124.09 40.49 121.92 43.91 121.22 47.84 120.97 49.27 120.93 50.69 121.09 52.09 121.09 52.09 118.12 52.43 118.12 52.43 117.92 50.75 117.98 49.03 118.28 47.32 119.11 42.6 121.72 38.49 125.63 35.75 129.55 33 134.3 31.95 139 32.78 143.71 33.61 147.81 36.23 150.56 40.15 153.3 44.07 154.35 48.83 153.52 53.55 153.27 55.01 152.83 56.43 152.23 57.78ZM 135.9 51.94C 135.81 51.94 135.72 51.93 135.64 51.92 134.82 51.77 134.28 51 134.42 50.18 134.42 50.18 137.27 33.99 137.27 33.99 137.41 33.18 138.2 32.63 139 32.78 139.82 32.92 140.36 33.7 140.22 34.51 140.22 34.51 137.37 50.7 137.37 50.7 137.24 51.43 136.61 51.94 135.9 51.94ZM 135.9 51.94C 135.43 51.94 134.96 51.72 134.67 51.3 134.2 50.62 134.36 49.69 135.04 49.21 135.04 49.21 148.46 39.79 148.46 39.79 149.13 39.32 150.07 39.48 150.54 40.16 151.01 40.84 150.85 41.78 150.17 42.25 150.17 42.25 136.76 51.67 136.76 51.67 136.49 51.85 136.19 51.94 135.9 51.94ZM 135.9 51.94C 135.43 51.94 134.96 51.72 134.67 51.3 134.67 51.3 125.27 37.84 125.27 37.84 124.79 37.16 124.96 36.22 125.63 35.75 126.31 35.27 127.24 35.44 127.72 36.12 127.72 36.12 137.12 49.58 137.12 49.58 137.6 50.26 137.43 51.19 136.76 51.67 136.49 51.85 136.19 51.94 135.9 51.94ZM 117.43 89.86C 117.34 89.86 117.25 89.86 117.16 89.84 116.35 89.7 115.81 88.92 115.95 88.1 116.11 87.18 115.91 86.25 115.37 85.49 114.84 84.72 114.04 84.21 113.12 84.05 111.23 83.71 109.41 84.99 109.07 86.89 108.93 87.7 108.15 88.25 107.34 88.1 106.52 87.96 105.98 87.18 106.12 86.37 106.75 82.84 110.11 80.48 113.64 81.09 115.34 81.4 116.83 82.34 117.82 83.77 118.82 85.19 119.2 86.91 118.9 88.62 118.77 89.35 118.14 89.86 117.43 89.86ZM 150.83 95.77C 150.74 95.77 150.66 95.76 150.57 95.75 149.75 95.6 149.21 94.82 149.35 94.01 149.52 93.09 149.31 92.16 148.78 91.39 148.24 90.63 147.44 90.12 146.52 89.95 145.6 89.79 144.67 90 143.91 90.53 143.15 91.07 142.64 91.87 142.48 92.79 142.33 93.61 141.56 94.15 140.74 94.01 139.93 93.86 139.39 93.09 139.53 92.27 139.83 90.56 140.78 89.07 142.2 88.08 143.61 87.08 145.33 86.7 147.04 87 148.75 87.3 150.23 88.25 151.23 89.67 152.22 91.09 152.6 92.82 152.3 94.53 152.17 95.26 151.54 95.77 150.83 95.77ZM 55.56 136C 55.56 136 55.56 169.85 55.56 169.85 55.56 169.85 27.88 169.85 27.88 169.85 27.88 169.85 27.88 145.35 27.88 145.35 27.88 145.35 37.21 136 37.21 136 37.21 136 55.56 136 55.56 136M 57.59 133.97C 57.59 133.97 55.56 133.97 55.56 133.97 55.56 133.97 37.21 133.97 37.21 133.97 37.21 133.97 36.37 133.97 36.37 133.97 36.37 133.97 35.78 134.56 35.78 134.56 35.78 134.56 26.44 143.92 26.44 143.92 26.44 143.92 25.85 144.51 25.85 144.51 25.85 144.51 25.85 145.35 25.85 145.35 25.85 145.35 25.85 169.85 25.85 169.85 25.85 169.85 25.85 171.88 25.85 171.88 25.85 171.88 27.88 171.88 27.88 171.88 27.88 171.88 55.56 171.88 55.56 171.88 55.56 171.88 57.59 171.88 57.59 171.88 57.59 171.88 57.59 169.85 57.59 169.85 57.59 169.85 57.59 136 57.59 136 57.59 136 57.59 133.97 57.59 133.97 57.59 133.97 57.59 133.97 57.59 133.97ZM 38.22 146.49C 38.22 146.49 27.88 146.49 27.88 146.49 27.88 146.49 27.88 144.46 27.88 144.46 27.88 144.46 36.2 144.46 36.2 144.46 36.2 144.46 36.2 136.12 36.2 136.12 36.2 136.12 38.22 136.12 38.22 136.12 38.22 136.12 38.22 146.49 38.22 146.49ZM 30.79 152.6C 30.79 152.26 31.07 151.98 31.41 151.98 31.41 151.98 33 151.98 33 151.98 34.78 151.98 36.02 153.21 36.02 154.8 36.02 154.8 36.02 154.82 36.02 154.82 36.02 156.42 34.78 157.66 33 157.66 33 157.66 31.41 157.66 31.41 157.66 31.07 157.66 30.79 157.39 30.79 157.04 30.79 157.04 30.79 152.6 30.79 152.6ZM 33 156.53C 34.02 156.53 34.71 155.84 34.71 154.84 34.71 154.84 34.71 154.82 34.71 154.82 34.71 153.81 34.02 153.11 33 153.11 33 153.11 32.04 153.11 32.04 153.11 32.04 153.11 32.04 156.53 32.04 156.53 32.04 156.53 33 156.53 33 156.53ZM 36.57 156.86C 36.57 156.86 38.55 152.39 38.55 152.39 38.68 152.08 38.93 151.89 39.27 151.89 39.27 151.89 39.35 151.89 39.35 151.89 39.69 151.89 39.93 152.08 40.07 152.39 40.07 152.39 42.04 156.86 42.04 156.86 42.08 156.95 42.11 157.03 42.11 157.11 42.11 157.44 41.85 157.71 41.52 157.71 41.23 157.71 41.03 157.54 40.92 157.28 40.92 157.28 40.54 156.39 40.54 156.39 40.54 156.39 38.04 156.39 38.04 156.39 38.04 156.39 37.65 157.32 37.65 157.32 37.54 157.56 37.33 157.71 37.07 157.71 36.75 157.71 36.5 157.45 36.5 157.13 36.5 157.04 36.53 156.95 36.57 156.86ZM 40.08 155.28C 40.08 155.28 39.29 153.41 39.29 153.41 39.29 153.41 38.51 155.28 38.51 155.28 38.51 155.28 40.08 155.28 40.08 155.28ZM 43.81 153.13C 43.81 153.13 42.61 153.13 42.61 153.13 42.29 153.13 42.03 152.87 42.03 152.56 42.03 152.24 42.29 151.98 42.61 151.98 42.61 151.98 46.25 151.98 46.25 151.98 46.57 151.98 46.83 152.24 46.83 152.56 46.83 152.87 46.57 153.13 46.25 153.13 46.25 153.13 45.05 153.13 45.05 153.13 45.05 153.13 45.05 157.09 45.05 157.09 45.05 157.43 44.78 157.71 44.43 157.71 44.08 157.71 43.81 157.43 43.81 157.09 43.81 157.09 43.81 153.13 43.81 153.13ZM 46.81 156.86C 46.81 156.86 48.79 152.39 48.79 152.39 48.93 152.08 49.18 151.89 49.52 151.89 49.52 151.89 49.59 151.89 49.59 151.89 49.93 151.89 50.17 152.08 50.31 152.39 50.31 152.39 52.29 156.86 52.29 156.86 52.33 156.95 52.35 157.03 52.35 157.11 52.35 157.44 52.09 157.71 51.76 157.71 51.47 157.71 51.27 157.54 51.16 157.28 51.16 157.28 50.78 156.39 50.78 156.39 50.78 156.39 48.29 156.39 48.29 156.39 48.29 156.39 47.89 157.32 47.89 157.32 47.78 157.56 47.57 157.71 47.31 157.71 46.99 157.71 46.74 157.45 46.74 157.13 46.74 157.04 46.77 156.95 46.81 156.86ZM 50.32 155.28C 50.32 155.28 49.53 153.41 49.53 153.41 49.53 153.41 48.75 155.28 48.75 155.28 48.75 155.28 50.32 155.28 50.32 155.28ZM 63.67 142.09C 63.67 142.09 60.29 142.09 60.29 142.09 60.29 142.09 60.29 144.12 60.29 144.12 60.29 144.12 63.67 144.12 63.67 144.12 63.67 144.12 63.67 177.97 63.67 177.97 63.67 177.97 35.98 177.97 35.98 177.97 35.98 177.97 35.98 174.58 35.98 174.58 35.98 174.58 33.95 174.58 33.95 174.58 33.95 174.58 33.95 177.97 33.95 177.97 33.95 177.97 33.95 180 33.95 180 33.95 180 35.98 180 35.98 180 35.98 180 63.67 180 63.67 180 63.67 180 65.69 180 65.69 180 65.69 180 65.69 177.97 65.69 177.97 65.69 177.97 65.69 144.12 65.69 144.12 65.69 144.12 65.69 142.09 65.69 142.09 65.69 142.09 63.67 142.09 63.67 142.09ZM 59.62 138.03C 59.62 138.03 56.24 138.03 56.24 138.03 56.24 138.03 56.24 140.06 56.24 140.06 56.24 140.06 59.62 140.06 59.62 140.06 59.62 140.06 59.62 173.91 59.62 173.91 59.62 173.91 31.93 173.91 31.93 173.91 31.93 173.91 31.93 170.52 31.93 170.52 31.93 170.52 29.9 170.52 29.9 170.52 29.9 170.52 29.9 173.91 29.9 173.91 29.9 173.91 29.9 175.94 29.9 175.94 29.9 175.94 31.93 175.94 31.93 175.94 31.93 175.94 59.62 175.94 59.62 175.94 59.62 175.94 61.64 175.94 61.64 175.94 61.64 175.94 61.64 173.91 61.64 173.91 61.64 173.91 61.64 140.06 61.64 140.06 61.64 140.06 61.64 138.03 61.64 138.03 61.64 138.03 59.62 138.03 59.62 138.03ZM 98.11 136C 98.11 136 98.11 169.85 98.11 169.85 98.11 169.85 70.42 169.85 70.42 169.85 70.42 169.85 70.42 145.35 70.42 145.35 70.42 145.35 79.75 136 79.75 136 79.75 136 98.11 136 98.11 136M 100.14 133.97C 100.14 133.97 98.11 133.97 98.11 133.97 98.11 133.97 79.75 133.97 79.75 133.97 79.75 133.97 78.92 133.97 78.92 133.97 78.92 133.97 78.32 134.56 78.32 134.56 78.32 134.56 68.99 143.92 68.99 143.92 68.99 143.92 68.4 144.51 68.4 144.51 68.4 144.51 68.4 145.35 68.4 145.35 68.4 145.35 68.4 169.85 68.4 169.85 68.4 169.85 68.4 171.88 68.4 171.88 68.4 171.88 70.42 171.88 70.42 171.88 70.42 171.88 98.11 171.88 98.11 171.88 98.11 171.88 100.14 171.88 100.14 171.88 100.14 171.88 100.14 169.85 100.14 169.85 100.14 169.85 100.14 136 100.14 136 100.14 136 100.14 133.97 100.14 133.97 100.14 133.97 100.14 133.97 100.14 133.97ZM 80.77 146.49C 80.77 146.49 70.42 146.49 70.42 146.49 70.42 146.49 70.42 144.46 70.42 144.46 70.42 144.46 78.74 144.46 78.74 144.46 78.74 144.46 78.74 136.12 78.74 136.12 78.74 136.12 80.77 136.12 80.77 136.12 80.77 136.12 80.77 146.49 80.77 146.49ZM 73.34 152.6C 73.34 152.26 73.61 151.98 73.96 151.98 73.96 151.98 75.55 151.98 75.55 151.98 77.33 151.98 78.56 153.21 78.56 154.8 78.56 154.8 78.56 154.82 78.56 154.82 78.56 156.42 77.33 157.66 75.55 157.66 75.55 157.66 73.96 157.66 73.96 157.66 73.61 157.66 73.34 157.39 73.34 157.04 73.34 157.04 73.34 152.6 73.34 152.6ZM 75.55 156.53C 76.57 156.53 77.26 155.84 77.26 154.84 77.26 154.84 77.26 154.82 77.26 154.82 77.26 153.81 76.57 153.11 75.55 153.11 75.55 153.11 74.58 153.11 74.58 153.11 74.58 153.11 74.58 156.53 74.58 156.53 74.58 156.53 75.55 156.53 75.55 156.53ZM 79.11 156.86C 79.11 156.86 81.09 152.39 81.09 152.39 81.23 152.08 81.48 151.89 81.82 151.89 81.82 151.89 81.89 151.89 81.89 151.89 82.23 151.89 82.47 152.08 82.61 152.39 82.61 152.39 84.59 156.86 84.59 156.86 84.63 156.95 84.65 157.03 84.65 157.11 84.65 157.44 84.39 157.71 84.06 157.71 83.77 157.71 83.58 157.54 83.46 157.28 83.46 157.28 83.08 156.39 83.08 156.39 83.08 156.39 80.59 156.39 80.59 156.39 80.59 156.39 80.19 157.32 80.19 157.32 80.09 157.56 79.87 157.71 79.62 157.71 79.29 157.71 79.04 157.45 79.04 157.13 79.04 157.04 79.07 156.95 79.11 156.86ZM 82.62 155.28C 82.62 155.28 81.83 153.41 81.83 153.41 81.83 153.41 81.05 155.28 81.05 155.28 81.05 155.28 82.62 155.28 82.62 155.28ZM 86.35 153.13C 86.35 153.13 85.15 153.13 85.15 153.13 84.84 153.13 84.58 152.87 84.58 152.56 84.58 152.24 84.84 151.98 85.15 151.98 85.15 151.98 88.8 151.98 88.8 151.98 89.11 151.98 89.37 152.24 89.37 152.56 89.37 152.87 89.11 153.13 88.8 153.13 88.8 153.13 87.6 153.13 87.6 153.13 87.6 153.13 87.6 157.09 87.6 157.09 87.6 157.43 87.32 157.71 86.97 157.71 86.62 157.71 86.35 157.43 86.35 157.09 86.35 157.09 86.35 153.13 86.35 153.13ZM 89.36 156.86C 89.36 156.86 91.33 152.39 91.33 152.39 91.47 152.08 91.72 151.89 92.06 151.89 92.06 151.89 92.13 151.89 92.13 151.89 92.47 151.89 92.72 152.08 92.85 152.39 92.85 152.39 94.83 156.86 94.83 156.86 94.87 156.95 94.9 157.03 94.9 157.11 94.9 157.44 94.64 157.71 94.3 157.71 94.01 157.71 93.82 157.54 93.71 157.28 93.71 157.28 93.32 156.39 93.32 156.39 93.32 156.39 90.83 156.39 90.83 156.39 90.83 156.39 90.43 157.32 90.43 157.32 90.33 157.56 90.12 157.71 89.86 157.71 89.53 157.71 89.28 157.45 89.28 157.13 89.28 157.04 89.32 156.95 89.36 156.86ZM 92.86 155.28C 92.86 155.28 92.08 153.41 92.08 153.41 92.08 153.41 91.29 155.28 91.29 155.28 91.29 155.28 92.86 155.28 92.86 155.28ZM 106.21 142.09C 106.21 142.09 102.84 142.09 102.84 142.09 102.84 142.09 102.84 144.12 102.84 144.12 102.84 144.12 106.21 144.12 106.21 144.12 106.21 144.12 106.21 177.97 106.21 177.97 106.21 177.97 78.53 177.97 78.53 177.97 78.53 177.97 78.53 174.58 78.53 174.58 78.53 174.58 76.5 174.58 76.5 174.58 76.5 174.58 76.5 177.97 76.5 177.97 76.5 177.97 76.5 180 76.5 180 76.5 180 78.53 180 78.53 180 78.53 180 106.21 180 106.21 180 106.21 180 108.24 180 108.24 180 108.24 180 108.24 177.97 108.24 177.97 108.24 177.97 108.24 144.12 108.24 144.12 108.24 144.12 108.24 142.09 108.24 142.09 108.24 142.09 106.21 142.09 106.21 142.09ZM 102.16 138.03C 102.16 138.03 98.78 138.03 98.78 138.03 98.78 138.03 98.78 140.06 98.78 140.06 98.78 140.06 102.16 140.06 102.16 140.06 102.16 140.06 102.16 173.91 102.16 173.91 102.16 173.91 74.47 173.91 74.47 173.91 74.47 173.91 74.47 170.52 74.47 170.52 74.47 170.52 72.45 170.52 72.45 170.52 72.45 170.52 72.45 173.91 72.45 173.91 72.45 173.91 72.45 175.94 72.45 175.94 72.45 175.94 74.47 175.94 74.47 175.94 74.47 175.94 102.16 175.94 102.16 175.94 102.16 175.94 104.19 175.94 104.19 175.94 104.19 175.94 104.19 173.91 104.19 173.91 104.19 173.91 104.19 140.06 104.19 140.06 104.19 140.06 104.19 138.03 104.19 138.03 104.19 138.03 102.16 138.03 102.16 138.03ZM 140.65 136C 140.65 136 140.65 169.85 140.65 169.85 140.65 169.85 112.97 169.85 112.97 169.85 112.97 169.85 112.97 145.35 112.97 145.35 112.97 145.35 122.3 136 122.3 136 122.3 136 140.65 136 140.65 136M 142.68 133.97C 142.68 133.97 140.65 133.97 140.65 133.97 140.65 133.97 122.3 133.97 122.3 133.97 122.3 133.97 121.46 133.97 121.46 133.97 121.46 133.97 120.87 134.56 120.87 134.56 120.87 134.56 111.53 143.92 111.53 143.92 111.53 143.92 110.94 144.51 110.94 144.51 110.94 144.51 110.94 145.35 110.94 145.35 110.94 145.35 110.94 169.85 110.94 169.85 110.94 169.85 110.94 171.88 110.94 171.88 110.94 171.88 112.97 171.88 112.97 171.88 112.97 171.88 140.65 171.88 140.65 171.88 140.65 171.88 142.68 171.88 142.68 171.88 142.68 171.88 142.68 169.85 142.68 169.85 142.68 169.85 142.68 136 142.68 136 142.68 136 142.68 133.97 142.68 133.97 142.68 133.97 142.68 133.97 142.68 133.97ZM 123.31 146.49C 123.31 146.49 112.97 146.49 112.97 146.49 112.97 146.49 112.97 144.46 112.97 144.46 112.97 144.46 121.29 144.46 121.29 144.46 121.29 144.46 121.29 136.12 121.29 136.12 121.29 136.12 123.31 136.12 123.31 136.12 123.31 136.12 123.31 146.49 123.31 146.49ZM 115.88 152.6C 115.88 152.26 116.16 151.98 116.5 151.98 116.5 151.98 118.09 151.98 118.09 151.98 119.87 151.98 121.1 153.21 121.1 154.8 121.1 154.8 121.1 154.82 121.1 154.82 121.1 156.42 119.87 157.66 118.09 157.66 118.09 157.66 116.5 157.66 116.5 157.66 116.16 157.66 115.88 157.39 115.88 157.04 115.88 157.04 115.88 152.6 115.88 152.6ZM 118.09 156.53C 119.11 156.53 119.8 155.84 119.8 154.84 119.8 154.84 119.8 154.82 119.8 154.82 119.8 153.81 119.11 153.11 118.09 153.11 118.09 153.11 117.13 153.11 117.13 153.11 117.13 153.11 117.13 156.53 117.13 156.53 117.13 156.53 118.09 156.53 118.09 156.53ZM 121.66 156.86C 121.66 156.86 123.63 152.39 123.63 152.39 123.77 152.08 124.02 151.89 124.36 151.89 124.36 151.89 124.44 151.89 124.44 151.89 124.78 151.89 125.02 152.08 125.16 152.39 125.16 152.39 127.13 156.86 127.13 156.86 127.17 156.95 127.2 157.03 127.2 157.11 127.2 157.44 126.94 157.71 126.61 157.71 126.32 157.71 126.12 157.54 126.01 157.28 126.01 157.28 125.63 156.39 125.63 156.39 125.63 156.39 123.13 156.39 123.13 156.39 123.13 156.39 122.74 157.32 122.74 157.32 122.63 157.56 122.42 157.71 122.16 157.71 121.84 157.71 121.59 157.45 121.59 157.13 121.59 157.04 121.62 156.95 121.66 156.86ZM 125.16 155.28C 125.16 155.28 124.38 153.41 124.38 153.41 124.38 153.41 123.59 155.28 123.59 155.28 123.59 155.28 125.16 155.28 125.16 155.28ZM 128.89 153.13C 128.89 153.13 127.7 153.13 127.7 153.13 127.38 153.13 127.12 152.87 127.12 152.56 127.12 152.24 127.38 151.98 127.7 151.98 127.7 151.98 131.34 151.98 131.34 151.98 131.66 151.98 131.92 152.24 131.92 152.56 131.92 152.87 131.66 153.13 131.34 153.13 131.34 153.13 130.14 153.13 130.14 153.13 130.14 153.13 130.14 157.09 130.14 157.09 130.14 157.43 129.87 157.71 129.52 157.71 129.17 157.71 128.89 157.43 128.89 157.09 128.89 157.09 128.89 153.13 128.89 153.13ZM 131.9 156.86C 131.9 156.86 133.88 152.39 133.88 152.39 134.02 152.08 134.27 151.89 134.61 151.89 134.61 151.89 134.68 151.89 134.68 151.89 135.02 151.89 135.26 152.08 135.4 152.39 135.4 152.39 137.38 156.86 137.38 156.86 137.42 156.95 137.44 157.03 137.44 157.11 137.44 157.44 137.18 157.71 136.85 157.71 136.56 157.71 136.36 157.54 136.25 157.28 136.25 157.28 135.87 156.39 135.87 156.39 135.87 156.39 133.38 156.39 133.38 156.39 133.38 156.39 132.98 157.32 132.98 157.32 132.87 157.56 132.66 157.71 132.4 157.71 132.08 157.71 131.83 157.45 131.83 157.13 131.83 157.04 131.86 156.95 131.9 156.86ZM 135.41 155.28C 135.41 155.28 134.62 153.41 134.62 153.41 134.62 153.41 133.84 155.28 133.84 155.28 133.84 155.28 135.41 155.28 135.41 155.28ZM 148.76 142.09C 148.76 142.09 145.38 142.09 145.38 142.09 145.38 142.09 145.38 144.12 145.38 144.12 145.38 144.12 148.76 144.12 148.76 144.12 148.76 144.12 148.76 177.97 148.76 177.97 148.76 177.97 121.07 177.97 121.07 177.97 121.07 177.97 121.07 174.58 121.07 174.58 121.07 174.58 119.04 174.58 119.04 174.58 119.04 174.58 119.04 177.97 119.04 177.97 119.04 177.97 119.04 180 119.04 180 119.04 180 121.07 180 121.07 180 121.07 180 148.76 180 148.76 180 148.76 180 150.78 180 150.78 180 150.78 180 150.78 177.97 150.78 177.97 150.78 177.97 150.78 144.12 150.78 144.12 150.78 144.12 150.78 142.09 150.78 142.09 150.78 142.09 148.76 142.09 148.76 142.09ZM 144.71 138.03C 144.71 138.03 141.33 138.03 141.33 138.03 141.33 138.03 141.33 140.06 141.33 140.06 141.33 140.06 144.71 140.06 144.71 140.06 144.71 140.06 144.71 173.91 144.71 173.91 144.71 173.91 117.02 173.91 117.02 173.91 117.02 173.91 117.02 170.52 117.02 170.52 117.02 170.52 114.99 170.52 114.99 170.52 114.99 170.52 114.99 173.91 114.99 173.91 114.99 173.91 114.99 175.94 114.99 175.94 114.99 175.94 117.02 175.94 117.02 175.94 117.02 175.94 144.71 175.94 144.71 175.94 144.71 175.94 146.73 175.94 146.73 175.94 146.73 175.94 146.73 173.91 146.73 173.91 146.73 173.91 146.73 140.06 146.73 140.06 146.73 140.06 146.73 138.03 146.73 138.03 146.73 138.03 144.71 138.03 144.71 138.03ZM 51.47 18.81C 51.47 18.81 54.39 12.2 54.39 12.2 54.59 11.75 54.96 11.47 55.47 11.47 55.47 11.47 55.57 11.47 55.57 11.47 56.08 11.47 56.44 11.75 56.64 12.2 56.64 12.2 59.56 18.81 59.56 18.81 59.62 18.94 59.65 19.06 59.65 19.18 59.65 19.68 59.27 20.07 58.78 20.07 58.35 20.07 58.06 19.82 57.9 19.44 57.9 19.44 57.33 18.12 57.33 18.12 57.33 18.12 53.65 18.12 53.65 18.12 53.65 18.12 53.06 19.5 53.06 19.5 52.91 19.86 52.59 20.07 52.21 20.07 51.73 20.07 51.36 19.69 51.36 19.21 51.36 19.08 51.41 18.94 51.47 18.81ZM 56.65 16.49C 56.65 16.49 55.49 13.71 55.49 13.71 55.49 13.71 54.33 16.49 54.33 16.49 54.33 16.49 56.65 16.49 56.65 16.49ZM 59.86 12.78C 59.83 12.67 59.79 12.54 59.79 12.43 59.79 11.92 60.22 11.53 60.74 11.53 61.17 11.53 61.51 11.81 61.63 12.19 61.63 12.19 63.3 17.34 63.3 17.34 63.3 17.34 64.97 12.24 64.97 12.24 65.11 11.81 65.44 11.51 65.9 11.51 65.9 11.51 66.05 11.51 66.05 11.51 66.51 11.51 66.84 11.8 66.98 12.24 66.98 12.24 68.66 17.34 68.66 17.34 68.66 17.34 70.32 12.19 70.32 12.19 70.44 11.83 70.75 11.53 71.2 11.53 71.71 11.53 72.11 11.92 72.11 12.42 72.11 12.53 72.08 12.67 72.04 12.78 72.04 12.78 69.7 19.38 69.7 19.38 69.53 19.84 69.18 20.13 68.74 20.13 68.74 20.13 68.55 20.13 68.55 20.13 68.11 20.13 67.77 19.86 67.6 19.38 67.6 19.38 65.95 14.57 65.95 14.57 65.95 14.57 64.3 19.38 64.3 19.38 64.13 19.86 63.8 20.13 63.36 20.13 63.36 20.13 63.16 20.13 63.16 20.13 62.72 20.13 62.37 19.84 62.21 19.38 62.21 19.38 59.86 12.78 59.86 12.78ZM 73.53 19.08C 73.53 19.08 73.53 12.53 73.53 12.53 73.53 12.01 73.94 11.6 74.45 11.6 74.45 11.6 79.1 11.6 79.1 11.6 79.55 11.6 79.92 11.98 79.92 12.43 79.92 12.89 79.55 13.25 79.1 13.25 79.1 13.25 75.36 13.25 75.36 13.25 75.36 13.25 75.36 14.95 75.36 14.95 75.36 14.95 78.56 14.95 78.56 14.95 79.01 14.95 79.38 15.32 79.38 15.78 79.38 16.23 79.01 16.59 78.56 16.59 78.56 16.59 75.36 16.59 75.36 16.59 75.36 16.59 75.36 18.36 75.36 18.36 75.36 18.36 79.16 18.36 79.16 18.36 79.61 18.36 79.98 18.73 79.98 19.18 79.98 19.64 79.61 20 79.16 20 79.16 20 74.45 20 74.45 20 73.94 20 73.53 19.59 73.53 19.08ZM 81.39 19.11C 81.18 18.97 81.04 18.7 81.04 18.42 81.04 17.94 81.42 17.57 81.9 17.57 82.14 17.57 82.31 17.65 82.43 17.73 83.06 18.2 83.75 18.49 84.57 18.49 85.32 18.49 85.78 18.19 85.78 17.7 85.78 17.7 85.78 17.67 85.78 17.67 85.78 17.21 85.49 16.97 84.09 16.61 82.4 16.17 81.31 15.71 81.31 14.04 81.31 14.04 81.31 14.01 81.31 14.01 81.31 12.49 82.53 11.48 84.25 11.48 85.26 11.48 86.15 11.75 86.9 12.23 87.1 12.35 87.31 12.6 87.31 12.96 87.31 13.44 86.93 13.81 86.45 13.81 86.27 13.81 86.12 13.76 85.98 13.68 85.37 13.32 84.8 13.12 84.22 13.12 83.52 13.12 83.14 13.44 83.14 13.85 83.14 13.85 83.14 13.87 83.14 13.87 83.14 14.42 83.5 14.6 84.95 14.97 86.65 15.42 87.61 16.03 87.61 17.49 87.61 17.49 87.61 17.52 87.61 17.52 87.61 19.18 86.34 20.12 84.53 20.12 83.43 20.12 82.32 19.78 81.39 19.11ZM 88.85 15.83C 88.85 15.83 88.85 15.8 88.85 15.8 88.85 13.42 90.72 11.46 93.31 11.46 95.89 11.46 97.75 13.39 97.75 15.78 97.75 15.78 97.75 15.8 97.75 15.8 97.75 18.19 95.87 20.14 93.28 20.14 90.7 20.14 88.85 18.21 88.85 15.83ZM 95.82 15.83C 95.82 15.83 95.82 15.8 95.82 15.8 95.82 14.36 94.77 13.16 93.28 13.16 91.8 13.16 90.77 14.34 90.77 15.78 90.77 15.78 90.77 15.8 90.77 15.8 90.77 17.24 91.82 18.44 93.31 18.44 94.79 18.44 95.82 17.27 95.82 15.83ZM 99.39 12.48C 99.39 11.96 99.8 11.56 100.31 11.56 100.31 11.56 100.52 11.56 100.52 11.56 100.91 11.56 101.19 11.76 101.35 12.04 101.35 12.04 103.58 15.67 103.58 15.67 103.58 15.67 105.82 12.02 105.82 12.02 106.01 11.71 106.27 11.56 106.64 11.56 106.64 11.56 106.84 11.56 106.84 11.56 107.36 11.56 107.77 11.96 107.77 12.48 107.77 12.48 107.77 19.15 107.77 19.15 107.77 19.66 107.36 20.07 106.84 20.07 106.34 20.07 105.94 19.65 105.94 19.15 105.94 19.15 105.94 14.96 105.94 14.96 105.94 14.96 104.32 17.46 104.32 17.46 104.13 17.75 103.89 17.92 103.56 17.92 103.22 17.92 102.98 17.75 102.79 17.46 102.79 17.46 101.2 15 101.2 15 101.2 15 101.2 19.17 101.2 19.17 101.2 19.68 100.79 20.07 100.29 20.07 99.79 20.07 99.39 19.68 99.39 19.17 99.39 19.17 99.39 12.48 99.39 12.48ZM 109.78 19.08C 109.78 19.08 109.78 12.53 109.78 12.53 109.78 12.01 110.19 11.6 110.7 11.6 110.7 11.6 115.35 11.6 115.35 11.6 115.8 11.6 116.17 11.98 116.17 12.43 116.17 12.89 115.8 13.25 115.35 13.25 115.35 13.25 111.61 13.25 111.61 13.25 111.61 13.25 111.61 14.95 111.61 14.95 111.61 14.95 114.81 14.95 114.81 14.95 115.26 14.95 115.63 15.32 115.63 15.78 115.63 16.23 115.26 16.59 114.81 16.59 114.81 16.59 111.61 16.59 111.61 16.59 111.61 16.59 111.61 18.36 111.61 18.36 111.61 18.36 115.41 18.36 115.41 18.36 115.86 18.36 116.23 18.73 116.23 19.18 116.23 19.64 115.86 20 115.41 20 115.41 20 110.7 20 110.7 20 110.19 20 109.78 19.59 109.78 19.08ZM 117.67 12.18C 117.64 11.83 117.83 11.57 118.15 11.57 118.15 11.57 119.32 11.57 119.32 11.57 119.65 11.57 119.84 11.83 119.8 12.18 119.8 12.18 119.29 16.69 119.29 16.69 119.25 17.01 119.04 17.22 118.74 17.22 118.44 17.22 118.22 17.01 118.19 16.69 118.19 16.69 117.67 12.18 117.67 12.18ZM 118.74 18.01C 119.33 18.01 119.78 18.45 119.78 19.03 119.78 19.03 119.78 19.05 119.78 19.05 119.78 19.63 119.33 20.07 118.74 20.07 118.14 20.07 117.7 19.63 117.7 19.05 117.7 19.05 117.7 19.03 117.7 19.03 117.7 18.45 118.14 18.01 118.74 18.01ZM 109.21 42C 109.21 42 100.24 30 100.24 30 100.24 30 71.37 30 71.37 30 71.37 30 62.39 42 62.39 42 62.39 42 62.39 30 62.39 30 62.39 30 54.41 30 54.41 30 46.16 30 39.45 23.27 39.45 15 39.45 6.73 46.16-0 54.41-0 54.41-0 117.26-0 117.26-0 125.52-0 132.23 6.73 132.23 15 132.23 23.27 125.52 30 117.26 30 117.26 30 109.21 30 109.21 30 109.21 30 109.21 42 109.21 42ZM 70.38 28C 70.38 28 101.23 28 101.23 28 101.23 28 107.22 36 107.22 36 107.22 36 107.22 28 107.22 28 107.22 28 117.26 28 117.26 28 124.41 28 130.23 22.17 130.23 15 130.23 7.83 124.41 2 117.26 2 117.26 2 54.41 2 54.41 2 47.26 2 41.44 7.83 41.44 15 41.44 22.17 47.26 28 54.41 28 54.41 28 64.39 28 64.39 28 64.39 28 64.39 36 64.39 36 64.39 36 70.38 28 70.38 28Z" fill="rgb(0,113,255)"/></svg>