<?xml version="1.0" encoding="utf-8"?>
<svg xmlns="http://www.w3.org/2000/svg"
	xmlns:xlink="http://www.w3.org/1999/xlink"
	width="187px" height="200px" viewBox="0 0 187 200">
<path fillRule="evenodd" d="M 52.12 121.53C 51.29 121.53 50.62 120.86 50.62 120.03 50.62 119.2 51.29 118.53 52.12 118.53 53.77 118.53 55.12 117.18 55.12 115.53 55.12 113.88 53.77 112.53 52.12 112.53 52.12 112.53 50.62 112.53 50.62 112.53 50.62 112.53 50.62 88.63 50.62 88.63 50.62 87.8 51.29 87.13 52.12 87.13 52.95 87.13 53.62 87.8 53.62 88.63 53.62 88.63 53.62 109.72 53.62 109.72 56.2 110.39 58.11 112.74 58.11 115.53 58.11 118.84 55.43 121.53 52.12 121.53ZM 18.97 121.13C 14.84 121.13 11.48 117.77 11.48 113.63 11.48 109.49 14.84 106.13 18.97 106.13 20.13 106.13 21.24 106.39 22.27 106.9 23.01 107.26 23.32 108.16 22.95 108.9 22.59 109.65 21.69 109.95 20.95 109.59 20.33 109.28 19.67 109.13 18.97 109.13 16.49 109.13 14.48 111.15 14.48 113.63 14.48 116.11 16.49 118.13 18.97 118.13 19.78 118.13 20.58 117.91 21.27 117.5 21.98 117.08 22.9 117.31 23.32 118.02 23.74 118.73 23.51 119.65 22.8 120.08 21.65 120.77 20.32 121.13 18.97 121.13ZM 85.27 121.13C 83.92 121.13 82.6 120.77 81.44 120.08 80.73 119.65 80.5 118.73 80.92 118.02 81.35 117.31 82.26 117.08 82.98 117.5 83.67 117.91 84.46 118.13 85.27 118.13 87.75 118.13 89.77 116.11 89.77 113.63 89.77 111.15 87.75 109.13 85.27 109.13 84.58 109.13 83.91 109.28 83.3 109.59 82.55 109.95 81.66 109.65 81.29 108.9 80.92 108.16 81.23 107.26 81.97 106.9 83 106.39 84.11 106.13 85.27 106.13 89.4 106.13 92.76 109.49 92.76 113.63 92.76 117.77 89.4 121.13 85.27 121.13ZM 52.12 150.73C 35.22 150.73 21.46 136.96 21.46 120.03 21.46 120.03 21.46 91 21.46 91 21.46 87.47 22.05 84.02 23.22 80.73 24.29 77.7 25.83 74.87 27.8 72.31 29.32 70.33 31.08 68.53 33.04 66.98 34.9 65.49 36.94 64.21 39.11 63.19 41.22 62.2 43.45 61.45 45.73 60.97 49.91 60.08 54.31 60.08 58.52 60.97 60.37 61.36 62.19 61.94 63.96 62.68 64.36 62.84 64.75 63.02 65.14 63.21 67.28 64.21 69.33 65.48 71.22 66.99 73.17 68.54 74.93 70.34 76.44 72.32 78.97 75.6 80.77 79.3 81.81 83.31 82.45 85.82 82.78 88.41 82.78 91 82.78 91 82.78 120.03 82.78 120.03 82.78 136.96 69.02 150.73 52.12 150.73ZM 52.12 63.3C 50.18 63.3 48.24 63.5 46.35 63.91 44.29 64.34 42.29 65.01 40.39 65.91 38.43 66.83 36.58 67.98 34.9 69.32 33.14 70.73 31.55 72.35 30.18 74.14 28.4 76.45 27.01 79.01 26.04 81.73 24.99 84.7 24.46 87.81 24.46 91 24.46 91 24.46 120.03 24.46 120.03 24.46 135.3 36.87 147.73 52.12 147.73 67.37 147.73 79.78 135.3 79.78 120.03 79.78 120.03 79.78 91 79.78 91 79.78 88.66 79.49 86.32 78.9 84.05 77.97 80.44 76.35 77.11 74.07 74.14 72.7 72.36 71.11 70.74 69.35 69.33 67.65 67.97 65.8 66.83 63.86 65.92 63.51 65.75 63.17 65.59 62.82 65.45 61.21 64.78 59.56 64.26 57.9 63.9 56 63.5 54.06 63.3 52.12 63.3ZM 62.12 134.01C 61.29 134.01 60.62 133.34 60.62 132.51 60.62 127.82 56.81 124 52.12 124 47.44 124 43.62 127.82 43.62 132.51 43.62 133.34 42.95 134.01 42.12 134.01 41.3 134.01 40.63 133.34 40.63 132.51 40.63 126.16 45.78 121 52.12 121 58.46 121 63.62 126.16 63.62 132.51 63.62 133.34 62.95 134.01 62.12 134.01ZM 37.38 112.61C 31.25 112.61 26.26 107.61 26.26 101.47 26.26 95.33 31.25 90.33 37.38 90.33 43.52 90.33 48.51 95.33 48.51 101.47 48.51 107.61 43.52 112.61 37.38 112.61ZM 37.38 93.33C 32.9 93.33 29.26 96.98 29.26 101.47 29.26 105.96 32.9 109.61 37.38 109.61 41.86 109.61 45.51 105.96 45.51 101.47 45.51 96.98 41.86 93.33 37.38 93.33ZM 39.52 101.47C 39.52 102.65 38.56 103.61 37.38 103.61 36.2 103.61 35.24 102.65 35.24 101.47 35.24 100.29 36.2 99.33 37.38 99.33 38.56 99.33 39.52 100.29 39.52 101.47ZM 64.72 101.47C 64.72 102.65 65.68 103.61 66.86 103.61 68.04 103.61 69 102.65 69 101.47 69 100.29 68.04 99.33 66.86 99.33 65.68 99.33 64.72 100.29 64.72 101.47ZM 66.86 112.61C 60.73 112.61 55.74 107.61 55.74 101.47 55.74 95.33 60.73 90.33 66.86 90.33 72.99 90.33 77.98 95.33 77.98 101.47 77.98 107.61 72.99 112.61 66.86 112.61ZM 66.86 93.33C 62.38 93.33 58.73 96.98 58.73 101.47 58.73 105.96 62.38 109.61 66.86 109.61 71.34 109.61 74.99 105.96 74.99 101.47 74.99 96.98 71.34 93.33 66.86 93.33ZM 57.27 102.37C 56.44 102.37 55.77 101.7 55.77 100.87 55.77 98.85 54.14 97.21 52.12 97.21 50.11 97.21 48.47 98.85 48.47 100.87 48.47 101.7 47.8 102.37 46.97 102.37 46.14 102.37 45.47 101.7 45.47 100.87 45.47 97.2 48.46 94.21 52.12 94.21 55.79 94.21 58.77 97.2 58.77 100.87 58.77 101.7 58.1 102.37 57.27 102.37ZM 84.12 102.97C 84.12 102.97 76.49 102.97 76.49 102.97 75.66 102.97 74.99 102.3 74.99 101.47 74.99 100.64 75.66 99.97 76.49 99.97 76.49 99.97 84.12 99.97 84.12 99.97 84.95 99.97 85.62 100.64 85.62 101.47 85.62 102.3 84.95 102.97 84.12 102.97ZM 27.76 102.97C 27.76 102.97 20.12 102.97 20.12 102.97 19.3 102.97 18.63 102.3 18.63 101.47 18.63 100.64 19.3 99.97 20.12 99.97 20.12 99.97 27.76 99.97 27.76 99.97 28.58 99.97 29.26 100.64 29.26 101.47 29.26 102.3 28.58 102.97 27.76 102.97ZM 52.12 69.43C 48.21 69.43 44.95 66.49 44.55 62.6 44.55 62.6 44.41 61.26 44.41 61.26 44.41 61.26 45.72 60.97 45.72 60.97 49.91 60.08 54.31 60.08 58.52 60.97 58.52 60.97 59.85 61.25 59.85 61.25 59.85 61.25 59.71 62.59 59.71 62.59 59.3 66.49 56.04 69.43 52.12 69.43ZM 47.87 63.63C 48.58 65.29 50.22 66.43 52.12 66.43 54.02 66.43 55.67 65.29 56.38 63.62 53.55 63.19 50.68 63.19 47.87 63.63ZM 52.12 75.99C 45.52 75.99 39.71 71.32 38.29 64.88 38.29 64.88 38.03 63.71 38.03 63.71 38.03 63.71 39.11 63.2 39.11 63.2 41.22 62.2 43.45 61.45 45.73 60.97 49.91 60.08 54.31 60.08 58.52 60.97 60.37 61.36 62.19 61.94 63.96 62.68 64.36 62.84 64.75 63.02 65.14 63.21 65.14 63.21 66.21 63.72 66.21 63.72 66.21 63.72 65.96 64.88 65.96 64.88 64.54 71.32 58.72 75.99 52.12 75.99ZM 41.54 65.4C 43.06 69.86 47.33 73 52.12 73 56.92 73 61.19 69.87 62.71 65.4 61.13 64.75 59.52 64.25 57.9 63.9 54.1 63.1 50.13 63.1 46.35 63.91 44.7 64.25 43.09 64.75 41.54 65.4ZM 52.12 82.57C 43.31 82.57 35.45 76.97 32.55 68.65 32.55 68.65 32.21 67.64 32.21 67.64 32.21 67.64 33.03 66.98 33.03 66.98 34.9 65.49 36.94 64.21 39.11 63.19 41.22 62.2 43.45 61.45 45.73 60.97 49.91 60.08 54.31 60.08 58.52 60.97 60.37 61.36 62.19 61.94 63.96 62.68 64.36 62.84 64.75 63.02 65.14 63.21 67.28 64.21 69.33 65.48 71.22 66.99 71.22 66.99 72.05 67.65 72.05 67.65 72.05 67.65 71.7 68.65 71.7 68.65 68.8 76.97 60.93 82.57 52.12 82.57ZM 35.76 68.66C 38.5 75.23 44.94 79.57 52.12 79.57 59.3 79.57 65.75 75.23 68.49 68.67 67.03 67.6 65.48 66.67 63.86 65.92 63.51 65.75 63.17 65.59 62.82 65.45 61.21 64.78 59.56 64.26 57.9 63.9 54.1 63.1 50.13 63.1 46.35 63.91 44.29 64.34 42.29 65.01 40.39 65.91 38.76 66.67 37.21 67.6 35.76 68.66ZM 52.12 89.13C 41.66 89.13 32.29 83.29 27.65 73.89 27.65 73.89 27.23 73.06 27.23 73.06 27.23 73.06 27.8 72.32 27.8 72.32 29.32 70.33 31.08 68.53 33.04 66.98 34.9 65.49 36.94 64.21 39.11 63.19 41.22 62.2 43.45 61.45 45.73 60.97 49.91 60.08 54.31 60.08 58.52 60.97 60.37 61.36 62.19 61.94 63.96 62.68 64.36 62.84 64.75 63.02 65.14 63.21 67.28 64.21 69.33 65.48 71.22 66.99 73.17 68.54 74.93 70.34 76.44 72.32 76.44 72.32 77.01 73.06 77.01 73.06 77.01 73.06 76.6 73.89 76.6 73.89 71.97 83.29 62.59 89.13 52.12 89.13ZM 30.76 73.4C 35.03 81.28 43.13 86.13 52.12 86.13 61.12 86.13 69.22 81.28 73.48 73.4 72.25 71.91 70.87 70.54 69.35 69.33 67.65 67.97 65.8 66.83 63.86 65.92 63.51 65.75 63.17 65.59 62.82 65.45 61.21 64.78 59.56 64.26 57.9 63.9 54.1 63.1 50.13 63.1 46.35 63.91 44.29 64.34 42.29 65.01 40.39 65.91 38.43 66.83 36.58 67.98 34.9 69.32 33.38 70.53 31.99 71.9 30.76 73.4ZM 144.97 125.73C 144.14 125.73 143.47 125.06 143.47 124.23 143.47 123.41 144.14 122.73 144.97 122.73 146.62 122.73 147.96 121.39 147.96 119.73 147.96 118.08 146.62 116.73 144.97 116.73 144.97 116.73 143.47 116.73 143.47 116.73 143.47 116.73 143.47 104.73 143.47 104.73 143.47 103.91 144.14 103.23 144.97 103.23 145.8 103.23 146.47 103.91 146.47 104.73 146.47 104.73 146.47 113.92 146.47 113.92 149.05 114.59 150.96 116.94 150.96 119.73 150.96 123.04 148.27 125.73 144.97 125.73ZM 146.44 128.07C 142.81 127.56 139.56 130.02 137.78 132.94 137.78 132.94 143.24 131.62 146.44 132.72 149.64 133.81 152.12 128.85 146.44 128.07ZM 110.43 120.23C 106.3 120.23 102.94 116.87 102.94 112.73 102.94 108.6 106.3 105.23 110.43 105.23 111.58 105.23 112.69 105.49 113.73 106 114.47 106.36 114.78 107.26 114.41 108.01 114.05 108.75 113.15 109.06 112.41 108.69 111.79 108.39 111.12 108.23 110.43 108.23 107.95 108.23 105.93 110.25 105.93 112.73 105.93 115.21 107.95 117.23 110.43 117.23 111.24 117.23 112.03 117.02 112.72 116.6 113.43 116.18 114.35 116.41 114.78 117.12 115.2 117.83 114.97 118.75 114.26 119.18 113.1 119.87 111.78 120.23 110.43 120.23ZM 179.51 120.23C 178.16 120.23 176.84 119.87 175.68 119.18 174.97 118.75 174.74 117.83 175.16 117.12 175.58 116.41 176.5 116.18 177.21 116.6 177.91 117.01 178.7 117.23 179.51 117.23 181.99 117.23 184 115.21 184 112.73 184 110.25 181.99 108.23 179.51 108.23 178.81 108.23 178.15 108.39 177.53 108.69 176.79 109.06 175.89 108.75 175.53 108.01 175.16 107.26 175.47 106.36 176.21 106 177.24 105.49 178.35 105.23 179.51 105.23 183.64 105.23 187 108.6 187 112.73 187 116.87 183.64 120.23 179.51 120.23ZM 144.94 144.61C 143.79 144.61 142.63 144.34 141.6 143.81 132.7 139.28 111.99 127.14 111.99 112.27 111.99 112.27 111.99 103.44 111.99 103.44 111.99 85.27 126.52 70.24 144.38 69.94 144.38 69.94 144.94 69.93 144.94 69.93 163.11 69.93 177.89 84.73 177.89 102.92 177.89 102.92 177.89 112.27 177.89 112.27 177.89 127.15 157.18 139.28 148.28 143.81 147.25 144.34 146.09 144.61 144.94 144.61ZM 144.94 72.93C 144.94 72.93 144.43 72.94 144.43 72.94 128.2 73.21 114.99 86.89 114.99 103.44 114.99 103.44 114.99 112.27 114.99 112.27 114.99 125.85 136.4 137.8 142.96 141.14 144.18 141.76 145.7 141.76 146.92 141.14 153.48 137.8 174.89 125.85 174.89 112.27 174.89 112.27 174.89 102.92 174.89 102.92 174.89 86.39 161.46 72.93 144.94 72.93ZM 176.18 101.43C 176.18 101.43 113.75 101.43 113.75 101.43 113.75 101.43 113.75 98.43 113.75 98.43 113.75 98.43 176.18 98.43 176.18 98.43 176.18 98.43 176.18 101.43 176.18 101.43ZM 128.27 115.01C 127.44 115.01 126.77 114.34 126.77 113.51 126.77 113.51 126.77 106.73 126.77 106.73 126.77 105.91 127.44 105.23 128.27 105.23 129.1 105.23 129.77 105.91 129.77 106.73 129.77 106.73 129.77 113.51 129.77 113.51 129.77 114.34 129.1 115.01 128.27 115.01ZM 161.67 115.01C 160.84 115.01 160.17 114.34 160.17 113.51 160.17 113.51 160.17 106.73 160.17 106.73 160.17 105.91 160.84 105.23 161.67 105.23 162.49 105.23 163.17 105.91 163.17 106.73 163.17 106.73 163.17 113.51 163.17 113.51 163.17 114.34 162.49 115.01 161.67 115.01ZM 124.14 100.89C 124.08 100.89 124.02 100.89 123.96 100.88 123.13 100.78 122.55 100.03 122.65 99.21 123.9 89.17 132.53 70.34 144.56 70.14 145.38 70.11 146.07 70.78 146.08 71.61 146.09 72.44 145.43 73.12 144.61 73.14 135.49 73.29 126.94 89.04 125.63 99.58 125.53 100.34 124.89 100.89 124.14 100.89ZM 134.54 100.86C 134.48 100.86 134.42 100.86 134.36 100.85 133.53 100.75 132.95 100 133.05 99.18 133.35 96.8 134.57 89.78 136.47 83.28 139.83 71.74 142.8 70.37 144.74 70.33 145.58 70.3 146.24 70.98 146.26 71.81 146.27 72.64 145.61 73.32 144.79 73.33 142.66 73.37 137.79 85.38 136.03 99.55 135.93 100.31 135.29 100.86 134.54 100.86ZM 165.38 100.89C 164.64 100.89 163.99 100.34 163.9 99.58 162.58 89.04 154.03 73.29 144.92 73.14 144.09 73.12 143.43 72.44 143.44 71.61 143.46 70.78 144.13 70.11 144.97 70.14 156.99 70.34 165.62 89.17 166.87 99.21 166.97 100.03 166.39 100.78 165.57 100.88 165.5 100.89 165.44 100.89 165.38 100.89ZM 154.98 100.86C 154.24 100.86 153.59 100.31 153.5 99.55 151.73 85.38 146.86 73.37 144.74 73.33 143.91 73.32 143.25 72.64 143.26 71.81 143.28 70.98 143.97 70.33 144.79 70.33 146.73 70.37 149.7 71.74 153.06 83.28 154.95 89.78 156.17 96.8 156.47 99.18 156.57 100 155.99 100.75 155.17 100.85 155.1 100.86 155.04 100.86 154.98 100.86ZM 144.94 100.83C 144.11 100.83 143.44 100.16 143.44 99.33 143.44 99.33 143.44 72.03 143.44 72.03 143.44 71.2 144.11 70.53 144.94 70.53 145.77 70.53 146.44 71.2 146.44 72.03 146.44 72.03 146.44 99.33 146.44 99.33 146.44 100.16 145.77 100.83 144.94 100.83ZM 127.22 76.49C 126.74 74.87 126.49 73.17 126.49 71.43 126.49 61.55 134.53 53.5 144.4 53.5 154.28 53.5 162.32 61.55 162.32 71.43 162.32 72.91 162.13 74.39 161.77 75.82 161.77 75.82 158.87 75.09 158.87 75.09 159.17 73.89 159.32 72.66 159.32 71.43 159.32 63.2 152.63 56.5 144.4 56.5 136.18 56.5 129.49 63.2 129.49 71.43 129.49 72.88 129.69 74.29 130.09 75.64 130.09 75.64 127.22 76.49 127.22 76.49ZM 144.4 72.94C 143.58 72.94 142.9 72.26 142.9 71.44 142.9 71.44 142.9 55 142.9 55 142.9 54.17 143.58 53.5 144.4 53.5 145.23 53.5 145.9 54.17 145.9 55 145.9 55 145.9 71.44 145.9 71.44 145.9 72.26 145.23 72.94 144.4 72.94ZM 144.4 72.94C 144.02 72.94 143.64 72.79 143.34 72.5 142.76 71.91 142.76 70.96 143.34 70.38 143.34 70.38 154.94 58.77 154.94 58.77 155.52 58.18 156.47 58.18 157.06 58.77 157.64 59.35 157.64 60.3 157.06 60.89 157.06 60.89 145.46 72.5 145.46 72.5 145.17 72.79 144.79 72.94 144.4 72.94ZM 144.4 72.94C 144.02 72.94 143.64 72.79 143.34 72.5 143.34 72.5 131.74 60.87 131.74 60.87 131.15 60.29 131.15 59.34 131.74 58.75 132.32 58.17 133.27 58.17 133.86 58.75 133.86 58.75 145.46 70.38 145.46 70.38 146.05 70.96 146.05 71.91 145.46 72.5 145.17 72.79 144.79 72.94 144.4 72.94ZM 119.83 3C 119.83 3 119.83 53 119.83 53 119.83 53 78.89 53 78.89 53 78.89 53 78.89 16.82 78.89 16.82 78.89 16.82 92.69 3 92.69 3 92.69 3 119.83 3 119.83 3M 122.83 0C 122.83 0 119.83 0 119.83 0 119.83 0 92.69 0 92.69 0 92.69 0 91.45 0 91.45 0 91.45 0 90.57 0.88 90.57 0.88 90.57 0.88 76.77 14.7 76.77 14.7 76.77 14.7 75.89 15.58 75.89 15.58 75.89 15.58 75.89 16.82 75.89 16.82 75.89 16.82 75.89 53 75.89 53 75.89 53 75.89 56 75.89 56 75.89 56 78.89 56 78.89 56 78.89 56 119.83 56 119.83 56 119.83 56 122.83 56 122.83 56 122.83 56 122.83 53 122.83 53 122.83 53 122.83 3 122.83 3 122.83 3 122.83 0 122.83 0 122.83 0 122.83 0 122.83 0ZM 94.19 18.5C 94.19 18.5 78.89 18.5 78.89 18.5 78.89 18.5 78.89 15.5 78.89 15.5 78.89 15.5 91.19 15.5 91.19 15.5 91.19 15.5 91.19 3.18 91.19 3.18 91.19 3.18 94.19 3.18 94.19 3.18 94.19 3.18 94.19 18.5 94.19 18.5ZM 83.2 27.53C 83.2 27.01 83.6 26.6 84.12 26.6 84.12 26.6 86.47 26.6 86.47 26.6 89.1 26.6 90.92 28.42 90.92 30.78 90.92 30.78 90.92 30.8 90.92 30.8 90.92 33.16 89.1 35 86.47 35 86.47 35 84.12 35 84.12 35 83.6 35 83.2 34.59 83.2 34.08 83.2 34.08 83.2 27.53 83.2 27.53ZM 86.47 33.33C 87.98 33.33 88.99 32.31 88.99 30.83 88.99 30.83 88.99 30.8 88.99 30.8 88.99 29.32 87.98 28.27 86.47 28.27 86.47 28.27 85.04 28.27 85.04 28.27 85.04 28.27 85.04 33.33 85.04 33.33 85.04 33.33 86.47 33.33 86.47 33.33ZM 91.74 33.81C 91.74 33.81 94.66 27.2 94.66 27.2 94.87 26.75 95.24 26.47 95.74 26.47 95.74 26.47 95.85 26.47 95.85 26.47 96.35 26.47 96.71 26.75 96.92 27.2 96.92 27.2 99.84 33.81 99.84 33.81 99.9 33.94 99.93 34.06 99.93 34.18 99.93 34.68 99.55 35.07 99.06 35.07 98.63 35.07 98.34 34.82 98.17 34.44 98.17 34.44 97.61 33.12 97.61 33.12 97.61 33.12 93.92 33.12 93.92 33.12 93.92 33.12 93.33 34.5 93.33 34.5 93.18 34.86 92.87 35.07 92.48 35.07 92.01 35.07 91.63 34.69 91.63 34.21 91.63 34.08 91.68 33.94 91.74 33.81ZM 96.93 31.49C 96.93 31.49 95.77 28.72 95.77 28.72 95.77 28.72 94.6 31.49 94.6 31.49 94.6 31.49 96.93 31.49 96.93 31.49ZM 102.44 28.31C 102.44 28.31 100.67 28.31 100.67 28.31 100.2 28.31 99.82 27.92 99.82 27.46 99.82 26.99 100.2 26.6 100.67 26.6 100.67 26.6 106.06 26.6 106.06 26.6 106.53 26.6 106.91 26.99 106.91 27.46 106.91 27.92 106.53 28.31 106.06 28.31 106.06 28.31 104.29 28.31 104.29 28.31 104.29 28.31 104.29 34.15 104.29 34.15 104.29 34.66 103.88 35.07 103.36 35.07 102.85 35.07 102.44 34.66 102.44 34.15 102.44 34.15 102.44 28.31 102.44 28.31ZM 106.89 33.81C 106.89 33.81 109.81 27.2 109.81 27.2 110.01 26.75 110.39 26.47 110.89 26.47 110.89 26.47 111 26.47 111 26.47 111.5 26.47 111.86 26.75 112.06 27.2 112.06 27.2 114.99 33.81 114.99 33.81 115.04 33.94 115.08 34.06 115.08 34.18 115.08 34.68 114.7 35.07 114.21 35.07 113.78 35.07 113.49 34.82 113.32 34.44 113.32 34.44 112.76 33.12 112.76 33.12 112.76 33.12 109.07 33.12 109.07 33.12 109.07 33.12 108.48 34.5 108.48 34.5 108.33 34.86 108.01 35.07 107.63 35.07 107.15 35.07 106.78 34.69 106.78 34.21 106.78 34.08 106.83 33.94 106.89 33.81ZM 112.07 31.49C 112.07 31.49 110.91 28.72 110.91 28.72 110.91 28.72 109.75 31.49 109.75 31.49 109.75 31.49 112.07 31.49 112.07 31.49ZM 65.91 20.29C 65.91 20.29 65.91 52 65.91 52 65.91 52 39.94 52 39.94 52 39.94 52 39.94 29.06 39.94 29.06 39.94 29.06 48.69 20.29 48.69 20.29 48.69 20.29 65.91 20.29 65.91 20.29M 67.81 18.39C 67.81 18.39 65.91 18.39 65.91 18.39 65.91 18.39 48.69 18.39 48.69 18.39 48.69 18.39 47.91 18.39 47.91 18.39 47.91 18.39 47.35 18.95 47.35 18.95 47.35 18.95 38.6 27.71 38.6 27.71 38.6 27.71 38.04 28.27 38.04 28.27 38.04 28.27 38.04 29.06 38.04 29.06 38.04 29.06 38.04 52 38.04 52 38.04 52 38.04 53.9 38.04 53.9 38.04 53.9 39.94 53.9 39.94 53.9 39.94 53.9 65.91 53.9 65.91 53.9 65.91 53.9 67.81 53.9 67.81 53.9 67.81 53.9 67.81 52 67.81 52 67.81 52 67.81 20.29 67.81 20.29 67.81 20.29 67.81 18.39 67.81 18.39 67.81 18.39 67.81 18.39 67.81 18.39ZM 49.64 30.12C 49.64 30.12 39.94 30.12 39.94 30.12 39.94 30.12 39.94 28.22 39.94 28.22 39.94 28.22 47.74 28.22 47.74 28.22 47.74 28.22 47.74 20.41 47.74 20.41 47.74 20.41 49.64 20.41 49.64 20.41 49.64 20.41 49.64 30.12 49.64 30.12ZM 42.68 35.84C 42.68 35.51 42.93 35.25 43.26 35.25 43.26 35.25 44.75 35.25 44.75 35.25 46.42 35.25 47.58 36.41 47.58 37.91 47.58 37.91 47.58 37.92 47.58 37.92 47.58 39.42 46.42 40.58 44.75 40.58 44.75 40.58 43.26 40.58 43.26 40.58 42.93 40.58 42.68 40.33 42.68 40 42.68 40 42.68 35.84 42.68 35.84ZM 44.75 39.53C 45.71 39.53 46.36 38.88 46.36 37.94 46.36 37.94 46.36 37.92 46.36 37.92 46.36 36.98 45.71 36.31 44.75 36.31 44.75 36.31 43.85 36.31 43.85 36.31 43.85 36.31 43.85 39.53 43.85 39.53 43.85 39.53 44.75 39.53 44.75 39.53ZM 48.09 39.83C 48.09 39.83 49.95 35.64 49.95 35.64 50.08 35.35 50.31 35.17 50.63 35.17 50.63 35.17 50.7 35.17 50.7 35.17 51.02 35.17 51.25 35.35 51.38 35.64 51.38 35.64 53.23 39.83 53.23 39.83 53.27 39.91 53.29 39.99 53.29 40.07 53.29 40.38 53.05 40.63 52.74 40.63 52.47 40.63 52.28 40.47 52.18 40.23 52.18 40.23 51.82 39.39 51.82 39.39 51.82 39.39 49.48 39.39 49.48 39.39 49.48 39.39 49.1 40.27 49.1 40.27 49.01 40.49 48.81 40.63 48.57 40.63 48.26 40.63 48.02 40.39 48.02 40.08 48.02 40 48.06 39.91 48.09 39.83ZM 51.39 38.35C 51.39 38.35 50.65 36.6 50.65 36.6 50.65 36.6 49.91 38.35 49.91 38.35 49.91 38.35 51.39 38.35 51.39 38.35ZM 54.88 36.34C 54.88 36.34 53.76 36.34 53.76 36.34 53.46 36.34 53.22 36.09 53.22 35.8 53.22 35.5 53.46 35.25 53.76 35.25 53.76 35.25 57.18 35.25 57.18 35.25 57.47 35.25 57.72 35.5 57.72 35.8 57.72 36.09 57.47 36.34 57.18 36.34 57.18 36.34 56.05 36.34 56.05 36.34 56.05 36.34 56.05 40.04 56.05 40.04 56.05 40.37 55.79 40.63 55.47 40.63 55.14 40.63 54.88 40.37 54.88 40.04 54.88 40.04 54.88 36.34 54.88 36.34ZM 57.7 39.83C 57.7 39.83 59.55 35.64 59.55 35.64 59.68 35.35 59.92 35.17 60.24 35.17 60.24 35.17 60.31 35.17 60.31 35.17 60.63 35.17 60.85 35.35 60.98 35.64 60.98 35.64 62.84 39.83 62.84 39.83 62.88 39.91 62.9 39.99 62.9 40.07 62.9 40.38 62.66 40.63 62.34 40.63 62.07 40.63 61.89 40.47 61.78 40.23 61.78 40.23 61.42 39.39 61.42 39.39 61.42 39.39 59.08 39.39 59.08 39.39 59.08 39.39 58.71 40.27 58.71 40.27 58.61 40.49 58.41 40.63 58.17 40.63 57.87 40.63 57.63 40.39 57.63 40.08 57.63 40 57.66 39.91 57.7 39.83ZM 60.99 38.35C 60.99 38.35 60.25 36.6 60.25 36.6 60.25 36.6 59.52 38.35 59.52 38.35 59.52 38.35 60.99 38.35 60.99 38.35ZM 114.84 129.29C 114.84 129.29 114.84 161 114.84 161 114.84 161 88.87 161 88.87 161 88.87 161 88.87 138.06 88.87 138.06 88.87 138.06 97.63 129.29 97.63 129.29 97.63 129.29 114.84 129.29 114.84 129.29M 116.83 127.29C 116.83 127.29 114.84 127.29 114.84 127.29 114.84 127.29 97.63 127.29 97.63 127.29 97.63 127.29 96.8 127.29 96.8 127.29 96.8 127.29 96.21 127.88 96.21 127.88 96.21 127.88 87.46 136.64 87.46 136.64 87.46 136.64 86.88 137.23 86.88 137.23 86.88 137.23 86.88 138.06 86.88 138.06 86.88 138.06 86.88 161 86.88 161 86.88 161 86.88 163 86.88 163 86.88 163 88.87 163 88.87 163 88.87 163 114.84 163 114.84 163 114.84 163 116.83 163 116.83 163 116.83 163 116.83 161 116.83 161 116.83 161 116.83 129.29 116.83 129.29 116.83 129.29 116.83 127.29 116.83 127.29 116.83 127.29 116.83 127.29 116.83 127.29ZM 98.58 139.12C 98.58 139.12 88.87 139.12 88.87 139.12 88.87 139.12 88.87 137.22 88.87 137.22 88.87 137.22 96.68 137.22 96.68 137.22 96.68 137.22 96.68 129.41 96.68 129.41 96.68 129.41 98.58 129.41 98.58 129.41 98.58 129.41 98.58 139.12 98.58 139.12ZM 91.61 144.84C 91.61 144.51 91.87 144.25 92.19 144.25 92.19 144.25 93.68 144.25 93.68 144.25 95.36 144.25 96.51 145.41 96.51 146.91 96.51 146.91 96.51 146.92 96.51 146.92 96.51 148.42 95.36 149.58 93.68 149.58 93.68 149.58 92.19 149.58 92.19 149.58 91.87 149.58 91.61 149.33 91.61 149 91.61 149 91.61 144.84 91.61 144.84ZM 93.68 148.53C 94.64 148.53 95.29 147.88 95.29 146.94 95.29 146.94 95.29 146.92 95.29 146.92 95.29 145.98 94.64 145.31 93.68 145.31 93.68 145.31 92.78 145.31 92.78 145.31 92.78 145.31 92.78 148.53 92.78 148.53 92.78 148.53 93.68 148.53 93.68 148.53ZM 97.03 148.83C 97.03 148.83 98.88 144.64 98.88 144.64 99.01 144.35 99.25 144.17 99.57 144.17 99.57 144.17 99.63 144.17 99.63 144.17 99.95 144.17 100.18 144.35 100.31 144.64 100.31 144.64 102.17 148.83 102.17 148.83 102.2 148.91 102.23 148.99 102.23 149.07 102.23 149.38 101.98 149.63 101.67 149.63 101.4 149.63 101.22 149.47 101.11 149.23 101.11 149.23 100.75 148.39 100.75 148.39 100.75 148.39 98.41 148.39 98.41 148.39 98.41 148.39 98.04 149.27 98.04 149.27 97.94 149.49 97.74 149.63 97.5 149.63 97.19 149.63 96.96 149.39 96.96 149.08 96.96 149 96.99 148.91 97.03 148.83ZM 100.32 147.35C 100.32 147.35 99.58 145.6 99.58 145.6 99.58 145.6 98.84 147.35 98.84 147.35 98.84 147.35 100.32 147.35 100.32 147.35ZM 103.81 145.34C 103.81 145.34 102.69 145.34 102.69 145.34 102.39 145.34 102.15 145.09 102.15 144.8 102.15 144.5 102.39 144.25 102.69 144.25 102.69 144.25 106.11 144.25 106.11 144.25 106.41 144.25 106.65 144.5 106.65 144.8 106.65 145.09 106.41 145.34 106.11 145.34 106.11 145.34 104.98 145.34 104.98 145.34 104.98 145.34 104.98 149.04 104.98 149.04 104.98 149.37 104.72 149.63 104.4 149.63 104.07 149.63 103.81 149.37 103.81 149.04 103.81 149.04 103.81 145.34 103.81 145.34ZM 106.63 148.83C 106.63 148.83 108.49 144.64 108.49 144.64 108.62 144.35 108.85 144.17 109.17 144.17 109.17 144.17 109.24 144.17 109.24 144.17 109.56 144.17 109.79 144.35 109.92 144.64 109.92 144.64 111.77 148.83 111.77 148.83 111.81 148.91 111.83 148.99 111.83 149.07 111.83 149.38 111.59 149.63 111.28 149.63 111 149.63 110.82 149.47 110.71 149.23 110.71 149.23 110.36 148.39 110.36 148.39 110.36 148.39 108.01 148.39 108.01 148.39 108.01 148.39 107.64 149.27 107.64 149.27 107.54 149.49 107.35 149.63 107.1 149.63 106.8 149.63 106.56 149.39 106.56 149.08 106.56 149 106.59 148.91 106.63 148.83ZM 109.92 147.35C 109.92 147.35 109.19 145.6 109.19 145.6 109.19 145.6 108.45 147.35 108.45 147.35 108.45 147.35 109.92 147.35 109.92 147.35ZM 157.78 153.29C 157.78 153.29 157.78 176.46 157.78 176.46 157.78 176.46 138.8 176.46 138.8 176.46 138.8 176.46 138.8 159.7 138.8 159.7 138.8 159.7 145.2 153.29 145.2 153.29 145.2 153.29 157.78 153.29 157.78 153.29M 159.78 151.29C 159.78 151.29 157.78 151.29 157.78 151.29 157.78 151.29 145.2 151.29 145.2 151.29 145.2 151.29 144.37 151.29 144.37 151.29 144.37 151.29 143.79 151.88 143.79 151.88 143.79 151.88 137.39 158.28 137.39 158.28 137.39 158.28 136.81 158.87 136.81 158.87 136.81 158.87 136.81 159.7 136.81 159.7 136.81 159.7 136.81 176.46 136.81 176.46 136.81 176.46 136.81 178.46 136.81 178.46 136.81 178.46 138.8 178.46 138.8 178.46 138.8 178.46 157.78 178.46 157.78 178.46 157.78 178.46 159.78 178.46 159.78 178.46 159.78 178.46 159.78 176.46 159.78 176.46 159.78 176.46 159.78 153.29 159.78 153.29 159.78 153.29 159.78 151.29 159.78 151.29 159.78 151.29 159.78 151.29 159.78 151.29ZM 146.2 160.78C 146.2 160.78 138.8 160.78 138.8 160.78 138.8 160.78 138.8 158.78 138.8 158.78 138.8 158.78 144.2 158.78 144.2 158.78 144.2 158.78 144.2 153.38 144.2 153.38 144.2 153.38 146.2 153.38 146.2 153.38 146.2 153.38 146.2 160.78 146.2 160.78ZM 48.93 156C 48.93 156 48.93 179.17 48.93 179.17 48.93 179.17 29.96 179.17 29.96 179.17 29.96 179.17 29.96 162.4 29.96 162.4 29.96 162.4 36.35 156 36.35 156 36.35 156 48.93 156 48.93 156M 50.93 154C 50.93 154 48.93 154 48.93 154 48.93 154 36.35 154 36.35 154 36.35 154 35.52 154 35.52 154 35.52 154 34.94 154.59 34.94 154.59 34.94 154.59 28.54 160.99 28.54 160.99 28.54 160.99 27.96 161.58 27.96 161.58 27.96 161.58 27.96 162.4 27.96 162.4 27.96 162.4 27.96 179.17 27.96 179.17 27.96 179.17 27.96 181.17 27.96 181.17 27.96 181.17 29.96 181.17 29.96 181.17 29.96 181.17 48.93 181.17 48.93 181.17 48.93 181.17 50.93 181.17 50.93 181.17 50.93 181.17 50.93 179.17 50.93 179.17 50.93 179.17 50.93 156 50.93 156 50.93 156 50.93 154 50.93 154 50.93 154 50.93 154 50.93 154ZM 37.35 163.49C 37.35 163.49 29.96 163.49 29.96 163.49 29.96 163.49 29.96 161.49 29.96 161.49 29.96 161.49 35.35 161.49 35.35 161.49 35.35 161.49 35.35 156.08 35.35 156.08 35.35 156.08 37.35 156.08 37.35 156.08 37.35 156.08 37.35 163.49 37.35 163.49ZM 31.95 167.37C 31.95 167.13 32.14 166.94 32.38 166.94 32.38 166.94 33.47 166.94 33.47 166.94 34.69 166.94 35.53 167.78 35.53 168.87 35.53 168.87 35.53 168.88 35.53 168.88 35.53 169.98 34.69 170.83 33.47 170.83 33.47 170.83 32.38 170.83 32.38 170.83 32.14 170.83 31.95 170.64 31.95 170.4 31.95 170.4 31.95 167.37 31.95 167.37ZM 33.47 170.06C 34.17 170.06 34.64 169.58 34.64 168.9 34.64 168.9 34.64 168.88 34.64 168.88 34.64 168.2 34.17 167.71 33.47 167.71 33.47 167.71 32.81 167.71 32.81 167.71 32.81 167.71 32.81 170.06 32.81 170.06 32.81 170.06 33.47 170.06 33.47 170.06ZM 35.91 170.28C 35.91 170.28 37.26 167.22 37.26 167.22 37.36 167.01 37.53 166.88 37.76 166.88 37.76 166.88 37.81 166.88 37.81 166.88 38.05 166.88 38.21 167.01 38.31 167.22 38.31 167.22 39.66 170.28 39.66 170.28 39.69 170.34 39.71 170.39 39.71 170.45 39.71 170.68 39.53 170.86 39.3 170.86 39.1 170.86 38.97 170.75 38.89 170.57 38.89 170.57 38.63 169.96 38.63 169.96 38.63 169.96 36.92 169.96 36.92 169.96 36.92 169.96 36.65 170.6 36.65 170.6 36.58 170.76 36.43 170.86 36.26 170.86 36.03 170.86 35.86 170.68 35.86 170.46 35.86 170.4 35.88 170.34 35.91 170.28ZM 38.31 169.2C 38.31 169.2 37.78 167.92 37.78 167.92 37.78 167.92 37.24 169.2 37.24 169.2 37.24 169.2 38.31 169.2 38.31 169.2ZM 40.87 167.73C 40.87 167.73 40.05 167.73 40.05 167.73 39.83 167.73 39.65 167.55 39.65 167.34 39.65 167.12 39.83 166.94 40.05 166.94 40.05 166.94 42.54 166.94 42.54 166.94 42.76 166.94 42.94 167.12 42.94 167.34 42.94 167.55 42.76 167.73 42.54 167.73 42.54 167.73 41.72 167.73 41.72 167.73 41.72 167.73 41.72 170.43 41.72 170.43 41.72 170.67 41.54 170.86 41.3 170.86 41.06 170.86 40.87 170.67 40.87 170.43 40.87 170.43 40.87 167.73 40.87 167.73ZM 42.93 170.28C 42.93 170.28 44.28 167.22 44.28 167.22 44.38 167.01 44.55 166.88 44.78 166.88 44.78 166.88 44.83 166.88 44.83 166.88 45.07 166.88 45.23 167.01 45.33 167.22 45.33 167.22 46.68 170.28 46.68 170.28 46.71 170.34 46.72 170.39 46.72 170.45 46.72 170.68 46.55 170.86 46.32 170.86 46.12 170.86 45.99 170.75 45.91 170.57 45.91 170.57 45.65 169.96 45.65 169.96 45.65 169.96 43.94 169.96 43.94 169.96 43.94 169.96 43.67 170.6 43.67 170.6 43.6 170.76 43.45 170.86 43.27 170.86 43.05 170.86 42.88 170.68 42.88 170.46 42.88 170.4 42.9 170.34 42.93 170.28ZM 45.33 169.2C 45.33 169.2 44.79 167.92 44.79 167.92 44.79 167.92 44.26 169.2 44.26 169.2 44.26 169.2 45.33 169.2 45.33 169.2ZM 109.84 170C 109.84 170 109.84 187.07 109.84 187.07 109.84 187.07 95.86 187.07 95.86 187.07 95.86 187.07 95.86 174.72 95.86 174.72 95.86 174.72 100.58 170 100.58 170 100.58 170 109.84 170 109.84 170M 111.84 168C 111.84 168 109.84 168 109.84 168 109.84 168 100.58 168 100.58 168 100.58 168 99.75 168 99.75 168 99.75 168 99.16 168.59 99.16 168.59 99.16 168.59 94.45 173.3 94.45 173.3 94.45 173.3 93.87 173.89 93.87 173.89 93.87 173.89 93.87 174.72 93.87 174.72 93.87 174.72 93.87 187.07 93.87 187.07 93.87 187.07 93.87 189.07 93.87 189.07 93.87 189.07 95.86 189.07 95.86 189.07 95.86 189.07 109.84 189.07 109.84 189.07 109.84 189.07 111.84 189.07 111.84 189.07 111.84 189.07 111.84 187.07 111.84 187.07 111.84 187.07 111.84 170 111.84 170 111.84 170 111.84 168 111.84 168 111.84 168 111.84 168 111.84 168ZM 101.57 175.78C 101.57 175.78 95.86 175.78 95.86 175.78 95.86 175.78 95.86 173.78 95.86 173.78 95.86 173.78 99.58 173.78 99.58 173.78 99.58 173.78 99.58 170.06 99.58 170.06 99.58 170.06 101.57 170.06 101.57 170.06 101.57 170.06 101.57 175.78 101.57 175.78ZM 18.97 135C 18.97 135 18.97 149 18.97 149 18.97 149 7.51 149 7.51 149 7.51 149 7.51 138.87 7.51 138.87 7.51 138.87 11.37 135 11.37 135 11.37 135 18.97 135 18.97 135M 20.97 133C 20.97 133 18.97 133 18.97 133 18.97 133 11.37 133 11.37 133 11.37 133 10.54 133 10.54 133 10.54 133 9.96 133.59 9.96 133.59 9.96 133.59 6.09 137.46 6.09 137.46 6.09 137.46 5.51 138.04 5.51 138.04 5.51 138.04 5.51 138.87 5.51 138.87 5.51 138.87 5.51 149 5.51 149 5.51 149 5.51 151 5.51 151 5.51 151 7.51 151 7.51 151 7.51 151 18.97 151 18.97 151 18.97 151 20.97 151 20.97 151 20.97 151 20.97 149 20.97 149 20.97 149 20.97 135 20.97 135 20.97 135 20.97 133 20.97 133 20.97 133 20.97 133 20.97 133ZM 12.37 139.92C 12.37 139.92 7.51 139.92 7.51 139.92 7.51 139.92 7.51 137.92 7.51 137.92 7.51 137.92 10.37 137.92 10.37 137.92 10.37 137.92 10.37 135.05 10.37 135.05 10.37 135.05 12.37 135.05 12.37 135.05 12.37 135.05 12.37 139.92 12.37 139.92ZM 182.22 136C 182.22 136 182.22 150 182.22 150 182.22 150 170.76 150 170.76 150 170.76 150 170.76 139.87 170.76 139.87 170.76 139.87 174.62 136 174.62 136 174.62 136 182.22 136 182.22 136M 184.22 134C 184.22 134 182.22 134 182.22 134 182.22 134 174.62 134 174.62 134 174.62 134 173.8 134 173.8 134 173.8 134 173.21 134.59 173.21 134.59 173.21 134.59 169.35 138.46 169.35 138.46 169.35 138.46 168.76 139.04 168.76 139.04 168.76 139.04 168.76 139.87 168.76 139.87 168.76 139.87 168.76 150 168.76 150 168.76 150 168.76 152 168.76 152 168.76 152 170.76 152 170.76 152 170.76 152 182.22 152 182.22 152 182.22 152 184.22 152 184.22 152 184.22 152 184.22 150 184.22 150 184.22 150 184.22 136 184.22 136 184.22 136 184.22 134 184.22 134 184.22 134 184.22 134 184.22 134ZM 175.62 140.92C 175.62 140.92 170.76 140.92 170.76 140.92 170.76 140.92 170.76 138.92 170.76 138.92 170.76 138.92 173.63 138.92 173.63 138.92 173.63 138.92 173.63 136.05 173.63 136.05 173.63 136.05 175.62 136.05 175.62 136.05 175.62 136.05 175.62 140.92 175.62 140.92ZM 105.85 69C 105.85 69 105.85 83 105.85 83 105.85 83 94.39 83 94.39 83 94.39 83 94.39 72.87 94.39 72.87 94.39 72.87 98.25 69 98.25 69 98.25 69 105.85 69 105.85 69M 107.85 67C 107.85 67 105.85 67 105.85 67 105.85 67 98.25 67 98.25 67 98.25 67 97.42 67 97.42 67 97.42 67 96.84 67.59 96.84 67.59 96.84 67.59 92.97 71.46 92.97 71.46 92.97 71.46 92.39 72.04 92.39 72.04 92.39 72.04 92.39 72.87 92.39 72.87 92.39 72.87 92.39 83 92.39 83 92.39 83 92.39 85 92.39 85 92.39 85 94.39 85 94.39 85 94.39 85 105.85 85 105.85 85 105.85 85 107.85 85 107.85 85 107.85 85 107.85 83 107.85 83 107.85 83 107.85 69 107.85 69 107.85 69 107.85 67 107.85 67 107.85 67 107.85 67 107.85 67ZM 99.25 73.92C 99.25 73.92 94.39 73.92 94.39 73.92 94.39 73.92 94.39 71.92 94.39 71.92 94.39 71.92 97.25 71.92 97.25 71.92 97.25 71.92 97.25 69.05 97.25 69.05 97.25 69.05 99.25 69.05 99.25 69.05 99.25 69.05 99.25 73.92 99.25 73.92ZM 131.81 180.93C 131.81 180.93 131.81 198 131.81 198 131.81 198 117.83 198 117.83 198 117.83 198 117.83 185.65 117.83 185.65 117.83 185.65 122.55 180.93 122.55 180.93 122.55 180.93 131.81 180.93 131.81 180.93M 133.81 178.93C 133.81 178.93 131.81 178.93 131.81 178.93 131.81 178.93 122.55 178.93 122.55 178.93 122.55 178.93 121.72 178.93 121.72 178.93 121.72 178.93 121.13 179.51 121.13 179.51 121.13 179.51 116.42 184.23 116.42 184.23 116.42 184.23 115.84 184.82 115.84 184.82 115.84 184.82 115.84 185.65 115.84 185.65 115.84 185.65 115.84 198 115.84 198 115.84 198 115.84 200 115.84 200 115.84 200 117.83 200 117.83 200 117.83 200 131.81 200 131.81 200 131.81 200 133.81 200 133.81 200 133.81 200 133.81 198 133.81 198 133.81 198 133.81 180.93 133.81 180.93 133.81 180.93 133.81 178.93 133.81 178.93 133.81 178.93 133.81 178.93 133.81 178.93ZM 123.54 186.71C 123.54 186.71 117.83 186.71 117.83 186.71 117.83 186.71 117.83 184.71 117.83 184.71 117.83 184.71 121.55 184.71 121.55 184.71 121.55 184.71 121.55 180.99 121.55 180.99 121.55 180.99 123.54 180.99 123.54 180.99 123.54 180.99 123.54 186.71 123.54 186.71ZM 145.79 28.93C 145.79 28.93 145.79 46 145.79 46 145.79 46 131.81 46 131.81 46 131.81 46 131.81 33.65 131.81 33.65 131.81 33.65 136.53 28.93 136.53 28.93 136.53 28.93 145.79 28.93 145.79 28.93M 147.79 26.93C 147.79 26.93 145.79 26.93 145.79 26.93 145.79 26.93 136.53 26.93 136.53 26.93 136.53 26.93 135.7 26.93 135.7 26.93 135.7 26.93 135.11 27.51 135.11 27.51 135.11 27.51 130.4 32.23 130.4 32.23 130.4 32.23 129.82 32.82 129.82 32.82 129.82 32.82 129.82 33.65 129.82 33.65 129.82 33.65 129.82 46 129.82 46 129.82 46 129.82 48 129.82 48 129.82 48 131.81 48 131.81 48 131.81 48 145.79 48 145.79 48 145.79 48 147.79 48 147.79 48 147.79 48 147.79 46 147.79 46 147.79 46 147.79 28.93 147.79 28.93 147.79 28.93 147.79 26.93 147.79 26.93 147.79 26.93 147.79 26.93 147.79 26.93ZM 137.53 34.71C 137.53 34.71 131.81 34.71 131.81 34.71 131.81 34.71 131.81 32.71 131.81 32.71 131.81 32.71 135.53 32.71 135.53 32.71 135.53 32.71 135.53 28.99 135.53 28.99 135.53 28.99 137.53 28.99 137.53 28.99 137.53 28.99 137.53 34.71 137.53 34.71ZM 181.74 55.93C 181.74 55.93 181.74 73 181.74 73 181.74 73 167.76 73 167.76 73 167.76 73 167.76 60.65 167.76 60.65 167.76 60.65 172.48 55.93 172.48 55.93 172.48 55.93 181.74 55.93 181.74 55.93M 183.74 53.93C 183.74 53.93 181.74 53.93 181.74 53.93 181.74 53.93 172.48 53.93 172.48 53.93 172.48 53.93 171.65 53.93 171.65 53.93 171.65 53.93 171.06 54.51 171.06 54.51 171.06 54.51 166.35 59.23 166.35 59.23 166.35 59.23 165.77 59.82 165.77 59.82 165.77 59.82 165.77 60.65 165.77 60.65 165.77 60.65 165.77 73 165.77 73 165.77 73 165.77 75 165.77 75 165.77 75 167.76 75 167.76 75 167.76 75 181.74 75 181.74 75 181.74 75 183.74 75 183.74 75 183.74 75 183.74 73 183.74 73 183.74 73 183.74 55.93 183.74 55.93 183.74 55.93 183.74 53.93 183.74 53.93 183.74 53.93 183.74 53.93 183.74 53.93ZM 173.48 61.71C 173.48 61.71 167.76 61.71 167.76 61.71 167.76 61.71 167.76 59.71 167.76 59.71 167.76 59.71 171.48 59.71 171.48 59.71 171.48 59.71 171.48 55.99 171.48 55.99 171.48 55.99 173.48 55.99 173.48 55.99 173.48 55.99 173.48 61.71 173.48 61.71ZM 29.96 43C 29.96 43 29.96 60.07 29.96 60.07 29.96 60.07 15.97 60.07 15.97 60.07 15.97 60.07 15.97 47.72 15.97 47.72 15.97 47.72 20.69 43 20.69 43 20.69 43 29.96 43 29.96 43M 31.95 41C 31.95 41 29.96 41 29.96 41 29.96 41 20.69 41 20.69 41 20.69 41 19.86 41 19.86 41 19.86 41 19.28 41.59 19.28 41.59 19.28 41.59 14.56 46.3 14.56 46.3 14.56 46.3 13.98 46.89 13.98 46.89 13.98 46.89 13.98 47.72 13.98 47.72 13.98 47.72 13.98 60.07 13.98 60.07 13.98 60.07 13.98 62.07 13.98 62.07 13.98 62.07 15.97 62.07 15.97 62.07 15.97 62.07 29.96 62.07 29.96 62.07 29.96 62.07 31.95 62.07 31.95 62.07 31.95 62.07 31.95 60.07 31.95 60.07 31.95 60.07 31.95 43 31.95 43 31.95 43 31.95 41 31.95 41 31.95 41 31.95 41 31.95 41ZM 21.69 48.78C 21.69 48.78 15.97 48.78 15.97 48.78 15.97 48.78 15.97 46.78 15.97 46.78 15.97 46.78 19.69 46.78 19.69 46.78 19.69 46.78 19.69 43.06 19.69 43.06 19.69 43.06 21.69 43.06 21.69 43.06 21.69 43.06 21.69 48.78 21.69 48.78ZM 15.97 72.93C 15.97 72.93 15.97 90 15.97 90 15.97 90 1.99 90 1.99 90 1.99 90 1.99 77.65 1.99 77.65 1.99 77.65 6.71 72.93 6.71 72.93 6.71 72.93 15.97 72.93 15.97 72.93M 17.97 70.93C 17.97 70.93 15.97 70.93 15.97 70.93 15.97 70.93 6.71 70.93 6.71 70.93 6.71 70.93 5.88 70.93 5.88 70.93 5.88 70.93 5.29 71.51 5.29 71.51 5.29 71.51 0.58 76.23 0.58 76.23 0.58 76.23-0 76.82-0 76.82-0 76.82-0 77.65-0 77.65-0 77.65-0 90-0 90-0 90-0 92-0 92-0 92 1.99 92 1.99 92 1.99 92 15.97 92 15.97 92 15.97 92 17.97 92 17.97 92 17.97 92 17.97 90 17.97 90 17.97 90 17.97 72.93 17.97 72.93 17.97 72.93 17.97 70.93 17.97 70.93 17.97 70.93 17.97 70.93 17.97 70.93ZM 7.71 78.71C 7.71 78.71 1.99 78.71 1.99 78.71 1.99 78.71 1.99 76.71 1.99 76.71 1.99 76.71 5.71 76.71 5.71 76.71 5.71 76.71 5.71 72.99 5.71 72.99 5.71 72.99 7.71 72.99 7.71 72.99 7.71 72.99 7.71 78.71 7.71 78.71ZM 84.84 167C 84.84 167 84.84 195 84.84 195 84.84 195 61.91 195 61.91 195 61.91 195 61.91 174.74 61.91 174.74 61.91 174.74 69.64 167 69.64 167 69.64 167 84.84 167 84.84 167M 86.84 165C 86.84 165 84.84 165 84.84 165 84.84 165 69.64 165 69.64 165 69.64 165 68.81 165 68.81 165 68.81 165 68.23 165.59 68.23 165.59 68.23 165.59 60.5 173.32 60.5 173.32 60.5 173.32 59.91 173.91 59.91 173.91 59.91 173.91 59.91 174.74 59.91 174.74 59.91 174.74 59.91 195 59.91 195 59.91 195 59.91 197 59.91 197 59.91 197 61.91 197 61.91 197 61.91 197 84.84 197 84.84 197 84.84 197 86.84 197 86.84 197 86.84 197 86.84 195 86.84 195 86.84 195 86.84 167 86.84 167 86.84 167 86.84 165 86.84 165 86.84 165 86.84 165 86.84 165ZM 70.64 175.84C 70.64 175.84 61.91 175.84 61.91 175.84 61.91 175.84 61.91 173.84 61.91 173.84 61.91 173.84 68.64 173.84 68.64 173.84 68.64 173.84 68.64 167.1 68.64 167.1 68.64 167.1 70.64 167.1 70.64 167.1 70.64 167.1 70.64 175.84 70.64 175.84ZM 64.32 180.74C 64.32 180.45 64.55 180.22 64.84 180.22 64.84 180.22 66.15 180.22 66.15 180.22 67.63 180.22 68.65 181.23 68.65 182.56 68.65 182.56 68.65 182.57 68.65 182.57 68.65 183.89 67.63 184.92 66.15 184.92 66.15 184.92 64.84 184.92 64.84 184.92 64.55 184.92 64.32 184.69 64.32 184.4 64.32 184.4 64.32 180.74 64.32 180.74ZM 66.15 183.99C 67 183.99 67.57 183.41 67.57 182.58 67.57 182.58 67.57 182.57 67.57 182.57 67.57 181.74 67 181.15 66.15 181.15 66.15 181.15 65.36 181.15 65.36 181.15 65.36 181.15 65.36 183.99 65.36 183.99 65.36 183.99 66.15 183.99 66.15 183.99ZM 69.11 184.25C 69.11 184.25 70.74 180.55 70.74 180.55 70.86 180.3 71.07 180.15 71.35 180.15 71.35 180.15 71.41 180.15 71.41 180.15 71.69 180.15 71.89 180.3 72 180.55 72 180.55 73.64 184.25 73.64 184.25 73.67 184.33 73.69 184.4 73.69 184.46 73.69 184.74 73.48 184.96 73.2 184.96 72.96 184.96 72.8 184.82 72.71 184.6 72.71 184.6 72.39 183.87 72.39 183.87 72.39 183.87 70.33 183.87 70.33 183.87 70.33 183.87 70 184.64 70 184.64 69.91 184.84 69.74 184.96 69.52 184.96 69.26 184.96 69.05 184.74 69.05 184.48 69.05 184.4 69.07 184.33 69.11 184.25ZM 72.01 182.95C 72.01 182.95 71.36 181.4 71.36 181.4 71.36 181.4 70.71 182.95 70.71 182.95 70.71 182.95 72.01 182.95 72.01 182.95ZM 75.1 181.17C 75.1 181.17 74.11 181.17 74.11 181.17 73.85 181.17 73.63 180.96 73.63 180.7 73.63 180.43 73.85 180.22 74.11 180.22 74.11 180.22 77.12 180.22 77.12 180.22 77.39 180.22 77.6 180.43 77.6 180.7 77.6 180.96 77.39 181.17 77.12 181.17 77.12 181.17 76.13 181.17 76.13 181.17 76.13 181.17 76.13 184.44 76.13 184.44 76.13 184.73 75.9 184.96 75.62 184.96 75.33 184.96 75.1 184.73 75.1 184.44 75.1 184.44 75.1 181.17 75.1 181.17ZM 77.59 184.25C 77.59 184.25 79.23 180.55 79.23 180.55 79.34 180.3 79.55 180.15 79.83 180.15 79.83 180.15 79.89 180.15 79.89 180.15 80.17 180.15 80.37 180.3 80.49 180.55 80.49 180.55 82.12 184.25 82.12 184.25 82.16 184.33 82.18 184.4 82.18 184.46 82.18 184.74 81.96 184.96 81.69 184.96 81.45 184.96 81.28 184.82 81.19 184.6 81.19 184.6 80.88 183.87 80.88 183.87 80.88 183.87 78.81 183.87 78.81 183.87 78.81 183.87 78.48 184.64 78.48 184.64 78.39 184.84 78.22 184.96 78.01 184.96 77.74 184.96 77.53 184.74 77.53 184.48 77.53 184.4 77.56 184.33 77.59 184.25ZM 80.49 182.95C 80.49 182.95 79.84 181.4 79.84 181.4 79.84 181.4 79.19 182.95 79.19 182.95 79.19 182.95 80.49 182.95 80.49 182.95Z" fill="rgb(0,113,255)"/></svg>