<?xml version="1.0" encoding="utf-8"?>
<svg xmlns="http://www.w3.org/2000/svg"
	xmlns:xlink="http://www.w3.org/1999/xlink"
	width="223px" height="225px" viewBox="0 0 223 225">
<path fillRule="evenodd" d="M 132.41 9.25C 145.03 9.25 155.26 19.46 155.26 32.06 155.26 44.66 145.03 54.88 132.41 54.88 119.79 54.88 109.56 44.66 109.56 32.06 109.56 19.46 119.79 9.25 132.41 9.25M 132.41 6.9C 118.51 6.9 107.21 18.19 107.21 32.06 107.21 45.94 118.51 57.22 132.41 57.22 146.3 57.22 157.6 45.94 157.6 32.06 157.6 18.19 146.3 6.9 132.41 6.9 132.41 6.9 132.41 6.9 132.41 6.9ZM 119.89 34.64C 119.24 34.64 118.71 34.12 118.71 33.47 118.71 33.47 118.71 26.91 118.71 26.91 118.71 26.26 119.24 25.73 119.89 25.73 120.54 25.73 121.06 26.26 121.06 26.91 121.06 26.91 121.06 33.47 121.06 33.47 121.06 34.12 120.54 34.64 119.89 34.64ZM 144.93 34.64C 144.28 34.64 143.75 34.12 143.75 33.47 143.75 33.47 143.75 26.91 143.75 26.91 143.75 26.26 144.28 25.73 144.93 25.73 145.57 25.73 146.1 26.26 146.1 26.91 146.1 26.91 146.1 33.47 146.1 33.47 146.1 34.12 145.57 34.64 144.93 34.64ZM 132.41 39.95C 131.76 39.95 131.23 39.43 131.23 38.78 131.23 38.13 131.76 37.61 132.41 37.61 133.7 37.61 134.75 36.56 134.75 35.27 134.75 33.97 133.7 32.92 132.41 32.92 132.41 32.92 131.23 32.92 131.23 32.92 131.23 32.92 131.23 18 131.23 18 131.23 17.35 131.76 16.83 132.41 16.83 133.06 16.83 133.58 17.35 133.58 18 133.58 18 133.58 30.73 133.58 30.73 135.6 31.25 137.1 33.09 137.1 35.27 137.1 37.85 135 39.95 132.41 39.95ZM 132.8 49.89C 128.35 49.89 124.74 46.28 124.74 41.84 124.74 41.19 125.26 40.67 125.91 40.67 126.56 40.67 127.09 41.19 127.09 41.84 127.09 44.99 129.65 47.55 132.8 47.55 135.95 47.55 138.51 44.99 138.51 41.84 138.51 41.19 139.04 40.67 139.68 40.67 140.33 40.67 140.86 41.19 140.86 41.84 140.86 46.28 137.24 49.89 132.8 49.89ZM 158.39 45.27C 156.55 45.27 154.79 44.48 153.56 43.12 153.13 42.64 153.17 41.9 153.65 41.47 154.13 41.03 154.87 41.07 155.3 41.55 156.09 42.42 157.21 42.92 158.39 42.92 160.67 42.92 162.53 41.06 162.53 38.78 162.53 36.5 160.67 34.64 158.39 34.64 157.86 34.64 157.34 34.74 156.86 34.93 156.25 35.18 155.57 34.88 155.33 34.28 155.09 33.68 155.38 33 155.99 32.76 156.75 32.45 157.56 32.3 158.39 32.3 161.97 32.3 164.88 35.21 164.88 38.78 164.88 42.36 161.97 45.27 158.39 45.27ZM 106.19 45.27C 102.61 45.27 99.7 42.36 99.7 38.78 99.7 35.21 102.61 32.3 106.19 32.3 107.02 32.3 107.83 32.45 108.59 32.76 109.19 33 109.49 33.68 109.25 34.28 109.01 34.88 108.32 35.17 107.72 34.94 107.24 34.74 106.72 34.64 106.19 34.64 103.9 34.64 102.04 36.5 102.04 38.78 102.04 41.06 103.9 42.92 106.19 42.92 107.36 42.92 108.48 42.42 109.27 41.55 109.71 41.07 110.45 41.03 110.93 41.47 111.41 41.9 111.45 42.64 111.01 43.12 109.78 44.49 108.02 45.27 106.19 45.27ZM 132.41 19.17C 127.01 19.17 121.74 17.3 117.57 13.89 117.07 13.48 117 12.75 117.41 12.24 117.82 11.74 118.56 11.67 119.06 12.08 122.81 15.14 127.55 16.83 132.41 16.83 142.05 16.83 150.46 10.32 152.85 1 153.01 0.37 153.65 0 154.28 0.16 154.91 0.32 155.29 0.96 155.13 1.58 152.47 11.94 143.13 19.17 132.41 19.17ZM 132.41 14.06C 128.85 14.06 125.4 13.04 122.43 11.12 121.89 10.77 121.73 10.04 122.09 9.5 122.44 8.95 123.17 8.8 123.71 9.15 126.3 10.83 129.3 11.72 132.41 11.72 138.38 11.72 143.82 8.43 146.58 3.14 146.88 2.56 147.59 2.34 148.17 2.64 148.74 2.94 148.97 3.65 148.67 4.22 145.49 10.29 139.26 14.06 132.41 14.06ZM 164.94 182.21C 164.94 182.21 164.94 154.24 164.94 154.24 164.94 153.57 165.48 153.04 166.14 153.04 166.81 153.04 167.34 153.57 167.34 154.24 167.34 154.24 167.34 178.78 167.34 178.78 167.34 178.78 189.74 170.57 189.74 170.57 189.74 170.57 212.14 178.78 212.14 178.78 212.14 178.78 212.14 154.24 212.14 154.24 212.14 153.57 212.68 153.04 213.34 153.04 214.01 153.04 214.54 153.57 214.54 154.24 214.54 154.24 214.54 182.21 214.54 182.21 214.54 182.21 189.74 173.13 189.74 173.13 189.74 173.13 164.94 182.21 164.94 182.21ZM 189.74 123.84C 192.95 123.84 196 124.49 198.78 125.65 205.45 128.45 210.56 134.24 212.4 141.35 212.88 143.23 213.14 145.19 213.14 147.21 213.14 160.11 202.66 170.57 189.74 170.57 176.82 170.57 166.35 160.11 166.35 147.21 166.35 144.47 166.82 141.84 167.69 139.39 170.91 130.33 179.57 123.84 189.74 123.84M 189.74 121.44C 178.84 121.44 169.07 128.34 165.42 138.59 164.44 141.35 163.94 144.25 163.94 147.21 163.94 161.41 175.52 172.97 189.74 172.97 203.97 172.97 215.54 161.41 215.54 147.21 215.54 145.04 215.27 142.86 214.72 140.76 212.72 133.01 207.11 126.54 199.71 123.44 196.55 122.12 193.2 121.44 189.74 121.44 189.74 121.44 189.74 121.44 189.74 121.44ZM 176.92 151.13C 176.26 151.13 175.72 150.59 175.72 149.93 175.72 149.93 175.72 144.81 175.72 144.81 175.72 144.15 176.26 143.61 176.92 143.61 177.59 143.61 178.12 144.15 178.12 144.81 178.12 144.81 178.12 149.93 178.12 149.93 178.12 150.59 177.59 151.13 176.92 151.13ZM 179.49 151.13C 179.49 151.13 174.36 151.13 174.36 151.13 173.69 151.13 173.16 150.59 173.16 149.93 173.16 149.27 173.69 148.73 174.36 148.73 174.36 148.73 179.49 148.73 179.49 148.73 180.15 148.73 180.69 149.27 180.69 149.93 180.69 150.59 180.15 151.13 179.49 151.13ZM 205.13 151.13C 205.13 151.13 200 151.13 200 151.13 199.33 151.13 198.8 150.59 198.8 149.93 198.8 149.27 199.33 148.73 200 148.73 200 148.73 205.13 148.73 205.13 148.73 205.79 148.73 206.33 149.27 206.33 149.93 206.33 150.59 205.79 151.13 205.13 151.13ZM 202.56 151.13C 201.9 151.13 201.36 150.59 201.36 149.93 201.36 149.93 201.36 144.81 201.36 144.81 201.36 144.15 201.9 143.61 202.56 143.61 203.23 143.61 203.76 144.15 203.76 144.81 203.76 144.81 203.76 149.93 203.76 149.93 203.76 150.59 203.23 151.13 202.56 151.13ZM 190.14 165.46C 187.24 165.46 184.6 163.98 183.09 161.5 182.74 160.94 182.92 160.2 183.49 159.85 184.06 159.51 184.8 159.69 185.14 160.25 186.21 162.01 188.08 163.06 190.14 163.06 190.81 163.06 191.34 163.6 191.34 164.26 191.34 164.93 190.81 165.46 190.14 165.46ZM 162.5 155.13C 159.18 155.13 156.49 152.44 156.49 149.13 156.49 145.82 159.18 143.13 162.5 143.13 163.43 143.13 164.32 143.34 165.14 143.74 165.74 144.03 165.98 144.75 165.69 145.35 165.4 145.94 164.68 146.19 164.08 145.9 163.59 145.65 163.05 145.53 162.5 145.53 160.51 145.53 158.89 147.14 158.89 149.13 158.89 151.12 160.51 152.73 162.5 152.73 163.15 152.73 163.79 152.56 164.34 152.23 164.91 151.89 165.65 152.07 165.99 152.64 166.33 153.21 166.14 153.95 165.57 154.29 164.64 154.84 163.58 155.13 162.5 155.13ZM 216.99 155.13C 215.9 155.13 214.84 154.84 213.91 154.29 213.34 153.95 213.16 153.21 213.5 152.64 213.84 152.07 214.58 151.89 215.15 152.23 215.7 152.56 216.34 152.73 216.99 152.73 218.98 152.73 220.59 151.12 220.59 149.13 220.59 147.14 218.98 145.53 216.99 145.53 216.43 145.53 215.9 145.65 215.4 145.9 214.81 146.19 214.08 145.94 213.79 145.35 213.5 144.75 213.74 144.03 214.34 143.74 215.17 143.34 216.06 143.13 216.99 143.13 220.3 143.13 223 145.82 223 149.13 223 152.44 220.3 155.13 216.99 155.13ZM 177.42 142.83C 173.82 142.83 170.37 142.04 167.16 140.47 166.56 140.18 166.32 139.46 166.61 138.87 166.9 138.27 167.61 138.03 168.21 138.32 171.09 139.72 174.19 140.43 177.42 140.43 184.87 140.43 191.84 136.43 195.6 130 196.47 128.52 197.15 126.95 197.63 125.32 197.81 124.68 198.48 124.32 199.12 124.5 199.75 124.69 200.12 125.35 199.94 125.99 199.41 127.8 198.65 129.56 197.68 131.22 193.48 138.38 185.72 142.83 177.42 142.83ZM 212.4 142.55C 212.34 142.55 212.27 142.55 212.21 142.54 205.24 141.45 199.18 137.33 195.6 131.21 195.27 130.64 195.46 129.91 196.04 129.57 196.61 129.24 197.34 129.43 197.68 130 200.89 135.49 206.32 139.19 212.58 140.17 213.24 140.27 213.69 140.88 213.58 141.54 213.49 142.13 212.98 142.55 212.4 142.55ZM 190.34 156.93C 189.29 156.93 188.23 156.53 187.43 155.73 186.96 155.27 186.96 154.51 187.43 154.04 187.9 153.57 188.66 153.57 189.13 154.04 189.8 154.7 190.88 154.7 191.55 154.04 192.21 153.37 192.21 152.29 191.55 151.63 190.88 150.96 189.8 150.96 189.13 151.63 188.66 152.1 187.9 152.09 187.43 151.63 186.96 151.16 186.96 150.4 187.43 149.93 189.04 148.33 191.65 148.33 193.25 149.93 194.85 151.53 194.85 154.13 193.25 155.73 192.45 156.53 191.39 156.93 190.34 156.93ZM 189.74 150.63C 189.08 150.63 188.54 150.09 188.54 149.43 188.54 149.43 188.54 143.12 188.54 143.12 188.54 142.46 189.08 141.92 189.74 141.92 190.41 141.92 190.95 142.46 190.95 143.12 190.95 143.12 190.95 149.43 190.95 149.43 190.95 150.09 190.41 150.63 189.74 150.63ZM 62.29 106.1C 58.04 106.1 54.59 102.65 54.59 98.41 54.59 97.59 55.26 96.91 56.09 96.91 56.92 96.91 57.6 97.59 57.6 98.41 57.6 101 59.7 103.1 62.29 103.1 64.88 103.1 66.99 101 66.99 98.41 66.99 97.59 67.66 96.91 68.49 96.91 69.32 96.91 69.99 97.59 69.99 98.41 69.99 102.65 66.54 106.1 62.29 106.1ZM 62.29 54.08C 66.3 54.08 70.11 54.88 73.59 56.34 80.74 59.33 86.44 65.07 89.37 72.24 89.86 73.45 90.28 74.69 90.61 75.97 91.21 78.31 91.53 80.76 91.53 83.29 91.53 99.41 78.44 112.49 62.29 112.49 46.14 112.49 33.05 99.41 33.05 83.29 33.05 79.86 33.64 76.57 34.72 73.52 34.88 73.08 35.04 72.65 35.22 72.23 39.59 61.58 50.06 54.08 62.29 54.08M 62.29 51.08C 49.14 51.08 37.42 58.94 32.44 71.09 32.27 71.5 32.08 71.98 31.89 72.51 30.67 75.96 30.04 79.58 30.04 83.29 30.04 101.04 44.51 115.49 62.29 115.49 80.07 115.49 94.54 101.04 94.54 83.29 94.54 80.57 94.2 77.85 93.52 75.22 93.16 73.82 92.7 72.44 92.15 71.11 88.94 63.25 82.59 56.86 74.75 53.58 70.8 51.92 66.61 51.08 62.29 51.08 62.29 51.08 62.29 51.08 62.29 51.08ZM 90.22 73.27C 86.49 69.27 82.06 66.19 77.04 64.09 72.37 62.13 67.4 61.13 62.29 61.13 51.74 61.13 41.57 65.55 34.37 73.25 34.37 73.25 32.18 71.2 32.18 71.2 39.94 62.9 50.91 58.13 62.29 58.13 67.81 58.13 73.16 59.21 78.21 61.32 83.62 63.59 88.4 66.92 92.42 71.22 92.42 71.22 90.22 73.27 90.22 73.27ZM 46.27 88.19C 45.44 88.19 44.76 87.52 44.76 86.69 44.76 86.69 44.76 80.29 44.76 80.29 44.76 79.46 45.44 78.79 46.27 78.79 47.1 78.79 47.77 79.46 47.77 80.29 47.77 80.29 47.77 86.69 47.77 86.69 47.77 87.52 47.1 88.19 46.27 88.19ZM 81.4 89.22C 81.01 89.22 80.63 89.07 80.33 88.78 80.33 88.78 74.74 83.19 74.74 83.19 74.74 83.19 79.74 78.2 79.74 78.2 80.33 77.61 81.28 77.61 81.87 78.2 82.45 78.78 82.45 79.73 81.87 80.32 81.87 80.32 78.99 83.19 78.99 83.19 78.99 83.19 82.46 86.66 82.46 86.66 83.05 87.24 83.05 88.19 82.46 88.78 82.17 89.07 81.78 89.22 81.4 89.22ZM 28.23 93.19C 24.09 93.19 20.72 89.82 20.72 85.69 20.72 81.55 24.09 78.19 28.23 78.19 29.39 78.19 30.51 78.44 31.54 78.95 32.29 79.32 32.59 80.22 32.23 80.96 31.86 81.7 30.96 82.01 30.22 81.64 29.6 81.34 28.93 81.19 28.23 81.19 25.75 81.19 23.73 83.2 23.73 85.69 23.73 88.17 25.75 90.19 28.23 90.19 29.05 90.19 29.84 89.97 30.54 89.56 31.25 89.13 32.17 89.36 32.6 90.08 33.02 90.79 32.79 91.71 32.08 92.13 30.92 92.82 29.59 93.19 28.23 93.19ZM 96.35 93.19C 94.99 93.19 93.66 92.82 92.5 92.13 91.79 91.71 91.56 90.79 91.98 90.08 92.41 89.36 93.33 89.13 94.04 89.56 94.74 89.97 95.53 90.19 96.35 90.19 98.83 90.19 100.85 88.17 100.85 85.69 100.85 83.2 98.83 81.19 96.35 81.19 95.65 81.19 94.98 81.34 94.36 81.64 93.62 82.01 92.72 81.7 92.35 80.96 91.99 80.22 92.29 79.32 93.04 78.95 94.07 78.44 95.18 78.19 96.35 78.19 100.49 78.19 103.86 81.55 103.86 85.69 103.86 89.82 100.49 93.19 96.35 93.19ZM 64.86 94.38C 64.48 94.38 64.09 94.23 63.8 93.94 63.21 93.36 63.21 92.41 63.8 91.82 64.63 90.99 64.63 89.64 63.8 88.81 63.4 88.4 62.86 88.18 62.29 88.18 62.29 88.18 62.29 88.18 62.29 88.18 61.72 88.18 61.19 88.4 60.78 88.81 59.95 89.64 59.95 90.99 60.78 91.82 61.37 92.41 61.37 93.36 60.78 93.94 60.2 94.53 59.25 94.53 58.66 93.94 56.65 91.94 56.65 88.69 58.66 86.68 59.63 85.71 60.92 85.18 62.29 85.18 62.29 85.18 62.29 85.18 62.29 85.18 63.66 85.18 64.95 85.71 65.93 86.68 67.93 88.69 67.93 91.94 65.93 93.94 65.63 94.23 65.25 94.38 64.86 94.38ZM 62.29 87.56C 61.46 87.56 60.79 86.89 60.79 86.06 60.79 86.06 60.79 78.18 60.79 78.18 60.79 77.35 61.46 76.68 62.29 76.68 63.12 76.68 63.79 77.35 63.79 78.18 63.79 78.18 63.79 86.06 63.79 86.06 63.79 86.89 63.12 87.56 62.29 87.56ZM 33.68 71.33C 30.42 71.33 27.32 70.15 24.88 67.96 22.24 65.61 20.69 62.38 20.49 58.85 20.29 55.33 21.48 51.94 23.84 49.31 26.2 46.68 29.44 45.13 32.96 44.93 36.49 44.74 39.88 45.92 42.52 48.28 45.15 50.63 46.71 53.87 46.9 57.39 46.95 58.22 46.31 58.92 45.49 58.97 44.67 59 43.95 58.38 43.9 57.55 43.75 54.83 42.55 52.33 40.51 50.51 38.48 48.69 35.85 47.77 33.13 47.93 30.4 48.08 27.9 49.28 26.08 51.31 24.26 53.35 23.34 55.96 23.49 58.69 23.8 64.31 28.64 68.62 34.26 68.31 35.09 68.28 35.8 68.9 35.85 69.73 35.89 70.55 35.26 71.26 34.43 71.31 34.18 71.32 33.93 71.33 33.68 71.33ZM 90.9 71.33C 90.65 71.33 90.4 71.32 90.15 71.31 89.33 71.26 88.69 70.55 88.74 69.73 88.78 68.9 89.47 68.29 90.32 68.31 93.05 68.47 95.67 67.55 97.7 65.73 99.74 63.91 100.94 61.41 101.09 58.69 101.25 55.96 100.33 53.35 98.51 51.31 96.68 49.28 94.18 48.08 91.45 47.93 88.73 47.78 86.11 48.69 84.07 50.51 82.04 52.33 80.83 54.83 80.68 57.55 80.63 58.38 79.94 58.99 79.1 58.97 78.27 58.92 77.63 58.22 77.68 57.39 77.88 53.87 79.43 50.63 82.07 48.28 84.7 45.92 88.1 44.74 91.62 44.93 95.15 45.13 98.39 46.68 100.74 49.31 103.1 51.94 104.29 55.33 104.09 58.85 103.9 62.38 102.34 65.61 99.71 67.96 97.26 70.15 94.16 71.33 90.9 71.33ZM 112.1 151.41C 108.67 151.41 105.87 148.62 105.87 145.19 105.87 144.56 106.38 144.05 107.01 144.05 107.64 144.05 108.15 144.56 108.15 145.19 108.15 147.37 109.92 149.14 112.1 149.14 114.28 149.14 116.06 147.37 116.06 145.19 116.06 144.56 116.57 144.05 117.19 144.05 117.82 144.05 118.33 144.56 118.33 145.19 118.33 148.62 115.54 151.41 112.1 151.41ZM 124.61 131.86C 124.61 133.01 123.68 133.95 122.52 133.95 121.37 133.95 120.43 133.01 120.43 131.86 120.43 130.71 121.37 129.77 122.52 129.77 123.68 129.77 124.61 130.71 124.61 131.86ZM 103.73 131.86C 103.73 133.01 102.79 133.95 101.64 133.95 100.48 133.95 99.55 133.01 99.55 131.86 99.55 130.71 100.48 129.77 101.64 129.77 102.79 129.77 103.73 130.71 103.73 131.86ZM 112.1 156.33C 109.07 156.33 106.22 155.15 104.07 153 101.93 150.86 100.75 148.01 100.75 144.99 100.75 144.99 100.75 140.74 100.75 140.74 96.34 140.18 92.92 136.41 92.92 131.86 92.92 128.78 94.48 125.96 97.08 124.3 99.13 123 101.89 122.81 104.22 123.8 104.22 123.8 109.29 125.96 109.29 125.96 111.08 126.73 113.13 126.73 114.92 125.96 114.92 125.96 119.99 123.8 119.99 123.8 122.31 122.81 125.07 123 127.12 124.3 129.73 125.96 131.28 128.78 131.28 131.86 131.28 136.41 127.86 140.18 123.45 140.74 123.45 140.74 123.45 144.77 123.45 144.77 123.45 150.97 118.51 156.15 112.42 156.32 112.42 156.32 112.1 156.33 112.1 156.33ZM 101.08 125.43C 100.07 125.43 99.11 125.7 98.3 126.22 96.36 127.45 95.2 129.56 95.2 131.86 95.2 135.54 98.2 138.54 101.88 138.54 101.88 138.54 103.02 138.54 103.02 138.54 103.02 138.54 103.02 144.99 103.02 144.99 103.02 147.41 103.97 149.69 105.68 151.4 107.4 153.11 109.68 154.05 112.1 154.05 112.1 154.05 112.36 154.05 112.36 154.05 117.22 153.92 121.18 149.76 121.18 144.77 121.18 144.77 121.18 138.54 121.18 138.54 121.18 138.54 122.32 138.54 122.32 138.54 126.01 138.54 129.01 135.54 129.01 131.86 129.01 129.56 127.85 127.46 125.9 126.22 124.48 125.31 122.53 125.19 120.88 125.89 120.88 125.89 115.81 128.05 115.81 128.05 113.45 129.06 110.75 129.06 108.39 128.05 108.39 128.05 103.32 125.89 103.32 125.89 102.61 125.59 101.84 125.43 101.08 125.43ZM 114.14 140.87C 113.97 140.87 113.79 140.8 113.66 140.67 113.39 140.4 113.4 139.97 113.66 139.71 113.66 139.71 114.69 138.68 114.69 138.68 114.96 138.41 115.39 138.42 115.66 138.68 115.92 138.95 115.92 139.38 115.66 139.64 115.66 139.64 114.63 140.67 114.63 140.67 114.49 140.8 114.32 140.87 114.14 140.87ZM 110.06 140.87C 109.89 140.87 109.71 140.8 109.58 140.67 109.58 140.67 108.55 139.64 108.55 139.64 108.28 139.38 108.28 138.95 108.55 138.68 108.81 138.41 109.25 138.41 109.51 138.68 109.51 138.68 110.54 139.71 110.54 139.71 110.81 139.97 110.81 140.41 110.54 140.67 110.41 140.8 110.23 140.87 110.06 140.87ZM 112.1 156.32C 98.03 156.32 86.58 144.89 86.58 130.84 86.58 116.78 98.03 105.35 112.1 105.35 126.17 105.35 137.62 116.78 137.62 130.84 137.62 144.89 126.17 156.32 112.1 156.32ZM 112.1 107.62C 99.28 107.62 88.85 118.04 88.85 130.84 88.85 143.64 99.28 154.05 112.1 154.05 124.92 154.05 135.35 143.64 135.35 130.84 135.35 118.04 124.92 107.62 112.1 107.62ZM 84.81 142.25C 78.51 142.25 73.38 137.13 73.38 130.84 73.38 124.55 78.51 119.43 84.81 119.43 86.48 119.43 88.1 119.78 89.61 120.48 90.18 120.75 90.43 121.42 90.16 121.99 89.9 122.56 89.22 122.81 88.65 122.54 87.44 121.98 86.15 121.7 84.81 121.7 79.76 121.7 75.65 125.8 75.65 130.84 75.65 135.88 79.76 139.98 84.81 139.98 86.05 139.98 87.25 139.73 88.39 139.25 88.97 139 89.63 139.27 89.88 139.85 90.12 140.43 89.86 141.09 89.28 141.34 87.86 141.94 86.36 142.25 84.81 142.25ZM 84.98 137.31C 81.4 137.31 78.5 134.4 78.5 130.84 78.5 127.27 81.4 124.37 84.98 124.37 85.35 124.37 85.66 124.67 85.66 125.05 85.66 125.42 85.35 125.73 84.98 125.73 82.16 125.73 79.86 128.02 79.86 130.84 79.86 133.65 82.16 135.94 84.98 135.94 85.35 135.94 85.66 136.25 85.66 136.63 85.66 137 85.35 137.31 84.98 137.31ZM 139.4 142.25C 137.85 142.25 136.34 141.94 134.92 141.34 134.35 141.09 134.08 140.43 134.32 139.85 134.57 139.27 135.24 139 135.81 139.25 136.95 139.73 138.15 139.98 139.4 139.98 144.44 139.98 148.55 135.88 148.55 130.84 148.55 125.8 144.44 121.7 139.4 121.7 138.05 121.7 136.76 121.98 135.55 122.54 134.98 122.81 134.31 122.56 134.04 121.99 133.78 121.42 134.03 120.75 134.59 120.48 136.1 119.78 137.72 119.43 139.4 119.43 145.7 119.43 150.82 124.55 150.82 130.84 150.82 137.13 145.7 142.25 139.4 142.25ZM 139.23 137.31C 138.85 137.31 138.55 137 138.55 136.63 138.55 136.25 138.85 135.94 139.23 135.94 142.05 135.94 144.34 133.65 144.34 130.84 144.34 128.02 142.05 125.73 139.23 125.73 138.85 125.73 138.55 125.42 138.55 125.05 138.55 124.67 138.85 124.37 139.23 124.37 142.8 124.37 145.7 127.27 145.7 130.84 145.7 134.4 142.8 137.31 139.23 137.31ZM 158.26 119.77C 149.98 119.77 142.16 116.57 136.27 110.76 130.25 104.84 126.94 96.93 126.94 88.49 126.94 71.24 140.99 57.21 158.26 57.21 175.54 57.21 189.59 71.24 189.59 88.49 189.59 96.93 186.28 104.84 180.26 110.76 174.37 116.57 166.55 119.77 158.26 119.77ZM 158.26 59.79C 142.42 59.79 129.52 72.66 129.52 88.49 129.52 96.24 132.56 103.49 138.08 108.93 143.49 114.26 150.66 117.2 158.26 117.2 165.87 117.2 173.04 114.26 178.45 108.93 183.97 103.49 187.01 96.24 187.01 88.49 187.01 72.66 174.12 59.79 158.26 59.79ZM 140.67 71.7C 140.47 71.7 140.27 71.62 140.12 71.47 139.82 71.17 139.82 70.68 140.12 70.38 150.13 60.39 166.41 60.39 176.41 70.38 176.71 70.68 176.71 71.17 176.41 71.47 176.11 71.77 175.61 71.77 175.31 71.47 165.91 62.08 150.62 62.08 141.22 71.47 141.07 71.62 140.87 71.7 140.67 71.7ZM 125.03 96.55C 120.87 96.55 117.48 93.17 117.48 89.01 117.48 84.86 120.87 81.48 125.03 81.48 126.2 81.48 127.32 81.73 128.35 82.25 128.99 82.56 129.26 83.33 128.94 83.97 128.63 84.61 127.86 84.87 127.22 84.56 126.53 84.22 125.8 84.05 125.03 84.05 122.29 84.05 120.06 86.28 120.06 89.01 120.06 91.75 122.29 93.97 125.03 93.97 125.93 93.97 126.81 93.73 127.57 93.28 128.18 92.91 128.97 93.11 129.34 93.72 129.7 94.34 129.5 95.13 128.89 95.49 127.73 96.18 126.39 96.55 125.03 96.55ZM 191.5 96.55C 190.14 96.55 188.8 96.18 187.64 95.49 187.03 95.13 186.83 94.34 187.19 93.72 187.56 93.11 188.35 92.91 188.96 93.28 189.73 93.73 190.6 93.97 191.5 93.97 194.24 93.97 196.47 91.75 196.47 89.01 196.47 86.28 194.24 84.05 191.5 84.05 190.73 84.05 190 84.22 189.31 84.56 188.67 84.87 187.9 84.61 187.59 83.97 187.27 83.33 187.54 82.56 188.17 82.25 189.21 81.73 190.33 81.48 191.5 81.48 195.66 81.48 199.05 84.86 199.05 89.01 199.05 93.17 195.66 96.55 191.5 96.55ZM 161.49 93.86C 161.16 93.86 160.83 93.73 160.57 93.48 160.07 92.97 160.07 92.16 160.57 91.66 161.19 91.04 161.53 90.22 161.53 89.35 161.53 88.48 161.19 87.66 160.57 87.05 159.34 85.81 157.19 85.81 155.96 87.05 154.68 88.32 154.68 90.39 155.96 91.66 156.46 92.16 156.46 92.97 155.96 93.48 155.45 93.98 154.64 93.98 154.13 93.48 151.85 91.2 151.85 87.5 154.13 85.22 155.24 84.12 156.7 83.51 158.26 83.51 159.83 83.51 161.29 84.12 162.4 85.22 163.5 86.33 164.11 87.79 164.11 89.35 164.11 90.91 163.5 92.38 162.4 93.48 162.15 93.73 161.82 93.86 161.49 93.86ZM 158.26 85.31C 157.55 85.31 156.97 84.74 156.97 84.03 156.97 84.03 156.97 78.69 156.97 78.69 156.97 77.98 157.55 77.4 158.26 77.4 158.98 77.4 159.55 77.98 159.55 78.69 159.55 78.69 159.55 84.03 159.55 84.03 159.55 84.74 158.98 85.31 158.26 85.31ZM 158.24 111.13C 155.84 111.13 151.22 108.17 151.22 104.12 151.22 103.41 151.79 102.83 152.51 102.83 153.22 102.83 153.8 103.41 153.8 104.12 153.8 106.45 157 108.56 158.24 108.56 159.49 108.56 162.69 106.45 162.69 104.12 162.69 103.41 163.27 102.83 163.98 102.83 164.69 102.83 165.27 103.41 165.27 104.12 165.27 108.17 160.65 111.13 158.24 111.13ZM 175.75 85.77C 175.75 85.77 171.31 85.77 171.31 85.77 170.6 85.77 170.02 85.2 170.02 84.49 170.02 83.77 170.6 83.2 171.31 83.2 171.31 83.2 175.75 83.2 175.75 83.2 176.47 83.2 177.04 83.77 177.04 84.49 177.04 85.2 176.47 85.77 175.75 85.77ZM 145.22 85.77C 145.22 85.77 140.78 85.77 140.78 85.77 140.07 85.77 139.49 85.2 139.49 84.49 139.49 83.77 140.07 83.2 140.78 83.2 140.78 83.2 145.22 83.2 145.22 83.2 145.93 83.2 146.51 83.77 146.51 84.49 146.51 85.2 145.93 85.77 145.22 85.77ZM 179.36 111.14C 178.85 111.14 178.37 110.84 178.17 110.34 174.84 102.24 167.03 97.02 158.26 97.02 149.5 97.02 141.69 102.24 138.37 110.34 138.1 111 137.34 111.31 136.68 111.04 136.02 110.77 135.71 110.02 135.98 109.36 139.71 100.29 148.45 94.44 158.26 94.44 168.08 94.44 176.83 100.29 180.55 109.36 180.82 110.02 180.51 110.77 179.85 111.04 179.69 111.1 179.52 111.14 179.36 111.14ZM 183.37 85.04C 183.37 85.04 181.39 85.04 181.39 85.04 181.11 85.04 180.88 84.81 180.88 84.53 180.88 84.25 181.11 84.02 181.39 84.02 181.39 84.02 183.37 84.02 183.37 84.02 183.66 84.02 183.89 84.25 183.89 84.53 183.89 84.81 183.66 85.04 183.37 85.04ZM 182.75 87.19C 182.66 87.19 182.57 87.17 182.49 87.12 182.49 87.12 180.78 86.13 180.78 86.13 180.53 85.99 180.45 85.67 180.59 85.43 180.73 85.18 181.05 85.1 181.29 85.24 181.29 85.24 183.01 86.23 183.01 86.23 183.25 86.37 183.34 86.69 183.2 86.93 183.1 87.1 182.93 87.19 182.75 87.19ZM 181.04 83.89C 180.86 83.89 180.68 83.8 180.59 83.63 180.45 83.39 180.53 83.07 180.78 82.93 180.78 82.93 182.49 81.94 182.49 81.94 182.74 81.8 183.05 81.88 183.2 82.13 183.34 82.37 183.25 82.69 183.01 82.83 183.01 82.83 181.29 83.82 181.29 83.82 181.21 83.87 181.12 83.89 181.04 83.89ZM 135.14 85.04C 135.14 85.04 133.16 85.04 133.16 85.04 132.87 85.04 132.64 84.81 132.64 84.53 132.64 84.25 132.87 84.02 133.16 84.02 133.16 84.02 135.14 84.02 135.14 84.02 135.42 84.02 135.65 84.25 135.65 84.53 135.65 84.81 135.42 85.04 135.14 85.04ZM 133.78 87.19C 133.6 87.19 133.43 87.1 133.34 86.93 133.19 86.69 133.28 86.37 133.52 86.23 133.52 86.23 135.24 85.24 135.24 85.24 135.48 85.1 135.8 85.18 135.94 85.43 136.08 85.67 136 85.99 135.75 86.13 135.75 86.13 134.04 87.12 134.04 87.12 133.96 87.17 133.87 87.19 133.78 87.19ZM 135.5 83.89C 135.41 83.89 135.32 83.87 135.24 83.82 135.24 83.82 133.52 82.83 133.52 82.83 133.28 82.69 133.19 82.37 133.34 82.13 133.48 81.88 133.79 81.8 134.04 81.94 134.04 81.94 135.75 82.93 135.75 82.93 136 83.07 136.08 83.39 135.94 83.63 135.85 83.8 135.67 83.89 135.5 83.89ZM 167.55 70.48C 167.43 70.48 167.32 70.46 167.21 70.4 164.41 69.02 161.4 68.32 158.26 68.32 155.13 68.32 152.12 69.02 149.32 70.4 148.94 70.59 148.48 70.44 148.29 70.05 148.1 69.67 148.25 69.21 148.64 69.02 151.65 67.53 154.89 66.78 158.26 66.78 161.64 66.78 164.88 67.53 167.89 69.02 168.28 69.21 168.43 69.67 168.24 70.05 168.11 70.33 167.83 70.48 167.55 70.48ZM 40.87 194.52C 32.56 194.52 24.73 191.31 18.82 185.49 12.8 179.55 9.48 171.63 9.48 163.18 9.48 145.89 23.56 131.83 40.87 131.83 58.18 131.83 72.26 145.89 72.26 163.18 72.26 171.63 68.94 179.55 62.91 185.49 57 191.31 49.17 194.52 40.87 194.52ZM 40.87 134.41C 24.98 134.41 12.06 147.31 12.06 163.18 12.06 170.93 15.11 178.21 20.64 183.65 26.06 189 33.25 191.94 40.87 191.94 48.49 191.94 55.67 189 61.1 183.65 66.63 178.21 69.67 170.93 69.67 163.18 69.67 147.31 56.75 134.41 40.87 134.41ZM 7.56 171.25C 3.39 171.25-0 167.86-0 163.7-0 159.53 3.39 156.14 7.56 156.14 8.73 156.14 9.85 156.4 10.89 156.91 11.53 157.23 11.8 158 11.49 158.64 11.17 159.28 10.4 159.54 9.76 159.23 9.07 158.89 8.33 158.72 7.56 158.72 4.82 158.72 2.58 160.95 2.58 163.7 2.58 166.44 4.82 168.67 7.56 168.67 8.46 168.67 9.34 168.43 10.11 167.97 10.72 167.61 11.51 167.81 11.88 168.42 12.24 169.03 12.04 169.82 11.43 170.19 10.26 170.88 8.93 171.25 7.56 171.25ZM 74.17 171.25C 72.81 171.25 71.47 170.88 70.31 170.19 69.69 169.82 69.49 169.03 69.86 168.42 70.22 167.81 71.01 167.61 71.63 167.97 72.4 168.43 73.27 168.67 74.17 168.67 76.92 168.67 79.15 166.44 79.15 163.7 79.15 160.95 76.92 158.72 74.17 158.72 73.4 158.72 72.67 158.89 71.98 159.23 71.34 159.55 70.56 159.28 70.25 158.64 69.94 158 70.2 157.23 70.84 156.91 71.88 156.4 73 156.14 74.17 156.14 78.34 156.14 81.73 159.53 81.73 163.7 81.73 167.86 78.34 171.25 74.17 171.25ZM 44.57 173.23C 44.24 173.23 43.91 173.11 43.65 172.85 43.15 172.35 43.15 171.53 43.65 171.03 44.4 170.29 44.81 169.3 44.81 168.25 44.81 167.2 44.4 166.21 43.65 165.47 42.12 163.93 39.62 163.93 38.08 165.47 36.55 167 36.55 169.5 38.08 171.03 38.59 171.53 38.59 172.35 38.08 172.85 37.58 173.36 36.76 173.36 36.25 172.85 33.71 170.32 33.71 166.18 36.25 163.64 38.8 161.1 42.94 161.1 45.48 163.64 46.71 164.87 47.39 166.51 47.39 168.25 47.39 169.99 46.71 171.62 45.48 172.85 45.23 173.11 44.9 173.23 44.57 173.23ZM 40.87 163.91C 40.15 163.91 39.58 163.33 39.58 162.62 39.58 162.62 39.58 152.41 39.58 152.41 39.58 151.7 40.15 151.12 40.87 151.12 41.58 151.12 42.16 151.7 42.16 152.41 42.16 152.41 42.16 162.62 42.16 162.62 42.16 163.33 41.58 163.91 40.87 163.91ZM 40.87 185.18C 37.75 185.18 35.03 183.18 34.1 180.21 33.89 179.53 34.27 178.81 34.96 178.59 35.63 178.39 36.36 178.76 36.57 179.44 37.16 181.33 38.89 182.6 40.87 182.6 42.82 182.6 44.54 181.35 45.14 179.5 45.36 178.82 46.09 178.45 46.77 178.67 47.45 178.89 47.82 179.62 47.6 180.3 46.65 183.22 43.94 185.18 40.87 185.18ZM 56.78 164.98C 56.06 164.98 55.49 164.4 55.49 163.69 55.49 163.69 55.49 159.89 55.49 159.89 55.49 159.18 56.06 158.6 56.78 158.6 57.49 158.6 58.07 159.18 58.07 159.89 58.07 159.89 58.07 163.69 58.07 163.69 58.07 164.4 57.49 164.98 56.78 164.98ZM 24.96 164.98C 24.24 164.98 23.66 164.4 23.66 163.69 23.66 163.69 23.66 159.89 23.66 159.89 23.66 159.18 24.24 158.6 24.96 158.6 25.67 158.6 26.25 159.18 26.25 159.89 26.25 159.89 26.25 163.69 26.25 163.69 26.25 164.4 25.67 164.98 24.96 164.98ZM 40.87 134.23C 40.15 134.23 39.58 133.65 39.58 132.94 39.58 132.94 39.58 127.04 39.58 127.04 39.58 126.32 40.15 125.75 40.87 125.75 41.58 125.75 42.16 126.32 42.16 127.04 42.16 127.04 42.16 132.94 42.16 132.94 42.16 133.65 41.58 134.23 40.87 134.23ZM 30.76 135.96C 30.24 135.96 29.75 135.64 29.55 135.12 29.55 135.12 27.47 129.57 27.47 129.57 27.22 128.91 27.56 128.16 28.23 127.91 28.9 127.66 29.64 128 29.89 128.67 29.89 128.67 31.97 134.21 31.97 134.21 32.22 134.88 31.88 135.63 31.22 135.88 31.07 135.93 30.91 135.96 30.76 135.96ZM 21.88 140.93C 21.51 140.93 21.15 140.78 20.9 140.49 20.9 140.49 16.99 135.97 16.99 135.97 16.52 135.43 16.58 134.61 17.12 134.14 17.66 133.68 18.47 133.74 18.94 134.28 18.94 134.28 22.85 138.8 22.85 138.8 23.32 139.34 23.26 140.15 22.72 140.62 22.48 140.83 22.18 140.93 21.88 140.93ZM 15.28 148.55C 15.06 148.55 14.85 148.5 14.65 148.39 14.65 148.39 10.86 146.27 10.86 146.27 9.4 145.45 8.81 143.63 9.52 142.11 10.61 139.76 13.19 135.23 18.16 131.33 24.19 126.6 31.83 124.2 40.87 124.2 49.9 124.2 57.54 126.6 63.58 131.33 68.54 135.23 71.12 139.76 72.22 142.11 72.92 143.63 72.34 145.45 70.88 146.27 70.88 146.27 67.09 148.39 67.09 148.39 66.47 148.74 65.68 148.52 65.33 147.89 64.98 147.27 65.2 146.49 65.82 146.14 65.82 146.14 69.62 144.02 69.62 144.02 69.9 143.85 70.02 143.5 69.88 143.2 67.58 138.26 60.14 126.78 40.87 126.78 21.59 126.78 14.16 138.26 11.86 143.2 11.72 143.5 11.83 143.85 12.12 144.02 12.12 144.02 15.91 146.14 15.91 146.14 16.53 146.49 16.76 147.27 16.41 147.89 16.17 148.32 15.73 148.55 15.28 148.55ZM 50.97 135.96C 50.82 135.96 50.67 135.93 50.52 135.88 49.85 135.63 49.51 134.88 49.76 134.21 49.76 134.21 51.84 128.67 51.84 128.67 52.1 128 52.84 127.66 53.51 127.91 54.18 128.16 54.52 128.91 54.27 129.57 54.27 129.57 52.18 135.12 52.18 135.12 51.99 135.64 51.5 135.96 50.97 135.96ZM 59.86 140.93C 59.56 140.93 59.26 140.83 59.01 140.62 58.47 140.15 58.42 139.34 58.88 138.8 58.88 138.8 62.79 134.28 62.79 134.28 63.26 133.74 64.08 133.68 64.62 134.14 65.16 134.61 65.22 135.43 64.75 135.97 64.75 135.97 60.84 140.49 60.84 140.49 60.58 140.78 60.22 140.93 59.86 140.93ZM 24.96 172.59C 19.45 172.59 14.97 168.12 14.97 162.62 14.97 154.05 16.37 152.65 24.96 152.65 33.45 152.65 34.94 154.14 34.94 162.62 34.94 168.12 30.46 172.59 24.96 172.59ZM 24.96 155.23C 17.83 155.23 17.56 155.51 17.56 162.62 17.56 166.7 20.88 170.01 24.96 170.01 29.04 170.01 32.36 166.7 32.36 162.62 32.36 155.58 32.01 155.23 24.96 155.23ZM 56.78 172.59C 51.27 172.59 46.79 168.12 46.79 162.62 46.79 154.14 48.29 152.65 56.78 152.65 65.36 152.65 66.76 154.05 66.76 162.62 66.76 168.12 62.28 172.59 56.78 172.59ZM 56.78 155.23C 49.72 155.23 49.38 155.58 49.38 162.62 49.38 166.7 52.7 170.01 56.78 170.01 60.86 170.01 64.18 166.7 64.18 162.62 64.18 155.51 63.9 155.23 56.78 155.23ZM 48.83 157.64C 48.78 157.64 48.73 157.63 48.68 157.63 48.68 157.63 46.72 157.39 46.72 157.39 42.84 156.93 38.9 156.93 35.01 157.39 35.01 157.39 33.06 157.63 33.06 157.63 32.35 157.71 31.7 157.21 31.62 156.5 31.54 155.79 32.04 155.15 32.75 155.06 32.75 155.06 34.71 154.83 34.71 154.83 38.79 154.34 42.94 154.34 47.03 154.83 47.03 154.83 48.99 155.06 48.99 155.06 49.69 155.15 50.2 155.79 50.12 156.5 50.04 157.15 49.48 157.64 48.83 157.64ZM 16.8 157.09C 16.8 157.09 11.38 157.09 11.38 157.09 10.67 157.09 10.09 156.51 10.09 155.8 10.09 155.09 10.67 154.51 11.38 154.51 11.38 154.51 16.8 154.51 16.8 154.51 17.52 154.51 18.1 155.09 18.1 155.8 18.1 156.51 17.52 157.09 16.8 157.09ZM 70.36 157.09C 70.36 157.09 64.93 157.09 64.93 157.09 64.22 157.09 63.64 156.51 63.64 155.8 63.64 155.09 64.22 154.51 64.93 154.51 64.93 154.51 70.36 154.51 70.36 154.51 71.07 154.51 71.65 155.09 71.65 155.8 71.65 156.51 71.07 157.09 70.36 157.09ZM 117.61 225C 99.91 225 85.52 210.63 85.52 192.96 85.52 175.29 99.91 160.91 117.61 160.91 135.3 160.91 149.7 175.29 149.7 192.96 149.7 210.63 135.3 225 117.61 225ZM 117.61 163.91C 101.57 163.91 88.52 176.94 88.52 192.96 88.52 208.97 101.57 222 117.61 222 133.64 222 146.69 208.97 146.69 192.96 146.69 176.94 133.64 163.91 117.61 163.91ZM 117.61 216.78C 111.5 216.78 105.39 214.45 100.73 209.81 100.15 209.22 100.15 208.27 100.73 207.69 101.32 207.1 102.27 207.1 102.86 207.69 110.99 215.81 124.22 215.81 132.36 207.69 132.94 207.1 133.89 207.1 134.48 207.69 135.07 208.27 135.07 209.22 134.48 209.81 129.83 214.45 123.72 216.78 117.61 216.78ZM 120.18 202C 119.79 202 119.41 201.86 119.12 201.56 118.53 200.98 118.53 200.03 119.12 199.44 119.95 198.61 119.95 197.26 119.12 196.43 118.28 195.6 116.93 195.6 116.1 196.43 115.27 197.26 115.27 198.61 116.1 199.44 116.68 200.03 116.68 200.98 116.1 201.56 115.51 202.15 114.56 202.15 113.97 201.56 111.97 199.56 111.97 196.31 113.97 194.31 115.98 192.31 119.24 192.31 121.24 194.31 123.24 196.31 123.24 199.56 121.24 201.56 120.95 201.86 120.56 202 120.18 202ZM 117.61 195.18C 116.78 195.18 116.1 194.51 116.1 193.68 116.1 193.68 116.1 187.6 116.1 187.6 116.1 186.77 116.78 186.1 117.61 186.1 118.44 186.1 119.11 186.77 119.11 187.6 119.11 187.6 119.11 193.68 119.11 193.68 119.11 194.51 118.44 195.18 117.61 195.18ZM 152.3 204.19C 150.7 204.19 149.14 203.76 147.77 202.95 147.06 202.53 146.83 201.61 147.25 200.89 147.68 200.18 148.6 199.95 149.31 200.37 150.21 200.91 151.24 201.19 152.3 201.19 155.52 201.19 158.14 198.58 158.14 195.36 158.14 192.14 155.52 189.52 152.3 189.52 151.39 189.52 150.53 189.72 149.73 190.12 148.98 190.48 148.08 190.18 147.71 189.43 147.35 188.69 147.66 187.79 148.4 187.42 149.62 186.83 150.93 186.52 152.3 186.52 157.18 186.52 161.14 190.49 161.14 195.36 161.14 200.23 157.18 204.19 152.3 204.19ZM 82.92 204.19C 78.04 204.19 74.07 200.23 74.07 195.36 74.07 190.49 78.04 186.52 82.92 186.52 84.28 186.52 85.59 186.83 86.81 187.42 87.56 187.79 87.86 188.69 87.5 189.43 87.13 190.18 86.23 190.48 85.49 190.12 84.68 189.72 83.82 189.52 82.92 189.52 79.69 189.52 77.07 192.14 77.07 195.36 77.07 198.58 79.69 201.19 82.92 201.19 83.97 201.19 85 200.91 85.9 200.37 86.61 199.95 87.54 200.18 87.96 200.89 88.39 201.61 88.15 202.53 87.44 202.95 86.08 203.76 84.51 204.19 82.92 204.19ZM 111.03 192.29C 106.57 192.29 102.95 188.67 102.95 184.22 102.95 184.22 102.95 165.6 102.95 165.6 102.95 164.77 103.62 164.1 104.45 164.1 105.28 164.1 105.95 164.77 105.95 165.6 105.95 165.6 105.95 184.22 105.95 184.22 105.95 187.01 108.23 189.29 111.03 189.29 113.83 189.29 116.1 187.01 116.1 184.22 116.1 184.22 116.1 163.61 116.1 163.61 116.1 162.79 116.78 162.11 117.61 162.11 118.44 162.11 119.11 162.79 119.11 163.61 119.11 163.61 119.11 184.22 119.11 184.22 119.11 188.67 115.48 192.29 111.03 192.29ZM 124.18 192.29C 119.73 192.29 116.1 188.67 116.1 184.22 116.1 183.39 116.78 182.72 117.61 182.72 118.44 182.72 119.11 183.39 119.11 184.22 119.11 187.01 121.39 189.29 124.18 189.29 126.98 189.29 129.26 187.01 129.26 184.22 129.26 184.22 129.26 165.6 129.26 165.6 129.26 164.77 129.93 164.1 130.76 164.1 131.59 164.1 132.27 164.77 132.27 165.6 132.27 165.6 132.27 184.22 132.27 184.22 132.27 188.67 128.64 192.29 124.18 192.29ZM 137.34 192.29C 132.89 192.29 129.26 188.67 129.26 184.22 129.26 183.39 129.93 182.72 130.76 182.72 131.59 182.72 132.27 183.39 132.27 184.22 132.27 187.01 134.54 189.29 137.34 189.29 140.14 189.29 142.42 187.01 142.42 184.22 142.42 184.22 142.42 177.78 142.42 177.78 142.42 176.95 143.09 176.27 143.92 176.27 144.75 176.27 145.42 176.95 145.42 177.78 145.42 177.78 145.42 184.22 145.42 184.22 145.42 188.67 141.8 192.29 137.34 192.29ZM 97.87 192.29C 93.42 192.29 89.79 188.67 89.79 184.22 89.79 184.22 89.79 177.78 89.79 177.78 89.79 176.95 90.47 176.27 91.3 176.27 92.12 176.27 92.8 176.95 92.8 177.78 92.8 177.78 92.8 184.22 92.8 184.22 92.8 187.01 95.07 189.29 97.87 189.29 100.67 189.29 102.95 187.01 102.95 184.22 102.95 183.39 103.62 182.72 104.45 182.72 105.28 182.72 105.95 183.39 105.95 184.22 105.95 188.67 102.33 192.29 97.87 192.29Z" fill="rgb(0,113,255)"/></svg>