<?xml version="1.0" encoding="utf-8"?>
<svg xmlns="http://www.w3.org/2000/svg"
	xmlns:xlink="http://www.w3.org/1999/xlink"
	width="17px" height="17px" viewBox="0 0 17 17">
<path fillRule="evenodd" d="M 16.72 6.89C 16.72 6.89 10.28 6.89 10.28 6.89 10.28 6.89 10.28 0.44 10.28 0.44 10.28 0.44 7.21 0.44 7.21 0.44 7.21 0.44 7.21 6.89 7.21 6.89 7.21 6.89 0.77 6.89 0.77 6.89 0.77 6.89 0.77 9.95 0.77 9.95 0.77 9.95 7.21 9.95 7.21 9.95 7.21 9.95 7.21 16.4 7.21 16.4 7.21 16.4 10.28 16.4 10.28 16.4 10.28 16.4 10.28 9.95 10.28 9.95 10.28 9.95 16.72 9.95 16.72 9.95 16.72 9.95 16.72 6.89 16.72 6.89Z" fill="rgb(0,113,255)"/></svg>