<svg width="19" height="19" viewBox="0 0 19 19" fill="none" xmlns="http://www.w3.org/2000/svg">
<path id="Draw" d="M11.4566 3.70706L13.784 1.37957C13.9744 1.18928 14.2325 1.08238 14.5017 1.08238C14.7708 1.08238 15.029 1.18928 15.2193 1.37957L17.8442 4.00447C18.0345 4.19481 18.1414 4.45295 18.1414 4.7221C18.1414 4.99125 18.0345 5.24938 17.8442 5.43973L15.5167 7.76722M11.4566 3.70706L1.60356 13.5601C1.41319 13.7504 1.30621 14.0085 1.30615 14.2777V16.9026C1.30615 17.1718 1.41309 17.43 1.60345 17.6203C1.79381 17.8107 2.05199 17.9176 2.32119 17.9176H4.94609C5.21527 17.9176 5.47341 17.8106 5.66372 17.6202L15.5167 7.76722M11.4566 3.70706L15.5167 7.76722" stroke="#7CDFF2" stroke-width="1.5" stroke-linecap="round" stroke-linejoin="round"/>
</svg>
