<svg width="19" height="19" viewBox="0 0 19 19" fill="none" xmlns="http://www.w3.org/2000/svg">
<g transform="translate(1,0)">
<path id="Text" d="M3.97344 12.4524H11.7675M3.97344 9.39141H13.3263M3.97344 6.33045H7.87048M10.2087 0.973785V4.33045C10.2087 5.43502 11.1041 6.33045 12.2087 6.33045H15.6646M15.6646 15.809V6.40441C15.6646 5.86762 15.4488 5.35336 15.0658 4.97728L11.5716 1.54666C11.1976 1.17949 10.6945 0.973785 10.1704 0.973785H3.63521C2.53064 0.973785 1.63521 1.86921 1.63521 2.97378V15.809C1.63521 16.9136 2.53064 17.809 3.63521 17.809H13.6646C14.7691 17.809 15.6646 16.9136 15.6646 15.809Z" stroke="#F1AE45" stroke-width="1.5"/>
</g>
</svg>
