<svg width="40" height="40" viewBox="0 0 40 40" fill="none" xmlns="http://www.w3.org/2000/svg">
<g>
<path id="Vector" d="M12.3357 12.3357C12.4418 12.2293 12.5679 12.1449 12.7067 12.0873C12.8455 12.0296 12.9944 12 13.1447 12C13.2949 12 13.4438 12.0296 13.5826 12.0873C13.7214 12.1449 13.8475 12.2293 13.9536 12.3357L20.0003 18.3847L26.047 12.3357C26.1532 12.2294 26.2793 12.1452 26.4181 12.0877C26.5569 12.0302 26.7057 12.0006 26.8559 12.0006C27.0062 12.0006 27.155 12.0302 27.2938 12.0877C27.4326 12.1452 27.5587 12.2294 27.6649 12.3357C27.7712 12.4419 27.8554 12.568 27.9129 12.7068C27.9704 12.8456 28 12.9944 28 13.1447C28 13.2949 27.9704 13.4437 27.9129 13.5825C27.8554 13.7213 27.7712 13.8474 27.6649 13.9536L21.6159 20.0003L27.6649 26.047C27.7712 26.1532 27.8554 26.2793 27.9129 26.4181C27.9704 26.5569 28 26.7057 28 26.8559C28 27.0062 27.9704 27.155 27.9129 27.2938C27.8554 27.4326 27.7712 27.5587 27.6649 27.6649C27.5587 27.7712 27.4326 27.8554 27.2938 27.9129C27.155 27.9704 27.0062 28 26.8559 28C26.7057 28 26.5569 27.9704 26.4181 27.9129C26.2793 27.8554 26.1532 27.7712 26.047 27.6649L20.0003 21.6159L13.9536 27.6649C13.8474 27.7712 13.7213 27.8554 13.5825 27.9129C13.4437 27.9704 13.2949 28 13.1447 28C12.9944 28 12.8456 27.9704 12.7068 27.9129C12.568 27.8554 12.4419 27.7712 12.3357 27.6649C12.2294 27.5587 12.1452 27.4326 12.0877 27.2938C12.0302 27.155 12.0006 27.0062 12.0006 26.8559C12.0006 26.7057 12.0302 26.5569 12.0877 26.4181C12.1452 26.2793 12.2294 26.1532 12.3357 26.047L18.3847 20.0003L12.3357 13.9536C12.2293 13.8475 12.1449 13.7214 12.0873 13.5826C12.0296 13.4438 12 13.2949 12 13.1447C12 12.9944 12.0296 12.8455 12.0873 12.7067C12.1449 12.5679 12.2293 12.4418 12.3357 12.3357Z" fill="#5C5C5C" stroke="#5C5C5C" stroke-width="0.5"/>
</g>
</svg>
