<svg width="40" height="41" viewBox="0 0 40 41" fill="none" xmlns="http://www.w3.org/2000/svg">
<g id="Copy">
<path id="Copy icon" d="M14.6 28.5C14.16 28.5 13.7832 28.3432 13.4696 28.0296C13.156 27.716 12.9995 27.3395 13 26.9V16.5C13 16.2733 13.0768 16.0832 13.2304 15.9296C13.384 15.776 13.5739 15.6995 13.8 15.7C14.0267 15.7 14.2168 15.7768 14.3704 15.9304C14.524 16.084 14.6005 16.2739 14.6 16.5V26.9H22.6C22.8267 26.9 23.0168 26.9768 23.1704 27.1304C23.324 27.284 23.4005 27.4739 23.4 27.7C23.4 27.9267 23.3232 28.1168 23.1696 28.2704C23.016 28.424 22.8261 28.5005 22.6 28.5H14.6ZM17.8 25.3C17.36 25.3 16.9832 25.1432 16.6696 24.8296C16.356 24.516 16.1995 24.1395 16.2 23.7V14.1C16.2 13.66 16.3568 13.2832 16.6704 12.9696C16.984 12.656 17.3605 12.4995 17.8 12.5H25C25.44 12.5 25.8168 12.6568 26.1304 12.9704C26.444 13.284 26.6005 13.6605 26.6 14.1V23.7C26.6 24.14 26.4432 24.5168 26.1296 24.8304C25.816 25.144 25.4395 25.3005 25 25.3H17.8ZM17.8 23.7H25V14.1H17.8V23.7Z" fill="#5C5C5C"/>
</g>
</svg>
