<svg width="16" height="17" viewBox="0 0 16 17" fill="none" xmlns="http://www.w3.org/2000/svg">
<g id="Delete Icon">
<path id="Vector" d="M2.80774 2.80768L3.52889 14.3461C3.56315 15.0128 4.04812 15.5 4.68274 15.5H11.3174C11.9545 15.5 12.4305 15.0128 12.4712 14.3461L13.1924 2.80768" stroke="#5C5C5C" stroke-width="1.5" stroke-linecap="round" stroke-linejoin="round"/>
<path id="Vector_2" d="M1.65387 2.80768H14.3462" stroke="#5C5C5C" stroke-width="1.5" stroke-miterlimit="10" stroke-linecap="round"/>
<path id="Vector_3" d="M5.69233 2.8077V1.36539C5.692 1.25165 5.71415 1.13897 5.75753 1.03383C5.8009 0.928682 5.86463 0.833151 5.94505 0.752726C6.02548 0.672301 6.12101 0.60857 6.22615 0.565199C6.3313 0.521827 6.44398 0.499671 6.55772 0.500004H9.44233C9.55607 0.499671 9.66875 0.521827 9.77389 0.565199C9.87904 0.60857 9.97457 0.672301 10.055 0.752726C10.1354 0.833151 10.1991 0.928682 10.2425 1.03383C10.2859 1.13897 10.308 1.25165 10.3077 1.36539V2.8077M8.00002 5.11539V13.1923M5.40387 5.11539L5.69233 13.1923M10.5962 5.11539L10.3077 13.1923" stroke="#5C5C5C" stroke-linecap="round" stroke-linejoin="round"/>
</g>
</svg>
