<svg width="39" height="40" viewBox="0 0 39 40" fill="none" xmlns="http://www.w3.org/2000/svg">
<path id="Question" d="M17.4857 32H21.3714V28H17.4857V32ZM19.4286 0C16.8772 0 14.3508 0.517315 11.9936 1.52241C9.6364 2.5275 7.49461 4.00069 5.6905 5.85786C2.04693 9.60859 0 14.6957 0 20C0 25.3043 2.04693 30.3914 5.6905 34.1421C7.49461 35.9993 9.6364 37.4725 11.9936 38.4776C14.3508 39.4827 16.8772 40 19.4286 40C24.5814 40 29.5231 37.8929 33.1666 34.1421C36.8102 30.3914 38.8571 25.3043 38.8571 20C38.8571 17.3736 38.3546 14.7728 37.3782 12.3463C36.4019 9.91982 34.9708 7.71504 33.1666 5.85786C31.3625 4.00069 29.2207 2.5275 26.8636 1.52241C24.5064 0.517315 21.98 0 19.4286 0ZM19.4286 36C10.8606 36 3.88571 28.82 3.88571 20C3.88571 11.18 10.8606 4 19.4286 4C27.9966 4 34.9714 11.18 34.9714 20C34.9714 28.82 27.9966 36 19.4286 36ZM19.4286 8C17.3675 8 15.3908 8.84285 13.9333 10.3431C12.4759 11.8434 11.6571 13.8783 11.6571 16H15.5429C15.5429 14.9391 15.9522 13.9217 16.681 13.1716C17.4097 12.4214 18.398 12 19.4286 12C20.4591 12 21.4475 12.4214 22.1762 13.1716C22.9049 13.9217 23.3143 14.9391 23.3143 16C23.3143 20 17.4857 19.5 17.4857 26H21.3714C21.3714 21.5 27.2 21 27.2 16C27.2 13.8783 26.3812 11.8434 24.9238 10.3431C23.4664 8.84285 21.4897 8 19.4286 8Z" fill="#52DB72"/>
</svg>
