<svg width="43" height="43" viewBox="0 0 43 43" fill="none" xmlns="http://www.w3.org/2000/svg">
<path id="Draw" d="M25.5141 8.08025L30.9059 2.68846C31.3468 2.24764 31.9448 2 32.5683 2C33.1919 2 33.7898 2.24764 34.2308 2.68846L40.3115 8.76921C40.7524 9.21016 41 9.80815 41 10.4317C41 11.0552 40.7524 11.6531 40.3115 12.0941L34.9198 17.4859M25.5141 8.08025L2.68896 30.9054C2.24796 31.3463 2.00013 31.9443 2 32.5678V38.6486C2 39.2722 2.24774 39.8703 2.68871 40.3113C3.12969 40.7523 3.72778 41 4.35141 41H10.4322C11.0557 40.9999 11.6537 40.752 12.0946 40.311L34.9198 17.4859M25.5141 8.08025L34.9198 17.4859" stroke="#7CDFF2" stroke-width="2.5" stroke-linecap="round" stroke-linejoin="round"/>
</svg>
